<?xml version="1.0" encoding="UTF-8" standalone="no"?>
<!-- Generator: Adobe Illustrator 16.0.0, SVG Export Plug-In . SVG Version: 6.00 Build 0)  -->

<svg
   xmlns:dc="http://purl.org/dc/elements/1.1/"
   xmlns:cc="http://creativecommons.org/ns#"
   xmlns:rdf="http://www.w3.org/1999/02/22-rdf-syntax-ns#"
   xmlns:svg="http://www.w3.org/2000/svg"
   xmlns="http://www.w3.org/2000/svg"
   xmlns:sodipodi="http://sodipodi.sourceforge.net/DTD/sodipodi-0.dtd"
   xmlns:inkscape="http://www.inkscape.org/namespaces/inkscape"
   version="1.1"
   id="图层_1"
   x="0px"
   y="0px"
   width="139.76401"
   height="200"
   viewBox="0 0 139.764 200"
   enable-background="new 0 0 714 341"
   xml:space="preserve"
   sodipodi:docname="0106四萬.svg"
   inkscape:version="0.92.3 (2405546, 2018-03-11)"><metadata
   id="metadata621"><rdf:RDF><cc:Work
       rdf:about=""><dc:format>image/svg+xml</dc:format><dc:type
         rdf:resource="http://purl.org/dc/dcmitype/StillImage" /><dc:title /></cc:Work></rdf:RDF></metadata><defs
   id="defs619" /><sodipodi:namedview
   pagecolor="#ffffff"
   bordercolor="#666666"
   borderopacity="1"
   objecttolerance="10"
   gridtolerance="10"
   guidetolerance="10"
   inkscape:pageopacity="0"
   inkscape:pageshadow="2"
   inkscape:window-width="1366"
   inkscape:window-height="705"
   id="namedview617"
   showgrid="false"
   inkscape:zoom="1"
   inkscape:cx="-81.66014"
   inkscape:cy="152.60966"
   inkscape:window-x="-8"
   inkscape:window-y="-8"
   inkscape:window-maximized="1"
   inkscape:current-layer="图层_1" />



















































































































































































































































































































<g
   transform="matrix(4.0332338,0,0,4.0332338,-837.84786,-33.177379)"
   id="g1521"><path
     inkscape:connector-curvature="0"
     id="path38"
     d="M 242.389,11.811 V 54.23 c 0,0.995 -0.35,1.842 -1.046,2.539 -0.697,0.696 -1.544,1.045 -2.54,1.045 H 211.32 c -0.996,0 -1.842,-0.349 -2.539,-1.045 -0.697,-0.697 -1.045,-1.544 -1.045,-2.539 V 11.811 c 0,-0.995 0.348,-1.842 1.045,-2.539 0.697,-0.697 1.543,-1.046 2.539,-1.046 h 27.483 c 0.996,0 1.842,0.349 2.54,1.046 0.696,0.697 1.046,1.543 1.046,2.539 z m -3.586,-1.793 H 211.32 c -0.518,0 -0.946,0.17 -1.284,0.508 -0.339,0.339 -0.508,0.768 -0.508,1.285 V 54.23 c 0,0.517 0.169,0.946 0.508,1.285 0.338,0.338 0.766,0.508 1.284,0.508 h 27.483 c 0.518,0 0.946,-0.17 1.285,-0.508 0.338,-0.339 0.508,-0.768 0.508,-1.285 V 11.811 c 0,-0.517 -0.169,-0.946 -0.508,-1.285 -0.339,-0.338 -0.767,-0.508 -1.285,-0.508 z" /><path
     inkscape:connector-curvature="0"
     id="path40"
     d="m 220.043,24.955 c 0.079,-0.12 0.169,-0.259 0.269,-0.418 0.099,-0.159 0.179,-0.299 0.239,-0.418 0.06,-0.12 0.149,-0.239 0.269,-0.359 0.119,-0.119 0.239,-0.218 0.358,-0.298 0.199,-0.159 0.389,-0.259 0.568,-0.299 0.179,-0.039 0.408,-0.069 0.687,-0.09 0.278,-0.02 0.478,-0.049 0.598,-0.089 0.717,0.398 1.473,1.116 2.27,2.151 -0.04,0.2 -0.119,0.369 -0.239,0.508 -0.12,0.14 -0.309,0.349 -0.567,0.627 -0.26,0.279 -0.488,0.558 -0.687,0.836 -0.559,0 -1.843,0.329 -3.854,0.986 -2.012,0.657 -3.356,0.986 -4.033,0.986 -0.996,0 -1.613,-0.12 -1.852,-0.359 0.199,-0.199 0.617,-0.368 1.254,-0.508 0.637,-0.139 1.095,-0.269 1.375,-0.388 2.509,-0.916 3.764,-1.573 3.764,-1.972 -10e-4,-0.319 -0.141,-0.618 -0.419,-0.896 z" /><path
     inkscape:connector-curvature="0"
     id="path42"
     d="m 228.109,20.474 c -0.04,0 -1.474,0.458 -4.301,1.374 -2.829,0.917 -4.601,1.374 -5.318,1.374 -0.319,0 -0.797,-0.128 -1.434,-0.388 -0.638,-0.258 -0.956,-0.448 -0.956,-0.567 0,-0.199 0.269,-0.389 0.807,-0.568 0.538,-0.179 0.946,-0.269 1.225,-0.269 0.079,0 0.248,0.01 0.508,0.03 0.258,0.021 0.448,0.03 0.567,0.03 0.995,0 2.07,-0.218 3.226,-0.657 0.12,-0.438 0.159,-0.677 0.12,-0.717 -0.2,-0.358 -0.657,-0.856 -1.375,-1.494 0,-0.995 -0.1,-1.733 -0.298,-2.211 0.159,-0.159 0.358,-0.427 0.597,-0.806 0.239,-0.378 0.418,-0.607 0.538,-0.688 0.119,-0.119 0.239,-0.199 0.358,-0.239 0.12,-0.039 0.318,-0.06 0.597,-0.06 0.278,0 0.498,-0.02 0.657,-0.06 1.076,1.156 1.613,2.052 1.613,2.689 0,0.518 -0.179,1.036 -0.538,1.553 -0.358,0.518 -0.538,0.876 -0.538,1.075 0,0.08 0.03,0.17 0.089,0.269 0.06,0.1 0.09,0.17 0.09,0.209 1.035,-0.358 2.031,-0.736 2.987,-1.135 0.956,-0.397 1.653,-0.687 2.091,-0.866 0.438,-0.179 0.777,-0.269 1.016,-0.269 0.199,0 0.468,0.06 0.807,0.179 0.338,0.119 0.766,0.279 1.285,0.478 0.517,0.199 0.935,0.358 1.254,0.478 0.08,0.04 0.229,0.11 0.448,0.209 0.219,0.1 0.368,0.17 0.448,0.209 0.079,0.04 0.209,0.1 0.388,0.179 0.179,0.08 0.299,0.149 0.358,0.209 0.06,0.06 0.139,0.13 0.239,0.209 0.099,0.08 0.169,0.16 0.209,0.239 0.04,0.08 0.079,0.17 0.12,0.269 0.039,0.1 0.06,0.209 0.06,0.328 0,0.478 -0.14,0.896 -0.419,1.255 -0.279,0.359 -0.618,0.538 -1.016,0.538 -0.239,0 -1.215,-0.397 -2.928,-1.195 -1.709,-0.795 -2.904,-1.193 -3.581,-1.193 z" /><path
     style="fill:#870000"
     inkscape:connector-curvature="0"
     id="path44"
     d="m 222.792,44.133 c -0.16,0 -0.478,0.1 -0.956,0.299 l -0.239,0.478 c -0.2,0.319 -0.379,0.558 -0.538,0.717 -0.598,-0.358 -0.896,-1.513 -0.896,-3.465 0,-1.513 0.08,-2.608 0.239,-3.286 1.473,-0.239 3.096,-0.598 4.869,-1.076 1.772,-0.478 2.877,-0.717 3.316,-0.717 0.836,0 1.255,0.279 1.255,0.836 l -0.418,1.553 c -0.279,1.036 -0.418,2.112 -0.418,3.227 0,0.637 0.039,1.314 0.12,2.031 0.756,0.04 1.573,0.16 2.449,0.358 0.875,0.2 1.782,0.598 2.718,1.195 0.936,0.598 1.404,1.295 1.404,2.091 0,0.678 -0.26,1.195 -0.777,1.553 -0.518,0.358 -1.175,0.538 -1.971,0.538 -0.2,0 -0.648,0.13 -1.344,0.389 -0.698,0.258 -1.225,0.388 -1.583,0.388 -0.518,0 -1.464,-0.269 -2.838,-0.807 -1.375,-0.538 -2.34,-0.986 -2.898,-1.344 -0.2,0.08 -0.409,0.209 -0.627,0.388 -0.219,0.18 -0.388,0.269 -0.508,0.269 -0.199,0 -0.836,-0.159 -1.912,-0.478 0,0.041 -0.01,0.16 -0.03,0.358 -0.021,0.2 -0.04,0.349 -0.06,0.448 -0.021,0.1 -0.04,0.219 -0.06,0.358 -0.021,0.14 -0.07,0.249 -0.149,0.329 -0.08,0.08 -0.179,0.12 -0.299,0.12 -0.119,0 -0.249,-0.08 -0.388,-0.239 -0.14,-0.159 -0.259,-0.368 -0.358,-0.627 -0.1,-0.258 -0.2,-0.508 -0.299,-0.747 -0.1,-0.239 -0.189,-0.498 -0.269,-0.777 -0.081,-0.278 -0.14,-0.457 -0.179,-0.538 h -0.717 c -0.757,0 -1.455,-0.12 -2.091,-0.358 -0.637,-0.239 -0.956,-0.577 -0.956,-1.016 0,-0.039 0.009,-0.099 0.03,-0.179 0.02,-0.08 0.03,-0.159 0.03,-0.239 0.358,0 0.856,0.04 1.494,0.12 0.637,0.08 1.135,0.12 1.494,0.12 h 0.239 c -0.041,-0.318 -0.12,-0.767 -0.239,-1.344 -0.12,-0.577 -0.219,-1.055 -0.298,-1.434 -0.081,-0.378 -0.12,-0.667 -0.12,-0.866 0,-0.079 0.08,-0.199 0.239,-0.358 0.478,0.08 0.826,0.309 1.045,0.687 0.219,0.379 0.408,0.906 0.568,1.583 0.159,0.678 0.358,1.235 0.597,1.673 0.557,0 1.314,-0.159 2.271,-0.478 0,-0.119 0.009,-0.397 0.03,-0.836 0.017,-0.439 0.028,-0.738 0.028,-0.897 z m 7.468,-8.185 c -1.195,0 -2.967,0.349 -5.317,1.045 -2.351,0.697 -3.904,1.045 -4.66,1.045 -2.39,0 -3.943,-0.438 -4.66,-1.314 0.717,-0.438 1.255,-0.657 1.613,-0.657 0.397,0 1.005,0.1 1.822,0.299 0.816,0.2 1.503,0.298 2.061,0.298 0.796,0 1.334,-0.079 1.613,-0.239 0.278,-0.159 0.418,-0.517 0.418,-1.076 0,-0.119 -0.11,-0.209 -0.328,-0.269 -0.22,-0.06 -0.369,-0.149 -0.448,-0.269 0,-0.159 0.03,-0.278 0.089,-0.358 0.06,-0.079 0.159,-0.188 0.299,-0.329 0.139,-0.139 0.249,-0.289 0.329,-0.448 0.08,-0.12 0.229,-0.368 0.448,-0.747 0.218,-0.378 0.397,-0.637 0.538,-0.777 0.139,-0.139 0.308,-0.209 0.508,-0.209 0.278,0 0.418,0.2 0.418,0.597 0,0.319 -0.03,0.648 -0.09,0.986 -0.06,0.339 -0.16,0.717 -0.299,1.135 -0.14,0.418 -0.229,0.747 -0.269,0.986 0.079,0.2 0.218,0.299 0.418,0.299 0.239,0 0.587,-0.458 1.045,-1.375 0.458,-0.916 0.688,-1.573 0.688,-1.971 0,-0.239 -0.13,-0.468 -0.389,-0.687 -0.259,-0.219 -0.429,-0.389 -0.508,-0.508 0.318,-0.717 1.016,-1.274 2.091,-1.673 0.796,0.279 1.195,1.016 1.195,2.21 0,0.398 -0.17,0.876 -0.508,1.434 -0.339,0.559 -0.528,1.076 -0.568,1.554 0.318,-0.04 0.756,-0.12 1.315,-0.239 0.557,-0.12 1.114,-0.209 1.672,-0.269 0.558,-0.06 1.155,-0.09 1.792,-0.09 1.274,0 2.011,0.14 2.21,0.418 -0.279,0.558 -0.716,0.977 -1.314,1.254 -0.516,-0.036 -1.591,-0.056 -3.224,-0.056 z m -9.559,11.65 c 0.159,0.398 0.299,0.717 0.418,0.956 0.558,-0.12 1.195,-0.338 1.912,-0.657 -0.2,-0.239 -0.299,-0.557 -0.299,-0.956 z m 0.896,-7.887 v 1.076 h 0.12 l 0.12,0.06 1.075,-0.179 c 0,-0.318 0.04,-0.717 0.12,-1.195 z m 1.195,1.972 c -0.239,0.041 -0.499,0.081 -0.777,0.12 -0.239,0 -0.369,0.021 -0.389,0.06 -0.021,0.041 -0.03,0.12 -0.03,0.239 0,0.08 0,0.16 0,0.239 0,0.081 0.009,0.219 0.03,0.418 0.02,0.2 0.03,0.339 0.03,0.418 0.199,0 0.577,-0.039 1.136,-0.119 z m 1.493,-2.509 c 0,0.2 -0.03,0.418 -0.089,0.658 -0.06,0.239 -0.09,0.438 -0.09,0.597 0.398,-0.08 0.856,-0.169 1.375,-0.269 0.517,-0.099 0.896,-0.169 1.135,-0.209 0,-0.199 0.01,-0.438 0.03,-0.717 0.019,-0.278 0.03,-0.498 0.03,-0.657 -0.359,0.08 -0.777,0.189 -1.255,0.329 -0.479,0.139 -0.858,0.229 -1.136,0.268 z m -0.179,2.27 v 1.314 c 0.558,-0.04 1.354,-0.219 2.39,-0.538 0,-0.598 0.02,-1.055 0.06,-1.375 -0.877,0.281 -1.694,0.48 -2.45,0.599 z m 0.12,2.39 v 1.613 c 0.875,-0.159 1.652,-0.378 2.33,-0.657 0,-0.677 -0.021,-1.195 -0.06,-1.553 -0.2,0.08 -0.548,0.179 -1.046,0.299 -0.498,0.119 -0.906,0.219 -1.224,0.298 z m 0.059,2.688 c 0,0.638 0.099,0.956 0.299,0.956 0.159,0 0.329,-0.03 0.508,-0.089 0.179,-0.06 0.418,-0.149 0.717,-0.269 0.299,-0.12 0.587,-0.218 0.867,-0.299 -0.081,-0.438 -0.1,-0.756 -0.06,-0.956 -0.24,0.041 -1.016,0.26 -2.331,0.657 z m 5.019,-0.716 c 0,0.081 0.03,0.26 0.09,0.538 0.06,0.279 0.089,0.519 0.089,0.717 0,0.2 -0.06,0.418 -0.179,0.657 -0.757,0.518 -1.494,0.776 -2.21,0.776 -0.04,-0.039 -0.1,-0.159 -0.179,-0.358 -0.08,-0.199 -0.14,-0.338 -0.179,-0.418 -0.239,0.08 -0.508,0.219 -0.807,0.418 -0.299,0.2 -0.548,0.339 -0.747,0.418 0.159,0.239 0.557,0.488 1.195,0.747 0.637,0.26 1.135,0.389 1.494,0.389 0.239,0 0.468,-0.05 0.687,-0.149 0.218,-0.099 0.458,-0.249 0.717,-0.448 0.259,-0.199 0.468,-0.338 0.627,-0.418 0.199,-0.08 0.587,-0.139 1.165,-0.18 0.577,-0.039 1.016,-0.149 1.314,-0.328 0.299,-0.18 0.448,-0.488 0.448,-0.926 0,-0.318 -0.418,-0.627 -1.254,-0.926 -0.836,-0.299 -1.594,-0.469 -2.271,-0.509 z" /><path
     inkscape:connector-curvature="0"
     id="path46"
     d="m 225.301,23.401 c 1.473,0 3.037,0.508 4.69,1.523 1.652,1.016 2.479,1.902 2.479,2.659 0,0.438 -0.119,0.876 -0.358,1.314 -0.239,0.439 -0.458,0.698 -0.658,0.777 -0.956,-0.517 -2.111,-1.453 -3.465,-2.808 -1.354,-1.353 -2.25,-2.509 -2.688,-3.465 z" /></g></svg>