<?xml version="1.0" encoding="UTF-8" standalone="no"?>
<!-- Generator: Adobe Illustrator 16.0.0, SVG Export Plug-In . SVG Version: 6.00 Build 0)  -->

<svg
   xmlns:dc="http://purl.org/dc/elements/1.1/"
   xmlns:cc="http://creativecommons.org/ns#"
   xmlns:rdf="http://www.w3.org/1999/02/22-rdf-syntax-ns#"
   xmlns:svg="http://www.w3.org/2000/svg"
   xmlns="http://www.w3.org/2000/svg"
   xmlns:sodipodi="http://sodipodi.sourceforge.net/DTD/sodipodi-0.dtd"
   xmlns:inkscape="http://www.inkscape.org/namespaces/inkscape"
   version="1.1"
   id="图层_1"
   x="0px"
   y="0px"
   width="139.76401"
   height="200"
   viewBox="0 0 139.764 200"
   enable-background="new 0 0 714 341"
   xml:space="preserve"
   sodipodi:docname="0501春.svg"
   inkscape:version="0.92.3 (2405546, 2018-03-11)"><metadata
   id="metadata621"><rdf:RDF><cc:Work
       rdf:about=""><dc:format>image/svg+xml</dc:format><dc:type
         rdf:resource="http://purl.org/dc/dcmitype/StillImage" /><dc:title /></cc:Work></rdf:RDF></metadata><defs
   id="defs619" /><sodipodi:namedview
   pagecolor="#ffffff"
   bordercolor="#666666"
   borderopacity="1"
   objecttolerance="10"
   gridtolerance="10"
   guidetolerance="10"
   inkscape:pageopacity="0"
   inkscape:pageshadow="2"
   inkscape:window-width="1366"
   inkscape:window-height="705"
   id="namedview617"
   showgrid="false"
   inkscape:zoom="1"
   inkscape:cx="-17.99666"
   inkscape:cy="112.60966"
   inkscape:window-x="-8"
   inkscape:window-y="-8"
   inkscape:window-maximized="1"
   inkscape:current-layer="图层_1" />



















































































































































































































































































































<g
   transform="matrix(4.0331525,0,0,4.0331525,-1886.4627,-881.46968)"
   id="g2005"><path
     style="fill:#a00283"
     inkscape:connector-curvature="0"
     id="path546"
     d="m 484.11,244.617 v -0.089 c 0,-0.059 0.073,-0.089 0.222,-0.089 l 0.178,-0.713 0.355,-0.356 c 0.477,-0.445 1.129,-0.683 1.959,-0.712 0.119,0 0.416,0.061 0.892,0.179 0.207,0.088 0.386,0.147 0.535,0.177 0.592,0.476 1.112,1.068 1.557,1.781 0.236,0.327 0.37,0.622 0.401,0.889 v 0.179 c 0.118,-0.118 0.236,-0.179 0.356,-0.179 0.236,-0.118 0.414,-0.177 0.533,-0.177 0.355,0 0.652,0.119 0.891,0.356 0.237,0.118 0.415,0.297 0.534,0.533 v 0.179 0.712 l -0.09,0.268 -0.089,0.267 -0.176,0.178 c -0.12,0 -0.179,0.061 -0.179,0.179 h 0.355 0.179 c 0.236,0.118 0.356,0.297 0.356,0.533 v 0.179 0.179 c 0,0.238 -0.061,0.415 -0.179,0.533 -0.118,0.12 -0.356,0.179 -0.712,0.179 -0.119,0 -0.193,-0.059 -0.222,-0.179 v -0.268 -0.266 c 0,-0.118 -0.046,-0.179 -0.135,-0.179 h -0.355 -0.356 c -0.355,0 -0.594,-0.118 -0.712,-0.356 l -0.179,-0.355 c 0,-0.118 0.118,-0.415 0.355,-0.891 l 0.18,-0.177 c 0.117,0 0.236,-0.059 0.355,-0.179 h 0.356 v -0.222 h 0.177 v -0.133 c 0,-0.238 -0.177,-0.356 -0.533,-0.356 -0.238,0 -0.416,0.06 -0.535,0.178 h -0.177 v 0.534 c 0,0.12 -0.031,0.209 -0.09,0.268 -0.059,0.06 -0.089,0.15 -0.089,0.268 -0.118,0.118 -0.238,0.178 -0.355,0.178 -0.12,0 -0.238,-0.06 -0.357,-0.178 v -0.535 -0.355 l -0.087,-0.179 c -0.062,-0.118 -0.149,-0.236 -0.269,-0.356 -0.476,-0.742 -0.831,-1.216 -1.068,-1.424 -0.237,-0.238 -0.416,-0.356 -0.534,-0.356 -0.476,-0.118 -0.773,-0.179 -0.891,-0.179 -0.327,0 -0.741,0.12 -1.246,0.357 l -0.357,0.356 h -0.176 v 0.177 0.179 h -0.18 v 0.177 0.178 0.177 c 0.118,0.12 0.18,0.238 0.18,0.356 v 0.356 c -0.121,0.119 -0.313,0.224 -0.579,0.312 0,0.118 -0.045,0.193 -0.134,0.222 -0.119,0 -0.179,-0.072 -0.179,-0.222 v -0.133 l 0.179,-0.179 c 0,-0.593 -0.652,-0.89 -1.959,-0.89 h -0.179 c -0.594,0 -1.083,0.177 -1.469,0.534 -0.089,0 -0.311,0.178 -0.668,0.535 v 0.133 c -0.119,0.118 -0.178,0.252 -0.178,0.401 0,0.238 0.059,0.356 0.178,0.356 0.119,0.475 0.475,0.83 1.068,1.068 0.119,0 0.356,0.016 0.713,0.045 l 0.534,0.132 h 0.178 0.179 v -0.355 c 0.118,-0.119 0.177,-0.237 0.177,-0.356 0.356,-0.474 0.773,-0.771 1.247,-0.889 0.83,-0.446 1.484,-0.682 1.958,-0.713 0.713,0 1.248,0.238 1.604,0.713 0.118,0.118 0.179,0.238 0.179,0.356 0,0.356 -0.179,0.533 -0.534,0.533 -0.238,0 -0.418,-0.118 -0.535,-0.355 -0.118,-0.119 -0.415,-0.178 -0.89,-0.178 h -0.356 c -0.238,0 -0.713,0.118 -1.425,0.356 l -1.068,0.534 -0.179,0.355 0.179,0.179 c 0.475,0 0.892,0.179 1.247,0.535 0.089,0 0.17,0.03 0.244,0.088 0.075,0.06 0.111,0.149 0.111,0.268 h 0.357 0.355 0.578 c 0.297,0 0.519,0.059 0.668,0.178 0.356,0.119 0.771,0.417 1.247,0.89 -0.357,-0.118 -0.891,-0.238 -1.603,-0.356 h -0.713 -0.178 l 0.178,0.178 0.178,0.178 v 0.179 0.178 0.179 h 0.535 c 0.444,0.118 0.859,0.46 1.245,1.023 -0.356,-0.207 -0.653,-0.311 -0.89,-0.311 H 485.4 v 0.177 l -0.178,0.356 h -0.178 c -0.238,0 -0.355,-0.073 -0.355,-0.222 v -0.49 c 0,-0.475 -0.194,-0.95 -0.579,-1.424 -0.564,-0.861 -1.5,-1.335 -2.805,-1.424 h -1.426 -0.267 -0.267 c -0.238,0 -0.55,0.118 -0.936,0.356 -0.089,0 -0.193,0.059 -0.311,0.177 -0.12,0.12 -0.238,0.179 -0.356,0.179 l -0.179,0.178 -0.356,0.534 c -0.118,0.208 -0.177,0.445 -0.177,0.712 0,0.832 0.533,1.424 1.602,1.779 0.357,0.12 0.713,0.179 1.068,0.179 h 0.089 0.269 c 0.117,0 0.325,-0.029 0.623,-0.089 0.296,-0.059 0.563,-0.09 0.801,-0.09 0.117,0 0.326,-0.028 0.623,-0.088 0.297,-0.06 0.504,-0.089 0.623,-0.089 h 0.445 0.446 c 0.117,0 0.711,0.059 1.779,0.177 0.563,0.12 0.921,0.238 1.068,0.358 0.594,0.118 1.069,0.297 1.425,0.533 0.089,0.12 0.199,0.268 0.333,0.445 0.134,0.179 0.26,0.357 0.38,0.535 0.117,0.179 0.295,0.386 0.533,0.624 -0.119,-0.118 -0.327,-0.297 -0.624,-0.535 -0.296,-0.236 -0.533,-0.415 -0.712,-0.533 -0.177,-0.118 -0.444,-0.238 -0.8,-0.356 h -1.068 c -0.238,-0.118 -0.713,-0.179 -1.426,-0.179 -0.326,0.12 -1.038,0.297 -2.136,0.535 -0.712,0.238 -1.425,0.355 -2.139,0.355 -2.284,0 -3.708,-0.534 -4.272,-1.603 -0.356,-0.356 -0.533,-0.83 -0.533,-1.424 0,-0.594 0.117,-1.009 0.355,-1.247 h 0.178 v -0.356 c 0.445,-0.474 0.861,-0.83 1.246,-1.068 0.475,-0.238 1.009,-0.417 1.603,-0.535 h 0.18 v -0.178 l -0.18,-0.177 c -0.237,-0.356 -0.37,-0.771 -0.4,-1.248 0,-0.206 0.075,-0.444 0.223,-0.712 l 0.178,-0.535 c 0.238,-0.118 0.535,-0.295 0.891,-0.533 0.563,-0.327 1.276,-0.505 2.137,-0.535 0.238,0 0.594,0.06 1.068,0.178 0.237,0 0.476,0.059 0.714,0.177 h 0.177 l 0.179,0.179 c 0.089,-0.03 0.134,-0.209 0.134,-0.535 z m -2.448,6.589 c 0,-0.238 0.059,-0.356 0.177,-0.356 1.188,0.979 1.841,1.499 1.959,1.558 h -0.356 c -0.594,0 -1.067,-0.164 -1.424,-0.49 -0.237,-0.118 -0.355,-0.295 -0.355,-0.533 v -0.179 z m 6.766,-1.425 0.179,-0.356 c 0,-0.118 -0.061,-0.179 -0.179,-0.179 l -0.177,0.179 h -0.18 c -0.089,0 -0.208,-0.059 -0.355,-0.179 -0.119,-0.118 -0.178,-0.236 -0.178,-0.355 0,-0.207 0.059,-0.386 0.178,-0.535 0.118,0 0.178,0.031 0.178,0.09 0,0.059 0.029,0.118 0.089,0.177 0.06,0.061 0.148,0.088 0.269,0.088 h 0.177 0.268 0.267 c 0.236,0 0.475,0.12 0.713,0.358 h 0.133 v 0.356 c 0,0.118 -0.044,0.356 -0.133,0.712 l -0.18,0.534 c -0.117,0.237 -0.237,0.357 -0.355,0.357 -0.356,0 -0.594,-0.12 -0.712,-0.357 -0.118,-0.089 -0.177,-0.266 -0.177,-0.534 -0.002,-0.118 0.057,-0.238 0.175,-0.356 z m 4.095,0.712 h 0.178 c 1.068,0.208 1.781,0.564 2.137,1.068 0,0.12 0.061,0.268 0.178,0.445 l 0.18,0.267 c 0.117,0.09 0.176,0.209 0.176,0.356 0,0.238 -0.117,0.355 -0.355,0.355 -0.117,0 -0.267,0.032 -0.444,0.09 l -0.267,0.089 h -0.18 l -0.889,0.179 c -0.356,0.238 -0.653,0.356 -0.892,0.356 -0.355,0.237 -0.652,0.415 -0.891,0.533 -0.594,0.328 -1.186,0.505 -1.779,0.534 -0.238,0 -0.594,-0.059 -1.068,-0.179 0.83,-0.118 1.365,-0.236 1.603,-0.355 0.118,-0.118 0.266,-0.236 0.445,-0.356 0.176,-0.118 0.325,-0.236 0.444,-0.356 0.237,-0.118 0.711,-0.297 1.425,-0.535 0.119,-0.118 0.416,-0.236 0.89,-0.355 0.118,0 0.237,-0.036 0.356,-0.111 0.118,-0.074 0.237,-0.111 0.355,-0.111 h 0.18 v -0.134 c -0.119,0 -0.18,-0.059 -0.18,-0.177 -0.118,-0.118 -0.237,-0.179 -0.355,-0.179 -0.445,-0.118 -0.921,-0.178 -1.425,-0.178 -0.563,0 -1.097,0.118 -1.602,0.356 l -0.534,0.177 -0.09,0.045 c -0.059,0.059 -0.126,0.126 -0.2,0.2 -0.074,0.075 -0.155,0.111 -0.244,0.111 h -0.18 -0.355 c -0.119,0 -0.356,0.061 -0.712,0.179 h -0.177 v 0.177 h -0.18 v 0.179 h -0.178 c 0.208,-0.474 0.385,-0.771 0.534,-0.891 l 0.355,-0.355 0.712,-0.533 0.535,-0.356 c 0.741,-0.326 1.32,-0.505 1.737,-0.535 z" /><path
     style="fill:#870000"
     inkscape:connector-curvature="0"
     id="path548"
     d="m 492.523,221.821 h 0.356 l 0.177,0.179 v 0.177 c -0.237,0.238 -0.414,0.653 -0.533,1.247 l 1.424,-0.534 c 0.979,0 1.454,0.177 1.424,0.534 0,0.12 -0.711,0.355 -2.135,0.712 -0.861,0.356 -1.277,0.594 -1.247,0.712 l -0.356,0.713 h 0.135 l 1.824,-0.534 0.713,-0.179 c 0.355,0.12 0.533,0.238 0.533,0.357 -0.355,0.356 -1.068,0.712 -2.137,1.068 v 0.177 l 0.712,0.535 2.093,-0.535 -0.311,-0.712 v -0.178 h 0.176 l 1.959,0.89 c 0,0.238 -1.067,0.593 -3.205,1.069 1.188,1.186 2.611,1.959 4.273,2.315 0.476,0.238 0.714,0.474 0.714,0.712 v 0.177 c -0.119,0.356 -0.355,0.535 -0.714,0.535 -1.068,0 -2.256,-0.535 -3.561,-1.603 v 2.138 1.424 c -0.119,0.444 -0.297,0.741 -0.533,0.891 h -0.357 c -0.119,0 -0.237,-0.179 -0.355,-0.535 h -0.179 c -0.861,0 -1.691,0.177 -2.492,0.535 -0.238,-0.12 -0.355,-0.238 -0.355,-0.358 0.475,-0.325 1.186,-0.622 2.136,-0.89 h 1.068 v -0.712 -0.58 c 0,-1.631 -0.06,-2.449 -0.178,-2.449 h -0.179 c -1.187,0 -2.136,0.655 -2.848,1.959 l 1.603,-0.533 c 0.355,0 0.651,0.118 0.889,0.356 l -1.289,1.603 h -0.135 l 0.356,-1.07 h -0.535 -0.889 v 0.134 c 0,1.217 -0.18,1.825 -0.535,1.825 h -0.223 c -0.088,0 -0.133,-0.118 -0.133,-0.355 l 0.534,-3.56 h 0.177 c 0.119,0 0.18,0.177 0.18,0.533 0.83,-0.83 1.779,-1.365 2.848,-1.603 l 0.356,0.179 -0.713,-0.712 c -1.93,0.474 -2.879,0.89 -2.848,1.245 -0.564,1.07 -1.396,1.886 -2.493,2.449 l -1.247,0.58 c 1.544,-1.632 2.552,-2.761 3.026,-3.384 -0.979,0.355 -1.572,0.535 -1.779,0.535 l -0.178,-0.179 c 0,-0.236 0.651,-0.712 1.957,-1.424 l 0.891,-0.891 h -0.177 l -0.892,0.356 c -0.236,0 -0.475,-0.177 -0.711,-0.534 1.662,-0.238 2.492,-0.712 2.492,-1.424 v -0.178 h -0.89 l -0.892,-0.179 v -0.177 c 0,-0.118 0.535,-0.238 1.604,-0.356 0.475,0 0.758,-0.593 0.847,-1.781 h -0.49 c 10e-4,-0.265 0.416,-0.503 1.247,-0.712 z m -3.561,6.411 h 0.178 c 0.563,-0.118 0.86,-0.356 0.891,-0.712 -0.594,0.356 -0.95,0.594 -1.069,0.712 z m 1.959,-0.534 c 1.306,-0.356 1.959,-0.594 1.959,-0.712 l -0.535,-0.535 c -0.949,0.238 -1.424,0.653 -1.424,1.247 z" /><path
     style="fill:#00082d"
     inkscape:connector-curvature="0"
     id="path550"
     d="m 472.713,243.192 h -0.133 -0.178 c -0.119,0.119 -0.297,0.178 -0.535,0.178 -0.831,0 -1.305,-0.178 -1.424,-0.533 -0.119,-0.118 -0.179,-0.238 -0.179,-0.356 v -0.355 -0.179 c 0.237,-0.355 0.83,-0.535 1.782,-0.535 0.117,0 0.207,0.031 0.266,0.09 0.059,0.059 0.117,0.177 0.179,0.356 l 0.089,0.268 0.711,0.355 0.091,0.089 0.089,0.088 v 0.179 h -0.18 -0.177 l -0.179,0.177 z m -0.666,3.205 v -0.533 -0.179 c -0.12,-0.236 -0.18,-0.415 -0.18,-0.533 0,-0.447 0.238,-0.862 0.713,-1.247 0.443,-0.713 1.335,-1.128 2.67,-1.248 h 0.18 c 1.779,0 3.265,0.417 4.45,1.248 h 0.18 c -0.862,-0.238 -1.812,-0.356 -2.851,-0.356 h -0.711 -0.624 -0.624 c -0.117,0 -0.355,0.177 -0.712,0.533 -0.741,0.476 -1.097,1.01 -1.067,1.603 v 0.535 h -0.18 v 0.178 0.179 c -0.117,0 -0.206,0.022 -0.268,0.067 -0.059,0.045 -0.162,0.066 -0.311,0.066 l -0.311,0.222 c -0.118,-0.03 -0.237,-0.207 -0.354,-0.535 z m 11.751,13.711 0.179,0.179 c 0,0.118 -0.061,0.297 -0.179,0.533 -0.118,0.238 -0.237,0.356 -0.356,0.356 h -0.178 l -0.178,-0.176 -0.179,-0.179 v -0.177 c 0,-0.118 -0.06,-0.238 -0.178,-0.355 -0.119,-0.118 -0.297,-0.238 -0.534,-0.356 -0.356,-0.12 -0.83,-0.178 -1.425,-0.178 -0.238,0 -0.416,0.059 -0.535,0.178 -0.117,0 -0.297,0.059 -0.533,0.177 -0.119,0 -0.178,0.061 -0.178,0.179 v 0.177 c -0.238,0.355 -0.533,0.653 -0.891,0.891 -0.119,0 -0.238,0.03 -0.356,0.088 -0.118,0.059 -0.238,0.089 -0.356,0.089 l -0.177,0.179 c -0.238,0 -0.416,-0.061 -0.535,-0.179 l -0.355,-0.356 -0.535,-0.534 c -0.118,-0.118 -0.355,-0.297 -0.712,-0.535 -0.357,-0.238 -0.667,-0.415 -0.935,-0.535 -0.832,-0.592 -1.766,-0.948 -2.805,-1.068 h 0.357 c 0.117,0 0.229,-0.03 0.333,-0.089 0.103,-0.059 0.229,-0.089 0.378,-0.089 h 0.355 c 0.119,0 0.357,0.03 0.713,0.089 0.357,0.059 0.652,0.089 0.891,0.089 h 0.179 0.356 0.355 c 0.83,0 1.543,0.061 2.136,0.179 h 0.18 l 0.177,0.177 0.356,0.179 h 0.357 0.178 c 0.117,0 0.236,0.118 0.355,0.356 0.117,0 0.178,-0.059 0.178,-0.179 h 0.178 c 0.327,-0.118 0.683,-0.177 1.069,-0.177 h 0.356 c 0.118,0 0.295,0.03 0.533,0.088 l 0.356,0.089 c 0.09,0 0.2,0.031 0.334,0.09 0.134,0.06 0.26,0.089 0.378,0.089 0.12,0 0.237,0.059 0.356,0.177 0.24,0.149 0.419,0.328 0.537,0.534 z m -8.548,-18.341 c -0.444,-0.118 -0.741,-0.295 -0.889,-0.533 -0.357,-0.208 -0.535,-0.505 -0.535,-0.891 v -0.177 c 0,-0.118 0.03,-0.208 0.089,-0.268 l 0.089,-0.09 c 0,-0.118 0.029,-0.266 0.09,-0.444 0.06,-0.178 0.118,-0.296 0.178,-0.356 0.059,-0.059 0.192,-0.089 0.4,-0.089 h 0.401 c 0.741,0 1.157,0.297 1.245,0.89 l -0.088,0.268 c -0.06,0.178 -0.09,0.328 -0.09,0.446 0,0.118 0.03,0.23 0.09,0.333 0.059,0.105 0.088,0.231 0.088,0.379 v 0.177 0.179 0.177 l 0.09,0.179 0.09,0.179 h -0.18 c -0.237,-0.001 -0.593,-0.121 -1.068,-0.359 z m 0.535,19.588 c -0.238,0 -0.535,0.059 -0.891,0.177 l -0.311,0.09 c -0.15,0.06 -0.283,0.089 -0.401,0.089 -0.237,0 -0.356,-0.179 -0.356,-0.535 l 0.178,-0.356 v -0.177 -0.178 h 0.357 0.177 c 0.563,0 0.979,0.12 1.247,0.355 h 0.178 l 0.178,0.535 h -0.088 -0.179 z m 0.178,-14.067 c -0.742,-0.118 -1.218,-0.474 -1.425,-1.068 v -0.712 -0.267 -0.179 c 0,-0.059 0.046,-0.147 0.134,-0.266 0.119,-0.238 0.312,-0.356 0.578,-0.356 h 0.18 c 0.117,0 0.236,0.059 0.355,0.178 0.118,0.12 0.178,0.355 0.178,0.712 v 0.178 0.356 c 0,0.355 0.059,0.771 0.178,1.247 l 0.178,0.177 z m 0.535,14.423 h 0.088 0.09 l 0.178,0.177 c -0.119,0 -0.178,0.059 -0.178,0.179 -0.09,0.118 -0.148,0.296 -0.178,0.534 -0.119,0 -0.18,0.059 -0.18,0.178 v 0.712 c 0,0.118 -0.118,0.222 -0.355,0.313 h -0.356 v 0.222 l -0.177,-0.222 h -0.18 c -0.237,0 -0.43,-0.045 -0.578,-0.134 l -0.134,-0.178 v -0.356 c 0,-0.741 0.238,-1.156 0.712,-1.247 0.356,-0.118 0.594,-0.177 0.713,-0.177 h 0.355 0.18 z m -0.357,-30.182 v -0.089 c 0,-0.741 0.06,-1.098 0.178,-1.068 0,-0.118 0.061,-0.178 0.18,-0.178 0.206,-0.119 0.348,-0.177 0.422,-0.177 0.073,0 0.289,0.118 0.646,0.355 0.118,0 0.238,0.119 0.355,0.356 l 0.091,0.268 0.089,0.267 c 0,0.118 -0.062,0.266 -0.18,0.445 -0.117,0.177 -0.177,0.326 -0.177,0.444 0,0.356 0.177,0.773 0.533,1.247 h -0.533 c -0.356,0 -0.653,-0.177 -0.891,-0.535 -0.326,-0.474 -0.564,-0.83 -0.713,-1.068 z m 7.836,27.156 c 0,-0.238 -0.179,-0.474 -0.535,-0.712 -0.476,-0.476 -0.949,-0.832 -1.424,-1.07 l -0.355,-0.177 h -0.179 c 0,0.118 0.029,0.177 0.089,0.177 0.059,0 0.09,0.061 0.09,0.179 l -0.179,0.178 v 0.179 0.177 h 0.179 c 0,0.12 -0.12,0.283 -0.356,0.49 -0.119,0.12 -0.356,0.194 -0.713,0.224 -0.327,0 -0.622,-0.118 -0.891,-0.355 0,-0.358 0.061,-0.594 0.178,-0.713 h 0.49 l 0.579,-0.533 v -0.179 h -0.579 c -1.068,-0.207 -2.122,-0.385 -3.161,-0.533 h -0.177 -0.179 -0.178 0.178 c -0.119,-0.119 -0.297,-0.179 -0.535,-0.179 h 2.315 1.068 c 1.188,0 2.078,0.12 2.672,0.356 0.118,0 0.236,0.061 0.355,0.179 l 0.892,0.177 c 0.324,0 0.563,0.12 0.711,0.356 l 0.178,0.179 c 0.118,0.118 0.18,0.46 0.18,1.023 0,0.238 -0.194,0.551 -0.579,0.936 h -0.134 z m -6.056,-14.246 v 0.178 0.133 c 0,0.118 0.06,0.193 0.18,0.222 0,0.12 0.028,0.208 0.088,0.268 0.06,0.06 0.089,0.149 0.089,0.267 h -0.177 c -0.12,0.238 -0.297,0.356 -0.535,0.356 -0.237,0 -0.415,-0.118 -0.533,-0.356 -0.12,0 -0.179,-0.149 -0.179,-0.446 0,-0.295 0.059,-0.504 0.179,-0.622 l 0.089,-0.09 c 0.059,-0.06 0.146,-0.089 0.267,-0.089 l 0.178,-0.179 c 0.117,0.001 0.237,0.121 0.354,0.358 z m 0,-3.917 c 0.118,0 0.283,0.059 0.49,0.177 l 0.223,0.179 v 0.133 l -0.133,0.222 c -0.06,0.118 -0.09,0.238 -0.09,0.356 l 0.223,0.177 v 0.179 c 0,0.118 -0.073,0.179 -0.223,0.179 l -0.49,-0.179 c -0.355,-0.118 -0.533,-0.237 -0.533,-0.355 v -0.712 -0.179 h -0.179 c 0.119,-0.118 0.356,-0.177 0.712,-0.177 z m 1.248,-3.562 v -0.535 c -0.238,-1.186 -0.357,-2.195 -0.357,-3.027 0,-0.979 0.119,-1.75 0.357,-2.315 v -0.267 -0.088 -0.356 h 0.178 v -0.355 l 0.178,-0.179 0.178,-0.712 c 0.563,-2.047 1.632,-3.294 3.205,-3.739 -0.83,0.326 -1.542,1.217 -2.137,2.67 l -0.535,1.247 c 0,0.207 -0.059,0.445 -0.176,0.712 l -0.357,0.712 v 1.78 c 0,1.307 0.178,2.849 0.533,4.629 l 0.135,0.179 v 0.177 c 0.118,-0.118 0.192,-0.236 0.223,-0.356 0.237,-0.236 0.416,-0.355 0.534,-0.355 h 0.891 c 0.712,0 1.187,0.12 1.424,0.355 0.238,0 0.461,0.238 0.669,0.714 0.118,0.355 0.193,0.712 0.222,1.067 0,0.712 -0.178,1.306 -0.534,1.78 -0.356,0.208 -0.771,0.387 -1.247,0.535 h -0.355 c 0,0.118 -0.06,0.177 -0.178,0.177 -0.237,0 -0.355,0.061 -0.355,0.179 l 0.177,0.177 v 0.358 c 0,0.474 -0.177,0.771 -0.533,0.889 l -0.356,0.178 c -0.119,0 -0.267,-0.059 -0.445,-0.178 -0.178,-0.118 -0.269,-0.237 -0.269,-0.356 v -0.177 c 0,-0.118 0.061,-0.238 0.18,-0.355 0.117,-0.12 0.178,-0.238 0.178,-0.358 0,-0.118 -0.074,-0.415 -0.223,-0.889 l -0.311,-0.891 c -0.121,-0.238 -0.238,-0.563 -0.357,-0.979 -0.119,-0.415 -0.178,-0.741 -0.178,-0.979 -0.123,-0.386 -0.242,-0.742 -0.359,-1.069 z m 1.78,-2.85 -0.579,0.356 v 0.179 0.177 l -0.135,-0.177 c -0.117,-0.118 -0.176,-0.297 -0.176,-0.535 0,-0.355 0.059,-0.651 0.176,-0.889 0.091,-0.476 0.209,-0.713 0.357,-0.713 l 0.178,-0.356 h 0.268 0.177 0.18 0.178 0.267 c 0.118,0 0.179,0.061 0.179,0.179 0.118,0.118 0.236,0.238 0.356,0.356 v 0.356 0.179 c 0,0.118 -0.061,0.297 -0.179,0.533 h -0.533 l -0.09,0.088 c -0.06,0.061 -0.148,0.09 -0.267,0.09 -0.119,0.001 -0.239,0.06 -0.357,0.177 z m 0.178,4.274 c -0.237,0.238 -0.356,0.417 -0.356,0.535 v 0.311 0.045 c 0.119,0.118 0.179,0.208 0.179,0.267 0,0.059 0.029,0.148 0.089,0.266 l 0.089,0.179 c 0,0.238 0.06,0.356 0.179,0.356 0.118,0 0.295,-0.059 0.533,-0.177 0.446,-0.118 0.741,-0.594 0.891,-1.426 0,-0.236 -0.061,-0.474 -0.179,-0.712 h -0.533 -0.179 c -0.239,0 -0.475,0.12 -0.713,0.356 z m 8.548,19.72 c -0.238,0.12 -0.654,0.254 -1.247,0.401 -1.068,0.356 -1.9,0.772 -2.492,1.247 l -0.356,0.178 v 0.044 0.313 c -0.12,0.237 -0.356,0.355 -0.714,0.355 h -0.176 l -0.18,0.177 c -0.117,0 -0.252,-0.059 -0.399,-0.177 v -0.178 -0.177 l 0.222,-0.714 0.178,-0.177 v -0.356 h 0.267 0.089 c 0.119,-0.118 0.357,-0.179 0.714,-0.179 l 0.177,-0.177 0.18,-0.179 0.134,-0.178 c 0.739,-0.208 1.29,-0.385 1.646,-0.535 0.118,-0.118 0.207,-0.179 0.267,-0.179 h 0.089 c 0.594,-0.236 1.173,-0.355 1.736,-0.355 h 0.223 c 0.118,0 0.238,-0.028 0.355,-0.089 l 0.18,-0.089 c 1.779,0 3.145,0.297 4.095,0.891 0.83,0.207 1.365,0.683 1.603,1.424 h 0.179 v 0.089 0.088 0.179 l 0.089,0.088 c 0.059,0.061 0.089,0.105 0.089,0.134 v 0.222 0.356 0.449 c 0,-0.118 -0.06,-0.179 -0.178,-0.179 v -0.177 -0.178 c -0.239,-0.445 -0.596,-0.86 -1.07,-1.247 l -0.355,-0.177 c -0.117,-0.118 -0.237,-0.179 -0.355,-0.179 v -0.177 l -1.068,-0.356 h -0.179 c -0.474,-0.118 -1.068,-0.192 -1.78,-0.224 h -0.534 -1.429 z m -3.919,-1.201 c 0.208,-0.356 0.313,-0.771 0.313,-1.245 v -0.358 -0.355 c 0.117,0 0.252,-0.028 0.399,-0.089 l 0.179,-0.089 h 0.533 v 0.178 l 0.179,0.179 v 0.089 0.267 0.356 c 0,0.327 -0.119,0.646 -0.355,0.958 -0.238,0.311 -0.418,0.586 -0.535,0.822 h -0.178 c -0.119,0 -0.253,0.031 -0.401,0.09 l -0.134,0.088 h -0.177 l -0.179,0.089 c -0.118,0.061 -0.238,0.09 -0.355,0.09 0,-0.118 0.029,-0.208 0.089,-0.268 0.059,-0.059 0.178,-0.149 0.355,-0.267 0.179,-0.118 0.267,-0.238 0.267,-0.356 z m 12.642,6.767 v 0.356 c 0,0.118 -0.059,0.177 -0.177,0.177 -0.12,0 -0.238,-0.059 -0.356,-0.177 h -0.401 -3.339 c -0.563,0 -1.156,-0.075 -1.78,-0.222 -0.563,-0.208 -0.979,-0.372 -1.246,-0.49 -0.475,-0.356 -0.83,-0.95 -1.068,-1.782 v -0.712 c 0,-0.236 -0.037,-0.444 -0.111,-0.623 -0.074,-0.177 -0.111,-0.327 -0.111,-0.444 -0.208,-0.238 -0.609,-0.356 -1.201,-0.356 -0.355,-0.118 -0.891,-0.179 -1.603,-0.179 0.712,-0.236 1.306,-0.356 1.779,-0.356 0.356,0 0.653,0.061 0.892,0.179 0.444,0.238 0.741,0.594 0.891,1.068 0.117,0.12 0.178,0.238 0.178,0.356 0.117,0.12 0.178,0.297 0.178,0.535 v 0.533 0.179 c 0,0.118 0.059,0.177 0.178,0.177 0,0.208 0.117,0.446 0.355,0.713 0.564,0.475 1.87,0.771 3.917,0.89 h 0.447 0.444 c 0.95,0 1.662,-0.118 2.136,-0.356 v 0.534 z m -5.162,-8.191 h 0.889 c 1.307,0 2.256,0.179 2.85,0.535 0.238,0.326 0.355,0.623 0.355,0.889 0,0.12 -0.028,0.328 -0.088,0.623 l -0.089,0.447 -0.355,0.355 c -0.12,0 -0.179,-0.074 -0.179,-0.224 l 0.089,-0.132 0.09,-0.179 v -0.179 h -0.09 -0.089 c -0.119,0 -0.297,0.061 -0.535,0.179 0,0.12 -0.059,0.179 -0.178,0.179 h -0.178 l -0.357,0.132 c -0.117,0 -0.176,-0.043 -0.176,-0.132 v -0.179 c -0.121,0 -0.18,-0.029 -0.18,-0.088 0,-0.059 0.059,-0.208 0.18,-0.446 0.117,-0.118 0.295,-0.178 0.533,-0.178 h 0.178 0.356 0.535 v -0.179 l -0.179,-0.177 v -0.179 h -0.178 c -0.119,-0.118 -0.596,-0.295 -1.426,-0.533 h -1.246 c -0.95,0 -1.662,0.059 -2.137,0.177 -0.741,0.208 -1.351,0.446 -1.825,0.712 h -0.088 -0.225 v 0.179 c 0.714,-0.564 1.47,-0.979 2.272,-1.247 h 0.133 c 0.059,0 0.147,-0.059 0.268,-0.177 h 0.355 c 0.359,-0.119 0.595,-0.178 0.715,-0.178 z m -0.891,4.986 0.179,-0.177 v -0.669 -0.578 h -0.179 0.179 c 0.356,0.118 0.651,0.356 0.89,0.712 l 0.179,0.178 c 0.089,0.207 0.147,0.386 0.178,0.534 v 0.535 0.533 c -0.089,0.118 -0.178,0.238 -0.267,0.356 l -0.09,0.179 -0.089,0.178 c -0.059,0.118 -0.088,0.207 -0.088,0.266 v 0.09 c -0.238,0.236 -0.477,0.356 -0.713,0.356 h -0.179 c -0.355,0 -0.594,-0.06 -0.712,-0.178 l -0.179,-0.534 c 0,-0.208 0.059,-0.446 0.179,-0.713 l 0.135,-0.177 v -0.088 c 0,-0.061 0.096,-0.179 0.289,-0.358 0.191,-0.178 0.288,-0.326 0.288,-0.445 z m 1.514,-4.095 h 0.177 0.089 c 0.357,0 0.535,0.06 0.535,0.177 0,0.12 -0.119,0.179 -0.355,0.179 l -0.18,0.177 h -0.178 -0.178 l -0.223,0.09 -0.134,0.088 c -0.118,0 -0.177,-0.059 -0.177,-0.179 0,-0.118 0.059,-0.177 0.177,-0.177 0.118,-0.119 0.237,-0.238 0.356,-0.356 h 0.091 z m 0.623,5.698 c 0,-0.089 0.028,-0.201 0.089,-0.334 0.059,-0.134 0.089,-0.26 0.089,-0.378 v -0.179 c 0,-0.592 -0.059,-0.889 -0.178,-0.889 0.236,0 0.533,0.118 0.889,0.355 l 0.091,0.089 0.044,0.088 c 0.237,0.475 0.371,0.891 0.4,1.248 v 0.355 0.179 c -0.326,0.356 -0.622,0.533 -0.891,0.533 -0.355,0 -0.594,-0.237 -0.711,-0.712 0.001,-0.118 0.059,-0.237 0.178,-0.355 z m 2.316,-0.891 h 0.177 c 0.238,0 0.444,0.09 0.624,0.267 0.179,0.179 0.267,0.327 0.267,0.445 v 0.535 c 0,0.356 -0.237,0.594 -0.712,0.712 l -0.09,-0.088 -0.089,-0.089 c -0.355,-0.12 -0.533,-0.356 -0.533,-0.712 0,-0.12 0.059,-0.178 0.178,-0.178 v -0.356 l 0.179,-0.179 v -0.177 -0.18 z" /><path
     inkscape:connector-curvature="0"
     id="path552"
     d="m 502.391,222.14 v 42.42 c 0,0.995 -0.35,1.842 -1.045,2.539 -0.697,0.696 -1.545,1.046 -2.54,1.046 h -27.483 c -0.996,0 -1.842,-0.35 -2.539,-1.046 -0.697,-0.697 -1.045,-1.544 -1.045,-2.539 v -42.42 c 0,-0.994 0.348,-1.842 1.045,-2.539 0.697,-0.696 1.543,-1.045 2.539,-1.045 h 27.483 c 0.995,0 1.843,0.349 2.54,1.045 0.695,0.697 1.045,1.545 1.045,2.539 z m -3.585,-1.792 h -27.483 c -0.518,0 -0.946,0.17 -1.284,0.508 -0.339,0.339 -0.508,0.767 -0.508,1.284 v 42.42 c 0,0.518 0.169,0.945 0.508,1.285 0.338,0.338 0.767,0.508 1.284,0.508 h 27.483 c 0.518,0 0.946,-0.17 1.284,-0.508 0.338,-0.34 0.508,-0.768 0.508,-1.285 v -42.42 c 0,-0.518 -0.17,-0.945 -0.508,-1.284 -0.338,-0.338 -0.767,-0.508 -1.284,-0.508 z" /></g></svg>