<?xml version="1.0" encoding="UTF-8" standalone="no"?>
<!-- Generator: Adobe Illustrator 16.0.0, SVG Export Plug-In . SVG Version: 6.00 Build 0)  -->

<svg
   xmlns:dc="http://purl.org/dc/elements/1.1/"
   xmlns:cc="http://creativecommons.org/ns#"
   xmlns:rdf="http://www.w3.org/1999/02/22-rdf-syntax-ns#"
   xmlns:svg="http://www.w3.org/2000/svg"
   xmlns="http://www.w3.org/2000/svg"
   xmlns:sodipodi="http://sodipodi.sourceforge.net/DTD/sodipodi-0.dtd"
   xmlns:inkscape="http://www.inkscape.org/namespaces/inkscape"
   version="1.1"
   id="图层_1"
   x="0px"
   y="0px"
   width="139.76401"
   height="200"
   viewBox="0 0 139.764 200"
   enable-background="new 0 0 714 341"
   xml:space="preserve"
   sodipodi:docname="0502夏.svg"
   inkscape:version="0.92.3 (2405546, 2018-03-11)"><metadata
   id="metadata621"><rdf:RDF><cc:Work
       rdf:about=""><dc:format>image/svg+xml</dc:format><dc:type
         rdf:resource="http://purl.org/dc/dcmitype/StillImage" /><dc:title /></cc:Work></rdf:RDF></metadata><defs
   id="defs619" /><sodipodi:namedview
   pagecolor="#ffffff"
   bordercolor="#666666"
   borderopacity="1"
   objecttolerance="10"
   gridtolerance="10"
   guidetolerance="10"
   inkscape:pageopacity="0"
   inkscape:pageshadow="2"
   inkscape:window-width="1366"
   inkscape:window-height="705"
   id="namedview617"
   showgrid="false"
   inkscape:zoom="1"
   inkscape:cx="-29.49666"
   inkscape:cy="112.60966"
   inkscape:window-x="-8"
   inkscape:window-y="-8"
   inkscape:window-maximized="1"
   inkscape:current-layer="图层_1" />



















































































































































































































































































































<g
   transform="matrix(4.0331525,0,0,4.0331525,-2057.666,-882.09078)"
   id="g2028"><path
     inkscape:connector-curvature="0"
     id="path554"
     d="m 510.188,222.294 c 0,-0.994 0.349,-1.842 1.046,-2.539 0.696,-0.696 1.543,-1.045 2.539,-1.045 h 27.483 c 0.995,0 1.843,0.349 2.54,1.045 0.695,0.697 1.045,1.545 1.045,2.539 v 42.42 c 0,0.995 -0.35,1.842 -1.045,2.539 -0.697,0.696 -1.545,1.046 -2.54,1.046 h -27.483 c -0.996,0 -1.843,-0.35 -2.539,-1.046 -0.697,-0.697 -1.046,-1.544 -1.046,-2.539 m 1.792,0 c 0,0.518 0.169,0.945 0.508,1.285 0.338,0.338 0.766,0.508 1.284,0.508 h 27.483 c 0.518,0 0.946,-0.17 1.284,-0.508 0.338,-0.34 0.508,-0.768 0.508,-1.285 v -42.42 c 0,-0.518 -0.17,-0.945 -0.508,-1.284 -0.338,-0.338 -0.767,-0.508 -1.284,-0.508 h -27.483 c -0.519,0 -0.946,0.17 -1.284,0.508 -0.339,0.339 -0.508,0.767 -0.508,1.284" /><path
     style="fill:#bc00a1"
     inkscape:connector-curvature="0"
     id="path556"
     d="m 525.489,241.01 v 0.352 c 0.471,-0.587 0.764,-0.939 0.881,-1.058 -0.352,1.174 -0.527,2.349 -0.527,3.522 0,0.852 0.059,1.497 0.176,1.937 0.116,0.118 0.177,0.235 0.177,0.352 0.233,0.235 0.352,0.412 0.352,0.529 0,0.117 -0.177,0.175 -0.528,0.175 -0.117,0 -0.294,-0.059 -0.529,-0.175 0,-0.117 -0.059,-0.294 -0.175,-0.529 -0.323,-0.557 -0.5,-1.202 -0.529,-1.937 0,-0.352 0.059,-0.644 0.177,-0.879 v -0.352 l -0.528,-0.529 c -0.353,-0.352 -0.998,-0.704 -1.938,-1.056 l 0.177,0.352 v 0.352 c 0.205,0.733 0.498,1.379 0.881,1.937 l 0.088,0.087 0.088,0.088 v 0.352 l 0.177,0.177 0.175,0.177 c 0.235,0.323 0.529,0.675 0.881,1.056 l 0.088,0.175 c 0.059,0.118 0.146,0.235 0.265,0.352 v 0.177 c 0,0.117 -0.061,0.175 -0.177,0.175 h -0.176 l -0.177,0.177 c -0.117,0.087 -0.294,0.132 -0.527,0.132 l -0.704,-0.132 c -1.058,-0.117 -1.82,-0.294 -2.29,-0.529 -0.205,-0.234 -0.557,-0.645 -1.057,-1.231 -0.587,-0.733 -1.291,-1.085 -2.112,-1.058 h 0.176 0.089 0.176 0.264 0.176 c 0.322,-0.469 1.013,-0.704 2.069,-0.704 h 0.748 0.177 l 0.176,0.177 c -0.235,-0.323 -0.353,-0.733 -0.353,-1.233 0,-0.352 0.117,-0.763 0.353,-1.233 l -0.176,-0.175 h -0.177 c -0.116,0 -0.294,-0.059 -0.528,-0.177 -0.235,-0.117 -0.411,-0.175 -0.527,-0.175 h 0.527 c 1.526,0 2.977,0.432 3.797,1.136 m -0.984,4.498 c -0.733,-1.408 -2.084,-2.114 -4.049,-2.114 h -0.353 c 0.733,0.118 1.261,0.47 1.584,1.058 0.234,0.205 0.412,0.381 0.528,0.527 0.235,0.118 0.616,0.206 1.146,0.264 0.528,0.061 0.909,0.148 1.144,0.265 z m 9.333,0.353 0.175,0.175 v 0.309 c -0.235,0 -0.587,-0.103 -1.056,-0.309 l -0.22,-0.175 h -0.133 -0.177 c -0.116,0.117 -0.234,0.175 -0.352,0.175 -0.235,0.118 -0.588,0.177 -1.057,0.177 l -0.175,-0.088 -0.177,-0.089 c -0.353,0 -1.116,-0.117 -2.289,-0.352 1.056,0 2.054,-0.117 2.993,-0.352 h 0.352 v -0.175 c -0.116,0 -0.204,-0.029 -0.264,-0.089 l -0.088,-0.087 v -0.175 c -0.323,-0.117 -0.675,-0.177 -1.057,-0.177 -1.174,0 -1.937,0.293 -2.288,0.881 l -0.178,0.175 v 0.177 c -0.116,0.117 -0.234,0.175 -0.352,0.175 -0.235,-0.117 -0.367,-0.234 -0.396,-0.352 0,-0.117 0.133,-0.292 0.396,-0.527 0.235,-0.441 0.41,-0.969 0.529,-1.585 0,-0.469 -0.061,-1.115 -0.178,-1.937 0,-0.235 -0.058,-0.529 -0.175,-0.881 -0.118,-0.352 -0.177,-0.644 -0.177,-0.879 -0.117,-0.354 -0.175,-0.822 -0.175,-1.41 -0.119,-0.117 -0.192,-0.233 -0.221,-0.352 v -0.175 l 0.221,0.175 c 0.968,1.292 1.495,2.349 1.585,3.17 v 0.175 c 0,0.118 0.043,0.177 0.132,0.177 0.116,0 0.188,-0.059 0.22,-0.177 l 0.175,-0.175 c 0.117,-0.117 0.235,-0.177 0.353,-0.177 l 0.881,-0.527 c 0.557,-0.235 1.203,-0.352 1.937,-0.352 h 0.133 c 0.116,0 0.424,0.117 0.924,0.352 -0.117,0 -0.323,0.021 -0.616,0.066 -0.294,0.043 -0.498,0.066 -0.617,0.066 0,0.852 -0.059,1.453 -0.175,1.805 l -0.088,0.308 -0.089,0.22 c -0.117,0.352 -0.353,0.704 -0.704,1.058 0.852,0.117 1.497,0.469 1.937,1.056 l 0.088,0.087 c 0.059,0.06 0.117,0.147 0.177,0.265 0.06,0.114 0.148,0.232 0.266,0.35 m -4.798,-2.466 c -0.089,0.118 -0.132,0.264 -0.132,0.441 0,0.175 -0.061,0.323 -0.178,0.44 0.939,-0.352 1.644,-0.821 2.114,-1.408 0.088,0 0.196,-0.059 0.329,-0.177 0.132,-0.117 0.198,-0.234 0.198,-0.352 l 0.088,-0.088 c 0.06,-0.058 0.089,-0.146 0.089,-0.264 0.117,-0.117 0.233,-0.323 0.352,-0.617 0.117,-0.292 0.234,-0.439 0.353,-0.439 -0.939,0.352 -1.879,0.939 -2.818,1.76 l -0.395,0.352 z" /><path
     style="fill:#00082d"
     inkscape:connector-curvature="0"
     id="path558"
     d="m 519.68,260.203 h 0.439 0.265 c 0.44,0.087 1.086,0.263 1.938,0.527 l -2.466,0.177 c -1.057,0 -1.761,0.117 -2.112,0.352 -0.118,0 -0.265,0.058 -0.441,0.175 -0.175,0.117 -0.323,0.235 -0.439,0.352 -0.353,0.117 -0.765,0.177 -1.233,0.177 -0.439,0 -0.852,-0.119 -1.232,-0.352 -0.117,0 -0.235,-0.119 -0.353,-0.352 0,-0.117 -0.058,-0.177 -0.175,-0.177 v -0.175 -0.177 c 0,-0.44 0.233,-0.85 0.704,-1.233 l 0.352,-0.527 1.057,-0.177 c 0.116,0 0.469,0.06 1.058,0.177 1.173,0.235 1.995,0.587 2.464,1.056 h 0.177 v 0.177 z m 18.84,-7.925 h 1.585 c 0.732,0 1.379,0.06 1.937,0.177 -0.558,0.117 -1.379,0.294 -2.464,0.527 -0.735,0.235 -1.146,0.412 -1.233,0.529 -0.118,0 -0.293,0.088 -0.528,0.265 -0.235,0.175 -0.411,0.264 -0.527,0.264 -2.23,1.173 -3.522,1.937 -3.874,2.289 0.469,-0.235 0.938,-0.411 1.408,-0.529 0.116,0 0.352,-0.029 0.704,-0.087 0.352,-0.059 0.646,-0.148 0.881,-0.265 0.85,-0.235 1.73,-0.529 2.641,-0.881 0.235,-0.117 0.353,-0.117 0.353,0 h -0.176 c -0.471,0.558 -1.352,1.262 -2.643,2.114 -0.117,0 -0.204,0.029 -0.263,0.087 -0.06,0.059 -0.147,0.088 -0.265,0.088 l -0.352,0.089 c -0.235,0.058 -0.412,0.087 -0.529,0.087 -0.116,0.117 -0.264,0.175 -0.439,0.175 -0.177,0 -0.338,0.06 -0.484,0.177 -1.174,0.352 -1.923,0.646 -2.246,0.881 -0.234,0.087 -0.352,0.263 -0.352,0.527 v 0.177 c 0,0.117 -0.117,0.293 -0.353,0.527 h -0.175 c -0.235,0 -0.471,-0.117 -0.704,-0.352 0,-0.117 -0.06,-0.175 -0.177,-0.175 h -0.704 c -0.704,-0.117 -1.233,-0.177 -1.585,-0.177 h -0.704 -0.177 c 0,-0.117 -0.059,-0.175 -0.175,-0.175 h -0.704 v 0.175 h 0.483 c 0.234,0.118 0.506,0.206 0.813,0.264 0.31,0.059 0.58,0.088 0.814,0.088 0.939,0 1.467,0.06 1.585,0.177 1.173,0.235 2.348,0.587 3.522,1.056 l 0.265,0.177 0.263,0.175 h 0.705 c 0.969,0 1.848,0.118 2.642,0.352 0.557,0.118 0.989,0.323 1.297,0.616 0.31,0.293 0.463,0.617 0.463,0.969 0,0.235 -0.059,0.41 -0.175,0.528 -0.119,0.117 -0.237,0.175 -0.354,0.175 -0.557,0.441 -1.145,0.661 -1.761,0.661 h -0.177 l -1.231,-0.132 c -0.118,-0.118 -0.338,-0.177 -0.661,-0.177 h -0.748 c -0.733,0 -1.438,-0.175 -2.112,-0.527 h -0.353 c -0.234,-0.235 -0.412,-0.352 -0.528,-0.352 0.116,0 0.294,0.058 0.528,0.175 h 0.704 1.233 c 0.469,0 1.524,-0.175 3.168,-0.527 h 0.177 0.353 c 0.116,0 0.177,-0.06 0.177,-0.177 0,-0.088 -0.118,-0.206 -0.353,-0.352 -0.235,-0.235 -0.412,-0.352 -0.528,-0.352 -0.44,-0.119 -1.204,-0.177 -2.289,-0.177 -0.353,0 -1.057,0.058 -2.114,0.177 h -2.641 c -1.644,0 -2.993,-0.119 -4.049,-0.352 -0.559,0 -1.146,-0.177 -1.761,-0.529 l -0.705,-0.352 c -0.852,-0.323 -1.849,-0.557 -2.993,-0.704 0.469,-0.117 0.939,-0.177 1.408,-0.177 0.733,0 1.38,0.118 1.937,0.352 0.733,0.235 1.263,0.412 1.585,0.529 h 1.762 c 0.439,0 1.027,0.06 1.76,0.177 h 5.459 c -2.582,-0.441 -4.167,-0.675 -4.755,-0.706 -0.234,-0.117 -0.571,-0.175 -1.011,-0.175 h -0.926 -1.585 -1.936 c -0.236,0 -0.528,-0.059 -0.881,-0.177 -0.352,-0.117 -0.587,-0.175 -0.704,-0.175 -0.352,-0.117 -0.764,-0.177 -1.232,-0.177 h -0.353 c -0.352,-0.117 -0.704,-0.292 -1.056,-0.527 -0.441,-0.323 -0.677,-0.852 -0.706,-1.585 0.559,0.852 1.146,1.262 1.762,1.233 0.821,0 1.408,0.117 1.761,0.352 0.469,0.117 1.114,0.175 1.937,0.175 -0.352,-0.117 -0.646,-0.292 -0.881,-0.527 -0.116,-0.235 -0.235,-0.471 -0.352,-0.706 -0.733,-1.29 -1.496,-2.289 -2.289,-2.993 -1.525,-1.525 -3.169,-2.289 -4.931,-2.289 h -0.22 c 0.588,-0.233 1.233,-0.352 1.938,-0.352 h 0.748 c 0.821,0.119 1.644,0.471 2.465,1.056 1.058,0.852 2.054,1.85 2.994,2.995 l 0.176,0.175 v -0.175 -0.175 c -0.235,-1.173 -0.412,-2.054 -0.529,-2.641 l -0.352,-1.408 c -1.086,-1.995 -2.377,-3.405 -3.874,-4.226 l -0.527,-0.397 h -0.353 c -0.352,0 -1.056,0.484 -2.113,1.453 -0.704,0.704 -1.114,1.174 -1.231,1.408 0,0.235 -0.06,0.352 -0.177,0.352 v -0.175 -0.352 c 0,-0.706 0.177,-1.35 0.528,-1.937 0.117,-0.117 0.321,-0.381 0.615,-0.793 0.294,-0.411 0.5,-0.733 0.616,-0.968 l 0.177,-0.175 v -0.177 -0.352 c 0.117,-0.205 0.396,-0.323 0.837,-0.352 0.116,0.118 0.365,0.293 0.748,0.529 0.117,0 0.265,0.058 0.44,0.175 l 0.264,0.177 c 1.173,0.733 2.171,1.437 2.993,2.112 1.292,1.175 2.289,2.701 2.993,4.578 0.089,0.558 0.206,1.262 0.353,2.114 0.116,0.117 0.177,0.821 0.177,2.112 0,0.118 0.058,0.177 0.175,0.177 v -0.352 c 0,-0.206 0.059,-0.667 0.177,-1.387 0.117,-0.719 0.177,-1.254 0.177,-1.606 0.117,-0.118 0.176,-0.235 0.176,-0.354 0,-0.117 -0.059,-0.175 -0.176,-0.175 -0.471,-0.117 -0.764,-0.293 -0.881,-0.529 v -0.527 c 0,-0.469 0.059,-0.704 0.176,-0.704 l 0.177,0.175 h 0.175 0.177 c 0,0.119 0.029,0.206 0.088,0.265 l 0.089,0.087 c 0.117,0.119 0.233,0.177 0.353,0.177 h 0.175 v -0.177 l -0.527,-0.527 c -0.235,-0.235 -0.441,-0.441 -0.616,-0.616 -0.177,-0.177 -0.441,-0.323 -0.793,-0.441 h 0.704 c 0.47,0 1.026,0.206 1.674,0.617 0.644,0.412 1.202,0.616 1.673,0.616 0,0.119 0.043,0.177 0.132,0.177 h 0.22 0.527 c 0.352,0 0.646,-0.117 0.881,-0.352 l 0.881,-0.881 h 0.175 c 0.117,0 0.206,-0.029 0.265,-0.087 l 0.088,-0.089 c 0.117,0 0.293,0.06 0.528,0.177 l 0.133,0.175 v 0.177 0.484 0.572 c -0.088,0 -0.162,0.029 -0.22,0.088 l -0.09,0.089 c -0.234,0.117 -0.352,0.294 -0.352,0.527 h 0.177 l 0.308,-0.087 0.396,-0.088 c 0.587,-0.235 1.35,-0.5 2.289,-0.793 0.939,-0.292 1.524,-0.498 1.76,-0.617 0.118,0 0.235,-0.027 0.354,-0.087 0.117,-0.059 0.234,-0.146 0.353,-0.265 l 0.175,-0.175 0.177,-0.177 h -0.704 c -0.822,-0.233 -1.351,-0.41 -1.585,-0.527 l -1.101,-0.529 -0.309,-0.177 c -0.235,-0.087 -0.411,-0.146 -0.527,-0.175 v 0.175 0.177 c -0.118,0 -0.235,-0.029 -0.353,-0.087 l -0.177,-0.089 c -0.116,0 -0.235,-0.043 -0.352,-0.13 l -0.22,-0.045 c -1.057,-0.235 -1.924,-0.352 -2.599,-0.352 h -0.704 c -0.322,0 -0.558,0.058 -0.704,0.175 l 0.31,0.177 c 0.116,0.206 0.188,0.44 0.22,0.704 v 0.177 h -0.22 c -0.089,0 -0.251,-0.058 -0.484,-0.177 0,-0.117 -0.06,-0.204 -0.177,-0.264 l -0.177,-0.088 c -1.056,-0.204 -1.702,-0.323 -1.936,-0.352 -0.589,0 -0.999,0.117 -1.232,0.352 -0.119,0 -0.235,0.06 -0.353,0.177 l -0.352,0.352 h -0.177 v -0.177 c 0,-0.556 0.177,-0.968 0.528,-1.233 0.353,-0.233 0.938,-0.352 1.761,-0.352 h 0.439 c 0.265,0 0.47,0.06 0.616,0.177 h 0.177 c 0.117,0 0.175,0.058 0.175,0.175 h 0.178 l 0.352,-0.175 c 0.235,-0.352 0.821,-0.529 1.76,-0.529 0.559,0 1.086,0.06 1.585,0.177 0.117,0 0.265,0.058 0.441,0.175 0.176,0.119 0.321,0.177 0.439,0.177 h 0.529 c 0.586,0 1.348,0.235 2.289,0.704 0.352,0.206 0.644,0.323 0.879,0.352 0.323,0.119 0.793,0.235 1.41,0.352 0.938,0.119 1.466,0.177 1.585,0.177 0.469,0 0.879,-0.117 1.231,-0.352 -0.205,0.235 -0.5,0.469 -0.88,0.704 0,0.117 -0.118,0.206 -0.352,0.265 -0.237,0.059 -0.412,0.087 -0.529,0.087 l -0.177,0.088 c -0.116,0.06 -0.235,0.087 -0.352,0.087 h -0.527 l -0.177,0.352 c -0.588,1.293 -1.585,2.056 -2.993,2.289 h -1.233 c -0.439,0 -0.91,-0.059 -1.408,-0.175 l -0.352,-0.177 h -0.177 l -0.176,0.177 c -0.324,0 -0.499,0.059 -0.528,0.175 v 0.177 0.352 c 0.204,1.292 0.322,2.466 0.352,3.522 0.469,-1.292 1.585,-2.406 3.346,-3.345 0.116,0 0.352,-0.117 0.705,-0.352 0.353,-0.235 0.645,-0.354 0.88,-0.354 0.704,-0.233 1.232,-0.424 1.585,-0.572 0.586,-0.208 1.055,-0.369 1.408,-0.488 z m -22.714,8.1 c 0.586,-0.205 1.351,-0.323 2.289,-0.352 0.117,0 0.323,0.029 0.617,0.087 0.292,0.06 0.498,0.089 0.616,0.089 -0.441,-0.235 -1.101,-0.354 -1.981,-0.354 -0.704,0 -1.218,0.118 -1.541,0.354 -0.118,0.087 -0.177,0.205 -0.177,0.352 z m 9.683,1.937 h 1.585 c 0.469,0 1.468,0.117 2.994,0.352 -0.236,0 -0.646,0.029 -1.232,0.087 -0.587,0.059 -0.998,0.147 -1.232,0.264 h -1.233 c -1.056,0 -2.112,-0.235 -3.17,-0.704 h 0.354 c 0.117,0 0.233,0.058 0.353,0.177 h 0.439 0.439 c 0.089,0 0.235,-0.031 0.441,-0.089 z m 0,-3.697 c -0.117,-0.117 -0.294,-0.191 -0.527,-0.221 0.233,0.03 0.41,0.104 0.527,0.221 z m -0.175,-0.705 -0.177,0.177 h 0.177 0.175 c 0,-0.352 -0.029,-0.529 -0.088,-0.529 -0.057,0 -0.087,0.118 -0.087,0.352 z m 1.76,-1.584 c 0.117,-1.526 0.235,-2.641 0.352,-3.347 -0.234,0.235 -0.526,0.352 -0.879,0.352 h -0.352 c 0.116,1.41 0.175,2.466 0.175,3.17 v 0.177 0.175 h 0.177 0.176 0.177 c 0.116,-0.233 0.174,-0.41 0.174,-0.527 z m -0.175,1.76 v -0.352 c 0,-0.117 -0.074,-0.177 -0.221,-0.177 h -0.309 v 0.529 h 0.309 0.088 z m 1.717,-4.578 0.22,-0.177 v -0.175 h -0.352 l -0.706,-0.396 c 0.118,0.968 0.177,1.865 0.177,2.686 v 0.881 c 0,0.117 -0.029,0.205 -0.088,0.263 -0.06,0.06 -0.089,0.148 -0.089,0.265 h 0.177 0.352 c 0.117,0 0.178,-0.117 0.178,-0.352 -10e-4,-1.262 0.042,-2.261 0.131,-2.995 z m -0.309,4.578 v -0.352 h -0.175 -0.354 v 0.352 h 0.177 c 0.117,0.118 0.235,0.177 0.352,0.177 z m 1.408,-4.401 v -0.177 -0.177 c 0,-0.117 -0.116,-0.175 -0.352,-0.175 v 0.175 1.058 0.969 0.792 l -0.176,0.352 v 0.529 h 0.527 v -0.352 c 0,-0.089 -0.029,-0.265 -0.087,-0.529 l -0.088,-0.352 c 10e-4,-0.469 0.06,-1.174 0.176,-2.113 z m -0.527,4.578 h 0.527 v -0.529 h -0.527 v 0.352 z" /><path
     style="fill:#00082d"
     inkscape:connector-curvature="0"
     id="path560"
     d="m 531.125,249.814 -0.265,-0.177 c -0.177,-0.117 -0.322,-0.175 -0.439,-0.175 h -0.353 c -0.236,0 -0.354,-0.059 -0.354,-0.177 0,-0.117 0.177,-0.235 0.529,-0.352 0.117,-0.117 0.294,-0.177 0.528,-0.177 0.234,0 0.47,0.06 0.704,0.177 0.234,0.088 0.411,0.199 0.527,0.331 0.119,0.132 0.177,0.257 0.177,0.374 l -0.177,0.177 c 0,0.117 -0.116,0.175 -0.352,0.175 h -0.176 c -0.116,-0.001 -0.232,-0.059 -0.349,-0.176 z" /><path
     style="fill:#870000"
     inkscape:connector-curvature="0"
     id="path562"
     d="m 536.407,224.751 c 0.587,0.235 0.997,0.587 1.232,1.056 l -0.352,0.484 0.175,1.63 v 0.352 c 0,0.469 -0.175,0.879 -0.527,1.231 h -0.177 c -0.235,0 -0.412,-0.527 -0.528,-1.583 -0.704,0 -1.879,0.293 -3.521,0.879 v 0.352 0.177 c 1.524,-0.469 2.464,-0.704 2.816,-0.704 0.116,0 0.235,0.117 0.352,0.352 l -0.879,0.527 c -0.559,0.706 -0.852,1.175 -0.881,1.41 l 1.76,0.704 c 0.206,-0.469 0.323,-0.881 0.353,-1.233 l -0.176,-0.352 0.176,-0.175 h 0.177 c 0.587,0.204 0.881,0.381 0.881,0.527 l -0.706,1.233 -0.175,0.529 c 0.733,0.352 2.142,0.939 4.226,1.76 v 0.175 c -0.558,0.354 -1.087,0.529 -1.585,0.529 h -0.352 c -0.471,0 -1.408,-0.529 -2.818,-1.585 -0.968,0.704 -1.73,1.056 -2.289,1.056 h -0.352 -1.057 v -0.175 c 0.939,0 1.938,-0.469 2.993,-1.408 v -0.177 l -1.232,-1.056 c -1.408,1.996 -2.816,2.993 -4.227,2.993 1.732,-1.408 3.022,-2.699 3.874,-3.874 l 0.177,-0.527 c -0.352,0 -1.408,0.41 -3.17,1.231 v -0.175 -0.704 l 1.408,-0.529 v -0.529 c 0,-1.173 0.235,-2.229 0.706,-3.168 h 0.175 v 0.175 c 1.293,-0.939 2.467,-1.408 3.523,-1.408 z m 1.408,-2.289 c 0.82,0 1.291,0.175 1.409,0.527 v 0.354 c 0,0.235 -0.293,0.411 -0.881,0.527 l -1.585,-0.175 c -0.704,0 -1.82,0.587 -3.345,1.76 h -0.177 l 1.013,-1.408 h -0.132 l -2.114,0.527 -0.879,-0.175 c 0,-0.117 1.995,-0.763 5.986,-1.937 z m -4.93,5.282 v 0.352 c 1.526,-0.587 2.406,-0.881 2.642,-0.881 l 0.704,0.177 v -0.704 c -0.821,0 -1.879,0.293 -3.169,0.879 -0.119,0 -0.177,0.06 -0.177,0.177 z m 0.177,-0.881 2.112,-0.704 h 0.529 l 0.527,0.132 v -0.307 c 0,-0.471 -0.117,-0.706 -0.353,-0.706 -0.852,0 -1.789,0.47 -2.816,1.41 v 0.175 z" /><path
     style="fill:#00082d"
     inkscape:connector-curvature="0"
     id="path564"
     d="m 538.696,246.997 v 0.132 l -0.088,0.132 -0.089,0.088 v 0.177 c -0.353,0.117 -0.646,0.175 -0.88,0.175 -0.235,0.118 -0.499,0.177 -0.793,0.177 -0.294,0 -0.5,-0.059 -0.616,-0.177 -0.205,0 -0.315,-0.059 -0.329,-0.175 -0.016,-0.117 0.212,-0.294 0.681,-0.529 l 0.706,-0.352 c 0.116,0 0.233,-0.029 0.352,-0.088 0.117,-0.058 0.233,-0.117 0.353,-0.177 0.116,-0.059 0.233,-0.087 0.352,-0.087 0.353,0 0.529,0.175 0.529,0.527 z" /><path
     style="fill:#00082d"
     inkscape:connector-curvature="0"
     id="path566"
     d="m 538.167,248.229 c 0.235,0 0.353,0.117 0.353,0.352 0,0.323 -0.191,0.5 -0.572,0.527 l -0.836,-0.175 c -0.469,0 -0.704,-0.117 -0.704,-0.352 l 0.704,-0.177 h 0.704 c 0.116,-0.116 0.235,-0.175 0.351,-0.175 z" /><path
     style="fill:#00082d"
     inkscape:connector-curvature="0"
     id="path568"
     d="m 524.942,241.442 c -0.852,-1.996 -2.417,-4.248 -4.149,-6.595 -0.352,-0.587 -0.587,-0.881 -0.704,-0.881 v -0.175 l -0.175,-0.089 c -0.118,-0.028 -0.235,-0.117 -0.353,-0.263 -0.118,-0.235 -0.235,-0.354 -0.352,-0.354 l -0.354,0.354 c -1.761,1.496 -3.11,2.493 -4.05,2.993 -0.116,0.117 -0.764,0.352 -1.937,0.704 1.614,-0.852 2.729,-1.614 3.345,-2.289 0.117,-0.117 0.206,-0.293 0.265,-0.529 0.059,-0.233 0.146,-0.469 0.265,-0.704 0.116,-0.235 0.228,-0.41 0.33,-0.529 0.102,-0.117 0.249,-0.321 0.44,-0.615 0.19,-0.293 0.344,-0.5 0.462,-0.616 0,-0.089 0.029,-0.177 0.088,-0.265 l 0.177,-0.177 c 0.059,-0.059 0.146,-0.087 0.263,-0.087 h 0.177 c 0.117,0 0.235,-0.029 0.353,-0.088 l 0.177,-0.089 0.175,0.089 c 0.117,0.059 0.205,0.147 0.265,0.265 0.059,0.117 0.088,0.235 0.088,0.352 0.116,0.117 0.264,0.235 0.441,0.352 0.175,0.117 0.263,0.235 0.263,0.352 0.116,0.117 0.322,0.352 0.616,0.704 0.294,0.352 0.5,0.587 0.616,0.704 0.587,0.735 1.233,1.673 1.938,2.818 v 0.175 h 0.177 c 0,-0.233 -0.061,-0.41 -0.177,-0.527 0,-0.822 0.058,-1.791 0.177,-2.905 0.116,-1.115 0.292,-2.083 0.527,-2.905 0.322,-1.173 0.675,-1.996 1.056,-2.466 0.471,-0.557 1.058,-1.144 1.762,-1.76 -1.175,1.174 -1.879,3.463 -2.113,6.867 v 1.584 c 0,1.408 0.116,3.345 0.352,5.811 v 0.352 m 7.923,5.282 c 0,-0.117 0.175,-0.294 0.527,-0.529 0.822,-0.352 1.409,-0.704 1.762,-1.056 l 0.175,-0.175 c 0,-0.119 0.059,-0.177 0.177,-0.177 l 0.265,-0.088 c 0.175,-0.058 0.323,-0.147 0.439,-0.264 0.117,0 0.265,-0.088 0.439,-0.265 l 0.441,-0.439 c 0.205,-0.117 0.433,-0.177 0.683,-0.177 0.249,0 0.374,0.06 0.374,0.177 v 0.175 h 0.177 c 0,0.118 -0.061,0.235 -0.177,0.352 -0.471,0.941 -1.351,1.585 -2.642,1.937 -0.969,0.235 -1.732,0.412 -2.289,0.529 h -0.351" /></g></svg>