<?xml version="1.0" encoding="UTF-8" standalone="no"?>
<!-- Generator: Adobe Illustrator 16.0.0, SVG Export Plug-In . SVG Version: 6.00 Build 0)  -->

<svg
   xmlns:dc="http://purl.org/dc/elements/1.1/"
   xmlns:cc="http://creativecommons.org/ns#"
   xmlns:rdf="http://www.w3.org/1999/02/22-rdf-syntax-ns#"
   xmlns:svg="http://www.w3.org/2000/svg"
   xmlns="http://www.w3.org/2000/svg"
   xmlns:sodipodi="http://sodipodi.sourceforge.net/DTD/sodipodi-0.dtd"
   xmlns:inkscape="http://www.inkscape.org/namespaces/inkscape"
   version="1.1"
   id="图层_1"
   x="0px"
   y="0px"
   width="139.76401"
   height="200"
   viewBox="0 0 139.764 200"
   enable-background="new 0 0 714 341"
   xml:space="preserve"
   sodipodi:docname="0406發.svg"
   inkscape:version="0.92.3 (2405546, 2018-03-11)"><metadata
   id="metadata621"><rdf:RDF><cc:Work
       rdf:about=""><dc:format>image/svg+xml</dc:format><dc:type
         rdf:resource="http://purl.org/dc/dcmitype/StillImage" /><dc:title /></cc:Work></rdf:RDF></metadata><defs
   id="defs619" /><sodipodi:namedview
   pagecolor="#ffffff"
   bordercolor="#666666"
   borderopacity="1"
   objecttolerance="10"
   gridtolerance="10"
   guidetolerance="10"
   inkscape:pageopacity="0"
   inkscape:pageshadow="2"
   inkscape:window-width="1366"
   inkscape:window-height="705"
   id="namedview617"
   showgrid="false"
   inkscape:zoom="1"
   inkscape:cx="-194.99666"
   inkscape:cy="152.60966"
   inkscape:window-x="-8"
   inkscape:window-y="-8"
   inkscape:window-maximized="1"
   inkscape:current-layer="图层_1" />



















































































































































































































































































































<g
   transform="matrix(4.0331525,0,0,4.0331525,-837.83097,-900.64328)"
   id="g1973"><path
     inkscape:connector-curvature="0"
     id="path194"
     d="m 242.389,226.895 v 42.419 c 0,0.995 -0.35,1.842 -1.046,2.539 -0.697,0.696 -1.544,1.046 -2.54,1.046 H 211.32 c -0.996,0 -1.842,-0.35 -2.539,-1.046 -0.697,-0.697 -1.045,-1.544 -1.045,-2.539 v -42.419 c 0,-0.995 0.348,-1.842 1.045,-2.54 0.697,-0.696 1.543,-1.045 2.539,-1.045 h 27.483 c 0.996,0 1.842,0.349 2.54,1.045 0.696,0.698 1.046,1.545 1.046,2.54 z m -3.586,-1.792 H 211.32 c -0.518,0 -0.946,0.17 -1.284,0.508 -0.339,0.339 -0.508,0.767 -0.508,1.285 v 42.419 c 0,0.517 0.169,0.946 0.508,1.285 0.338,0.338 0.766,0.508 1.284,0.508 h 27.483 c 0.518,0 0.946,-0.17 1.285,-0.508 0.338,-0.339 0.508,-0.768 0.508,-1.285 v -42.419 c 0,-0.518 -0.169,-0.946 -0.508,-1.285 -0.339,-0.339 -0.767,-0.508 -1.285,-0.508 z" /><path
     style="fill:#133f00"
     inkscape:connector-curvature="0"
     id="path196"
     d="m 232.59,252.585 c -0.159,0.399 -0.936,0.598 -2.33,0.598 -0.2,0 -0.508,-0.009 -0.926,-0.03 -0.418,-0.02 -0.747,-0.03 -0.986,-0.03 -0.081,0 -0.229,0.01 -0.448,0.03 -0.219,0.021 -0.388,0.03 -0.508,0.03 -0.239,2.191 -0.418,3.386 -0.538,3.585 -0.279,0.398 -0.947,0.906 -2.001,1.523 -1.056,0.618 -1.763,0.926 -2.121,0.926 -0.2,0 -0.388,-0.079 -0.568,-0.239 -0.179,-0.159 -0.269,-0.338 -0.269,-0.538 0,-0.239 0.289,-0.558 0.866,-0.956 0.577,-0.398 1.195,-0.945 1.852,-1.643 0.657,-0.696 1.046,-1.523 1.165,-2.479 -0.16,0.04 -0.578,0.089 -1.254,0.149 -0.678,0.06 -1.175,0.129 -1.494,0.209 -0.239,0.479 -0.508,1.046 -0.807,1.703 -0.299,0.658 -0.528,1.156 -0.687,1.494 -0.16,0.338 -0.349,0.687 -0.568,1.045 -0.219,0.358 -0.448,0.618 -0.687,0.777 -0.239,0.159 -0.518,0.239 -0.836,0.239 -0.279,0 -0.578,-0.099 -0.896,-0.299 -0.319,-0.199 -0.578,-0.408 -0.777,-0.627 -0.2,-0.219 -0.478,-0.547 -0.836,-0.986 -0.358,-0.438 -0.618,-0.736 -0.776,-0.896 -0.2,0.08 -0.638,0.12 -1.315,0.12 -0.637,0 -1.155,-0.696 -1.553,-2.091 1.036,0.438 1.733,0.657 2.091,0.657 0.318,0 1.453,-0.438 3.405,-1.314 1.951,-0.875 3.026,-1.414 3.227,-1.613 -0.041,-0.318 -0.379,-0.696 -1.016,-1.135 -0.399,0.081 -0.917,0.409 -1.554,0.986 -0.638,0.578 -1.135,0.866 -1.494,0.866 -0.478,0 -0.817,-0.159 -1.016,-0.478 0.278,-0.159 0.916,-0.598 1.912,-1.314 0.995,-0.717 1.792,-1.195 2.39,-1.434 0.318,-0.397 0.478,-0.875 0.478,-1.434 -0.16,-0.079 -0.358,-0.12 -0.598,-0.12 -0.358,0 -0.857,0.2 -1.494,0.598 -1.275,1.514 -2.39,2.599 -3.346,3.256 -0.956,0.657 -2.191,1.125 -3.704,1.404 3.226,-2.589 5.616,-4.899 7.169,-6.931 -0.12,-0.239 -0.667,-0.826 -1.643,-1.762 -0.977,-0.936 -1.484,-1.683 -1.523,-2.241 0.637,0.081 1.394,0.448 2.271,1.105 0.875,0.657 1.513,1.205 1.912,1.643 1.115,-1.354 1.892,-2.649 2.33,-3.884 -0.438,0.04 -1.056,0.26 -1.852,0.658 -0.797,0.398 -1.415,0.597 -1.852,0.597 -0.319,0 -0.558,-0.08 -0.717,-0.239 0.039,-0.039 0.308,-0.239 0.806,-0.598 0.498,-0.358 1.055,-0.756 1.673,-1.195 0.617,-0.438 1.105,-0.816 1.464,-1.135 0.239,-0.239 0.508,-0.558 0.807,-0.956 0.299,-0.398 0.568,-0.717 0.807,-0.956 0.239,-0.239 0.478,-0.358 0.717,-0.358 0.239,0 0.478,0.089 0.717,0.269 0.239,0.179 0.358,0.388 0.358,0.627 0,0.04 -0.14,0.438 -0.418,1.195 0.12,0.2 0.498,0.657 1.135,1.374 0.358,-0.478 0.796,-1.474 1.314,-2.987 0.517,-1.513 0.875,-2.369 1.076,-2.569 0.199,0.08 0.457,0.349 0.776,0.806 0.318,0.458 0.478,0.847 0.478,1.166 0,0.119 -0.09,0.259 -0.269,0.418 -0.179,0.16 -0.309,0.319 -0.388,0.478 -0.478,1.235 -1.195,2.53 -2.151,3.883 0.677,1.036 1.095,1.634 1.255,1.792 0.836,-0.836 1.374,-1.673 1.613,-2.509 0.358,0.04 0.696,0.219 1.016,0.538 0.318,0.319 0.479,0.618 0.479,0.896 0,0.279 -0.1,0.418 -0.299,0.418 -0.239,0 -0.478,0.081 -0.717,0.24 -0.239,0.159 -0.488,0.379 -0.747,0.657 -0.26,0.279 -0.469,0.478 -0.627,0.598 1.195,1.594 2.21,2.808 3.047,3.644 0.836,0.837 1.414,1.325 1.733,1.464 0.318,0.14 0.736,0.568 1.254,1.285 0.517,0.717 1.175,1.892 1.972,3.525 -0.399,0 -0.907,-0.158 -1.523,-0.478 -0.618,-0.318 -1.384,-0.756 -2.3,-1.314 -0.917,-0.557 -1.713,-0.996 -2.39,-1.315 -0.239,-0.358 -0.538,-1.045 -0.896,-2.061 -0.358,-1.016 -1.016,-2.3 -1.971,-3.854 -0.319,0.16 -0.658,0.239 -1.016,0.239 0.397,-0.677 0.597,-1.036 0.597,-1.076 -1.075,-2.07 -2.052,-3.564 -2.928,-4.48 -0.558,1.115 -1.813,3.206 -3.764,6.273 0.239,0.239 0.517,0.358 0.836,0.358 0.159,0 0.378,-0.09 0.657,-0.269 0.278,-0.179 0.498,-0.269 0.657,-0.269 0.478,0 0.796,0.16 0.956,0.479 -0.081,0.159 -0.2,0.298 -0.359,0.418 -0.16,0.12 -0.339,0.23 -0.538,0.329 -0.2,0.1 -0.358,0.189 -0.478,0.269 -0.239,0.399 -0.319,0.817 -0.239,1.254 0.677,-0.119 1.334,-0.378 1.971,-0.777 0.518,-1.871 0.777,-3.465 0.777,-4.779 0,-0.318 -0.021,-0.617 -0.06,-0.896 0.995,0.638 1.494,1.354 1.494,2.151 0,0.279 -0.03,0.498 -0.089,0.657 -0.06,0.159 -0.14,0.319 -0.239,0.478 -0.1,0.16 -0.26,0.529 -0.478,1.105 -0.219,0.578 -0.469,1.325 -0.747,2.24 0.198,0.239 0.358,0.359 0.478,0.359 0.278,0 0.726,-0.159 1.344,-0.478 0.617,-0.318 1.145,-0.478 1.583,-0.478 0.398,0 0.677,0.299 0.836,0.896 -0.081,0.08 -0.369,0.179 -0.866,0.298 -0.499,0.12 -0.866,0.26 -1.105,0.418 -0.12,0.717 -0.2,1.474 -0.239,2.271 0.397,0 0.836,-0.02 1.314,-0.06 0.478,-0.039 0.756,-0.06 0.836,-0.06 0.159,0 0.348,-0.069 0.567,-0.208 0.218,-0.139 0.408,-0.189 0.567,-0.15 0.84,0.2 1.437,0.538 1.796,1.015 z m -15.952,3.287 c 0.637,0.638 1.473,0.956 2.51,0.956 0.397,0 0.896,-0.418 1.493,-1.254 0.598,-0.837 0.896,-1.414 0.896,-1.733 0,-0.239 -0.12,-0.438 -0.359,-0.597 -1.991,0.916 -3.505,1.791 -4.54,2.628 z m 7.289,-5.019 c 0,-0.12 0.03,-0.259 0.09,-0.418 0.06,-0.159 0.139,-0.389 0.239,-0.687 0.099,-0.299 0.169,-0.547 0.209,-0.747 -1.037,0.16 -1.893,0.578 -2.569,1.255 0.079,0.358 0.259,0.627 0.538,0.806 0.278,0.179 0.438,0.309 0.478,0.389 0.318,0.677 0.498,1.075 0.538,1.195 0.199,-0.039 1.076,-0.179 2.629,-0.418 0.159,-0.797 0.239,-1.533 0.239,-2.211 -0.518,0 -0.936,-0.06 -1.254,-0.179 -0.56,0.637 -0.939,0.976 -1.137,1.015 z m 4.839,4.481 c 0.239,-0.239 0.737,-0.358 1.494,-0.358 0.916,0 1.792,0.239 2.629,0.717 0.836,0.478 1.255,1.016 1.255,1.613 0,0.597 -0.309,1.085 -0.926,1.463 -0.618,0.379 -1.265,0.568 -1.942,0.568 -0.04,0 -0.09,-0.01 -0.149,-0.03 -0.06,-0.02 -0.11,-0.03 -0.149,-0.03 -0.199,-0.278 -0.438,-0.756 -0.717,-1.434 -0.28,-0.676 -0.778,-1.513 -1.495,-2.509 z" /></g></svg>