<?xml version="1.0" encoding="UTF-8" standalone="no"?>
<!-- Generator: Adobe Illustrator 16.0.0, SVG Export Plug-In . SVG Version: 6.00 Build 0)  -->

<svg
   xmlns:dc="http://purl.org/dc/elements/1.1/"
   xmlns:cc="http://creativecommons.org/ns#"
   xmlns:rdf="http://www.w3.org/1999/02/22-rdf-syntax-ns#"
   xmlns:svg="http://www.w3.org/2000/svg"
   xmlns="http://www.w3.org/2000/svg"
   xmlns:sodipodi="http://sodipodi.sourceforge.net/DTD/sodipodi-0.dtd"
   xmlns:inkscape="http://www.inkscape.org/namespaces/inkscape"
   version="1.1"
   id="图层_1"
   x="0px"
   y="0px"
   width="139.76401"
   height="200"
   viewBox="0 0 139.764 200"
   enable-background="new 0 0 714 341"
   xml:space="preserve"
   sodipodi:docname="0504冬.svg"
   inkscape:version="0.92.3 (2405546, 2018-03-11)"><metadata
   id="metadata621"><rdf:RDF><cc:Work
       rdf:about=""><dc:format>image/svg+xml</dc:format><dc:type
         rdf:resource="http://purl.org/dc/dcmitype/StillImage" /><dc:title /></cc:Work></rdf:RDF></metadata><defs
   id="defs619" /><sodipodi:namedview
   pagecolor="#ffffff"
   bordercolor="#666666"
   borderopacity="1"
   objecttolerance="10"
   gridtolerance="10"
   guidetolerance="10"
   inkscape:pageopacity="0"
   inkscape:pageshadow="2"
   inkscape:window-width="1366"
   inkscape:window-height="705"
   id="namedview617"
   showgrid="false"
   inkscape:zoom="1"
   inkscape:cx="-52.49666"
   inkscape:cy="112.60966"
   inkscape:window-x="-8"
   inkscape:window-y="-8"
   inkscape:window-maximized="1"
   inkscape:current-layer="图层_1" />



















































































































































































































































































































<g
   transform="matrix(4.0331525,0,0,4.0331525,-2364.4639,-882.47797)"
   id="g2075"><path
     inkscape:connector-curvature="0"
     id="path578"
     d="m 586.257,222.39 c 0,-0.994 0.349,-1.842 1.046,-2.539 0.696,-0.696 1.543,-1.045 2.539,-1.045 h 27.483 c 0.995,0 1.843,0.349 2.54,1.045 0.695,0.697 1.045,1.545 1.045,2.539 v 42.42 c 0,0.995 -0.35,1.842 -1.045,2.539 -0.697,0.696 -1.545,1.046 -2.54,1.046 h -27.483 c -0.996,0 -1.843,-0.35 -2.539,-1.046 -0.697,-0.697 -1.046,-1.544 -1.046,-2.539 m 1.793,0 c 0,0.518 0.169,0.945 0.508,1.285 0.338,0.338 0.766,0.508 1.284,0.508 h 27.483 c 0.518,0 0.946,-0.17 1.284,-0.508 0.338,-0.34 0.508,-0.768 0.508,-1.285 v -42.42 c 0,-0.518 -0.17,-0.945 -0.508,-1.284 -0.338,-0.338 -0.767,-0.508 -1.284,-0.508 h -27.483 c -0.519,0 -0.946,0.17 -1.284,0.508 -0.339,0.339 -0.508,0.767 -0.508,1.284" /><path
     style="fill:#a00283"
     inkscape:connector-curvature="0"
     id="path580"
     d="m 601.593,250.286 h -0.378 c -0.379,0 -0.661,0.096 -0.851,0.284 -0.189,0.19 -0.284,0.475 -0.284,0.853 h 0.379 c 0.504,-0.125 0.882,-0.378 1.134,-0.758 v -0.188 z" /><path
     style="fill:#870000"
     inkscape:connector-curvature="0"
     id="path582"
     d="m 610.419,223.48 c 0.361,0.09 0.541,0.212 0.541,0.362 v 0.18 c -0.603,0.604 -0.903,0.966 -0.903,1.087 h 0.542 c 0.361,0 0.843,-0.121 1.447,-0.362 0.603,0.241 0.904,0.541 0.904,0.903 -0.603,0.242 -1.326,0.831 -2.17,1.764 v 0.226 c 2.05,1.116 4.16,2.02 6.332,2.713 l 0.18,0.182 c -1.115,0.574 -1.9,0.875 -2.352,0.905 -0.604,-0.212 -2.17,-1.236 -4.704,-3.076 -2.049,2.171 -3.979,3.256 -5.787,3.256 1.566,-0.843 2.953,-1.869 4.159,-3.075 l 0.724,-0.724 -1.673,-0.724 c -0.09,0.21 -0.257,0.316 -0.498,0.316 l -0.18,-0.136 c 0,-0.602 0.542,-1.267 1.627,-1.99 0.843,-0.753 1.267,-1.295 1.267,-1.628 z m -2.352,3.437 c 0.602,0 1.205,0.122 1.808,0.362 l 1.085,-1.447 -0.541,-0.181 c -0.695,-0.029 -1.48,0.393 -2.352,1.266 z m 1.582,3.075 h 0.226 c 1.327,0.242 1.991,0.664 1.991,1.267 -0.212,0.212 -0.875,0.452 -1.991,0.724 -0.451,0.362 -0.813,0.723 -1.085,1.085 0,0.211 0.723,0.453 2.17,0.725 1.086,0.604 1.63,1.146 1.63,1.627 0,0.122 -0.122,0.182 -0.363,0.182 -0.451,0 -1.598,-0.482 -3.437,-1.447 l -0.362,-0.543 c 0,-0.572 0.483,-1.417 1.447,-2.532 v -0.182 l -0.724,-0.724 z" /><path
     style="fill:#a00283"
     inkscape:connector-curvature="0"
     id="path584"
     d="m 609.539,248.117 c -0.504,-0.126 -1.07,-0.189 -1.7,-0.189 -0.789,0 -1.294,0.063 -1.516,0.189 v -0.189 -0.378 c -0.124,-0.253 -0.314,-0.441 -0.565,-0.568 -0.253,-0.125 -0.443,-0.188 -0.569,-0.188 -0.788,-0.125 -1.418,-0.19 -1.892,-0.19 h -0.473 -0.285 c 0,-0.472 0.128,-0.851 0.38,-1.134 l 0.095,-0.095 0.188,-0.19 c 0.063,-0.062 0.125,-0.094 0.189,-0.094 0.062,0 0.094,-0.063 0.094,-0.19 0,-0.125 -0.094,-0.188 -0.283,-0.188 -0.188,0 -0.41,0.063 -0.663,0.188 -0.252,0.127 -0.439,0.348 -0.566,0.662 -0.127,0.316 -0.19,0.537 -0.19,0.663 v 0.377 0.19 c -0.63,0 -1.134,0.253 -1.513,0.757 -0.757,-1.134 -1.892,-1.829 -3.406,-2.081 h -0.285 -0.472 c -1.387,0 -2.397,0.378 -3.027,1.134 -0.252,0.378 -0.44,0.822 -0.566,1.325 0,0.126 0.062,0.254 0.188,0.378 0.127,0.126 0.19,0.253 0.19,0.378 l -0.378,0.19 c 0,0.252 0.126,0.441 0.378,0.567 0.125,0.128 0.188,0.252 0.188,0.378 0.252,0.252 0.693,0.378 1.325,0.378 0.124,0 0.283,0.033 0.474,0.096 0.188,0.063 0.345,0.094 0.472,0.094 0.757,0 1.135,-0.126 1.135,-0.378 0,-0.253 -0.314,-0.378 -0.945,-0.378 -0.789,-0.253 -1.372,-0.504 -1.75,-0.757 -0.094,-0.126 -0.142,-0.252 -0.142,-0.38 v -0.188 c 0.095,0 0.142,-0.063 0.142,-0.189 v -0.189 c 0.378,-0.631 0.961,-1.071 1.75,-1.325 h 0.758 c 0.914,0 1.733,0.253 2.459,0.757 h -0.283 -0.283 c -0.601,0 -1.294,0.127 -2.083,0.378 1.389,0 2.334,0.127 2.839,0.378 0.378,0.127 0.567,0.315 0.567,0.568 0,0.378 0.252,0.568 0.757,0.568 0.126,0 0.253,-0.062 0.379,-0.19 0.125,0.128 0.316,0.19 0.568,0.19 0.126,0 0.188,-0.126 0.188,-0.378 l -0.188,-0.19 c -0.128,-0.125 -0.191,-0.252 -0.191,-0.378 0,-0.125 0.063,-0.189 0.191,-0.189 0,-0.126 0.126,-0.189 0.377,-0.189 0.128,-0.125 0.286,-0.189 0.474,-0.189 h 0.472 v 0.378 0.568 c 0.128,-0.22 0.253,-0.347 0.38,-0.378 0.252,-0.378 0.82,-0.568 1.702,-0.568 h 0.188 c 0.127,0 0.316,0.127 0.569,0.378 h -0.19 v 0.189 l -0.189,0.378 -0.567,0.19 c 0,0.252 0.189,0.378 0.567,0.378 0.127,0 0.506,-0.126 1.137,-0.378 1.224,-0.504 2.36,-0.757 3.4,-0.757 z" /><path
     style="fill:#a00283"
     inkscape:connector-curvature="0"
     id="path586"
     d="m 598.943,245.186 c 0,0.125 0.094,0.284 0.284,0.472 0.188,0.19 0.346,0.332 0.472,0.426 h 0.759 l -0.19,-0.142 c -0.126,-0.126 -0.19,-0.253 -0.19,-0.378 0,-0.253 0.064,-0.442 0.19,-0.568 0.126,-0.126 0.567,-0.378 1.324,-0.757 1.608,-0.473 3.123,-0.914 4.542,-1.325 -0.349,-0.126 -0.915,-0.188 -1.704,-0.188 0,0 -1.912,-0.122 -3.727,0.636 -1.815,0.758 -1.76,1.824 -1.76,1.824 z" /><path
     style="fill:#a00283"
     inkscape:connector-curvature="0"
     id="path588"
     d="m 609.35,244.618 c 0,-0.598 -0.568,-1.041 -1.702,-1.325 -0.127,-0.126 -0.348,-0.188 -0.663,-0.188 h -0.663 -0.188 c -0.127,0.125 -0.206,0.253 -0.236,0.378 0,0.126 0.141,0.19 0.424,0.19 0.253,0 0.569,0.063 0.948,0.188 l 0.756,0.378 c 0.126,0.127 0.19,0.253 0.19,0.378 v 0.19 0.188 c 0,0.126 -0.064,0.315 -0.19,0.568 l -0.188,0.094 c -0.127,0.064 -0.221,0.127 -0.284,0.19 -0.064,0.063 -0.094,0.142 -0.094,0.236 0,0.125 0.062,0.205 0.188,0.236 0.219,0 0.408,-0.078 0.568,-0.236 0.378,-0.095 0.629,-0.205 0.757,-0.333 l 0.188,-0.377 v -0.567 c 0.125,0.002 0.189,-0.061 0.189,-0.188 z" /><path
     style="fill:#a00283"
     inkscape:connector-curvature="0"
     id="path590"
     d="m 614.079,246.51 -0.235,-0.19 c -0.095,-0.125 -0.175,-0.22 -0.237,-0.284 l -0.093,-0.093 h -0.191 l -0.188,-0.191 c -0.506,-0.251 -1.199,-0.377 -2.082,-0.377 -0.788,0 -1.356,0.064 -1.703,0.19 -0.253,0.125 -0.537,0.315 -0.853,0.568 -0.315,0.252 -0.534,0.377 -0.66,0.377 -0.127,0.253 -0.634,0.567 -1.516,0.945 h 0.191 c 0.628,0 1.639,-0.313 3.024,-0.945 0.348,-0.125 0.728,-0.19 1.137,-0.19 0.506,0 0.932,0.065 1.277,0.19 0.379,0.378 0.584,0.632 0.614,0.757 0,0.125 -0.063,0.284 -0.188,0.473 -0.127,0.19 -0.19,0.347 -0.19,0.472 0,0.38 0.19,0.568 0.569,0.568 h 0.188 c 0.504,0 0.882,-0.125 1.135,-0.378 l 0.097,-0.19 c 0.062,-0.094 0.095,-0.188 0.095,-0.282 v -0.19 -0.284 c 10e-4,-0.252 -0.065,-0.567 -0.191,-0.946 z" /><path
     style="fill:#00082d"
     inkscape:connector-curvature="0"
     id="path592"
     d="m 595.729,252.936 c -1.137,-0.881 -2.146,-1.387 -3.028,-1.513 -0.252,-0.125 -0.567,-0.19 -0.946,-0.19 -0.6,0 -1.105,0.064 -1.514,0.19 -0.473,0.378 -0.789,0.74 -0.946,1.087 v 0.236 c 0,0.128 -0.063,0.19 -0.188,0.19 v 0.378 c 0.125,0.506 0.313,0.884 0.567,1.135 0.125,0 0.253,0.032 0.377,0.094 0.126,0.065 0.253,0.096 0.379,0.096 0.126,0 0.19,0.094 0.19,0.284 0,0.188 0.063,0.283 0.189,0.283 l 0.379,0.19 h 0.329 c 0.126,0.125 0.396,0.188 0.806,0.188 0.126,0 0.37,-0.029 0.733,-0.094 0.361,-0.063 0.685,-0.094 0.969,-0.094 1.042,0 1.799,0.125 2.27,0.378 -0.6,-0.882 -1.672,-1.387 -3.216,-1.513 -0.787,0 -1.231,-0.063 -1.324,-0.19 v -0.188 c 0,-0.378 0.063,-0.568 0.19,-0.568 0.124,-0.125 0.378,-0.19 0.756,-0.19 0.757,0 1.702,0.316 2.837,0.947 0.757,0.252 1.577,0.694 2.462,1.325 -0.475,-0.854 -1.23,-1.673 -2.271,-2.461 z m 0.945,8.514 c -0.503,-0.378 -1.197,-0.567 -2.081,-0.567 -0.504,0 -0.945,0.063 -1.322,0.188 -0.129,0 -0.381,0.127 -0.76,0.378 -0.377,0.127 -0.708,0.252 -0.993,0.377 l -0.048,0.096 -0.093,0.094 -0.095,0.094 c -0.064,0.063 -0.158,0.094 -0.284,0.094 -0.126,0 -0.253,0.19 -0.378,0.568 v 0.568 0.188 0.19 l 0.189,0.378 c 0,0.125 0.063,0.188 0.188,0.188 0,0.126 0.063,0.19 0.19,0.19 h 0.188 l 0.378,0.142 c 0.126,0 0.251,-0.047 0.379,-0.142 0.125,0 0.283,-0.032 0.473,-0.094 0.189,-0.064 0.378,-0.19 0.567,-0.378 0.189,-0.19 0.332,-0.285 0.426,-0.285 l 1.182,-0.568 c 0.505,-0.252 0.884,-0.441 1.136,-0.568 h -0.379 -0.378 c -0.127,0 -0.567,0.063 -1.324,0.19 -0.222,0.126 -0.473,0.19 -0.757,0.19 -0.127,0 -0.189,-0.064 -0.189,-0.19 l 0.381,-0.378 c 0.125,0 0.282,-0.032 0.471,-0.094 l 0.284,-0.096 c 1.008,-0.5 1.892,-0.753 2.649,-0.753 z M 598,257.666 c -0.127,-1.261 -1.265,-1.892 -3.407,-1.892 -0.757,0 -1.389,0.127 -1.892,0.379 0,0.126 -0.127,0.189 -0.378,0.189 l -0.189,0.189 c -0.128,0.094 -0.253,0.283 -0.379,0.567 -0.127,0.378 -0.206,0.631 -0.237,0.757 v 0.188 c 0.126,0.254 0.268,0.427 0.428,0.521 0.25,0.127 0.756,0.207 1.513,0.238 0.346,0 0.78,-0.041 1.301,-0.12 0.521,-0.078 0.906,-0.119 1.158,-0.119 h 0.757 l -0.093,-0.14 -0.095,-0.19 c -0.379,-0.378 -0.884,-0.631 -1.516,-0.756 h -0.189 -0.756 -0.189 c 0.379,-0.253 1.01,-0.378 1.894,-0.378 1.039,0 1.794,0.188 2.269,0.567 z m 11.35,5.487 c -1.04,-0.472 -2.176,-0.725 -3.403,-0.756 h -0.757 c -0.633,0 -1.325,0.125 -2.082,0.378 -0.252,0 -0.6,0.063 -1.039,0.19 -0.444,0.126 -0.728,0.22 -0.854,0.283 -0.125,0.063 -0.379,0.096 -0.756,0.096 -0.253,0 -0.443,-0.064 -0.569,-0.19 l -0.472,-0.188 c -0.315,-0.127 -0.6,-0.19 -0.852,-0.19 -0.758,0 -1.136,0.253 -1.136,0.757 0,0.126 0.048,0.253 0.143,0.378 0.252,0.378 0.52,0.568 0.805,0.568 0,0.095 0.124,0.188 0.378,0.285 l 0.378,0.094 h 0.756 0.569 c 0.504,0 1.009,-0.065 1.513,-0.19 0.506,-0.126 1.01,-0.282 1.515,-0.473 0.504,-0.188 0.945,-0.284 1.323,-0.284 0.884,-0.252 1.641,-0.441 2.272,-0.567 l 0.661,-0.096 c 0.409,-0.063 0.757,-0.094 1.042,-0.094 h 0.188 0.377 z m -1.701,-3.406 c -1.64,-0.251 -3.029,-0.378 -4.163,-0.378 -2.65,0 -4.62,0.442 -5.913,1.325 3.814,-0.095 6.165,-0.22 7.047,-0.378 1.767,-0.379 2.776,-0.569 3.029,-0.569 z m -1.703,1.325 c -0.127,0 -0.6,-0.031 -1.419,-0.095 -0.821,-0.062 -1.42,-0.094 -1.798,-0.094 h -0.474 -0.473 c -1.387,0.125 -2.649,0.567 -3.783,1.323 v 0.19 -0.19 h 0.566 0.567 c 3.122,-0.125 5.203,-0.378 6.243,-0.756 0.127,0 0.285,-0.063 0.474,-0.188 0.189,-0.125 0.346,-0.19 0.475,-0.19 h 0.188 -0.188 z m -1.326,-2.648 c -0.126,0 -0.346,-0.032 -0.661,-0.096 -0.314,-0.063 -0.537,-0.094 -0.663,-0.094 -0.125,0 -0.347,0.031 -0.661,0.094 -0.316,0.064 -0.537,0.096 -0.663,0.096 -1.513,0 -2.774,0.44 -3.783,1.323 1.009,-0.126 2.554,-0.283 4.636,-0.473 2.082,-0.19 3.626,-0.346 4.636,-0.472 -0.633,-0.253 -1.579,-0.378 -2.841,-0.378 z m -2.648,-1.893 c 0.126,-0.252 0.189,-0.567 0.189,-0.947 0,-0.504 -0.063,-1.071 -0.189,-1.702 h 0.758 c -0.127,0.378 -0.19,0.819 -0.19,1.323 v 0.568 c 0,0.379 0.063,0.631 0.19,0.757 h -0.758 z m 5.299,-19.11 c 0,-0.253 -0.098,-0.506 -0.285,-0.759 -0.189,-0.25 -0.283,-0.44 -0.283,-0.567 l -0.189,-0.474 -0.188,-0.473 c -0.254,-0.125 -0.569,-0.188 -0.948,-0.188 -0.124,0 -0.378,0.063 -0.757,0.188 l -0.188,0.19 v 0.188 c -0.599,1.01 -1.041,1.831 -1.324,2.459 v 1.515 0.803 1.089 0.378 c 0,0.378 -0.064,0.568 -0.189,0.568 0,0.094 -0.029,0.188 -0.094,0.282 l -0.095,0.096 c 0.505,0 0.804,-0.125 0.899,-0.378 0.379,-0.253 0.582,-0.821 0.613,-1.703 v -0.615 -0.521 -0.189 c 0,-0.378 0.126,-0.757 0.378,-1.135 l 0.569,-0.191 0.095,-0.093 0.093,-0.094 c -0.124,1.135 -0.314,1.891 -0.567,2.27 -0.253,0.127 -0.378,0.236 -0.378,0.332 v 0.236 h 0.378 c 0.38,0 0.632,-0.079 0.759,-0.236 0.094,0 0.18,-0.055 0.259,-0.167 0.079,-0.109 0.183,-0.228 0.307,-0.354 0.505,-0.378 0.819,-0.631 0.948,-0.758 0.123,-0.376 0.187,-0.942 0.187,-1.699 z m -3.785,19.11 c 0.095,-0.252 0.143,-0.695 0.143,-1.326 0,-0.473 -0.048,-0.976 -0.143,-1.513 0.347,-0.126 0.599,-0.188 0.756,-0.188 v 0.188 0.095 0.284 1.135 0.759 c 0.126,0.378 0.252,0.567 0.378,0.567 h -0.756 -0.378 z m 2.224,-0.378 c 0,0.252 0.141,0.442 0.424,0.568 -0.252,0 -0.44,-0.063 -0.565,-0.189 h -0.379 v -0.189 c 0.126,0 0.188,-0.063 0.188,-0.189 v -0.473 -0.474 c 0,-0.378 -0.062,-0.757 -0.188,-1.135 0,-0.126 -0.034,-0.251 -0.096,-0.378 -0.063,-0.126 -0.095,-0.252 -0.095,-0.378 h 0.427 0.521 c 0,0.252 -0.04,0.663 -0.119,1.229 -0.079,0.568 -0.117,0.978 -0.117,1.231 v 0.377 z m 5.533,-16.651 c -0.127,-0.252 -0.251,-0.442 -0.378,-0.568 -0.127,-0.126 -0.379,-0.19 -0.756,-0.19 -0.601,0 -1.294,0.316 -2.081,0.947 -0.885,0.884 -1.325,1.956 -1.325,3.216 0.504,-0.882 1.325,-1.766 2.459,-2.648 -0.126,0.094 -0.221,0.245 -0.283,0.449 -0.063,0.204 -0.094,0.37 -0.094,0.496 l -0.379,0.38 -0.378,0.378 v 0.378 c 0,0.219 0.061,0.347 0.188,0.378 l 0.945,-0.378 c 0.347,-0.253 0.852,-0.694 1.514,-1.325 0,-0.126 0.03,-0.22 0.095,-0.285 l 0.284,-0.33 c 0.125,-0.22 0.189,-0.519 0.189,-0.898 z m 7.19,12.866 c -0.125,-0.788 -0.33,-1.292 -0.614,-1.513 -0.473,-0.22 -0.961,-0.347 -1.468,-0.378 h -0.188 c -1.01,0 -2.019,0.188 -3.028,0.568 -0.502,0.125 -1.262,0.566 -2.27,1.323 -1.767,1.01 -2.965,2.209 -3.594,3.597 1.607,-1.516 3.372,-2.665 5.298,-3.455 0.787,-0.347 1.544,-0.521 2.271,-0.521 0.6,0 0.896,0.065 0.896,0.189 0,0.126 -0.173,0.237 -0.52,0.331 -0.914,0.505 -2.112,1.026 -3.596,1.561 -0.786,0.252 -1.356,0.378 -1.702,0.378 1.514,0.094 2.774,0.159 3.785,0.19 h 0.756 0.663 c 0.316,0 0.521,-0.062 0.613,-0.19 0.378,0 0.774,-0.125 1.184,-0.378 0.757,-0.378 1.262,-0.946 1.514,-1.702 z m -2.27,5.109 v -0.568 c -0.127,-0.125 -0.315,-0.251 -0.568,-0.377 -0.378,-0.378 -0.788,-0.567 -1.229,-0.567 -0.44,0 -0.852,0.188 -1.23,0.567 l -0.188,0.189 c -0.127,0 -0.284,0.063 -0.476,0.188 -0.187,0.127 -0.377,0.253 -0.564,0.378 -0.191,0.127 -0.351,0.253 -0.475,0.379 l -0.189,0.19 -0.188,0.188 c -0.126,0 -0.189,-0.063 -0.189,-0.188 -0.379,-0.253 -0.946,-0.378 -1.703,-0.378 -0.505,0 -0.945,0.063 -1.324,0.188 0.914,0.378 1.419,0.632 1.512,0.758 l 0.191,0.14 h -0.191 l 0.333,0.426 c 0.378,0.505 0.771,0.884 1.183,1.135 0.505,0.349 1.198,0.537 2.082,0.568 0.379,0 0.628,-0.063 0.757,-0.188 0.221,0 0.599,-0.128 1.136,-0.38 0.502,-0.378 0.881,-0.693 1.134,-0.945 0.125,-0.378 0.189,-0.819 0.189,-1.325 v -0.19 -0.188 z m -0.946,4.919 c -0.126,-0.126 -0.316,-0.253 -0.566,-0.378 -0.38,-0.253 -0.854,-0.41 -1.418,-0.474 -0.569,-0.063 -1.263,-0.125 -2.082,-0.188 -0.822,-0.062 -1.356,-0.094 -1.609,-0.094 0.882,0.253 1.829,0.566 2.837,0.944 0.127,0 0.315,0.064 0.569,0.19 l 0.379,0.188 c 0.124,0 0.22,0.032 0.282,0.096 0.063,0.063 0.109,0.094 0.142,0.094 h 0.142 c 0,0.253 -0.124,0.378 -0.378,0.378 -0.125,0 -0.441,-0.125 -0.944,-0.378 -0.379,-0.094 -0.696,-0.158 -0.948,-0.19 -0.126,0.096 -0.188,0.222 -0.188,0.38 l 0.188,0.188 c 0.221,0.126 0.599,0.378 1.136,0.757 0.632,0.378 1.197,0.568 1.703,0.568 h 0.19 c 0.503,0 0.818,-0.253 0.944,-0.757 l 0.142,-0.378 c -0.002,-0.283 -0.175,-0.599 -0.521,-0.946 z m 1.325,-21.57 c -0.128,-0.473 -0.316,-0.788 -0.568,-0.945 -0.472,-0.253 -0.851,-0.378 -1.134,-0.378 -0.38,0 -0.822,0.125 -1.326,0.378 -0.253,0.253 -0.566,0.504 -0.944,0.757 -1.137,1.041 -1.831,2.238 -2.083,3.594 0.252,-0.503 0.678,-1.072 1.277,-1.703 0.914,-1.009 1.687,-1.513 2.319,-1.513 0.252,0 0.441,0.062 0.567,0.188 0,0.127 -0.097,0.252 -0.285,0.38 l -0.282,0.188 c 0,0.126 -0.033,0.252 -0.095,0.378 -0.063,0.127 -0.159,0.221 -0.284,0.285 -0.129,0.063 -0.254,0.159 -0.378,0.284 l -0.191,0.188 c -0.124,0.127 -0.188,0.252 -0.188,0.378 0,0.378 0.188,0.568 0.566,0.568 0.125,0 0.254,-0.063 0.378,-0.189 0.788,-0.251 1.404,-0.504 1.845,-0.757 0.506,-0.472 0.774,-1.103 0.806,-1.891 z m -2.459,17.217 c -0.129,0.349 -0.569,0.521 -1.326,0.521 -0.379,0 -0.709,-0.046 -0.993,-0.14 0.411,-0.126 1.183,-0.253 2.319,-0.381 z m -15.041,-13.698 c 0.125,-0.125 0.188,-0.252 0.188,-0.378 l 0.188,-0.095 c 0.127,-0.063 0.191,-0.158 0.191,-0.284 l 0.094,-0.284 c 0.062,-0.19 0.094,-0.347 0.094,-0.472 0,-0.125 0.063,-0.222 0.189,-0.284 0.128,-0.063 0.188,-0.158 0.188,-0.284 0,-0.126 0.018,-0.284 0.048,-0.473 l 0.143,-0.284 v -0.757 c -0.093,-0.253 -0.245,-0.631 -0.449,-1.137 -0.207,-0.504 -0.371,-0.757 -0.498,-0.757 -0.124,-0.378 -0.188,-1.007 -0.188,-1.892 0,-0.094 0.064,-0.852 0.188,-2.271 0.127,-1.639 0.379,-2.773 0.757,-3.405 V 231.1 h 0.19 c 0.127,0 0.251,0.064 0.378,0.189 0.124,1.135 0.188,2.082 0.188,2.838 0,0.599 -0.064,1.166 -0.188,1.703 l -0.189,0.378 v 0.284 0.282 c -0.126,0.222 -0.252,0.349 -0.379,0.378 l -0.188,-0.188 -0.189,-0.19 v -0.188 c -0.379,0.126 -0.567,0.442 -0.567,0.947 v 0.188 0.19 c 0,0.125 0.064,0.188 0.188,0.188 0.127,0.253 0.379,0.378 0.757,0.378 0.476,0 0.788,-0.251 0.946,-0.756 l 0.19,-0.947 c 0.126,-0.125 0.308,-0.378 0.544,-0.756 0.235,-0.378 0.433,-0.771 0.591,-1.183 v -0.142 -1.135 c 0,-1.388 -0.253,-2.523 -0.757,-3.406 -0.252,-0.378 -0.63,-0.567 -1.136,-0.567 -1.26,0.252 -2.207,1.199 -2.838,2.837 -0.253,0.6 -0.441,1.61 -0.567,3.028 0,0.253 -0.064,0.378 -0.188,0.378 l -0.189,-0.19 h -0.38 c -0.346,0 -0.787,0.19 -1.322,0.568 -0.506,0.6 -0.884,1.229 -1.137,1.892 -0.254,0.756 -0.379,1.768 -0.379,3.028 0.125,0.503 0.315,1.072 0.567,1.703 0.095,0 0.214,0.125 0.355,0.378 0.144,0.253 0.277,0.441 0.401,0.567 0.127,0.127 0.254,0.19 0.379,0.19 0,0.125 0.062,0.188 0.19,0.188 h 0.188 c 0.127,0.127 0.222,0.252 0.284,0.379 0.063,0.126 0.143,0.188 0.237,0.188 0.252,0.222 0.582,0.347 0.993,0.378 h 0.379 l -0.189,-0.236 -0.189,-0.142 c -0.126,-0.126 -0.221,-0.284 -0.283,-0.473 -0.063,-0.189 -0.159,-0.347 -0.283,-0.474 0,-0.126 -0.072,-0.251 -0.214,-0.378 -0.142,-0.125 -0.213,-0.251 -0.213,-0.378 -0.095,-0.22 -0.206,-0.663 -0.33,-1.325 -0.255,-0.756 -0.379,-1.198 -0.379,-1.323 v -0.19 c 0,-0.251 0.063,-0.631 0.188,-1.135 0.254,-0.472 0.504,-0.726 0.757,-0.756 0.127,0 0.191,0.063 0.191,0.188 v 0.191 c 0.124,0 0.188,0.062 0.188,0.188 l -0.188,0.757 -0.332,0.284 c -0.064,0.065 -0.095,0.159 -0.095,0.284 v 0.378 c 0,0.221 0.141,0.412 0.427,0.568 0.124,0 0.313,-0.079 0.566,-0.236 0.126,-0.096 0.252,-0.458 0.379,-1.088 0.125,0.252 0.313,0.537 0.566,0.85 0.253,0.318 0.378,0.6 0.378,0.853 0.126,0.252 0.253,0.693 0.381,1.325 v 0.566 0.757 m 0.571,8.841 c -0.253,1.388 -0.436,2.668 -0.436,2.794 0,0.253 0.031,0.505 0.094,0.757 0.063,0.252 0.221,0.377 0.474,0.377 h 0.331 c 0.252,0 0.395,-0.188 0.426,-0.566 v -0.378 -1.089 c 0,-0.631 -0.064,-1.024 -0.19,-1.183 0.507,0.127 0.946,0.19 1.325,0.19 -0.252,0.473 -0.379,1.041 -0.379,1.702 0,0.505 0.063,0.821 0.191,0.947 -0.79,0.221 -1.484,0.536 -2.082,0.946 0,0.125 -0.064,0.222 -0.189,0.284 -0.127,0.063 -0.254,0.157 -0.378,0.282 l -0.569,0.38 c 0.632,-0.38 1.45,-0.6 2.462,-0.663 1.007,-0.062 2.364,-0.126 4.066,-0.19 1.703,-0.063 2.745,-0.094 3.123,-0.094 l 0.093,-0.094 c 0.064,-0.062 0.158,-0.096 0.285,-0.096 h -0.188 c -0.378,-0.25 -0.759,-0.44 -1.136,-0.566 0.252,0 0.377,-0.378 0.377,-1.137 v -0.378 c -0.084,-1.999 -0.609,-2.288 -0.609,-2.599 l -1.246,-0.155 -3.011,1.039 z" /><path
     style="fill:#a00283"
     inkscape:connector-curvature="0"
     id="path594"
     d="m 606.515,253.036 c 1.386,-0.125 2.081,-0.691 2.081,-1.701 v -0.568 h 1.892 0.945 c 0.252,0 0.567,-0.125 0.947,-0.378 0.503,-0.253 0.757,-0.441 0.757,-0.568 l -0.19,-0.188 c -0.124,-0.253 -0.315,-0.378 -0.566,-0.378 h -0.19 c -0.222,0 -0.6,0.125 -1.135,0.378 -0.379,0.125 -1.136,0.252 -2.271,0.378 h -0.472 -0.284 c -0.095,0 -0.188,-0.032 -0.285,-0.094 l -0.093,-0.096 h -0.569 c -1.009,0 -1.766,0.127 -2.271,0.378 -0.252,-0.25 -0.504,-0.378 -0.756,-0.378 h -0.235 c -0.096,0.252 -0.143,0.442 -0.143,0.568 v 0.188 c 0,0.127 0.047,0.253 0.143,0.38 0.124,0.125 0.456,0.188 0.991,0.188 0.127,0 0.189,-0.063 0.189,-0.188 v -0.284 -0.284 c 0.38,0 0.759,0.063 1.137,0.188 0.786,0.253 1.166,0.443 1.136,0.568 l -0.285,0.284 -0.283,0.284 c -0.38,0.125 -1.042,0.276 -1.986,0.45 -0.946,0.173 -1.609,0.401 -1.988,0.685 l -0.189,0.095 c -0.125,0.064 -0.219,0.094 -0.281,0.094 -0.065,0 -0.349,-0.063 -0.854,-0.188 -0.125,0 -0.315,-0.094 -0.567,-0.284 -0.251,-0.188 -0.441,-0.284 -0.567,-0.284 -0.473,-0.378 -1.103,-0.692 -1.892,-0.945 -0.253,0 -0.457,-0.063 -0.615,-0.19 l 0.235,-0.188 c 0.253,-0.348 0.505,-0.6 0.758,-0.759 h 0.945 c 0.223,0 0.529,-0.03 0.923,-0.094 0.394,-0.063 0.719,-0.094 0.97,-0.094 0.474,0 0.852,0.063 1.135,0.188 l -0.378,0.19 c -0.127,0.094 -0.189,0.346 -0.189,0.756 v 0.19 l 0.189,0.188 h 0.188 0.189 c 0.128,0 0.316,-0.188 0.568,-0.566 v -0.38 -0.188 c 0,-0.126 -0.189,-0.253 -0.568,-0.378 -0.126,0 -0.378,-0.063 -0.756,-0.19 -1.008,-0.25 -1.894,-0.378 -2.649,-0.378 h -0.567 c -1.136,0.128 -1.893,0.506 -2.271,1.135 -0.252,0.505 -0.378,0.884 -0.378,1.137 v 0.188 c 0,0.253 0.063,0.426 0.19,0.521 0.125,0 0.221,0.041 0.281,0.119 0.063,0.079 0.16,0.117 0.285,0.117 1.011,0.378 1.873,0.492 2.46,0.758 3.217,1.461 4.999,0.132 4.999,0.258 z" /></g></svg>