<?xml version="1.0" encoding="UTF-8" standalone="no"?>
<!-- Generator: Adobe Illustrator 16.0.0, SVG Export Plug-In . SVG Version: 6.00 Build 0)  -->

<svg
   xmlns:dc="http://purl.org/dc/elements/1.1/"
   xmlns:cc="http://creativecommons.org/ns#"
   xmlns:rdf="http://www.w3.org/1999/02/22-rdf-syntax-ns#"
   xmlns:svg="http://www.w3.org/2000/svg"
   xmlns="http://www.w3.org/2000/svg"
   xmlns:sodipodi="http://sodipodi.sourceforge.net/DTD/sodipodi-0.dtd"
   xmlns:inkscape="http://www.inkscape.org/namespaces/inkscape"
   version="1.1"
   id="图层_1"
   x="0px"
   y="0px"
   width="139.76401"
   height="200"
   viewBox="0 0 139.764 200"
   enable-background="new 0 0 714 341"
   xml:space="preserve"
   sodipodi:docname="0201一餅.svg"
   inkscape:version="0.92.3 (2405546, 2018-03-11)"><metadata
   id="metadata621"><rdf:RDF><cc:Work
       rdf:about=""><dc:format>image/svg+xml</dc:format><dc:type
         rdf:resource="http://purl.org/dc/dcmitype/StillImage" /><dc:title /></cc:Work></rdf:RDF></metadata><defs
   id="defs619" /><sodipodi:namedview
   pagecolor="#ffffff"
   bordercolor="#666666"
   borderopacity="1"
   objecttolerance="10"
   gridtolerance="10"
   guidetolerance="10"
   inkscape:pageopacity="0"
   inkscape:pageshadow="2"
   inkscape:window-width="1366"
   inkscape:window-height="705"
   id="namedview617"
   showgrid="false"
   inkscape:zoom="1"
   inkscape:cx="44.33986"
   inkscape:cy="112.60966"
   inkscape:window-x="-8"
   inkscape:window-y="-8"
   inkscape:window-maximized="1"
   inkscape:current-layer="图层_1" />



















































































































































































































































































































<g
   transform="matrix(4.0331525,0,0,4.0331525,-66.744641,-322.32955)"
   id="g1596"><path
     inkscape:connector-curvature="0"
     id="path68"
     d="m 51.202,83.505 v 42.419 c 0,0.995 -0.349,1.842 -1.045,2.539 -0.697,0.697 -1.544,1.046 -2.539,1.046 H 20.134 c -0.996,0 -1.843,-0.349 -2.54,-1.046 -0.697,-0.697 -1.045,-1.544 -1.045,-2.539 V 83.505 c 0,-0.995 0.348,-1.842 1.045,-2.539 0.697,-0.697 1.543,-1.046 2.54,-1.046 h 27.483 c 0.995,0 1.842,0.349 2.539,1.046 0.697,0.698 1.046,1.544 1.046,2.539 z M 47.617,81.713 H 20.134 c -0.518,0 -0.947,0.17 -1.285,0.508 -0.339,0.339 -0.508,0.768 -0.508,1.285 v 42.419 c 0,0.517 0.169,0.946 0.508,1.285 0.338,0.338 0.767,0.508 1.285,0.508 h 27.483 c 0.517,0 0.946,-0.17 1.285,-0.508 0.338,-0.339 0.508,-0.768 0.508,-1.285 v -42.42 c 0,-0.517 -0.17,-0.946 -0.508,-1.285 -0.339,-0.337 -0.768,-0.507 -1.285,-0.507 z" /><path
     style="fill:#870000"
     inkscape:connector-curvature="0"
     id="path70"
     d="m 26.408,107.941 c 0,0.081 -0.041,0.12 -0.12,0.12 -0.16,0 -0.717,-0.398 -1.673,-1.195 -0.319,-0.239 -0.708,-0.468 -1.165,-0.688 -0.458,-0.218 -0.827,-0.388 -1.105,-0.508 -0.279,-0.119 -0.418,-0.199 -0.418,-0.239 0,-0.08 0.159,-0.119 0.478,-0.119 0.636,0.04 1.284,0.259 1.941,0.657 0.657,0.399 1.165,0.787 1.523,1.165 0.359,0.38 0.539,0.649 0.539,0.807 z m -3.645,-5.078 c 0.239,0 0.637,0.1 1.195,0.298 0.557,0.2 1.264,0.618 2.121,1.255 0.856,0.638 1.543,1.434 2.061,2.39 0.159,0.399 0.239,0.618 0.239,0.657 0,0.12 -0.04,0.179 -0.119,0.179 l -0.657,-0.657 c -2.231,-2.19 -3.864,-3.484 -4.899,-3.883 -0.12,-0.04 -0.179,-0.099 -0.179,-0.179 -10e-4,-0.039 0.078,-0.06 0.238,-0.06 z m 2.629,6.034 c -0.319,0 -0.867,-0.09 -1.644,-0.269 -0.776,-0.179 -1.165,-0.368 -1.165,-0.567 0,-0.08 0.219,-0.12 0.657,-0.12 0.199,0 0.487,0.07 0.867,0.209 0.378,0.14 0.707,0.279 0.986,0.418 0.278,0.14 0.418,0.229 0.418,0.269 0,0.041 -0.04,0.06 -0.119,0.06 z m 1.553,-1.493 c 0,-0.039 0.039,-0.06 0.12,-0.06 0.119,0 0.438,0.26 0.956,0.777 0.517,0.518 0.777,0.917 0.777,1.195 0,0.279 -0.12,0.418 -0.358,0.418 -0.319,0 -0.717,-0.099 -1.195,-0.299 -0.478,-0.199 -0.717,-0.358 -0.717,-0.478 0,-0.039 0.06,-0.06 0.179,-0.06 0.12,0 0.329,0.04 0.627,0.12 0.299,0.08 0.468,0.119 0.508,0.119 0.08,0 0.12,-0.039 0.12,-0.119 0,-0.159 -0.17,-0.448 -0.508,-0.867 -0.34,-0.418 -0.509,-0.666 -0.509,-0.746 z" /><path
     style="fill:#870000"
     inkscape:connector-curvature="0"
     id="path72"
     d="m 32.442,121.683 c 0,0.119 -0.08,0.179 -0.239,0.179 -0.081,0 -0.19,-0.05 -0.329,-0.149 -0.14,-0.099 -0.249,-0.129 -0.329,-0.09 -0.04,0 -0.398,0.23 -1.075,0.687 -0.678,0.458 -1.116,0.688 -1.314,0.688 -0.119,0 -0.179,-0.06 -0.179,-0.18 0,-0.04 0.188,-0.239 0.568,-0.597 0.378,-0.358 0.567,-0.557 0.567,-0.598 0,-0.039 -0.04,-0.06 -0.12,-0.06 -0.239,0 -0.528,0.03 -0.866,0.09 -0.339,0.06 -0.528,0.089 -0.567,0.089 -0.12,0 -0.18,-0.039 -0.18,-0.12 0,-0.278 0.737,-0.497 2.211,-0.657 0.278,-0.04 0.457,-0.139 0.538,-0.299 0.079,-0.159 0.12,-0.577 0.12,-1.255 0,-0.278 -0.03,-0.567 -0.09,-0.866 -0.06,-0.299 -0.089,-0.468 -0.089,-0.508 0,-0.079 0.06,-0.12 0.179,-0.12 0.438,0 0.756,0.16 0.956,0.478 0.039,0.08 0.06,0.239 0.06,0.478 0,0.836 -0.1,1.553 -0.299,2.151 0.317,0.241 0.477,0.46 0.477,0.659 z" /><path
     style="fill:#870000"
     inkscape:connector-curvature="0"
     id="path74"
     d="m 35.489,120.189 c 0,0.558 0.049,0.926 0.149,1.105 0.099,0.18 0.338,0.299 0.717,0.359 0.378,0.06 0.707,0.17 0.986,0.329 0,0.04 0.03,0.08 0.09,0.119 0.06,0.041 0.089,0.081 0.089,0.12 0,0.081 -0.1,0.12 -0.299,0.12 -0.08,0 -0.369,-0.039 -0.866,-0.12 -0.499,-0.079 -0.827,-0.12 -0.986,-0.12 -0.04,0 -0.249,0.149 -0.627,0.448 -0.379,0.299 -0.667,0.448 -0.867,0.448 -0.08,0 -0.119,-0.06 -0.119,-0.18 0,-0.04 0.079,-0.14 0.239,-0.298 0.318,-0.398 0.418,-0.598 0.299,-0.598 -0.04,0 -0.29,0.1 -0.747,0.299 -0.458,0.2 -0.767,0.299 -0.926,0.299 -0.12,0 -0.179,-0.039 -0.179,-0.12 0,-0.12 0.358,-0.408 1.075,-0.866 0.717,-0.458 1.076,-0.986 1.076,-1.583 0,-0.159 -0.01,-0.348 -0.03,-0.567 -0.02,-0.218 -0.05,-0.458 -0.089,-0.717 -0.04,-0.258 -0.06,-0.467 -0.06,-0.627 -0.041,-0.12 0,-0.179 0.119,-0.179 h 0.06 c 0.677,0 1.016,0.2 1.016,0.597 0,0.16 -0.021,0.448 -0.06,0.867 -0.041,0.417 -0.06,0.707 -0.06,0.865 z" /><path
     inkscape:connector-curvature="0"
     id="path76"
     d="m 27.542,96.769 c 0,-0.079 -0.089,-0.218 -0.269,-0.418 -0.179,-0.199 -0.389,-0.438 -0.627,-0.717 -0.239,-0.278 -0.418,-0.478 -0.538,-0.597 -1.634,-2.23 -2.45,-3.624 -2.45,-4.182 0,-0.12 0.06,-0.18 0.179,-0.18 0.08,0 0.179,0.06 0.299,0.18 2.31,3.465 3.584,5.198 3.824,5.198 0.079,0 0.12,-0.04 0.12,-0.12 0,-0.12 -0.529,-0.875 -1.583,-2.271 -1.056,-1.394 -1.583,-2.31 -1.583,-2.748 0,-0.12 0.06,-0.18 0.179,-0.18 0.079,0 0.637,0.757 1.673,2.271 1.035,1.514 1.633,2.271 1.792,2.271 0.079,0 0.119,-0.02 0.119,-0.06 0,-0.159 -0.468,-0.906 -1.404,-2.241 -0.937,-1.334 -1.404,-2.101 -1.404,-2.3 0,-0.119 0.06,-0.179 0.179,-0.179 0.159,0 0.617,0.638 1.374,1.912 0.756,1.275 1.195,1.912 1.315,1.912 0.079,0 0.119,-0.039 0.119,-0.12 0,-0.079 -0.219,-0.517 -0.657,-1.314 -0.438,-0.796 -0.657,-1.314 -0.657,-1.554 0,-0.159 0.039,-0.239 0.12,-0.239 0.12,0 0.458,0.588 1.016,1.762 0.557,1.175 0.856,1.763 0.896,1.763 0.079,0 0.119,-0.08 0.119,-0.239 0,-0.159 -0.239,-0.776 -0.717,-1.852 -0.478,-1.076 -0.717,-1.693 -0.717,-1.853 0,-0.119 0.06,-0.179 0.179,-0.179 0.079,0 0.378,0.578 0.896,1.733 l 0.836,1.732 c 0.239,0.319 0.397,0.418 0.478,0.299 0,-0.04 -0.249,-0.906 -0.747,-2.599 -0.498,-1.692 -0.747,-2.817 -0.747,-3.375 0,-0.239 0.06,-0.358 0.179,-0.358 0.159,0 0.468,0.926 0.926,2.778 0.458,1.853 0.747,2.778 0.866,2.778 0.159,0 0.239,-0.099 0.239,-0.299 0,-0.159 -0.179,-0.846 -0.538,-2.061 -0.358,-1.215 -0.538,-2.22 -0.538,-3.017 0,-0.398 0.039,-0.598 0.119,-0.598 0.278,0 0.577,0.847 0.896,2.54 0.318,1.693 0.517,2.539 0.598,2.539 0.119,0 0.179,-0.199 0.179,-0.598 0,-0.159 -0.07,-0.756 -0.209,-1.792 -0.14,-1.035 -0.209,-1.732 -0.209,-2.091 0,-0.637 0.06,-0.956 0.179,-0.956 0.159,0 0.318,0.488 0.478,1.464 0.159,0.976 0.239,1.922 0.239,2.838 0,0.598 0.099,0.896 0.299,0.896 0.12,0 0.179,-0.318 0.179,-0.956 0,-0.359 -0.03,-0.936 -0.089,-1.733 -0.06,-0.796 -0.09,-1.334 -0.09,-1.613 0,-0.478 0.06,-0.717 0.179,-0.717 0.199,0 0.348,0.797 0.448,2.39 0.099,1.594 0.209,2.39 0.329,2.39 0.199,0 0.299,-0.598 0.299,-1.792 0,-1.234 0.039,-1.852 0.12,-1.852 0.278,0 0.418,0.638 0.418,1.912 0,0.16 -0.01,0.418 -0.03,0.776 -0.021,0.358 -0.03,0.618 -0.03,0.777 0,0.358 0.099,0.458 0.299,0.299 0.079,-0.04 0.119,-0.099 0.119,-0.179 0.04,-0.08 0.12,-0.398 0.239,-0.956 0.119,-0.557 0.248,-1.035 0.388,-1.434 0.139,-0.397 0.289,-0.597 0.448,-0.597 0.119,0 0.179,0.14 0.179,0.418 0,0.2 -0.1,0.627 -0.299,1.285 -0.2,0.657 -0.299,1.105 -0.299,1.344 0,0.08 0.06,0.12 0.179,0.12 0.12,0 0.458,-0.836 1.016,-2.51 0.557,-1.673 0.916,-2.509 1.075,-2.509 0.12,0 0.179,0.298 0.179,0.896 -0.04,0.319 -0.17,0.797 -0.389,1.434 -0.219,0.638 -0.418,1.206 -0.597,1.703 -0.179,0.499 -0.269,0.767 -0.269,0.807 0,0.119 0.06,0.179 0.179,0.179 0.12,0 0.508,-0.807 1.165,-2.42 0.658,-1.613 1.085,-2.419 1.285,-2.419 0.08,0 0.12,0.08 0.12,0.239 0,0.439 -0.269,1.255 -0.807,2.45 -0.538,1.195 -0.807,1.873 -0.807,2.031 0.04,0.04 0.08,0.06 0.12,0.06 0.119,0 0.547,-0.667 1.285,-2.001 0.736,-1.334 1.145,-2.001 1.225,-2.001 0.12,0 0.179,0.081 0.179,0.239 0,0.2 -0.179,0.677 -0.538,1.434 -0.239,0.439 -0.488,0.866 -0.747,1.285 -0.259,0.418 -0.448,0.727 -0.567,0.926 -0.12,0.2 -0.179,0.319 -0.179,0.358 0,0.08 0.06,0.12 0.179,0.12 0.159,0 0.538,-0.508 1.135,-1.524 0.597,-1.016 0.935,-1.523 1.016,-1.523 0.12,0 0.179,0.08 0.179,0.239 0,0.319 -0.279,0.896 -0.836,1.733 l -0.896,1.254 c 0,0.12 0.039,0.18 0.119,0.18 0.08,0 0.408,-0.398 0.986,-1.195 0.577,-0.796 0.946,-1.195 1.105,-1.195 0.08,0 0.119,0.08 0.119,0.239 0,0.239 -0.369,0.768 -1.105,1.583 -0.737,0.817 -1.105,1.265 -1.105,1.344 l 0.12,0.12 c 0.278,0 1.075,-0.657 2.39,-1.972 1.195,-1.314 1.853,-1.972 1.972,-1.972 0.08,0 0.12,0.081 0.12,0.239 0,0.438 -0.648,1.235 -1.942,2.39 -1.295,1.156 -1.941,1.753 -1.941,1.792 0,0.08 0.039,0.119 0.119,0.119 0.318,0 1.185,-0.637 2.599,-1.912 1.413,-1.274 2.2,-1.912 2.36,-1.912 0.08,0 0.12,0.06 0.12,0.179 0,0.28 -0.757,1.046 -2.271,2.301 -1.514,1.254 -2.27,1.922 -2.27,2.001 0,0.119 0.009,0.179 0.03,0.179 0.02,0 0.069,0 0.149,0 0.119,0 0.815,-0.468 2.091,-1.404 1.274,-0.935 2.011,-1.404 2.21,-1.404 0.08,0 0.12,0.04 0.12,0.12 0,0.159 -0.12,0.338 -0.358,0.538 -1.195,0.876 -2.27,1.613 -3.226,2.21 -0.359,0.239 -0.538,0.418 -0.538,0.538 0,0.12 0.039,0.179 0.119,0.179 0.04,0 0.568,-0.318 1.583,-0.956 1.016,-0.637 1.682,-0.956 2.001,-0.956 0.199,0 0.239,0.1 0.119,0.298 -0.04,0.12 -0.298,0.31 -0.776,0.568 -0.478,0.259 -0.996,0.538 -1.553,0.836 -0.559,0.299 -0.917,0.508 -1.076,0.627 -0.2,0.2 -0.14,0.299 0.179,0.299 0.079,0 0.517,-0.219 1.314,-0.657 0.796,-0.438 1.334,-0.658 1.613,-0.658 0.199,0 0.298,0.081 0.298,0.239 0,0.08 -0.488,0.339 -1.464,0.777 -0.976,0.438 -1.463,0.737 -1.463,0.896 0,0.12 0.079,0.179 0.239,0.179 0.04,0 0.487,-0.109 1.345,-0.329 0.855,-0.218 1.344,-0.329 1.463,-0.329 0.318,0 0.478,0.081 0.478,0.239 0,0.16 -0.618,0.379 -1.852,0.657 -1.235,0.279 -1.852,0.478 -1.852,0.597 0,0.16 0.06,0.239 0.179,0.239 0.199,0 0.736,-0.109 1.613,-0.328 0.875,-0.219 1.413,-0.329 1.613,-0.329 0.199,0 0.299,0.06 0.299,0.179 0,0.119 -0.09,0.209 -0.269,0.269 -0.18,0.06 -0.548,0.14 -1.105,0.239 -0.559,0.1 -1.096,0.229 -1.613,0.388 -0.12,0.04 -0.209,0.1 -0.269,0.179 -0.06,0.081 -0.06,0.149 0,0.209 0.06,0.06 0.149,0.089 0.269,0.089 0.199,0 0.637,-0.079 1.314,-0.239 0.677,-0.159 1.075,-0.239 1.195,-0.239 0.199,0 0.299,0.06 0.299,0.179 0,0.239 -0.896,0.499 -2.688,0.777 -0.081,0 -0.149,0.04 -0.209,0.12 -0.06,0.08 -0.06,0.159 0,0.239 0.06,0.08 0.169,0.12 0.329,0.12 0.119,0 0.448,-0.06 0.985,-0.179 0.538,-0.12 0.906,-0.179 1.105,-0.179 0.12,0 0.179,0.021 0.179,0.06 0,0.2 -0.439,0.388 -1.314,0.568 -0.876,0.179 -1.314,0.328 -1.314,0.448 0,0.12 0.139,0.179 0.418,0.179 0.199,0 0.517,-0.06 0.956,-0.179 l 0.657,-0.12 c 0.199,0 0.299,0.06 0.299,0.18 0,0.2 -0.567,0.379 -1.703,0.538 -1.135,0.16 -1.703,0.379 -1.703,0.657 0.039,0.04 0.099,0.06 0.179,0.06 0.079,0 0.288,-0.039 0.627,-0.12 0.338,-0.079 0.587,-0.119 0.747,-0.119 0.239,0 0.358,0.08 0.358,0.239 0,0.12 -0.279,0.219 -0.836,0.299 -0.558,0.08 -0.917,0.12 -1.075,0.12 -0.2,0 -0.299,0.06 -0.299,0.179 0,0.08 0.06,0.119 0.179,0.119 0.159,0 0.378,-0.02 0.657,-0.06 0.278,-0.04 0.438,-0.06 0.478,-0.06 0.159,0 0.239,0.06 0.239,0.179 0,0.279 -0.559,0.418 -1.673,0.418 -0.119,0.04 -0.179,0.18 -0.179,0.418 0.08,0 0.219,-0.01 0.418,-0.03 0.199,-0.02 0.348,-0.04 0.448,-0.06 0.099,-0.02 0.168,-0.009 0.209,0.03 0,0.12 -0.09,0.209 -0.269,0.269 -0.179,0.06 -0.418,0.13 -0.717,0.209 -0.299,0.081 -0.548,0.2 -0.747,0.359 -0.398,0.358 -0.827,0.567 -1.285,0.627 -0.458,0.06 -0.767,0.11 -0.926,0.149 -0.04,0 -0.388,0.29 -1.046,0.866 -0.657,0.578 -1.305,0.866 -1.941,0.866 -0.16,0 -0.438,-0.069 -0.836,-0.209 -0.398,-0.139 -0.697,-0.209 -0.896,-0.209 -0.119,0 -0.358,0.06 -0.717,0.179 -0.358,0.12 -0.657,0.179 -0.896,0.179 -0.439,0 -0.836,-0.169 -1.195,-0.508 -0.359,-0.338 -0.558,-0.527 -0.598,-0.567 -0.04,0 -0.229,-0.05 -0.567,-0.149 -0.339,-0.099 -0.618,-0.199 -0.836,-0.299 -0.22,-0.099 -0.329,-0.209 -0.329,-0.329 0,-0.08 0.039,-0.119 0.12,-0.119 0.119,0 0.298,0.05 0.538,0.149 0.239,0.1 0.397,0.149 0.478,0.149 0.079,0 0.119,-0.039 0.119,-0.12 0,-0.119 -0.339,-0.258 -1.016,-0.418 -0.678,-0.159 -1.016,-0.318 -1.016,-0.478 0,-0.079 0.06,-0.12 0.179,-0.12 0.159,0 0.418,0.041 0.777,0.12 l 0.538,0.179 c 0.199,0 0.299,-0.02 0.299,-0.06 0,-0.239 -0.14,-0.358 -0.418,-0.358 -1.634,-0.278 -2.45,-0.577 -2.45,-0.896 0,-0.119 0.06,-0.179 0.179,-0.179 0.119,0 0.487,0.12 1.105,0.358 0.617,0.239 1.006,0.358 1.166,0.358 0.119,0 0.179,-0.039 0.179,-0.119 0,-0.12 -0.149,-0.239 -0.448,-0.358 -0.299,-0.12 -0.678,-0.259 -1.135,-0.418 -0.458,-0.159 -0.827,-0.318 -1.105,-0.478 -0.757,-0.478 -1.514,-1.095 -2.271,-1.852 -0.757,-0.756 -1.135,-1.234 -1.135,-1.434 0,-0.159 0.06,-0.239 0.179,-0.239 0.079,0 0.498,0.349 1.254,1.045 0.756,0.698 1.255,1.046 1.494,1.046 0.08,0 0.12,-0.06 0.12,-0.18 0,-0.079 -0.13,-0.218 -0.388,-0.418 -0.26,-0.199 -0.588,-0.478 -0.986,-0.836 -0.399,-0.358 -0.737,-0.737 -1.016,-1.135 -0.119,-0.159 -0.189,-0.299 -0.209,-0.418 -0.02,-0.12 -0.02,-0.219 0,-0.299 0.02,-0.08 0.05,-0.12 0.09,-0.12 0.08,0 0.487,0.409 1.225,1.225 0.736,0.817 1.225,1.225 1.463,1.225 0.08,0 0.12,-0.039 0.12,-0.12 0,-0.079 -0.439,-0.617 -1.314,-1.613 -0.876,-0.995 -1.314,-1.632 -1.314,-1.912 0,-0.12 0.039,-0.179 0.12,-0.179 0.079,0 0.527,0.469 1.344,1.404 0.816,0.937 1.364,1.404 1.643,1.404 l 0.06,-0.12 c 0,-0.039 -0.478,-0.598 -1.434,-1.673 -0.956,-1.076 -1.434,-1.832 -1.434,-2.271 0,-0.079 0.02,-0.119 0.06,-0.119 0.12,0 0.617,0.567 1.494,1.703 0.876,1.135 1.414,1.703 1.613,1.703 0.119,0 0.179,-0.04 0.179,-0.12 0,-0.119 -0.229,-0.467 -0.687,-1.045 -0.458,-0.577 -0.956,-1.195 -1.494,-1.852 -0.538,-0.657 -0.887,-1.105 -1.046,-1.344 -0.239,-0.398 -0.219,-0.598 0.06,-0.598 0.079,0 0.557,0.558 1.434,1.673 0.876,1.116 1.434,1.673 1.673,1.673 0.082,0.002 0.122,-0.018 0.122,-0.058 z m 1.315,3.107 c -0.319,0 -0.657,0.129 -1.016,0.388 -0.358,0.26 -0.538,0.708 -0.538,1.344 0,0.16 0.03,0.319 0.089,0.478 0.06,0.16 0.219,0.329 0.478,0.508 0.259,0.179 0.587,0.269 0.986,0.269 1.115,0 1.673,-0.458 1.673,-1.375 0,-0.438 -0.17,-0.816 -0.508,-1.135 -0.338,-0.317 -0.726,-0.477 -1.164,-0.477 z m 0.06,0.896 c 0.398,0 0.598,0.239 0.598,0.717 0,0.319 -0.219,0.478 -0.657,0.478 -0.398,0 -0.597,-0.159 -0.597,-0.478 -10e-4,-0.478 0.217,-0.717 0.656,-0.717 z m 2.927,-3.167 c 0,-0.438 -0.16,-0.826 -0.478,-1.165 -0.319,-0.338 -0.678,-0.508 -1.075,-0.508 -0.518,0 -0.956,0.149 -1.314,0.448 -0.358,0.299 -0.538,0.708 -0.538,1.225 0,1.036 0.577,1.553 1.732,1.553 0.438,0 0.826,-0.159 1.165,-0.478 0.338,-0.317 0.508,-0.676 0.508,-1.075 z m -2.33,0 c 0,-0.159 0.08,-0.318 0.239,-0.478 0.159,-0.159 0.318,-0.239 0.478,-0.239 0.159,0 0.308,0.08 0.448,0.239 0.139,0.16 0.209,0.319 0.209,0.478 0,0.358 -0.239,0.538 -0.717,0.538 -0.438,0 -0.657,-0.179 -0.657,-0.538 z m 3.824,7.409 c 0,-1.036 -0.499,-1.554 -1.494,-1.554 -0.956,0 -1.434,0.418 -1.434,1.255 0,0.398 0.15,0.757 0.448,1.075 0.299,0.319 0.707,0.478 1.225,0.478 0.837,0.001 1.255,-0.417 1.255,-1.254 z m -0.657,-5.377 c -0.439,0 -0.797,0.17 -1.075,0.508 -0.279,0.339 -0.418,0.728 -0.418,1.165 0,0.996 0.637,1.494 1.912,1.494 0.478,0 0.846,-0.179 1.105,-0.538 0.258,-0.358 0.388,-0.696 0.388,-1.016 0,-1.075 -0.638,-1.613 -1.912,-1.613 z m -1.374,5.258 c 0,-0.398 0.199,-0.598 0.598,-0.598 0.397,0 0.597,0.22 0.597,0.657 0,0.319 -0.179,0.478 -0.538,0.478 -0.439,0 -0.657,-0.179 -0.657,-0.537 z m 3.465,-10.576 c 0,-0.278 -0.13,-0.557 -0.388,-0.836 -0.26,-0.278 -0.588,-0.418 -0.986,-0.418 -1.156,0 -1.733,0.558 -1.733,1.673 0,0.319 0.149,0.567 0.448,0.747 0.299,0.18 0.587,0.269 0.866,0.269 0.438,0 0.846,-0.159 1.225,-0.478 0.379,-0.319 0.568,-0.637 0.568,-0.957 z m -1.314,6.991 c 0,0.319 -0.179,0.478 -0.538,0.478 -0.439,0 -0.657,-0.159 -0.657,-0.478 0,-0.438 0.199,-0.657 0.597,-0.657 0.398,0 0.598,0.219 0.598,0.657 z m -0.239,-6.333 c -0.439,0 -0.658,-0.199 -0.658,-0.598 0,-0.397 0.259,-0.597 0.777,-0.597 0.359,0 0.538,0.179 0.538,0.538 -10e-4,0.438 -0.22,0.657 -0.657,0.657 z m 1.433,4.361 c 0.12,0 0.289,-0.03 0.508,-0.089 0.219,-0.06 0.468,-0.239 0.747,-0.538 0.278,-0.299 0.418,-0.688 0.418,-1.165 0,-0.517 -0.149,-0.886 -0.448,-1.105 -0.299,-0.219 -0.588,-0.329 -0.867,-0.329 -0.358,0 -0.776,0.12 -1.254,0.358 -0.478,0.239 -0.717,0.638 -0.717,1.195 0,0.439 0.159,0.827 0.478,1.165 0.318,0.339 0.696,0.508 1.135,0.508 z m 0.12,-2.15 c 0.438,0 0.657,0.2 0.657,0.597 0,0.398 -0.219,0.598 -0.657,0.598 -0.439,0 -0.657,-0.199 -0.657,-0.598 0,-0.398 0.218,-0.597 0.657,-0.597 z m 2.39,7.647 c 0,-0.438 -0.189,-0.756 -0.567,-0.956 -0.379,-0.199 -0.747,-0.299 -1.105,-0.299 -0.876,0 -1.314,0.558 -1.314,1.673 0,0.876 0.438,1.314 1.314,1.314 0.199,0 0.398,-0.03 0.598,-0.09 0.199,-0.06 0.427,-0.229 0.687,-0.508 0.257,-0.277 0.387,-0.656 0.387,-1.134 z m -1.434,-0.239 c 0.358,0 0.538,0.16 0.538,0.478 0,0.478 -0.2,0.717 -0.598,0.717 -0.358,0 -0.538,-0.218 -0.538,-0.657 0,-0.359 0.199,-0.538 0.598,-0.538 z m -0.538,-3.764 c 0,0.439 0.159,0.777 0.478,1.016 0.318,0.239 0.677,0.358 1.075,0.358 0.996,0 1.494,-0.458 1.494,-1.375 0,-0.358 -0.129,-0.687 -0.388,-0.986 -0.259,-0.299 -0.588,-0.448 -0.985,-0.448 -0.519,0 -0.926,0.14 -1.225,0.418 -0.3,0.28 -0.449,0.619 -0.449,1.017 z m 1.972,-5.079 c 0.278,0 0.607,-0.12 0.986,-0.359 0.378,-0.239 0.567,-0.617 0.567,-1.135 0,-0.836 -0.438,-1.255 -1.314,-1.255 -1.076,0 -1.613,0.458 -1.613,1.374 0,0.439 0.129,0.777 0.388,1.016 0.259,0.24 0.587,0.359 0.986,0.359 z m -0.359,4.481 c 0.397,0 0.598,0.239 0.598,0.717 0,0.358 -0.22,0.538 -0.658,0.538 -0.358,0 -0.538,-0.199 -0.538,-0.597 0.001,-0.438 0.2,-0.658 0.598,-0.658 z m 0.418,-5.257 c -0.358,0 -0.538,-0.179 -0.538,-0.538 0,-0.438 0.199,-0.657 0.598,-0.657 0.397,0 0.598,0.179 0.598,0.538 0,0.438 -0.22,0.657 -0.658,0.657 z m 0.419,8.603 c 0,0.279 0.179,0.538 0.538,0.777 0.358,0.239 0.657,0.358 0.896,0.358 0.358,0 0.687,-0.129 0.986,-0.388 0.298,-0.259 0.448,-0.528 0.448,-0.807 0,-0.359 -0.149,-0.687 -0.448,-0.986 -0.299,-0.299 -0.648,-0.448 -1.046,-0.448 -0.358,0 -0.678,0.16 -0.956,0.478 -0.279,0.32 -0.418,0.658 -0.418,1.016 z m 0.298,-6.572 c 0,0.917 0.478,1.375 1.434,1.375 0.397,0 0.766,-0.129 1.105,-0.389 0.338,-0.258 0.508,-0.587 0.508,-0.986 0,-0.956 -0.458,-1.434 -1.374,-1.434 -0.478,0 -0.876,0.149 -1.195,0.448 -0.319,0.299 -0.478,0.627 -0.478,0.986 z m 1.673,6.393 c 0,0.12 -0.06,0.239 -0.179,0.358 -0.119,0.119 -0.219,0.179 -0.299,0.179 -0.398,0 -0.598,-0.139 -0.598,-0.418 0,-0.438 0.179,-0.657 0.538,-0.657 0.359,0 0.538,0.179 0.538,0.538 z m -0.597,-6.333 c 0,-0.438 0.199,-0.657 0.598,-0.657 0.358,0 0.538,0.2 0.538,0.597 0,0.399 -0.219,0.598 -0.657,0.598 -0.321,-10e-4 -0.479,-0.18 -0.479,-0.538 z m 1.434,4.66 c 1.076,0 1.613,-0.438 1.613,-1.314 0,-0.358 -0.12,-0.696 -0.359,-1.016 -0.239,-0.318 -0.578,-0.478 -1.016,-0.478 -0.319,0 -0.657,0.119 -1.016,0.358 -0.358,0.239 -0.538,0.598 -0.538,1.076 0,0.358 0.12,0.678 0.358,0.956 0.241,0.279 0.559,0.418 0.958,0.418 z m 0.239,-0.717 c -0.478,0 -0.717,-0.179 -0.717,-0.538 0,-0.199 0.079,-0.368 0.239,-0.508 0.159,-0.139 0.318,-0.209 0.478,-0.209 0.318,0 0.478,0.219 0.478,0.657 0,0.399 -0.16,0.598 -0.478,0.598 z" /><path
     style="fill:#133f00"
     inkscape:connector-curvature="0"
     id="path78"
     d="m 35.907,116.664 c -0.319,0 -0.797,-0.06 -1.434,-0.179 -0.638,-0.119 -1.096,-0.179 -1.374,-0.179 -0.2,0 -0.598,0.119 -1.195,0.358 -0.598,0.239 -1.076,0.359 -1.434,0.359 -0.2,0 -0.618,-0.049 -1.255,-0.149 -0.637,-0.099 -1.096,-0.149 -1.374,-0.149 -2.351,0 -4.421,0.339 -6.213,1.016 -0.081,-0.159 -0.12,-0.397 -0.12,-0.717 0,-1.673 0.557,-3.116 1.673,-4.332 1.115,-1.215 2.23,-1.822 3.346,-1.822 0.318,0 0.677,0.06 1.076,0.179 0.397,0.12 0.617,0.179 0.657,0.179 0.159,0 0.239,-0.06 0.239,-0.179 0,-0.039 -0.05,-0.129 -0.149,-0.269 -0.1,-0.139 -0.149,-0.229 -0.149,-0.269 0,-0.199 0.04,-0.299 0.12,-0.299 0.08,0 0.179,0.08 0.299,0.239 0.12,0.16 0.229,0.429 0.329,0.807 0.099,0.379 0.149,0.787 0.149,1.225 0,0.2 -0.01,0.559 -0.03,1.076 -0.021,0.518 -0.03,0.836 -0.03,0.956 0,1.354 0.418,2.031 1.254,2.031 0.278,0 0.756,-0.129 1.434,-0.389 0.676,-0.258 1.234,-0.388 1.673,-0.388 0.119,0 0.258,0.01 0.418,0.03 0.159,0.021 0.278,0.03 0.358,0.03 0.637,0 0.956,-0.438 0.956,-1.314 0,-0.278 -0.17,-0.547 -0.508,-0.807 -0.339,-0.259 -0.667,-0.389 -0.986,-0.389 -0.398,0 -0.866,0.339 -1.404,1.016 -0.538,0.678 -0.986,1.016 -1.345,1.016 -0.637,0 -0.956,-0.478 -0.956,-1.434 0,-0.397 0.109,-0.956 0.329,-1.673 0.218,-0.717 0.329,-1.255 0.329,-1.613 0,-0.478 -0.11,-0.826 -0.329,-1.045 -0.22,-0.218 -0.448,-0.348 -0.687,-0.388 -0.239,-0.04 -0.359,-0.08 -0.359,-0.12 0,-0.08 0.12,-0.12 0.359,-0.12 0.397,0 0.756,0.209 1.075,0.627 0.318,0.418 0.517,0.627 0.598,0.627 0.079,0 0.239,-0.179 0.478,-0.538 0.239,-0.359 0.597,-0.707 1.075,-1.046 0.478,-0.338 1.055,-0.508 1.732,-0.508 0.796,0 1.454,0.369 1.972,1.105 0.518,0.737 0.796,1.105 0.836,1.105 l 0.896,-0.239 c 0.598,-0.199 1.334,-0.299 2.211,-0.299 1.195,0 2.45,0.618 3.764,1.853 1.314,1.235 1.972,2.769 1.972,4.6 l -0.18,1.016 c -0.08,0 -0.817,-0.12 -2.21,-0.358 -1.395,-0.239 -2.53,-0.358 -3.405,-0.358 -1.395,0 -2.43,0.021 -3.107,0.06 -0.677,0.04 -1.135,0.059 -1.374,0.059 z m -11.232,-0.477 c 0,-0.159 -0.239,-0.239 -0.717,-0.239 -0.358,0 -0.667,0.041 -0.926,0.12 -0.259,0.081 -0.438,0.179 -0.538,0.299 -0.1,0.119 -0.149,0.219 -0.149,0.298 0,0.16 0.08,0.239 0.239,0.239 0.199,0 0.598,-0.089 1.195,-0.269 0.597,-0.18 0.896,-0.329 0.896,-0.448 z m -1.972,-1.016 c 0,0.16 0.199,0.239 0.598,0.239 0.278,0 0.606,-0.06 0.986,-0.179 0.378,-0.12 0.567,-0.218 0.567,-0.299 0,-0.199 -0.239,-0.298 -0.717,-0.298 -0.956,-0.001 -1.434,0.179 -1.434,0.537 z m 1.733,-1.793 c -0.717,0 -1.076,0.119 -1.076,0.358 0,0.2 0.358,0.299 1.076,0.299 0.637,0 0.956,-0.099 0.956,-0.299 0,-0.238 -0.319,-0.358 -0.956,-0.358 z m -0.18,-0.776 c 0,0.239 0.438,0.358 1.315,0.358 0.278,0 0.418,-0.06 0.418,-0.179 0,-0.318 -0.339,-0.478 -1.016,-0.478 -0.477,0 -0.717,0.1 -0.717,0.299 z m 0.897,-0.896 c 0,0.2 0.378,0.298 1.135,0.298 0.239,0 0.358,-0.06 0.358,-0.179 0,-0.239 -0.299,-0.358 -0.896,-0.358 -0.398,-0.001 -0.597,0.08 -0.597,0.239 z m 3.226,4.062 c -2.031,0 -3.047,0.1 -3.047,0.299 0,0.16 0.258,0.239 0.777,0.239 0.159,0 0.458,-0.01 0.896,-0.03 0.438,-0.02 0.777,-0.03 1.016,-0.03 0.517,0 0.777,-0.08 0.777,-0.239 -10e-4,-0.158 -0.141,-0.239 -0.419,-0.239 z m 0.18,-0.657 c 0,-0.318 -0.777,-0.478 -2.331,-0.478 -0.478,0 -0.717,0.1 -0.717,0.298 0,0.081 0.02,0.13 0.06,0.149 0.039,0.021 0.128,0.04 0.269,0.06 0.139,0.021 0.278,0.03 0.418,0.03 0.14,0 0.368,0 0.688,0 0.318,0 0.617,0.021 0.896,0.06 0.477,0.041 0.717,0 0.717,-0.119 z m -0.06,-0.956 c 0,-0.318 -0.538,-0.478 -1.613,-0.478 -0.518,0 -0.776,0.1 -0.776,0.298 0,0.2 0.617,0.299 1.852,0.299 0.357,0 0.537,-0.039 0.537,-0.119 z m -1.912,-1.075 c 0,0.04 0.258,0.11 0.776,0.209 0.517,0.1 0.816,0.149 0.896,0.149 0.159,0 0.239,-0.02 0.239,-0.06 0,-0.08 -0.06,-0.159 -0.179,-0.239 -0.12,-0.08 -0.299,-0.159 -0.538,-0.239 -0.239,-0.079 -0.478,-0.12 -0.717,-0.12 -0.318,0.001 -0.477,0.101 -0.477,0.3 z m 0.418,-0.896 c 0,0.119 0.209,0.239 0.627,0.358 0.418,0.119 0.726,0.179 0.926,0.179 0.079,0 0.119,-0.039 0.119,-0.12 0,-0.079 -0.149,-0.199 -0.448,-0.358 -0.299,-0.159 -0.588,-0.239 -0.866,-0.239 -0.238,0 -0.358,0.06 -0.358,0.18 z m 1.613,-0.359 c 0,-0.278 -0.279,-0.418 -0.836,-0.418 -0.239,0 -0.359,0.04 -0.359,0.12 0,0.12 0.139,0.219 0.418,0.298 0.278,0.081 0.478,0.12 0.598,0.12 0.12,0 0.179,-0.04 0.179,-0.12 z m 1.255,-1.135 c 0,0.119 -0.06,0.179 -0.179,0.179 -0.119,0 -0.259,-0.12 -0.418,-0.358 -0.16,-0.239 -0.239,-0.438 -0.239,-0.598 0,-0.079 0.039,-0.12 0.119,-0.12 0.159,0 0.318,0.11 0.478,0.329 0.158,0.22 0.239,0.409 0.239,0.568 z m 1.374,2.628 c 0,-0.239 -0.14,-0.358 -0.418,-0.358 -0.319,0 -0.478,0.299 -0.478,0.896 0,0.239 0.08,0.358 0.239,0.358 0.079,0 0.209,-0.109 0.388,-0.329 0.179,-0.217 0.269,-0.407 0.269,-0.567 z m 0.717,0.598 c 0,-0.199 -0.06,-0.299 -0.179,-0.299 -0.16,0 -0.349,0.13 -0.567,0.388 -0.22,0.26 -0.329,0.469 -0.329,0.628 0,0.16 0.08,0.239 0.239,0.239 0.12,0 0.289,-0.12 0.508,-0.358 0.218,-0.24 0.328,-0.438 0.328,-0.598 z m -0.299,-1.075 c 0.08,0 0.169,-0.08 0.269,-0.239 0.099,-0.159 0.149,-0.278 0.149,-0.358 0,-0.318 -0.14,-0.478 -0.418,-0.478 -0.478,0 -0.717,0.2 -0.717,0.598 0,0.318 0.239,0.477 0.717,0.477 z m 1.255,-3.167 c 0,-0.159 -0.12,-0.239 -0.359,-0.239 -0.398,0 -0.597,0.179 -0.597,0.538 0,0.199 0.119,0.298 0.358,0.298 0.398,0 0.598,-0.198 0.598,-0.597 z m -0.478,2.032 c 0.278,0 0.418,-0.159 0.418,-0.478 0,-0.278 -0.14,-0.418 -0.418,-0.418 -0.319,0 -0.478,0.16 -0.478,0.478 0,0.278 0.159,0.418 0.478,0.418 z m 0.119,0.776 c -0.08,0 -0.169,0.06 -0.269,0.18 -0.1,0.119 -0.149,0.219 -0.149,0.298 0,0.279 0.139,0.418 0.418,0.418 0.278,0 0.418,-0.179 0.418,-0.538 0,-0.238 -0.14,-0.358 -0.418,-0.358 z m 0.777,-3.824 c -0.319,0 -0.478,0.12 -0.478,0.359 0,0.239 0.159,0.358 0.478,0.358 0.079,0.04 0.159,0.03 0.239,-0.03 0.08,-0.06 0.12,-0.149 0.12,-0.269 0,-0.278 -0.12,-0.418 -0.359,-0.418 z m 0,2.211 c 0.278,0 0.418,-0.139 0.418,-0.418 0,-0.278 -0.14,-0.418 -0.418,-0.418 -0.279,0 -0.418,0.14 -0.418,0.418 0,0.279 0.139,0.418 0.418,0.418 z m 0.537,1.195 c 0,-0.318 -0.14,-0.478 -0.418,-0.478 -0.358,0 -0.538,0.14 -0.538,0.418 0,0.319 0.159,0.478 0.478,0.478 0.319,0 0.478,-0.139 0.478,-0.418 z m 0.299,-1.374 c -0.319,0 -0.478,0.16 -0.478,0.478 -0.041,0.119 0.009,0.229 0.149,0.328 0.139,0.1 0.249,0.15 0.329,0.15 0.318,0 0.478,-0.14 0.478,-0.418 0,-0.359 -0.159,-0.538 -0.478,-0.538 z m -0.059,-0.598 c 0.358,0 0.538,-0.159 0.538,-0.478 0,-0.239 -0.14,-0.358 -0.418,-0.358 -0.319,0 -0.478,0.16 -0.478,0.478 -10e-4,0.239 0.118,0.358 0.358,0.358 z m 0.119,-1.733 c -0.279,0 -0.418,0.1 -0.418,0.299 0,0.2 0.139,0.299 0.418,0.299 0.239,0 0.358,-0.099 0.358,-0.299 0.001,-0.199 -0.119,-0.299 -0.358,-0.299 z m 1.733,7.887 c 0.239,0 0.965,-0.09 2.181,-0.269 1.215,-0.179 2.339,-0.269 3.376,-0.269 0.557,0 0.836,-0.08 0.836,-0.239 0,-0.318 -0.379,-0.478 -1.135,-0.478 -0.439,0 -1.116,0.081 -2.032,0.239 -0.917,0.16 -1.474,0.239 -1.673,0.239 -0.16,0 -0.239,-0.02 -0.239,-0.06 0,-0.199 0.517,-0.408 1.553,-0.627 1.036,-0.218 1.772,-0.329 2.211,-0.329 0.438,0 0.657,-0.099 0.657,-0.298 0,-0.199 -0.2,-0.299 -0.597,-0.299 -0.399,0 -1.006,0.1 -1.822,0.299 -0.817,0.199 -1.325,0.298 -1.523,0.298 -0.12,0 -0.179,-0.039 -0.179,-0.119 0,-0.278 0.916,-0.558 2.748,-0.837 0.438,-0.039 0.657,-0.159 0.657,-0.358 0,-0.12 -0.12,-0.18 -0.358,-0.18 -0.279,0 -0.787,0.11 -1.523,0.329 -0.738,0.22 -1.165,0.329 -1.285,0.329 -0.239,0 -0.219,-0.099 0.06,-0.299 0.079,-0.079 0.159,-0.139 0.239,-0.179 0.239,-0.08 0.498,-0.169 0.777,-0.269 0.278,-0.099 0.487,-0.169 0.627,-0.209 0.139,-0.04 0.278,-0.08 0.418,-0.12 0.139,-0.039 0.229,-0.09 0.269,-0.149 0.04,-0.06 0.06,-0.109 0.06,-0.149 0,-0.12 -0.1,-0.179 -0.299,-0.179 -0.239,0 -0.648,0.11 -1.225,0.329 -0.578,0.219 -0.907,0.329 -0.986,0.329 -0.12,0 -0.179,-0.02 -0.179,-0.06 0,-0.12 0.368,-0.348 1.105,-0.688 0.737,-0.338 1.105,-0.547 1.105,-0.627 0,-0.12 -0.08,-0.179 -0.239,-0.179 -0.12,0 -0.458,0.149 -1.016,0.448 -0.558,0.299 -0.917,0.448 -1.075,0.448 -0.081,0 -0.12,-0.039 -0.12,-0.12 0,-0.159 0.329,-0.408 0.986,-0.747 0.657,-0.338 0.986,-0.568 0.986,-0.687 0,-0.08 -0.08,-0.12 -0.239,-0.12 -0.279,0 -0.627,0.11 -1.046,0.329 -0.418,0.219 -0.767,0.428 -1.045,0.627 l -0.478,0.299 c -0.16,0 -0.239,-0.08 -0.239,-0.239 0,-0.039 0.069,-0.169 0.209,-0.388 0.139,-0.219 0.209,-0.368 0.209,-0.448 0,-0.159 -0.119,-0.239 -0.358,-0.239 -0.239,0 -0.678,0.359 -1.314,1.076 -0.638,0.717 -0.956,1.135 -0.956,1.255 0,0.04 0.269,0.229 0.807,0.567 0.538,0.339 0.807,0.827 0.807,1.464 0,0.597 -0.179,1.075 -0.538,1.434 0.317,0.08 0.596,0.119 0.835,0.119 z m -0.359,-5.975 c 0,-0.239 -0.179,-0.358 -0.538,-0.358 -0.08,0 -0.179,0.06 -0.298,0.179 -0.12,0.12 -0.179,0.239 -0.179,0.358 0,0.239 0.159,0.358 0.478,0.358 0.12,0 0.239,-0.06 0.359,-0.179 0.118,-0.118 0.178,-0.238 0.178,-0.358 z m -0.358,-1.732 c -0.279,0 -0.418,0.16 -0.418,0.478 0,0.2 0.12,0.298 0.358,0.298 0.358,0 0.538,-0.139 0.538,-0.418 0,-0.239 -0.16,-0.358 -0.478,-0.358 z m 1.075,1.075 c 0,-0.199 -0.1,-0.299 -0.299,-0.299 -0.239,0 -0.358,0.1 -0.358,0.299 0,0.239 0.099,0.359 0.299,0.359 0.239,0 0.358,-0.12 0.358,-0.359 z m 1.912,-1.135 c 1.115,-1.234 2.271,-2.23 3.465,-2.988 1.195,-0.756 2.111,-1.135 2.749,-1.135 0.239,0 0.358,0.08 0.358,0.239 0,0.081 -0.04,0.14 -0.119,0.179 -0.2,0.16 -0.618,0.388 -1.255,0.687 -0.638,0.299 -1.056,0.508 -1.255,0.627 -0.797,0.518 -1.523,1.016 -2.181,1.494 -0.658,0.478 -1.115,0.807 -1.374,0.986 -0.26,0.179 -0.428,0.269 -0.508,0.269 -0.159,0 -0.119,-0.119 0.12,-0.358 z m 2.032,2.509 c 0,0.16 0.079,0.239 0.239,0.239 1.036,0 1.554,-0.139 1.554,-0.418 0,-0.159 -0.16,-0.239 -0.478,-0.239 -0.2,0 -0.469,0.05 -0.807,0.149 -0.339,0.1 -0.508,0.19 -0.508,0.269 z m 0.059,-2.569 c 0,-0.039 0.229,-0.229 0.687,-0.568 0.458,-0.338 1.016,-0.676 1.673,-1.016 0.657,-0.338 1.165,-0.508 1.524,-0.508 0.358,0 0.538,0.06 0.538,0.18 0,0.119 -1.335,0.737 -4.003,1.852 -0.32,0.16 -0.459,0.18 -0.419,0.06 z m 2.271,3.107 c -0.917,0 -1.374,0.159 -1.374,0.478 0,0.12 0.119,0.18 0.358,0.18 0.119,0 0.338,-0.01 0.657,-0.03 0.318,-0.02 0.517,-0.03 0.597,-0.03 0.239,0 0.359,-0.079 0.359,-0.239 0,-0.239 -0.2,-0.359 -0.597,-0.359 z m -1.196,-2.509 c 0,-0.04 0.129,-0.129 0.389,-0.269 0.259,-0.139 0.587,-0.269 0.986,-0.389 0.398,-0.119 0.736,-0.179 1.016,-0.179 0.358,0 0.598,0.119 0.717,0.358 0.04,0.08 0.02,0.13 -0.06,0.149 -0.08,0.02 -0.259,0.03 -0.538,0.03 -0.439,0.04 -0.847,0.089 -1.225,0.149 -0.379,0.06 -0.648,0.11 -0.807,0.15 -0.16,0.04 -0.259,0.06 -0.298,0.06 -0.12,0.001 -0.18,-0.019 -0.18,-0.059 z m 0.598,4.063 c 0,0.16 0.517,0.239 1.554,0.239 0.358,0 0.538,-0.06 0.538,-0.179 0,-0.239 -0.319,-0.359 -0.956,-0.359 -0.758,0 -1.136,0.1 -1.136,0.299 z m 2.987,1.374 c 0,-0.358 -0.518,-0.538 -1.553,-0.538 -0.319,0 -0.538,0.021 -0.657,0.06 -0.12,0.041 -0.16,0.12 -0.12,0.239 0,0.12 0.289,0.229 0.867,0.329 0.577,0.1 0.945,0.149 1.105,0.149 0.239,0 0.358,-0.08 0.358,-0.239 z m -0.358,0.956 c -0.319,-0.079 -0.657,-0.12 -1.016,-0.12 -0.359,0 -0.538,0.06 -0.538,0.179 0,0.359 0.617,0.598 1.852,0.717 0.199,0.04 0.299,-0.02 0.299,-0.179 0.001,-0.318 -0.2,-0.517 -0.597,-0.597 z" /></g></svg>