<?xml version="1.0" encoding="UTF-8" standalone="no"?>
<!-- Generator: Adobe Illustrator 16.0.0, SVG Export Plug-In . SVG Version: 6.00 Build 0)  -->

<svg
   xmlns:dc="http://purl.org/dc/elements/1.1/"
   xmlns:cc="http://creativecommons.org/ns#"
   xmlns:rdf="http://www.w3.org/1999/02/22-rdf-syntax-ns#"
   xmlns:svg="http://www.w3.org/2000/svg"
   xmlns="http://www.w3.org/2000/svg"
   xmlns:sodipodi="http://sodipodi.sourceforge.net/DTD/sodipodi-0.dtd"
   xmlns:inkscape="http://www.inkscape.org/namespaces/inkscape"
   version="1.1"
   id="图层_1"
   x="0px"
   y="0px"
   width="139.76401"
   height="200"
   viewBox="0 0 139.764 200"
   enable-background="new 0 0 714 341"
   xml:space="preserve"
   sodipodi:docname="0304四條.svg"
   inkscape:version="0.92.3 (2405546, 2018-03-11)"><metadata
   id="metadata621"><rdf:RDF><cc:Work
       rdf:about=""><dc:format>image/svg+xml</dc:format><dc:type
         rdf:resource="http://purl.org/dc/dcmitype/StillImage" /><dc:title /></cc:Work></rdf:RDF></metadata><defs
   id="defs619" /><sodipodi:namedview
   pagecolor="#ffffff"
   bordercolor="#666666"
   borderopacity="1"
   objecttolerance="10"
   gridtolerance="10"
   guidetolerance="10"
   inkscape:pageopacity="0"
   inkscape:pageshadow="2"
   inkscape:window-width="1366"
   inkscape:window-height="705"
   id="namedview617"
   showgrid="false"
   inkscape:zoom="1"
   inkscape:cx="-30.16014"
   inkscape:cy="112.60966"
   inkscape:window-x="-8"
   inkscape:window-y="-8"
   inkscape:window-maximized="1"
   inkscape:current-layer="图层_1" />



















































































































































































































































































































<g
   transform="matrix(4.0331583,0,0,4.0331525,-529.40042,-322.32955)"
   id="g1800"><path
     inkscape:connector-curvature="0"
     id="path88"
     d="m 165.914,83.505 v 42.419 c 0,0.995 -0.349,1.842 -1.045,2.539 -0.697,0.697 -1.544,1.046 -2.54,1.046 h -27.483 c -0.996,0 -1.842,-0.349 -2.539,-1.046 -0.697,-0.697 -1.045,-1.544 -1.045,-2.539 V 83.505 c 0,-0.995 0.348,-1.842 1.045,-2.539 0.697,-0.697 1.543,-1.046 2.539,-1.046 h 27.483 c 0.996,0 1.842,0.349 2.54,1.046 0.695,0.698 1.045,1.544 1.045,2.539 z m -3.585,-1.792 h -27.483 c -0.518,0 -0.946,0.17 -1.284,0.508 -0.339,0.339 -0.508,0.768 -0.508,1.285 v 42.419 c 0,0.517 0.169,0.946 0.508,1.285 0.338,0.338 0.766,0.508 1.284,0.508 h 27.483 c 0.518,0 0.946,-0.17 1.285,-0.508 0.338,-0.339 0.508,-0.768 0.508,-1.285 v -42.42 c 0,-0.517 -0.17,-0.946 -0.508,-1.285 -0.34,-0.337 -0.768,-0.507 -1.285,-0.507 z" /><path
     style="fill:#133f00"
     inkscape:connector-curvature="0"
     id="path90"
     d="m 138.431,87.27 c 0,-0.836 1.195,-1.255 3.584,-1.255 2.39,0 3.585,0.418 3.585,1.255 0,0.678 -0.499,1.275 -1.494,1.792 v 3.764 c 0.995,0.319 1.494,0.797 1.494,1.434 0,0.638 -0.499,1.116 -1.494,1.434 v 3.764 c 0.995,0.518 1.494,1.116 1.494,1.792 0,0.836 -1.195,1.254 -3.585,1.254 -2.39,0 -3.584,-0.418 -3.584,-1.254 0,-0.677 0.498,-1.274 1.494,-1.792 v -3.764 c -0.996,-0.318 -1.494,-0.796 -1.494,-1.434 0,-0.637 0.498,-1.115 1.494,-1.434 v -3.764 c -0.997,-0.518 -1.494,-1.115 -1.494,-1.792 z m 0,20.911 c 0,-0.837 1.195,-1.255 3.584,-1.255 2.39,0 3.585,0.418 3.585,1.255 0,0.678 -0.499,1.275 -1.494,1.792 v 3.764 c 0.995,0.319 1.494,0.797 1.494,1.434 0,0.637 -0.499,1.115 -1.494,1.434 v 3.764 c 0.995,0.518 1.494,1.115 1.494,1.792 0,0.836 -1.195,1.254 -3.585,1.254 -2.39,0 -3.584,-0.418 -3.584,-1.254 0,-0.677 0.498,-1.274 1.494,-1.792 v -3.764 c -0.996,-0.318 -1.494,-0.796 -1.494,-1.434 0,-0.637 0.498,-1.115 1.494,-1.434 v -3.764 c -0.997,-0.517 -1.494,-1.115 -1.494,-1.792 z m 2.688,-20.911 v 5.258 c 0.199,-0.04 0.498,-0.06 0.896,-0.06 0.398,0 0.697,0.021 0.896,0.06 V 87.27 c -0.2,-0.039 -0.499,-0.06 -0.896,-0.06 -0.398,0 -0.697,0.02 -0.896,0.06 z m 0,8.125 c 0.12,0 0.278,0.011 0.478,0.03 0.199,0.021 0.338,0.03 0.418,0.03 0.08,0 0.219,-0.009 0.418,-0.03 0.199,-0.02 0.358,-0.03 0.478,-0.03 v -2.27 c -0.12,0 -0.279,-0.009 -0.478,-0.03 -0.2,-0.02 -0.339,-0.03 -0.418,-0.03 -0.08,0 -0.219,0.01 -0.418,0.03 -0.2,0.021 -0.358,0.03 -0.478,0.03 z m 1.793,5.855 v -5.258 c -0.2,0.04 -0.499,0.06 -0.896,0.06 -0.398,0 -0.697,-0.02 -0.896,-0.06 v 5.258 c 0.199,0.04 0.498,0.06 0.896,0.06 0.397,0 0.696,-0.02 0.896,-0.06 z m -1.793,6.931 v 5.257 c 0.199,-0.039 0.498,-0.06 0.896,-0.06 0.398,0 0.697,0.021 0.896,0.06 v -5.257 c -0.2,-0.04 -0.499,-0.06 -0.896,-0.06 -0.398,0 -0.697,0.02 -0.896,0.06 z m 0,8.125 c 0.12,0 0.278,0.01 0.478,0.03 0.199,0.021 0.338,0.03 0.418,0.03 0.08,0 0.219,-0.009 0.418,-0.03 0.199,-0.02 0.358,-0.03 0.478,-0.03 v -2.271 c -0.12,0 -0.279,-0.009 -0.478,-0.03 -0.2,-0.02 -0.339,-0.03 -0.418,-0.03 -0.08,0 -0.219,0.01 -0.418,0.03 -0.2,0.021 -0.358,0.03 -0.478,0.03 z m 1.793,5.855 v -5.258 c -0.2,0.04 -0.499,0.06 -0.896,0.06 -0.398,0 -0.697,-0.02 -0.896,-0.06 v 5.258 c 0.199,0.04 0.498,0.06 0.896,0.06 0.397,0 0.696,-0.02 0.896,-0.06 z m 8.663,-34.891 c 0,-0.836 1.195,-1.255 3.585,-1.255 2.39,0 3.584,0.418 3.584,1.255 0,0.678 -0.499,1.275 -1.494,1.792 v 3.764 c 0.995,0.319 1.494,0.797 1.494,1.434 0,0.638 -0.499,1.116 -1.494,1.434 v 3.764 c 0.995,0.518 1.494,1.116 1.494,1.792 0,0.836 -1.195,1.254 -3.584,1.254 -2.39,0 -3.585,-0.418 -3.585,-1.254 0,-0.677 0.498,-1.274 1.494,-1.792 v -3.764 c -0.996,-0.318 -1.494,-0.796 -1.494,-1.434 0,-0.637 0.498,-1.115 1.494,-1.434 v -3.764 c -0.997,-0.518 -1.494,-1.115 -1.494,-1.792 z m 0,20.911 c 0,-0.837 1.195,-1.255 3.585,-1.255 2.39,0 3.584,0.418 3.584,1.255 0,0.678 -0.499,1.275 -1.494,1.792 v 3.764 c 0.995,0.319 1.494,0.797 1.494,1.434 0,0.637 -0.499,1.115 -1.494,1.434 v 3.764 c 0.995,0.518 1.494,1.115 1.494,1.792 0,0.836 -1.195,1.254 -3.584,1.254 -2.39,0 -3.585,-0.418 -3.585,-1.254 0,-0.677 0.498,-1.274 1.494,-1.792 v -3.764 c -0.996,-0.318 -1.494,-0.796 -1.494,-1.434 0,-0.637 0.498,-1.115 1.494,-1.434 v -3.764 c -0.997,-0.517 -1.494,-1.115 -1.494,-1.792 z m 2.688,-20.911 v 5.258 c 0.199,-0.04 0.498,-0.06 0.896,-0.06 0.397,0 0.696,0.021 0.896,0.06 V 87.27 c -0.2,-0.039 -0.499,-0.06 -0.896,-0.06 -0.398,0 -0.697,0.02 -0.896,0.06 z m 0,8.125 c 0.12,0 0.278,0.011 0.478,0.03 0.199,0.021 0.338,0.03 0.418,0.03 0.079,0 0.218,-0.009 0.418,-0.03 0.199,-0.02 0.358,-0.03 0.478,-0.03 v -2.27 c -0.12,0 -0.279,-0.009 -0.478,-0.03 -0.2,-0.02 -0.339,-0.03 -0.418,-0.03 -0.081,0 -0.22,0.01 -0.418,0.03 -0.2,0.021 -0.358,0.03 -0.478,0.03 z m 1.793,5.855 v -5.258 c -0.2,0.04 -0.499,0.06 -0.896,0.06 -0.399,0 -0.698,-0.02 -0.896,-0.06 v 5.258 c 0.199,0.04 0.498,0.06 0.896,0.06 0.397,0 0.696,-0.02 0.896,-0.06 z m -1.793,6.931 v 5.257 c 0.199,-0.039 0.498,-0.06 0.896,-0.06 0.397,0 0.696,0.021 0.896,0.06 v -5.257 c -0.2,-0.04 -0.499,-0.06 -0.896,-0.06 -0.398,0 -0.697,0.02 -0.896,0.06 z m 0,8.125 c 0.12,0 0.278,0.01 0.478,0.03 0.199,0.021 0.338,0.03 0.418,0.03 0.079,0 0.218,-0.009 0.418,-0.03 0.199,-0.02 0.358,-0.03 0.478,-0.03 v -2.271 c -0.12,0 -0.279,-0.009 -0.478,-0.03 -0.2,-0.02 -0.339,-0.03 -0.418,-0.03 -0.081,0 -0.22,0.01 -0.418,0.03 -0.2,0.021 -0.358,0.03 -0.478,0.03 z m 1.793,5.855 v -5.258 c -0.2,0.04 -0.499,0.06 -0.896,0.06 -0.399,0 -0.698,-0.02 -0.896,-0.06 v 5.258 c 0.199,0.04 0.498,0.06 0.896,0.06 0.397,0 0.696,-0.02 0.896,-0.06 z" /></g></svg>