<?xml version="1.0" encoding="UTF-8" standalone="no"?>
<!-- Generator: Adobe Illustrator 16.0.0, SVG Export Plug-In . SVG Version: 6.00 Build 0)  -->

<svg
   xmlns:dc="http://purl.org/dc/elements/1.1/"
   xmlns:cc="http://creativecommons.org/ns#"
   xmlns:rdf="http://www.w3.org/1999/02/22-rdf-syntax-ns#"
   xmlns:svg="http://www.w3.org/2000/svg"
   xmlns="http://www.w3.org/2000/svg"
   xmlns:sodipodi="http://sodipodi.sourceforge.net/DTD/sodipodi-0.dtd"
   xmlns:inkscape="http://www.inkscape.org/namespaces/inkscape"
   version="1.1"
   id="图层_1"
   x="0px"
   y="0px"
   width="139.76401"
   height="200"
   viewBox="0 0 139.764 200"
   enable-background="new 0 0 714 341"
   xml:space="preserve"
   sodipodi:docname="0308八條.svg"
   inkscape:version="0.92.3 (2405546, 2018-03-11)"><metadata
   id="metadata621"><rdf:RDF><cc:Work
       rdf:about=""><dc:format>image/svg+xml</dc:format><dc:type
         rdf:resource="http://purl.org/dc/dcmitype/StillImage" /><dc:title /></cc:Work></rdf:RDF></metadata><defs
   id="defs619" /><sodipodi:namedview
   pagecolor="#ffffff"
   bordercolor="#666666"
   borderopacity="1"
   objecttolerance="10"
   gridtolerance="10"
   guidetolerance="10"
   inkscape:pageopacity="0"
   inkscape:pageshadow="2"
   inkscape:window-width="1366"
   inkscape:window-height="705"
   id="namedview617"
   showgrid="false"
   inkscape:zoom="1"
   inkscape:cx="-36.16014"
   inkscape:cy="112.60966"
   inkscape:window-x="-8"
   inkscape:window-y="-8"
   inkscape:window-maximized="1"
   inkscape:current-layer="图层_1" />



















































































































































































































































































































<g
   transform="matrix(4.0331525,0,0,4.0331525,-1146.2582,-322.32955)"
   id="g1864"><path
     inkscape:connector-curvature="0"
     id="path108"
     d="m 318.862,83.505 v 42.419 c 0,0.995 -0.349,1.842 -1.045,2.539 -0.697,0.697 -1.544,1.046 -2.54,1.046 h -27.483 c -0.996,0 -1.843,-0.349 -2.54,-1.046 -0.697,-0.697 -1.045,-1.544 -1.045,-2.539 V 83.505 c 0,-0.995 0.348,-1.842 1.045,-2.539 0.697,-0.697 1.543,-1.046 2.54,-1.046 h 27.483 c 0.995,0 1.842,0.349 2.54,1.046 0.697,0.698 1.045,1.544 1.045,2.539 z m -3.584,-1.792 h -27.483 c -0.519,0 -0.947,0.17 -1.285,0.508 -0.339,0.339 -0.508,0.768 -0.508,1.285 v 42.419 c 0,0.517 0.169,0.946 0.508,1.285 0.338,0.338 0.766,0.508 1.285,0.508 h 27.483 c 0.518,0 0.946,-0.17 1.284,-0.508 0.338,-0.339 0.508,-0.768 0.508,-1.285 v -42.42 c 0,-0.517 -0.17,-0.946 -0.508,-1.285 -0.338,-0.337 -0.767,-0.507 -1.284,-0.507 z" /><path
     style="fill:#133f00"
     inkscape:connector-curvature="0"
     id="path110"
     d="m 304.882,92.945 c 0.637,-0.278 1.135,-0.239 1.494,0.12 0.397,0.398 0.438,0.896 0.119,1.494 l 2.21,2.21 v -1.076 c -0.996,-0.318 -1.493,-0.796 -1.493,-1.434 0,-0.637 0.498,-1.115 1.493,-1.434 v -3.764 c -0.996,-0.518 -1.493,-1.115 -1.493,-1.792 0,-0.836 1.195,-1.255 3.584,-1.255 2.39,0 3.585,0.418 3.585,1.255 0,0.678 -0.499,1.275 -1.494,1.792 v 3.764 c 0.996,0.319 1.494,0.797 1.494,1.434 0,0.638 -0.499,1.116 -1.494,1.434 v 3.764 c 0.996,0.518 1.494,1.116 1.494,1.792 0,0.836 -1.195,1.254 -3.585,1.254 -2.39,0 -3.584,-0.418 -3.584,-1.254 0,-0.358 0.199,-0.737 0.598,-1.135 l -3.406,-3.405 c -0.638,0.279 -1.135,0.239 -1.494,-0.12 -0.399,-0.398 -0.439,-0.896 -0.12,-1.494 l -1.255,-1.255 -1.254,1.255 c 0.278,0.597 0.239,1.075 -0.12,1.434 -0.398,0.398 -0.896,0.458 -1.493,0.179 l -3.406,3.405 c 0.398,0.398 0.598,0.777 0.598,1.135 0,0.836 -1.195,1.254 -3.584,1.254 -2.39,0 -3.585,-0.418 -3.585,-1.254 0,-0.677 0.498,-1.274 1.494,-1.792 v -3.764 c -0.997,-0.318 -1.494,-0.796 -1.494,-1.434 0,-0.637 0.498,-1.115 1.494,-1.434 V 89.06 c -0.997,-0.518 -1.494,-1.115 -1.494,-1.792 0,-0.836 1.195,-1.255 3.585,-1.255 2.39,0 3.584,0.418 3.584,1.255 0,0.678 -0.498,1.275 -1.493,1.792 v 3.764 c 0.995,0.319 1.493,0.797 1.493,1.434 0,0.638 -0.498,1.116 -1.493,1.434 v 1.076 l 2.21,-2.21 c -0.319,-0.598 -0.279,-1.095 0.12,-1.494 0.358,-0.359 0.855,-0.398 1.493,-0.12 l 1.375,-1.314 c -0.319,-0.438 -0.478,-0.875 -0.478,-1.314 0,-0.756 0.338,-1.135 1.016,-1.135 0.557,0 1.035,0.18 1.434,0.538 0.398,-0.358 0.876,-0.538 1.434,-0.538 0.677,0 1.016,0.379 1.016,1.135 0,0.439 -0.16,0.876 -0.478,1.314 z m -6.692,23.54 c -0.638,0.279 -1.135,0.239 -1.493,-0.119 -0.399,-0.398 -0.439,-0.896 -0.12,-1.494 l -2.21,-2.21 v 1.075 c 0.995,0.319 1.493,0.797 1.493,1.434 0,0.637 -0.498,1.115 -1.493,1.434 v 3.764 c 0.995,0.518 1.493,1.115 1.493,1.792 0,0.836 -1.195,1.254 -3.584,1.254 -2.39,0 -3.585,-0.418 -3.585,-1.254 0,-0.677 0.498,-1.274 1.494,-1.792 v -3.764 c -0.997,-0.318 -1.494,-0.796 -1.494,-1.434 0,-0.637 0.498,-1.115 1.494,-1.434 v -3.764 c -0.997,-0.518 -1.494,-1.115 -1.494,-1.792 0,-0.837 1.195,-1.255 3.585,-1.255 2.39,0 3.584,0.418 3.584,1.255 0,0.358 -0.2,0.737 -0.598,1.135 l 3.406,3.406 c 0.637,-0.278 1.135,-0.239 1.493,0.12 0.398,0.398 0.438,0.896 0.12,1.494 l 1.254,1.254 1.255,-1.254 c -0.279,-0.598 -0.239,-1.076 0.12,-1.434 0.398,-0.397 0.896,-0.458 1.494,-0.179 l 3.406,-3.406 c -0.399,-0.397 -0.598,-0.776 -0.598,-1.135 0,-0.837 1.195,-1.255 3.584,-1.255 2.39,0 3.585,0.418 3.585,1.255 0,0.678 -0.499,1.275 -1.494,1.792 v 3.764 c 0.996,0.319 1.494,0.797 1.494,1.434 0,0.637 -0.499,1.115 -1.494,1.434 v 3.764 c 0.996,0.518 1.494,1.115 1.494,1.792 0,0.836 -1.195,1.254 -3.585,1.254 -2.39,0 -3.584,-0.418 -3.584,-1.254 0,-0.677 0.498,-1.274 1.493,-1.792 v -3.764 c -0.996,-0.318 -1.493,-0.796 -1.493,-1.434 0,-0.637 0.498,-1.115 1.493,-1.434 v -1.075 l -2.21,2.21 c 0.318,0.597 0.278,1.096 -0.119,1.494 -0.358,0.358 -0.857,0.398 -1.494,0.119 l -1.375,1.315 c 0.318,0.438 0.478,0.876 0.478,1.314 0,0.757 -0.339,1.135 -1.016,1.135 -0.558,0 -1.036,-0.179 -1.434,-0.538 -0.398,0.358 -0.876,0.538 -1.434,0.538 -0.678,0 -1.016,-0.378 -1.016,-1.135 0,-0.438 0.159,-0.875 0.478,-1.314 z M 291.38,87.27 v 5.258 c 0.199,-0.04 0.498,-0.06 0.896,-0.06 0.397,0 0.697,0.021 0.896,0.06 V 87.27 c -0.199,-0.039 -0.499,-0.06 -0.896,-0.06 -0.399,0 -0.697,0.02 -0.896,0.06 z m 0,8.125 c 0.079,0 0.218,0.011 0.418,0.03 0.199,0.021 0.358,0.03 0.478,0.03 0.12,0 0.278,-0.009 0.478,-0.03 0.199,-0.02 0.338,-0.03 0.418,-0.03 v -2.27 c -0.08,0 -0.219,-0.009 -0.418,-0.03 -0.2,-0.02 -0.358,-0.03 -0.478,-0.03 -0.12,0 -0.279,0.01 -0.478,0.03 -0.2,0.021 -0.339,0.03 -0.418,0.03 z m 1.792,5.855 v -5.258 c -0.199,0.04 -0.499,0.06 -0.896,0.06 -0.398,0 -0.697,-0.02 -0.896,-0.06 v 5.258 c 0.199,0.04 0.498,0.06 0.896,0.06 0.397,0 0.697,-0.02 0.896,-0.06 z m -1.792,6.931 v 5.257 c 0.199,-0.039 0.498,-0.06 0.896,-0.06 0.397,0 0.697,0.021 0.896,0.06 v -5.257 c -0.199,-0.04 -0.499,-0.06 -0.896,-0.06 -0.399,0 -0.697,0.02 -0.896,0.06 z m 1.792,5.855 c -0.08,0 -0.219,-0.009 -0.418,-0.03 -0.2,-0.02 -0.358,-0.03 -0.478,-0.03 -0.12,0 -0.279,0.01 -0.478,0.03 -0.2,0.021 -0.339,0.03 -0.418,0.03 v 2.271 c 0.079,0 0.218,0.01 0.418,0.03 0.199,0.021 0.358,0.03 0.478,0.03 0.12,0 0.278,-0.009 0.478,-0.03 0.199,-0.02 0.338,-0.03 0.418,-0.03 z m 0,8.125 v -5.258 c -0.199,0.04 -0.499,0.06 -0.896,0.06 -0.398,0 -0.697,-0.02 -0.896,-0.06 v 5.258 c 0.199,0.04 0.498,0.06 0.896,0.06 0.397,0 0.697,-0.02 0.896,-0.06 z m 4.78,-25.99 c -0.319,-0.199 -0.598,-0.478 -0.836,-0.836 l -2.748,2.688 v 1.434 l 0.179,0.12 z m -0.837,17.924 c 0.239,-0.358 0.517,-0.637 0.836,-0.836 l -3.405,-3.406 -0.179,0.12 v 1.434 z m 0.419,-19.178 c 0.039,0.04 0.089,0.1 0.149,0.179 0.06,0.08 0.129,0.16 0.209,0.239 0.079,0.081 0.158,0.149 0.239,0.209 0.08,0.06 0.159,0.13 0.239,0.209 l 1.016,-1.016 c -0.08,-0.08 -0.149,-0.159 -0.208,-0.239 -0.06,-0.079 -0.13,-0.159 -0.209,-0.239 -0.04,-0.04 -0.1,-0.099 -0.179,-0.179 -0.08,-0.08 -0.16,-0.139 -0.239,-0.18 z m 0.836,18.76 c -0.08,0.08 -0.159,0.149 -0.239,0.209 -0.081,0.06 -0.16,0.13 -0.239,0.209 -0.081,0.04 -0.13,0.081 -0.15,0.12 -0.02,0.04 -0.05,0.089 -0.089,0.149 -0.04,0.06 -0.08,0.11 -0.119,0.149 l 1.016,1.016 c 0.079,-0.039 0.159,-0.099 0.239,-0.179 0.08,-0.08 0.139,-0.139 0.179,-0.179 0.08,-0.08 0.149,-0.159 0.209,-0.239 0.06,-0.079 0.129,-0.159 0.208,-0.239 z m 4.899,-19.358 c 0.318,-0.397 0.598,-0.677 0.836,-0.836 l -1.972,-2.031 v -1.314 c -0.239,-0.079 -0.438,-0.12 -0.598,-0.12 -0.16,0 -0.358,0.041 -0.597,0.12 v 1.314 l -1.972,2.031 c 0.239,0.16 0.517,0.439 0.836,0.836 l 1.732,-1.732 z m -3.465,20.792 c -0.319,0.399 -0.598,0.678 -0.836,0.836 l 1.972,2.031 v 1.315 c 0.239,0.08 0.438,0.119 0.597,0.119 0.159,0 0.359,-0.039 0.598,-0.119 v -1.315 l 1.972,-2.031 c -0.239,-0.159 -0.518,-0.438 -0.836,-0.836 l -1.733,1.733 z m 4.899,-19.358 c 0.079,-0.079 0.159,-0.149 0.239,-0.209 0.08,-0.06 0.159,-0.129 0.239,-0.209 0.08,-0.039 0.129,-0.079 0.15,-0.119 0.019,-0.04 0.049,-0.09 0.089,-0.149 0.04,-0.06 0.079,-0.109 0.119,-0.149 l -1.016,-1.016 c -0.08,0.041 -0.159,0.1 -0.239,0.18 -0.081,0.08 -0.14,0.14 -0.179,0.179 -0.081,0.08 -0.149,0.16 -0.209,0.239 -0.06,0.081 -0.13,0.16 -0.209,0.239 z m 0.836,18.761 c -0.04,-0.039 -0.089,-0.099 -0.149,-0.179 -0.06,-0.08 -0.13,-0.159 -0.209,-0.239 -0.08,-0.079 -0.159,-0.149 -0.239,-0.209 -0.08,-0.06 -0.16,-0.129 -0.239,-0.209 l -1.016,1.016 c 0.079,0.08 0.149,0.16 0.209,0.239 0.06,0.081 0.128,0.16 0.209,0.239 0.039,0.04 0.099,0.1 0.179,0.179 0.08,0.08 0.159,0.14 0.239,0.179 z m 0.419,-19.179 c -0.239,0.358 -0.518,0.638 -0.836,0.836 l 3.405,3.406 0.179,-0.12 v -1.434 z m -0.837,17.924 c 0.318,0.2 0.598,0.478 0.836,0.836 l 2.748,-2.688 v -1.434 l -0.179,-0.12 z m 4.78,-25.989 v 5.258 c 0.199,-0.04 0.498,-0.06 0.896,-0.06 0.398,0 0.696,0.021 0.896,0.06 V 87.27 c -0.2,-0.039 -0.498,-0.06 -0.896,-0.06 -0.399,0 -0.697,0.02 -0.896,0.06 z m 0,8.125 c 0.079,0 0.218,0.011 0.418,0.03 0.199,0.021 0.358,0.03 0.478,0.03 0.12,0 0.278,-0.009 0.478,-0.03 0.199,-0.02 0.338,-0.03 0.418,-0.03 v -2.27 c -0.08,0 -0.219,-0.009 -0.418,-0.03 -0.2,-0.02 -0.358,-0.03 -0.478,-0.03 -0.12,0 -0.279,0.01 -0.478,0.03 -0.2,0.021 -0.339,0.03 -0.418,0.03 z m 1.792,5.855 v -5.258 c -0.2,0.04 -0.498,0.06 -0.896,0.06 -0.398,0 -0.697,-0.02 -0.896,-0.06 v 5.258 c 0.199,0.04 0.498,0.06 0.896,0.06 0.398,0 0.696,-0.02 0.896,-0.06 z m -1.792,6.931 v 5.257 c 0.199,-0.039 0.498,-0.06 0.896,-0.06 0.398,0 0.696,0.021 0.896,0.06 v -5.257 c -0.2,-0.04 -0.498,-0.06 -0.896,-0.06 -0.399,0 -0.697,0.02 -0.896,0.06 z m 1.792,5.855 c -0.08,0 -0.219,-0.009 -0.418,-0.03 -0.2,-0.02 -0.358,-0.03 -0.478,-0.03 -0.12,0 -0.279,0.01 -0.478,0.03 -0.2,0.021 -0.339,0.03 -0.418,0.03 v 2.271 c 0.079,0 0.218,0.01 0.418,0.03 0.199,0.021 0.358,0.03 0.478,0.03 0.12,0 0.278,-0.009 0.478,-0.03 0.199,-0.02 0.338,-0.03 0.418,-0.03 z m 0,8.125 v -5.258 c -0.2,0.04 -0.498,0.06 -0.896,0.06 -0.398,0 -0.697,-0.02 -0.896,-0.06 v 5.258 c 0.199,0.04 0.498,0.06 0.896,0.06 0.398,0 0.696,-0.02 0.896,-0.06 z" /></g></svg>