<?xml version="1.0" encoding="UTF-8" standalone="no"?>
<!-- Generator: Adobe Illustrator 16.0.0, SVG Export Plug-In . SVG Version: 6.00 Build 0)  -->

<svg
   xmlns:dc="http://purl.org/dc/elements/1.1/"
   xmlns:cc="http://creativecommons.org/ns#"
   xmlns:rdf="http://www.w3.org/1999/02/22-rdf-syntax-ns#"
   xmlns:svg="http://www.w3.org/2000/svg"
   xmlns="http://www.w3.org/2000/svg"
   xmlns:sodipodi="http://sodipodi.sourceforge.net/DTD/sodipodi-0.dtd"
   xmlns:inkscape="http://www.inkscape.org/namespaces/inkscape"
   version="1.1"
   id="图层_1"
   x="0px"
   y="0px"
   width="139.76401"
   height="200"
   viewBox="0 0 139.764 200"
   enable-background="new 0 0 714 341"
   xml:space="preserve"
   sodipodi:docname="0109九萬.svg"
   inkscape:version="0.92.3 (2405546, 2018-03-11)"><metadata
   id="metadata621"><rdf:RDF><cc:Work
       rdf:about=""><dc:format>image/svg+xml</dc:format><dc:type
         rdf:resource="http://purl.org/dc/dcmitype/StillImage" /><dc:title /></cc:Work></rdf:RDF></metadata><defs
   id="defs619" /><sodipodi:namedview
   pagecolor="#ffffff"
   bordercolor="#666666"
   borderopacity="1"
   objecttolerance="10"
   gridtolerance="10"
   guidetolerance="10"
   inkscape:pageopacity="0"
   inkscape:pageshadow="2"
   inkscape:window-width="1366"
   inkscape:window-height="705"
   id="namedview617"
   showgrid="false"
   inkscape:zoom="1"
   inkscape:cx="-36.16014"
   inkscape:cy="152.60966"
   inkscape:window-x="-8"
   inkscape:window-y="-8"
   inkscape:window-maximized="1"
   inkscape:current-layer="图层_1" />



















































































































































































































































































































<g
   transform="matrix(4.0332338,0,0,4.0332338,-1300.5041,-33.177379)"
   id="g1576"><path
     inkscape:connector-curvature="0"
     id="path62"
     d="M 357.1,11.811 V 54.23 c 0,0.995 -0.349,1.842 -1.045,2.539 -0.697,0.696 -1.544,1.045 -2.54,1.045 h -27.483 c -0.996,0 -1.843,-0.349 -2.54,-1.045 -0.697,-0.697 -1.045,-1.544 -1.045,-2.539 V 11.811 c 0,-0.995 0.348,-1.842 1.045,-2.539 0.697,-0.697 1.543,-1.046 2.54,-1.046 h 27.483 c 0.995,0 1.842,0.349 2.54,1.046 0.696,0.697 1.045,1.543 1.045,2.539 z m -3.585,-1.793 h -27.483 c -0.519,0 -0.947,0.17 -1.285,0.508 -0.339,0.339 -0.508,0.768 -0.508,1.285 V 54.23 c 0,0.517 0.169,0.946 0.508,1.285 0.338,0.338 0.766,0.508 1.285,0.508 h 27.483 c 0.518,0 0.946,-0.17 1.284,-0.508 0.338,-0.339 0.508,-0.768 0.508,-1.285 V 11.811 c 0,-0.517 -0.17,-0.946 -0.508,-1.285 -0.338,-0.338 -0.766,-0.508 -1.284,-0.508 z" /><path
     inkscape:connector-curvature="0"
     id="path64"
     d="m 340.371,23.162 c 0,0.917 0.08,1.455 0.239,1.613 0.278,0.398 0.787,0.787 1.524,1.165 0.737,0.379 1.364,0.567 1.882,0.567 0.598,0 1.095,-0.139 1.494,-0.418 0.039,-0.239 0.06,-0.617 0.06,-1.135 0,-0.398 -0.04,-0.965 -0.119,-1.703 -0.081,-0.737 -0.12,-1.304 -0.12,-1.703 0.318,0 0.707,0.588 1.165,1.763 0.458,1.175 0.726,1.783 0.807,1.822 0.557,0.16 1.095,0.418 1.613,0.777 0.518,0.358 0.777,0.757 0.777,1.195 0,0.638 -0.518,1.186 -1.553,1.643 -1.036,0.458 -2.052,0.687 -3.047,0.687 -1.833,0 -3.287,-0.418 -4.362,-1.255 -1.155,-0.916 -1.732,-1.912 -1.732,-2.987 0,-1.673 0.109,-2.957 0.329,-3.854 0.218,-0.896 0.329,-1.384 0.329,-1.464 0,-0.079 -0.04,-0.278 -0.12,-0.597 -0.279,0 -0.458,0.07 -0.538,0.209 -0.081,0.14 -0.16,0.567 -0.239,1.285 -0.12,1.275 -1.325,2.688 -3.615,4.242 -2.291,1.554 -3.894,2.33 -4.81,2.33 -0.2,0 -0.379,-0.079 -0.537,-0.239 0.079,-0.12 0.498,-0.359 1.254,-0.717 0.756,-0.359 1.663,-0.926 2.718,-1.703 1.055,-0.776 1.942,-1.722 2.659,-2.838 -0.08,-0.159 -0.329,-0.388 -0.747,-0.687 -0.418,-0.299 -0.627,-0.568 -0.627,-0.807 0,-0.159 0.199,-0.348 0.597,-0.567 0.398,-0.218 0.658,-0.468 0.777,-0.747 0,-0.278 -0.05,-0.647 -0.149,-1.105 -0.1,-0.458 -0.149,-0.786 -0.149,-0.986 0,-0.517 0.139,-0.876 0.418,-1.076 1.354,0 2.271,0.478 2.749,1.434 0.039,0 0.119,0.01 0.239,0.03 0.12,0.021 0.219,0.03 0.299,0.03 0.278,-0.557 0.457,-0.836 0.538,-0.836 0.12,0 0.249,0.021 0.389,0.06 0.139,0.04 0.269,0.06 0.388,0.06 0.438,0 1.085,-0.259 1.941,-0.777 0.856,-0.517 1.424,-0.776 1.703,-0.776 0.518,0 0.777,0.478 0.777,1.434 0,0.319 -0.379,0.777 -1.135,1.374 -0.04,0.081 -0.179,0.09 -0.418,0.03 -0.239,-0.06 -0.398,-0.09 -0.478,-0.09 -0.917,0 -1.713,0.14 -2.39,0.418 -0.521,1.952 -0.78,3.585 -0.78,4.899 z" /><path
     style="fill:#870000"
     inkscape:connector-curvature="0"
     id="path66"
     d="m 337.503,44.133 c -0.16,0 -0.478,0.1 -0.956,0.299 l -0.239,0.478 c -0.2,0.319 -0.379,0.558 -0.538,0.717 -0.598,-0.358 -0.896,-1.513 -0.896,-3.465 0,-1.513 0.079,-2.608 0.239,-3.286 1.473,-0.239 3.096,-0.598 4.869,-1.076 1.771,-0.478 2.877,-0.717 3.316,-0.717 0.836,0 1.254,0.279 1.254,0.836 l -0.418,1.553 c -0.279,1.036 -0.418,2.112 -0.418,3.227 0,0.637 0.04,1.314 0.12,2.031 0.756,0.04 1.573,0.16 2.45,0.358 0.875,0.2 1.782,0.598 2.718,1.195 0.936,0.598 1.404,1.295 1.404,2.091 0,0.678 -0.26,1.195 -0.777,1.553 -0.518,0.358 -1.175,0.538 -1.972,0.538 -0.2,0 -0.648,0.13 -1.344,0.389 -0.698,0.258 -1.225,0.388 -1.583,0.388 -0.518,0 -1.464,-0.269 -2.838,-0.807 -1.374,-0.538 -2.34,-0.986 -2.897,-1.344 -0.2,0.08 -0.409,0.209 -0.627,0.388 -0.22,0.18 -0.389,0.269 -0.508,0.269 -0.2,0 -0.836,-0.159 -1.912,-0.478 0,0.041 -0.01,0.16 -0.03,0.358 -0.02,0.2 -0.04,0.349 -0.06,0.448 -0.021,0.1 -0.04,0.219 -0.06,0.358 -0.021,0.14 -0.07,0.249 -0.15,0.329 -0.08,0.08 -0.179,0.12 -0.298,0.12 -0.12,0 -0.25,-0.08 -0.389,-0.239 -0.14,-0.159 -0.259,-0.368 -0.358,-0.627 -0.1,-0.258 -0.2,-0.508 -0.298,-0.747 -0.1,-0.239 -0.189,-0.498 -0.269,-0.777 -0.081,-0.278 -0.14,-0.457 -0.179,-0.538 h -0.717 c -0.757,0 -1.455,-0.12 -2.091,-0.358 -0.638,-0.239 -0.956,-0.577 -0.956,-1.016 0,-0.039 0.01,-0.099 0.03,-0.179 0.019,-0.08 0.029,-0.159 0.029,-0.239 0.359,0 0.856,0.04 1.494,0.12 0.637,0.08 1.135,0.12 1.494,0.12 h 0.239 c -0.04,-0.318 -0.12,-0.767 -0.239,-1.344 -0.12,-0.577 -0.219,-1.055 -0.299,-1.434 -0.081,-0.378 -0.12,-0.667 -0.12,-0.866 0,-0.079 0.079,-0.199 0.239,-0.358 0.478,0.08 0.826,0.309 1.045,0.687 0.219,0.379 0.408,0.906 0.568,1.583 0.159,0.678 0.359,1.235 0.598,1.673 0.557,0 1.314,-0.159 2.27,-0.478 0,-0.119 0.01,-0.397 0.03,-0.836 0.02,-0.439 0.03,-0.738 0.03,-0.897 z m 7.468,-8.185 c -1.195,0 -2.967,0.349 -5.317,1.045 -2.351,0.697 -3.904,1.045 -4.66,1.045 -2.39,0 -3.943,-0.438 -4.661,-1.314 0.717,-0.438 1.255,-0.657 1.614,-0.657 0.397,0 1.005,0.1 1.822,0.299 0.816,0.2 1.503,0.298 2.062,0.298 0.796,0 1.334,-0.079 1.613,-0.239 0.278,-0.159 0.418,-0.517 0.418,-1.076 0,-0.119 -0.11,-0.209 -0.329,-0.269 -0.22,-0.06 -0.369,-0.149 -0.448,-0.269 0,-0.159 0.03,-0.278 0.09,-0.358 0.06,-0.079 0.159,-0.188 0.299,-0.329 0.139,-0.139 0.248,-0.289 0.329,-0.448 0.079,-0.12 0.229,-0.368 0.448,-0.747 0.219,-0.378 0.398,-0.637 0.538,-0.777 0.139,-0.139 0.308,-0.209 0.508,-0.209 0.278,0 0.418,0.2 0.418,0.597 0,0.319 -0.03,0.648 -0.089,0.986 -0.06,0.339 -0.16,0.717 -0.299,1.135 -0.14,0.418 -0.23,0.747 -0.269,0.986 0.08,0.2 0.218,0.299 0.418,0.299 0.239,0 0.587,-0.458 1.045,-1.375 0.457,-0.916 0.687,-1.573 0.687,-1.971 0,-0.239 -0.129,-0.468 -0.388,-0.687 -0.26,-0.219 -0.428,-0.389 -0.508,-0.508 0.318,-0.717 1.016,-1.274 2.091,-1.673 0.796,0.279 1.195,1.016 1.195,2.21 0,0.398 -0.169,0.876 -0.508,1.434 -0.338,0.559 -0.528,1.076 -0.567,1.554 0.318,-0.04 0.756,-0.12 1.314,-0.239 0.558,-0.12 1.115,-0.209 1.673,-0.269 0.557,-0.06 1.155,-0.09 1.792,-0.09 1.274,0 2.011,0.14 2.21,0.418 -0.279,0.558 -0.717,0.977 -1.314,1.254 -0.518,-0.036 -1.594,-0.056 -3.227,-0.056 z m -9.559,11.65 c 0.159,0.398 0.299,0.717 0.418,0.956 0.557,-0.12 1.195,-0.338 1.912,-0.657 -0.2,-0.239 -0.299,-0.557 -0.299,-0.956 z m 0.897,-7.887 v 1.076 h 0.119 l 0.12,0.06 1.075,-0.179 c 0,-0.318 0.04,-0.717 0.12,-1.195 z m 1.194,1.972 c -0.239,0.041 -0.499,0.081 -0.776,0.12 -0.24,0 -0.369,0.021 -0.389,0.06 -0.021,0.041 -0.03,0.12 -0.03,0.239 0,0.08 0,0.16 0,0.239 0,0.081 0.009,0.219 0.03,0.418 0.02,0.2 0.03,0.339 0.03,0.418 0.199,0 0.577,-0.039 1.135,-0.119 z m 1.494,-2.509 c 0,0.2 -0.03,0.418 -0.09,0.658 -0.06,0.239 -0.089,0.438 -0.089,0.597 0.397,-0.08 0.856,-0.169 1.374,-0.269 0.517,-0.099 0.896,-0.169 1.135,-0.209 0,-0.199 0.009,-0.438 0.03,-0.717 0.02,-0.278 0.03,-0.498 0.03,-0.657 -0.358,0.08 -0.777,0.189 -1.254,0.329 -0.479,0.139 -0.858,0.229 -1.136,0.268 z m -0.179,2.27 v 1.314 c 0.557,-0.04 1.354,-0.219 2.39,-0.538 0,-0.598 0.02,-1.055 0.06,-1.375 -0.877,0.281 -1.694,0.48 -2.45,0.599 z m 0.12,2.39 v 1.613 c 0.875,-0.159 1.652,-0.378 2.33,-0.657 0,-0.677 -0.021,-1.195 -0.06,-1.553 -0.2,0.08 -0.548,0.179 -1.045,0.299 -0.499,0.119 -0.907,0.219 -1.225,0.298 z m 0.059,2.688 c 0,0.638 0.099,0.956 0.299,0.956 0.159,0 0.329,-0.03 0.508,-0.089 0.179,-0.06 0.418,-0.149 0.717,-0.269 0.299,-0.12 0.587,-0.218 0.866,-0.299 -0.08,-0.438 -0.1,-0.756 -0.06,-0.956 -0.239,0.041 -1.015,0.26 -2.33,0.657 z m 5.019,-0.716 c 0,0.081 0.03,0.26 0.089,0.538 0.06,0.279 0.09,0.519 0.09,0.717 0,0.2 -0.06,0.418 -0.179,0.657 -0.757,0.518 -1.494,0.776 -2.211,0.776 -0.04,-0.039 -0.1,-0.159 -0.179,-0.358 -0.08,-0.199 -0.14,-0.338 -0.179,-0.418 -0.239,0.08 -0.508,0.219 -0.806,0.418 -0.299,0.2 -0.548,0.339 -0.747,0.418 0.158,0.239 0.557,0.488 1.195,0.747 0.637,0.26 1.135,0.389 1.493,0.389 0.239,0 0.468,-0.05 0.687,-0.149 0.219,-0.099 0.458,-0.249 0.717,-0.448 0.258,-0.199 0.468,-0.338 0.627,-0.418 0.199,-0.08 0.587,-0.139 1.165,-0.18 0.577,-0.039 1.016,-0.149 1.314,-0.328 0.298,-0.18 0.448,-0.488 0.448,-0.926 0,-0.318 -0.418,-0.627 -1.254,-0.926 -0.836,-0.299 -1.594,-0.469 -2.27,-0.509 z" /></g></svg>