<?xml version="1.0" encoding="UTF-8" standalone="no"?>
<!-- Generator: Adobe Illustrator 16.0.0, SVG Export Plug-In . SVG Version: 6.00 Build 0)  -->

<svg
   xmlns:dc="http://purl.org/dc/elements/1.1/"
   xmlns:cc="http://creativecommons.org/ns#"
   xmlns:rdf="http://www.w3.org/1999/02/22-rdf-syntax-ns#"
   xmlns:svg="http://www.w3.org/2000/svg"
   xmlns="http://www.w3.org/2000/svg"
   xmlns:sodipodi="http://sodipodi.sourceforge.net/DTD/sodipodi-0.dtd"
   xmlns:inkscape="http://www.inkscape.org/namespaces/inkscape"
   version="1.1"
   id="图层_1"
   x="0px"
   y="0px"
   width="139.76401"
   height="200"
   viewBox="0 0 139.764 200"
   enable-background="new 0 0 714 341"
   xml:space="preserve"
   sodipodi:docname="0201一餅.svg"
   inkscape:version="0.92.3 (2405546, 2018-03-11)"><metadata
   id="metadata621"><rdf:RDF><cc:Work
       rdf:about=""><dc:format>image/svg+xml</dc:format><dc:type
         rdf:resource="http://purl.org/dc/dcmitype/StillImage" /><dc:title /></cc:Work></rdf:RDF></metadata><defs
   id="defs619" /><sodipodi:namedview
   pagecolor="#ffffff"
   bordercolor="#666666"
   borderopacity="1"
   objecttolerance="10"
   gridtolerance="10"
   guidetolerance="10"
   inkscape:pageopacity="0"
   inkscape:pageshadow="2"
   inkscape:window-width="1366"
   inkscape:window-height="705"
   id="namedview617"
   showgrid="false"
   inkscape:zoom="1"
   inkscape:cx="-127.16014"
   inkscape:cy="112.60966"
   inkscape:window-x="-8"
   inkscape:window-y="-8"
   inkscape:window-maximized="1"
   inkscape:current-layer="图层_1" />



















































































































































































































































































































<g
   transform="matrix(4.0332338,0,0,4.0332338,-66.745986,-611.50277)"
   id="g1616"><path
     inkscape:connector-curvature="0"
     id="path120"
     d="m 51.202,155.2 v 42.419 c 0,0.995 -0.349,1.842 -1.045,2.539 -0.697,0.697 -1.544,1.046 -2.539,1.046 H 20.134 c -0.996,0 -1.843,-0.349 -2.54,-1.046 -0.697,-0.697 -1.045,-1.544 -1.045,-2.539 V 155.2 c 0,-0.995 0.348,-1.842 1.045,-2.539 0.697,-0.697 1.543,-1.045 2.54,-1.045 h 27.483 c 0.995,0 1.842,0.349 2.539,1.045 0.697,0.697 1.046,1.544 1.046,2.539 z m -3.585,-1.792 H 20.134 c -0.518,0 -0.947,0.17 -1.285,0.508 -0.339,0.339 -0.508,0.768 -0.508,1.285 v 42.419 c 0,0.517 0.169,0.946 0.508,1.285 0.338,0.338 0.767,0.508 1.285,0.508 h 27.483 c 0.517,0 0.946,-0.17 1.285,-0.508 0.338,-0.339 0.508,-0.768 0.508,-1.285 V 155.2 c 0,-0.517 -0.17,-0.946 -0.508,-1.285 -0.339,-0.337 -0.768,-0.507 -1.285,-0.507 z" /><path
     style="fill:#870000"
     inkscape:connector-curvature="0"
     id="path122"
     d="m 27.871,182.415 c -1.653,-1.652 -2.479,-3.654 -2.479,-6.004 0,-2.35 0.826,-4.352 2.479,-6.005 1.652,-1.652 3.654,-2.479 6.004,-2.479 2.35,0 4.352,0.827 6.005,2.479 1.652,1.653 2.479,3.655 2.479,6.005 0,2.351 -0.827,4.352 -2.479,6.004 -1.653,1.653 -3.655,2.479 -6.005,2.479 -2.35,0 -4.352,-0.826 -6.004,-2.479 z m -1.284,-6.124 h 3.584 c 0,-0.239 0.02,-0.397 0.06,-0.478 l -2.211,-0.418 0.06,-0.299 2.21,0.479 c 0,-0.08 0.039,-0.239 0.119,-0.479 l -3.345,-1.374 -1.494,1.016 z m 0.478,2.808 3.345,-1.374 c -0.08,-0.239 -0.119,-0.398 -0.119,-0.479 l -2.21,0.479 -0.06,-0.299 2.211,-0.418 c -0.041,-0.079 -0.06,-0.239 -0.06,-0.478 h -3.584 l -1.016,1.553 z m 0.119,-5.557 3.346,1.314 c 0.08,-0.158 0.159,-0.278 0.239,-0.358 l -1.972,-1.254 0.179,-0.239 1.912,1.255 c 0.08,-0.08 0.159,-0.199 0.239,-0.359 l -2.509,-2.569 -1.792,0.358 z m 1.434,7.947 2.509,-2.569 c -0.081,-0.159 -0.16,-0.278 -0.239,-0.358 l -1.912,1.254 -0.179,-0.239 1.972,-1.254 c -0.081,-0.08 -0.16,-0.199 -0.239,-0.359 l -3.346,1.314 -0.358,1.853 z m 0.179,-10.337 2.569,2.509 c 0.159,-0.08 0.278,-0.158 0.359,-0.239 l -1.255,-1.912 0.239,-0.179 1.255,1.972 c 0.08,-0.08 0.199,-0.159 0.358,-0.239 l -1.314,-3.346 -1.852,-0.358 z m 2.211,11.95 1.314,-3.346 c -0.16,-0.08 -0.279,-0.159 -0.358,-0.239 l -1.255,1.972 -0.239,-0.18 1.255,-1.912 c -0.081,-0.08 -0.2,-0.159 -0.359,-0.239 l -2.569,2.509 0.358,1.792 z m 0.478,-9.082 c -0.678,0.678 -1.016,1.474 -1.016,2.39 0,0.917 0.338,1.713 1.016,2.39 0.677,0.678 1.473,1.016 2.39,1.016 0.916,0 1.712,-0.338 2.39,-1.016 0.677,-0.677 1.016,-1.473 1.016,-2.39 0,-0.916 -0.339,-1.712 -1.016,-2.39 -0.678,-0.677 -1.474,-1.016 -2.39,-1.016 -0.917,0 -1.713,0.339 -2.39,1.016 z m 0,2.928 -0.478,-0.239 v -0.298 c 0,-0.717 0.259,-1.334 0.777,-1.852 l 0.418,0.06 1.016,1.254 c -0.12,0.2 -0.18,0.379 -0.18,0.538 z m -0.299,-7.349 1.374,3.345 c 0.239,-0.079 0.398,-0.119 0.478,-0.119 l -0.478,-2.21 0.299,-0.06 0.418,2.211 c 0.079,-0.039 0.239,-0.06 0.478,-0.06 v -3.584 l -1.553,-1.016 z m 2.569,14.1 v -3.585 c -0.239,0 -0.399,-0.02 -0.478,-0.06 l -0.418,2.211 -0.299,-0.06 0.478,-2.21 c -0.08,0 -0.239,-0.039 -0.478,-0.12 l -1.374,3.346 1.016,1.494 z m -0.179,-4.84 -0.298,0.358 c -0.757,-0.158 -1.374,-0.617 -1.852,-1.374 l 0.239,-0.418 1.554,-0.478 c 0.119,0.119 0.239,0.2 0.358,0.239 v 1.673 z m -0.836,-5.078 c 0.318,-0.159 0.696,-0.239 1.135,-0.239 0.438,0 0.816,0.081 1.135,0.239 l 0.06,0.478 -0.956,1.374 c -0.04,-0.039 -0.12,-0.06 -0.239,-0.06 -0.119,0 -0.2,0.021 -0.239,0.06 l -0.956,-1.374 z m 1.134,2.927 c -0.2,0 -0.299,-0.099 -0.299,-0.298 0,-0.199 0.099,-0.299 0.299,-0.299 0.199,0 0.299,0.101 0.299,0.299 0,0.2 -0.099,0.298 -0.299,0.298 z m 0.12,-7.587 v 3.584 c 0.239,0 0.398,0.021 0.478,0.06 l 0.418,-2.211 0.298,0.06 -0.478,2.21 c 0.079,0 0.239,0.041 0.478,0.119 l 1.375,-3.345 -1.016,-1.494 z m 2.569,14.1 -1.375,-3.346 c -0.239,0.081 -0.398,0.12 -0.478,0.12 l 0.478,2.21 -0.298,0.06 -0.418,-2.211 c -0.08,0.041 -0.239,0.06 -0.478,0.06 v 3.585 l 1.553,1.016 z m -2.39,-4.362 v -1.673 c 0.12,-0.039 0.239,-0.12 0.358,-0.239 l 1.554,0.478 0.239,0.418 c -0.478,0.757 -1.096,1.216 -1.852,1.374 z m 2.569,-2.151 -0.478,0.239 -1.553,-0.538 c 0,-0.159 -0.06,-0.338 -0.18,-0.538 l 1.016,-1.254 0.418,-0.06 c 0.517,0.518 0.776,1.135 0.776,1.852 v 0.299 z m 0,-6.99 -1.314,3.346 c 0.159,0.081 0.278,0.16 0.358,0.239 l 1.254,-1.972 0.239,0.179 -1.255,1.912 c 0.08,0.081 0.199,0.159 0.359,0.239 l 2.569,-2.509 -0.358,-1.792 z m 2.211,11.949 -2.569,-2.509 c -0.16,0.08 -0.279,0.16 -0.359,0.239 l 1.255,1.912 -0.239,0.18 -1.254,-1.972 c -0.081,0.08 -0.2,0.159 -0.358,0.239 l 1.314,3.346 1.853,0.358 z m 0.179,-10.335 -2.509,2.569 c 0.08,0.16 0.159,0.279 0.239,0.359 l 1.912,-1.255 0.179,0.239 -1.972,1.254 c 0.079,0.081 0.159,0.2 0.239,0.358 l 3.346,-1.314 0.358,-1.852 z m 1.434,7.945 -3.346,-1.314 c -0.08,0.16 -0.16,0.279 -0.239,0.359 l 1.972,1.254 -0.179,0.239 -1.912,-1.254 c -0.081,0.08 -0.16,0.2 -0.239,0.358 l 2.509,2.569 1.792,-0.359 z m 0.12,-5.556 -3.346,1.374 c 0.08,0.24 0.12,0.399 0.12,0.479 l 2.21,-0.479 0.06,0.299 -2.211,0.418 c 0.04,0.081 0.06,0.239 0.06,0.478 h 3.584 l 1.016,-1.553 z m 0.478,2.809 H 37.58 c 0,0.239 -0.021,0.398 -0.06,0.478 l 2.211,0.418 -0.06,0.299 -2.21,-0.479 c 0,0.081 -0.04,0.239 -0.12,0.479 l 3.346,1.374 1.494,-1.016 z" /><path
     style="fill:#00082d"
     inkscape:connector-curvature="0"
     id="path124"
     d="m 24.227,186.059 c -2.688,-2.688 -4.033,-5.905 -4.033,-9.649 0,-3.744 1.344,-6.961 4.033,-9.649 2.688,-2.689 5.905,-4.033 9.649,-4.033 3.744,0 6.96,1.344 9.649,4.033 2.688,2.688 4.033,5.905 4.033,9.649 0,3.744 -1.344,6.96 -4.033,9.649 -2.689,2.688 -5.906,4.033 -9.649,4.033 -3.745,0 -6.961,-1.344 -9.649,-4.033 z m 0.627,-18.671 c -2.509,2.509 -3.764,5.518 -3.764,9.022 0,3.505 1.255,6.512 3.764,9.021 2.509,2.509 5.517,3.764 9.021,3.764 3.504,0 6.513,-1.254 9.022,-3.764 2.509,-2.51 3.764,-5.517 3.764,-9.021 0,-3.504 -1.254,-6.513 -3.764,-9.022 -2.509,-2.509 -5.518,-3.764 -9.022,-3.764 -3.504,0 -6.512,1.255 -9.021,3.764 z m 0.388,17.655 c -2.37,-2.37 -3.555,-5.248 -3.555,-8.633 0,-3.385 1.185,-6.264 3.555,-8.633 2.37,-2.37 5.248,-3.555 8.633,-3.555 3.385,0 6.263,1.186 8.634,3.555 2.369,2.37 3.554,5.248 3.554,8.633 0,3.386 -1.185,6.264 -3.554,8.633 -2.371,2.37 -5.249,3.554 -8.634,3.554 -3.385,0.001 -6.263,-1.183 -8.633,-3.554 z m -2.837,-11.859 -0.359,1.613 1.613,-0.538 -0.896,1.852 h 1.375 l 0.418,-0.418 c 0.08,-0.956 0.278,-1.832 0.598,-2.629 l -1.195,-0.478 z m 1.553,7.049 1.195,-0.478 c -0.319,-0.797 -0.518,-1.673 -0.598,-2.629 l -0.418,-0.418 h -1.375 l 0.896,1.853 -1.613,-0.538 0.359,1.613 z m 2.569,-10.813 -1.016,-1.016 -0.657,0.179 c -0.478,0.598 -0.956,1.295 -1.434,2.091 l 0.478,1.254 1.254,0.538 0.299,-0.179 c 0.199,-0.438 0.457,-0.896 0.776,-1.375 l -1.494,-0.418 z m -0.299,12.487 c -0.16,-0.239 -0.298,-0.458 -0.418,-0.658 -0.12,-0.199 -0.189,-0.328 -0.209,-0.388 -0.021,-0.06 -0.05,-0.128 -0.09,-0.209 -0.04,-0.079 -0.08,-0.128 -0.119,-0.149 -0.041,-0.02 -0.12,-0.069 -0.239,-0.149 l -1.254,0.538 -0.478,1.254 c 0.397,0.717 0.916,1.434 1.553,2.151 l 0.538,0.119 1.016,-1.016 -1.792,-1.075 z m 1.225,-11.92 c -1.773,1.773 -2.659,3.913 -2.659,6.423 0,2.509 0.886,4.65 2.659,6.422 1.772,1.772 3.913,2.659 6.422,2.659 2.51,0 4.65,-0.886 6.423,-2.659 1.772,-1.772 2.659,-3.913 2.659,-6.422 0,-2.51 -0.887,-4.65 -2.659,-6.423 -1.773,-1.772 -3.913,-2.659 -6.423,-2.659 -2.509,0.001 -4.65,0.887 -6.422,2.659 z m 0.926,-1.225 c 0.239,-0.158 0.458,-0.298 0.658,-0.418 0.198,-0.119 0.328,-0.188 0.388,-0.209 0.06,-0.02 0.129,-0.049 0.209,-0.089 0.079,-0.04 0.129,-0.08 0.149,-0.12 0.02,-0.039 0.069,-0.119 0.149,-0.239 l -0.538,-1.254 -1.254,-0.478 c -0.717,0.398 -1.434,0.917 -2.151,1.553 l -0.12,0.538 1.016,1.016 1.076,-1.792 z m -1.494,14.997 -1.016,1.016 0.179,0.657 c 0.598,0.478 1.294,0.956 2.091,1.434 l 1.254,-0.479 0.538,-1.254 -0.179,-0.299 c -0.439,-0.199 -0.896,-0.458 -1.375,-0.776 l -0.418,1.494 z m 6.274,-16.669 0.418,-0.418 v -1.374 l -1.852,0.896 0.538,-1.613 -1.613,0.359 -0.597,1.553 0.478,1.195 c 0.795,-0.319 1.672,-0.518 2.628,-0.598 z m -2.51,20.791 1.613,0.358 -0.538,-1.613 1.852,0.896 v -1.374 l -0.418,-0.418 c -0.956,-0.08 -1.833,-0.278 -2.629,-0.598 l -0.478,1.195 z m 3.525,-21.21 0.418,0.418 c 0.956,0.08 1.832,0.279 2.628,0.597 l 0.478,-1.195 -0.597,-1.553 -1.613,-0.359 0.538,1.613 -1.852,-0.896 z m 3.525,19.657 -0.478,-1.195 c -0.797,0.319 -1.673,0.518 -2.628,0.598 l -0.418,0.418 v 1.374 l 1.852,-0.896 -0.538,1.613 1.613,-0.358 z m 1.674,-17.566 0.418,-1.493 1.075,1.792 1.016,-1.016 -0.179,-0.658 c -0.597,-0.478 -1.294,-0.956 -2.091,-1.434 l -1.254,0.478 -0.538,1.254 0.179,0.299 c 0.437,0.202 0.896,0.46 1.374,0.778 z m 0,15.296 c -0.239,0.16 -0.458,0.298 -0.658,0.418 -0.2,0.12 -0.328,0.189 -0.388,0.209 -0.06,0.021 -0.129,0.05 -0.209,0.09 -0.08,0.04 -0.13,0.081 -0.149,0.12 -0.021,0.04 -0.07,0.119 -0.149,0.239 l 0.538,1.254 1.254,0.479 c 0.717,-0.398 1.434,-0.916 2.151,-1.554 l 0.119,-0.538 -1.016,-1.016 -1.075,1.792 z m 2.15,-13.145 c 0.159,0.239 0.298,0.458 0.418,0.658 0.12,0.2 0.188,0.329 0.209,0.388 0.02,0.06 0.049,0.13 0.09,0.209 0.039,0.08 0.079,0.129 0.119,0.149 0.04,0.021 0.12,0.07 0.239,0.149 l 1.254,-0.538 0.478,-1.254 c -0.398,-0.717 -0.917,-1.434 -1.553,-2.151 l -0.538,-0.119 -1.016,1.016 1.792,1.075 z m -0.298,12.487 1.016,1.016 0.657,-0.179 c 0.478,-0.597 0.956,-1.293 1.434,-2.091 l -0.478,-1.254 -1.254,-0.538 -0.299,0.18 c -0.2,0.438 -0.458,0.896 -0.776,1.374 l 1.494,0.418 z m 2.568,-10.814 -1.195,0.478 c 0.318,0.797 0.517,1.673 0.598,2.629 l 0.418,0.418 h 1.374 l -0.896,-1.852 1.613,0.538 -0.359,-1.613 z m 1.554,7.05 0.359,-1.613 -1.613,0.538 0.896,-1.853 h -1.374 l -0.418,0.418 c -0.081,0.956 -0.279,1.832 -0.598,2.629 l 1.195,0.478 z" /></g></svg>