<?xml version="1.0" encoding="UTF-8" standalone="no"?>
<!-- Generator: Adobe Illustrator 16.0.0, SVG Export Plug-In . SVG Version: 6.00 Build 0)  -->

<svg
   xmlns:dc="http://purl.org/dc/elements/1.1/"
   xmlns:cc="http://creativecommons.org/ns#"
   xmlns:rdf="http://www.w3.org/1999/02/22-rdf-syntax-ns#"
   xmlns:svg="http://www.w3.org/2000/svg"
   xmlns="http://www.w3.org/2000/svg"
   xmlns:sodipodi="http://sodipodi.sourceforge.net/DTD/sodipodi-0.dtd"
   xmlns:inkscape="http://www.inkscape.org/namespaces/inkscape"
   version="1.1"
   id="图层_1"
   x="0px"
   y="0px"
   width="139.76401"
   height="200"
   viewBox="0 0 139.764 200"
   enable-background="new 0 0 714 341"
   xml:space="preserve"
   sodipodi:docname="0202二餅.svg"
   inkscape:version="0.92.3 (2405546, 2018-03-11)"><metadata
   id="metadata621"><rdf:RDF><cc:Work
       rdf:about=""><dc:format>image/svg+xml</dc:format><dc:type
         rdf:resource="http://purl.org/dc/dcmitype/StillImage" /><dc:title /></cc:Work></rdf:RDF></metadata><defs
   id="defs619" /><sodipodi:namedview
   pagecolor="#ffffff"
   bordercolor="#666666"
   borderopacity="1"
   objecttolerance="10"
   gridtolerance="10"
   guidetolerance="10"
   inkscape:pageopacity="0"
   inkscape:pageshadow="2"
   inkscape:window-width="1366"
   inkscape:window-height="705"
   id="namedview617"
   showgrid="false"
   inkscape:zoom="1"
   inkscape:cx="-58.66014"
   inkscape:cy="112.60966"
   inkscape:window-x="-8"
   inkscape:window-y="-8"
   inkscape:window-maximized="1"
   inkscape:current-layer="图层_1" />



















































































































































































































































































































<g
   transform="matrix(4.0332338,0,0,4.0332338,-220.96878,-611.50277)"
   id="g1632"><path
     inkscape:connector-curvature="0"
     id="path126"
     d="M 54.787,197.62 V 155.2 c 0,-0.995 0.348,-1.842 1.045,-2.539 0.697,-0.697 1.543,-1.045 2.54,-1.045 h 27.483 c 0.995,0 1.842,0.349 2.539,1.045 0.696,0.697 1.045,1.544 1.045,2.539 v 42.419 c 0,0.995 -0.349,1.842 -1.045,2.539 -0.697,0.697 -1.544,1.046 -2.539,1.046 H 58.372 c -0.996,0 -1.843,-0.349 -2.54,-1.046 -0.697,-0.697 -1.045,-1.543 -1.045,-2.538 z m 3.585,1.792 h 27.483 c 0.517,0 0.946,-0.17 1.285,-0.508 0.338,-0.339 0.508,-0.768 0.508,-1.285 V 155.2 c 0,-0.517 -0.17,-0.946 -0.508,-1.285 -0.339,-0.338 -0.768,-0.508 -1.285,-0.508 H 58.372 c -0.518,0 -0.947,0.17 -1.285,0.508 -0.339,0.339 -0.508,0.768 -0.508,1.285 v 42.419 c 0,0.517 0.169,0.946 0.508,1.285 0.338,0.338 0.767,0.508 1.285,0.508 z" /><path
     style="fill:#00082d"
     inkscape:connector-curvature="0"
     id="path128"
     d="m 77.43,161.533 c 1.473,1.474 2.21,3.247 2.21,5.317 0,2.072 -0.737,3.844 -2.21,5.318 -1.474,1.474 -3.247,2.21 -5.317,2.21 -2.071,0 -3.844,-0.737 -5.317,-2.21 -1.474,-1.474 -2.211,-3.246 -2.211,-5.318 0,-2.07 0.737,-3.843 2.211,-5.317 1.473,-1.473 3.246,-2.21 5.317,-2.21 2.071,0 3.844,0.738 5.317,2.21 z m 0,19.119 c 1.473,1.474 2.21,3.247 2.21,5.317 0,2.071 -0.737,3.844 -2.21,5.317 -1.474,1.474 -3.247,2.21 -5.317,2.21 -2.071,0 -3.844,-0.736 -5.317,-2.21 -1.474,-1.473 -2.211,-3.246 -2.211,-5.317 0,-2.07 0.737,-3.843 2.211,-5.317 1.473,-1.473 3.246,-2.21 5.317,-2.21 2.071,-0.001 3.844,0.737 5.317,2.21 z m -0.746,-9.231 c 1.254,-1.254 1.882,-2.778 1.882,-4.57 0,-1.792 -0.627,-3.316 -1.882,-4.57 -1.255,-1.255 -2.778,-1.882 -4.571,-1.882 -1.793,0 -3.315,0.627 -4.57,1.882 -1.254,1.254 -1.882,2.778 -1.882,4.57 0,1.792 0.628,3.316 1.882,4.57 1.255,1.255 2.778,1.882 4.57,1.882 1.792,0 3.316,-0.627 4.571,-1.882 z m 0,19.119 c 1.254,-1.255 1.882,-2.778 1.882,-4.571 0,-1.793 -0.627,-3.316 -1.882,-4.57 -1.255,-1.255 -2.778,-1.882 -4.571,-1.882 -1.793,0 -3.315,0.627 -4.57,1.882 -1.254,1.254 -1.882,2.778 -1.882,4.57 0,1.792 0.628,3.316 1.882,4.571 1.255,1.254 2.778,1.882 4.57,1.882 1.792,0 3.316,-0.628 4.571,-1.882 z m -0.508,-27.752 c 1.115,1.115 1.673,2.47 1.673,4.063 0,1.593 -0.558,2.948 -1.673,4.063 -1.116,1.116 -2.47,1.673 -4.063,1.673 -1.593,0 -2.948,-0.558 -4.063,-1.673 -1.116,-1.114 -1.673,-2.469 -1.673,-4.063 0,-1.592 0.557,-2.947 1.673,-4.063 1.115,-1.115 2.469,-1.673 4.063,-1.673 1.593,0 2.947,0.558 4.063,1.673 z m 0,19.119 c 1.115,1.115 1.673,2.47 1.673,4.063 0,1.594 -0.558,2.948 -1.673,4.063 -1.116,1.115 -2.47,1.672 -4.063,1.672 -1.593,0 -2.948,-0.557 -4.063,-1.672 -1.116,-1.115 -1.673,-2.469 -1.673,-4.063 0,-1.593 0.557,-2.947 1.673,-4.063 1.115,-1.115 2.469,-1.673 4.063,-1.673 1.593,-0.001 2.947,0.558 4.063,1.673 z m -6.214,-15.296 c 0,-0.079 0.02,-0.188 0.06,-0.329 0.039,-0.139 0.079,-0.248 0.12,-0.328 l -1.972,-1.136 -1.255,0.598 c -0.119,0.479 -0.179,0.956 -0.179,1.434 0,0.478 0.06,0.956 0.179,1.434 l 1.255,0.597 1.972,-1.135 c -0.041,-0.079 -0.081,-0.188 -0.12,-0.328 -0.04,-0.139 -0.06,-0.249 -0.06,-0.329 H 68.05 v -0.479 h 1.912 z m 0,19.119 c 0,-0.08 0.02,-0.188 0.06,-0.329 0.039,-0.139 0.079,-0.249 0.12,-0.329 l -1.972,-1.135 -1.255,0.598 c -0.119,0.478 -0.179,0.956 -0.179,1.434 0,0.478 0.06,0.956 0.179,1.434 l 1.255,0.597 1.972,-1.135 c -0.041,-0.08 -0.081,-0.188 -0.12,-0.329 -0.04,-0.14 -0.06,-0.249 -0.06,-0.329 H 68.05 v -0.478 h 1.912 z m 1.912,-21.03 v -2.271 l -1.135,-0.777 c -0.996,0.24 -1.813,0.717 -2.449,1.435 l 0.06,1.374 2.031,1.135 c 0.12,-0.199 0.278,-0.358 0.478,-0.478 l -0.956,-1.673 0.358,-0.239 0.956,1.673 c 0.08,-0.04 0.188,-0.08 0.329,-0.12 0.139,-0.039 0.248,-0.059 0.328,-0.059 z m 0,4.302 c -0.08,0 -0.189,-0.02 -0.329,-0.061 -0.14,-0.039 -0.249,-0.079 -0.329,-0.119 l -0.956,1.673 -0.358,-0.239 0.956,-1.673 c -0.2,-0.119 -0.358,-0.278 -0.478,-0.478 l -2.031,1.135 -0.06,1.374 c 0.636,0.717 1.453,1.195 2.449,1.434 l 1.135,-0.776 v -2.27 z m 0,14.816 v -2.27 l -1.135,-0.777 c -0.996,0.239 -1.813,0.717 -2.449,1.434 l 0.06,1.375 2.031,1.135 c 0.12,-0.199 0.278,-0.359 0.478,-0.479 l -0.956,-1.672 0.358,-0.239 0.956,1.673 c 0.08,-0.039 0.188,-0.08 0.329,-0.119 0.139,-0.04 0.248,-0.061 0.328,-0.061 z m 0,4.302 c -0.08,0 -0.189,-0.02 -0.329,-0.06 -0.14,-0.039 -0.249,-0.08 -0.329,-0.12 l -0.956,1.673 -0.358,-0.239 0.956,-1.672 c -0.2,-0.12 -0.358,-0.278 -0.478,-0.478 l -2.031,1.135 -0.06,1.375 c 0.636,0.717 1.453,1.195 2.449,1.434 l 1.135,-0.776 v -2.272 z m -1.046,-22.554 c -0.338,0.338 -0.508,0.767 -0.508,1.284 0,0.518 0.169,0.947 0.508,1.285 0.338,0.339 0.767,0.508 1.285,0.508 0.518,0 0.946,-0.169 1.285,-0.508 0.338,-0.338 0.508,-0.767 0.508,-1.285 0,-0.517 -0.17,-0.946 -0.508,-1.284 -0.339,-0.338 -0.767,-0.508 -1.285,-0.508 -0.518,0.001 -0.946,0.17 -1.285,0.508 z m 0,19.119 c -0.338,0.339 -0.508,0.768 -0.508,1.285 0,0.518 0.169,0.947 0.508,1.285 0.338,0.339 0.767,0.508 1.285,0.508 0.518,0 0.946,-0.169 1.285,-0.508 0.338,-0.338 0.508,-0.767 0.508,-1.285 0,-0.517 -0.17,-0.945 -0.508,-1.285 -0.339,-0.337 -0.767,-0.508 -1.285,-0.508 -0.518,0 -0.946,0.17 -1.285,0.508 z m 1.285,-16.998 c -0.558,0 -0.836,-0.278 -0.836,-0.836 0,-0.557 0.278,-0.836 0.836,-0.836 0.558,0 0.837,0.279 0.837,0.836 0,0.558 -0.28,0.836 -0.837,0.836 z m 0,19.119 c -0.558,0 -0.836,-0.278 -0.836,-0.836 0,-0.557 0.278,-0.836 0.836,-0.836 0.558,0 0.837,0.279 0.837,0.836 0,0.557 -0.28,0.836 -0.837,0.836 z m 1.852,-23.6 0.358,0.239 -0.956,1.673 c 0.199,0.12 0.358,0.279 0.478,0.478 l 2.031,-1.135 0.06,-1.374 c -0.638,-0.717 -1.454,-1.195 -2.449,-1.435 l -1.135,0.777 v 2.271 c 0.079,0 0.188,0.021 0.329,0.06 0.139,0.041 0.248,0.081 0.329,0.12 z m 0.359,7.05 -0.358,0.239 -0.956,-1.673 c -0.081,0.04 -0.189,0.08 -0.329,0.119 -0.14,0.041 -0.25,0.061 -0.329,0.061 v 2.27 l 1.135,0.776 c 0.995,-0.239 1.812,-0.717 2.449,-1.434 l -0.06,-1.374 -2.031,-1.135 c -0.12,0.2 -0.279,0.358 -0.478,0.478 z m -0.359,12.069 0.358,0.239 -0.956,1.672 c 0.199,0.12 0.358,0.279 0.478,0.479 l 2.031,-1.135 0.06,-1.375 c -0.638,-0.716 -1.454,-1.195 -2.449,-1.434 l -1.135,0.777 v 2.27 c 0.079,0 0.188,0.021 0.329,0.06 0.139,0.04 0.248,0.08 0.329,0.119 z m 0.359,7.05 -0.358,0.239 -0.956,-1.673 c -0.081,0.04 -0.189,0.081 -0.329,0.12 -0.14,0.04 -0.25,0.06 -0.329,0.06 v 2.271 l 1.135,0.776 c 0.995,-0.239 1.812,-0.717 2.449,-1.434 l -0.06,-1.375 -2.031,-1.135 c -0.12,0.2 -0.279,0.358 -0.478,0.478 z m 1.852,-22.764 v 0.479 h -1.912 c 0,0.08 -0.021,0.189 -0.06,0.329 -0.04,0.14 -0.08,0.249 -0.12,0.328 l 1.972,1.135 1.255,-0.597 c 0.119,-0.478 0.179,-0.956 0.179,-1.434 0,-0.478 -0.06,-0.956 -0.179,-1.434 l -1.255,-0.598 -1.972,1.136 c 0.04,0.08 0.08,0.189 0.12,0.328 0.039,0.14 0.06,0.25 0.06,0.329 h 1.912 z m 0,19.119 v 0.478 h -1.912 c 0,0.081 -0.021,0.189 -0.06,0.329 -0.04,0.14 -0.08,0.249 -0.12,0.329 l 1.972,1.134 1.255,-0.598 c 0.119,-0.478 0.179,-0.956 0.179,-1.434 0,-0.478 -0.06,-0.956 -0.179,-1.434 l -1.255,-0.598 -1.972,1.135 c 0.04,0.08 0.08,0.189 0.12,0.329 0.039,0.14 0.06,0.249 0.06,0.329 h 1.912 z" /></g></svg>