<?xml version="1.0" encoding="UTF-8" standalone="no"?>
<!-- Generator: Adobe Illustrator 16.0.0, SVG Export Plug-In . SVG Version: 6.00 Build 0)  -->

<svg
   xmlns:dc="http://purl.org/dc/elements/1.1/"
   xmlns:cc="http://creativecommons.org/ns#"
   xmlns:rdf="http://www.w3.org/1999/02/22-rdf-syntax-ns#"
   xmlns:svg="http://www.w3.org/2000/svg"
   xmlns="http://www.w3.org/2000/svg"
   xmlns:sodipodi="http://sodipodi.sourceforge.net/DTD/sodipodi-0.dtd"
   xmlns:inkscape="http://www.inkscape.org/namespaces/inkscape"
   version="1.1"
   id="图层_1"
   x="0px"
   y="0px"
   width="139.76401"
   height="200"
   viewBox="0 0 139.764 200"
   enable-background="new 0 0 714 341"
   xml:space="preserve"
   sodipodi:docname="0206六餅.svg"
   inkscape:version="0.92.3 (2405546, 2018-03-11)"><metadata
   id="metadata621"><rdf:RDF><cc:Work
       rdf:about=""><dc:format>image/svg+xml</dc:format><dc:type
         rdf:resource="http://purl.org/dc/dcmitype/StillImage" /><dc:title /></cc:Work></rdf:RDF></metadata><defs
   id="defs619" /><sodipodi:namedview
   pagecolor="#ffffff"
   bordercolor="#666666"
   borderopacity="1"
   objecttolerance="10"
   gridtolerance="10"
   guidetolerance="10"
   inkscape:pageopacity="0"
   inkscape:pageshadow="2"
   inkscape:window-width="1366"
   inkscape:window-height="705"
   id="namedview617"
   showgrid="false"
   inkscape:zoom="1"
   inkscape:cx="-24.66014"
   inkscape:cy="152.60966"
   inkscape:window-x="-8"
   inkscape:window-y="-8"
   inkscape:window-maximized="1"
   inkscape:current-layer="图层_1" />



















































































































































































































































































































<g
   transform="matrix(4.0332338,0,0,4.0332338,-837.84786,-611.50277)"
   id="g1702"><path
     inkscape:connector-curvature="0"
     id="path150"
     d="m 242.389,155.2 v 42.419 c 0,0.995 -0.35,1.842 -1.046,2.539 -0.697,0.697 -1.544,1.046 -2.54,1.046 H 211.32 c -0.996,0 -1.842,-0.349 -2.539,-1.046 -0.697,-0.697 -1.045,-1.544 -1.045,-2.539 V 155.2 c 0,-0.995 0.348,-1.842 1.045,-2.539 0.697,-0.697 1.543,-1.045 2.539,-1.045 h 27.483 c 0.996,0 1.842,0.349 2.54,1.045 0.696,0.697 1.046,1.544 1.046,2.539 z m -3.586,-1.792 H 211.32 c -0.518,0 -0.946,0.17 -1.284,0.508 -0.339,0.339 -0.508,0.768 -0.508,1.285 v 42.419 c 0,0.517 0.169,0.946 0.508,1.285 0.338,0.338 0.766,0.508 1.284,0.508 h 27.483 c 0.518,0 0.946,-0.17 1.285,-0.508 0.338,-0.339 0.508,-0.768 0.508,-1.285 V 155.2 c 0,-0.517 -0.169,-0.946 -0.508,-1.285 -0.339,-0.337 -0.767,-0.507 -1.285,-0.507 z" /><path
     style="fill:#00082d"
     inkscape:connector-curvature="0"
     id="path152"
     d="m 215.204,181.189 c 0,-1.394 0.498,-2.588 1.494,-3.584 0.995,-0.995 2.19,-1.494 3.584,-1.494 1.076,0 2.051,0.31 2.928,0.927 0.875,0.618 1.494,1.424 1.852,2.419 0.358,-0.995 0.976,-1.802 1.852,-2.419 0.876,-0.617 1.852,-0.927 2.928,-0.927 1.394,0 2.589,0.499 3.584,1.494 0.995,0.996 1.494,2.191 1.494,3.584 0,1.076 -0.309,2.052 -0.926,2.928 -0.618,0.876 -1.424,1.494 -2.42,1.852 0.996,0.358 1.802,0.977 2.42,1.853 0.617,0.876 0.926,1.852 0.926,2.927 0,1.395 -0.499,2.59 -1.494,3.584 -0.996,0.995 -2.19,1.494 -3.584,1.494 -1.076,0 -2.052,-0.309 -2.928,-0.926 -0.876,-0.617 -1.494,-1.423 -1.852,-2.42 -0.358,0.997 -0.977,1.803 -1.852,2.42 -0.876,0.617 -1.852,0.926 -2.928,0.926 -1.395,0 -2.589,-0.499 -3.584,-1.494 -0.996,-0.995 -1.494,-2.189 -1.494,-3.584 0,-1.076 0.308,-2.051 0.926,-2.927 0.617,-0.876 1.424,-1.494 2.42,-1.853 -0.996,-0.358 -1.803,-0.976 -2.42,-1.852 -0.618,-0.875 -0.926,-1.852 -0.926,-2.928 z m 2.121,-2.957 c -0.816,0.816 -1.225,1.803 -1.225,2.957 0,1.156 0.408,2.142 1.225,2.958 0.816,0.816 1.802,1.224 2.958,1.224 1.155,0 2.141,-0.408 2.958,-1.224 0.816,-0.816 1.225,-1.802 1.225,-2.958 0,-1.154 -0.409,-2.141 -1.225,-2.957 -0.817,-0.816 -1.803,-1.225 -2.958,-1.225 -1.157,0 -2.142,0.41 -2.958,1.225 z m 0,9.56 c -0.816,0.817 -1.225,1.803 -1.225,2.958 0,1.155 0.408,2.142 1.225,2.958 0.816,0.816 1.802,1.225 2.958,1.225 1.155,0 2.141,-0.409 2.958,-1.225 0.816,-0.816 1.225,-1.802 1.225,-2.958 0,-1.155 -0.409,-2.141 -1.225,-2.958 -0.817,-0.816 -1.803,-1.225 -2.958,-1.225 -1.157,-0.001 -2.142,0.409 -2.958,1.225 z m 4.69,-1.823 c 1.473,0.558 2.489,1.574 3.047,3.047 0.557,-1.474 1.573,-2.489 3.047,-3.047 -1.474,-0.557 -2.49,-1.573 -3.047,-3.047 -0.558,1.474 -1.574,2.49 -3.047,3.047 z m 4.869,-7.737 c -0.817,0.816 -1.225,1.803 -1.225,2.957 0,1.156 0.408,2.142 1.225,2.958 0.816,0.816 1.802,1.224 2.958,1.224 1.155,0 2.141,-0.408 2.958,-1.224 0.815,-0.816 1.225,-1.802 1.225,-2.958 0,-1.154 -0.409,-2.141 -1.225,-2.957 -0.817,-0.816 -1.803,-1.225 -2.958,-1.225 -1.156,0 -2.142,0.41 -2.958,1.225 z m 0,9.56 c -0.817,0.817 -1.225,1.803 -1.225,2.958 0,1.155 0.408,2.142 1.225,2.958 0.816,0.816 1.802,1.225 2.958,1.225 1.155,0 2.141,-0.409 2.958,-1.225 0.815,-0.816 1.225,-1.802 1.225,-2.958 0,-1.155 -0.409,-2.141 -1.225,-2.958 -0.817,-0.816 -1.803,-1.225 -2.958,-1.225 -1.156,-0.001 -2.142,0.409 -2.958,1.225 z" /><path
     style="fill:#00082d"
     inkscape:connector-curvature="0"
     id="path154"
     d="m 216.698,165.656 c -0.996,-0.995 -1.494,-2.19 -1.494,-3.584 0,-1.394 0.498,-2.589 1.494,-3.585 0.995,-0.995 2.19,-1.494 3.584,-1.494 1.076,0 2.051,0.309 2.928,0.926 0.875,0.619 1.494,1.425 1.852,2.42 0.358,-0.995 0.976,-1.801 1.852,-2.42 0.876,-0.617 1.852,-0.926 2.928,-0.926 1.394,0 2.589,0.499 3.584,1.494 0.995,0.996 1.494,2.191 1.494,3.585 0,1.395 -0.499,2.589 -1.494,3.584 -0.996,0.996 -2.19,1.494 -3.584,1.494 -1.076,0 -2.052,-0.308 -2.928,-0.926 -0.876,-0.617 -1.494,-1.423 -1.852,-2.419 -0.358,0.996 -0.977,1.803 -1.852,2.419 -0.876,0.618 -1.852,0.926 -2.928,0.926 -1.394,-0.001 -2.589,-0.498 -3.584,-1.494 z m 0.627,-6.543 c -0.816,0.817 -1.225,1.803 -1.225,2.958 0,1.156 0.408,2.141 1.225,2.957 0.816,0.817 1.802,1.225 2.958,1.225 1.155,0 2.141,-0.408 2.958,-1.225 0.816,-0.816 1.225,-1.801 1.225,-2.957 0,-1.155 -0.409,-2.141 -1.225,-2.958 -0.817,-0.816 -1.803,-1.225 -2.958,-1.225 -1.157,0.001 -2.142,0.409 -2.958,1.225 z m 0.657,5.259 c -0.657,-0.658 -0.986,-1.424 -0.986,-2.3 0,-0.876 0.329,-1.643 0.986,-2.301 0.658,-0.657 1.424,-0.985 2.3,-0.985 0.876,0 1.643,0.328 2.3,0.985 0.657,0.658 0.986,1.425 0.986,2.301 0,0.876 -0.329,1.643 -0.986,2.3 -0.657,0.657 -1.424,0.985 -2.3,0.985 -0.876,0 -1.642,-0.329 -2.3,-0.985 z m 0.03,-1.704 c 0.398,-0.079 0.658,-0.278 0.777,-0.597 0,-0.239 0.049,-0.458 0.149,-0.658 0.099,-0.199 0.169,-0.418 0.209,-0.657 l -0.359,-0.478 h -0.538 c -0.438,0.518 -0.657,1.116 -0.657,1.792 v 0.239 z m 1.852,0.837 c -0.319,-0.12 -0.598,-0.318 -0.836,-0.597 l -0.358,-0.18 -0.538,0.18 -0.18,0.538 c 0.478,0.677 1.055,1.096 1.733,1.254 l 0.478,-0.299 v -0.597 z m 0.896,-2.868 0.418,-0.06 0.359,-0.478 -0.179,-0.479 c -0.319,-0.158 -0.678,-0.239 -1.076,-0.239 -0.398,0 -0.757,0.081 -1.075,0.239 l -0.179,0.479 0.358,0.478 0.418,0.06 c 0.08,-0.039 0.239,-0.06 0.478,-0.06 0.239,0 0.398,0.021 0.478,0.06 z m -1.105,0.807 c -0.179,0.179 -0.269,0.388 -0.269,0.627 0,0.239 0.089,0.448 0.269,0.627 0.18,0.179 0.389,0.269 0.627,0.269 0.239,0 0.448,-0.09 0.627,-0.269 0.179,-0.179 0.269,-0.388 0.269,-0.627 0,-0.239 -0.089,-0.448 -0.269,-0.627 -0.18,-0.179 -0.388,-0.269 -0.627,-0.269 -0.239,0 -0.448,0.09 -0.627,0.269 z m 0.627,0.926 c -0.2,0 -0.299,-0.099 -0.299,-0.298 0,-0.199 0.099,-0.299 0.299,-0.299 0.199,0 0.299,0.1 0.299,0.299 0,0.199 -0.1,0.298 -0.299,0.298 z m 1.614,0.358 c -0.478,0.2 -0.977,0.559 -1.494,1.076 v 0.597 l 0.478,0.299 c 0.677,-0.159 1.254,-0.577 1.732,-1.254 l -0.179,-0.538 z m -0.479,-1.971 c 0.04,0.239 0.109,0.458 0.209,0.657 0.099,0.2 0.149,0.418 0.149,0.658 l 0.239,0.418 0.538,0.179 0.418,-0.358 v -0.239 c 0,-0.677 -0.219,-1.274 -0.657,-1.792 h -0.538 z m 5.467,-1.644 c -0.817,0.817 -1.225,1.803 -1.225,2.958 0,1.156 0.408,2.141 1.225,2.957 0.816,0.817 1.802,1.225 2.958,1.225 1.155,0 2.141,-0.408 2.958,-1.225 0.815,-0.816 1.225,-1.801 1.225,-2.957 0,-1.155 -0.409,-2.141 -1.225,-2.958 -0.817,-0.816 -1.803,-1.225 -2.958,-1.225 -1.156,0.001 -2.142,0.409 -2.958,1.225 z m 0.658,5.259 c -0.657,-0.658 -0.986,-1.424 -0.986,-2.3 0,-0.876 0.329,-1.643 0.986,-2.301 0.657,-0.657 1.424,-0.985 2.3,-0.985 0.875,0 1.643,0.328 2.3,0.985 0.658,0.658 0.986,1.425 0.986,2.301 0,0.876 -0.329,1.643 -0.986,2.3 -0.657,0.657 -1.424,0.985 -2.3,0.985 -0.877,0 -1.643,-0.329 -2.3,-0.985 z m 0.029,-1.704 c 0.397,-0.079 0.657,-0.278 0.777,-0.597 0,-0.239 0.049,-0.458 0.149,-0.658 0.099,-0.199 0.169,-0.418 0.209,-0.657 l -0.358,-0.478 h -0.538 c -0.438,0.518 -0.657,1.116 -0.657,1.792 v 0.239 z m 1.852,0.837 c -0.319,-0.12 -0.597,-0.318 -0.836,-0.597 l -0.358,-0.18 -0.538,0.18 -0.179,0.538 c 0.478,0.677 1.055,1.096 1.732,1.254 l 0.478,-0.299 v -0.597 z m 0.897,-2.868 0.418,-0.06 0.358,-0.478 -0.179,-0.479 c -0.319,-0.158 -0.678,-0.239 -1.075,-0.239 -0.398,0 -0.757,0.081 -1.076,0.239 l -0.179,0.479 0.358,0.478 0.418,0.06 c 0.08,-0.039 0.239,-0.06 0.478,-0.06 0.24,0 0.398,0.021 0.479,0.06 z m -1.106,0.807 c -0.179,0.179 -0.269,0.388 -0.269,0.627 0,0.239 0.09,0.448 0.269,0.627 0.179,0.179 0.388,0.269 0.627,0.269 0.239,0 0.448,-0.09 0.627,-0.269 0.18,-0.179 0.269,-0.388 0.269,-0.627 0,-0.239 -0.089,-0.448 -0.269,-0.627 -0.179,-0.179 -0.388,-0.269 -0.627,-0.269 -0.238,0 -0.447,0.09 -0.627,0.269 z m 0.628,0.926 c -0.2,0 -0.299,-0.099 -0.299,-0.298 0,-0.199 0.099,-0.299 0.299,-0.299 0.199,0 0.299,0.1 0.299,0.299 0,0.199 -0.1,0.298 -0.299,0.298 z m 1.613,0.358 c -0.478,0.2 -0.976,0.559 -1.494,1.076 v 0.597 l 0.478,0.299 c 0.677,-0.159 1.254,-0.577 1.733,-1.254 l -0.179,-0.538 z m -0.478,-1.971 c 0.04,0.239 0.109,0.458 0.209,0.657 0.1,0.2 0.15,0.418 0.15,0.658 l 0.239,0.418 0.538,0.179 0.418,-0.358 v -0.239 c 0,-0.677 -0.219,-1.274 -0.657,-1.792 h -0.538 z" /><path
     style="fill:#870000"
     inkscape:connector-curvature="0"
     id="path156"
     d="m 217.982,183.49 c -0.657,-0.657 -0.986,-1.424 -0.986,-2.3 0,-0.875 0.329,-1.643 0.986,-2.3 0.658,-0.657 1.424,-0.986 2.3,-0.986 0.876,0 1.643,0.329 2.3,0.986 0.657,0.657 0.986,1.424 0.986,2.3 0,0.876 -0.329,1.643 -0.986,2.3 -0.657,0.658 -1.424,0.986 -2.3,0.986 -0.876,0 -1.642,-0.329 -2.3,-0.986 z m 0,9.559 c -0.657,-0.657 -0.986,-1.423 -0.986,-2.3 0,-0.876 0.329,-1.643 0.986,-2.3 0.658,-0.657 1.424,-0.986 2.3,-0.986 0.876,0 1.643,0.329 2.3,0.986 0.657,0.657 0.986,1.424 0.986,2.3 0,0.876 -0.329,1.643 -0.986,2.3 -0.657,0.658 -1.424,0.986 -2.3,0.986 -0.876,0 -1.642,-0.328 -2.3,-0.986 z m 0.03,-11.262 c 0.398,-0.08 0.658,-0.278 0.777,-0.598 0,-0.239 0.049,-0.457 0.149,-0.657 0.099,-0.199 0.169,-0.418 0.209,-0.658 l -0.359,-0.478 h -0.538 c -0.438,0.518 -0.657,1.115 -0.657,1.792 v 0.239 z m 0,9.559 c 0.398,-0.079 0.658,-0.278 0.777,-0.597 0,-0.239 0.049,-0.458 0.149,-0.657 0.099,-0.199 0.169,-0.418 0.209,-0.657 l -0.359,-0.478 h -0.538 c -0.438,0.519 -0.657,1.116 -0.657,1.792 v 0.239 z m 1.852,-8.722 c -0.319,-0.119 -0.598,-0.318 -0.836,-0.598 l -0.358,-0.179 -0.538,0.179 -0.18,0.538 c 0.478,0.678 1.055,1.096 1.733,1.254 l 0.478,-0.298 v -0.598 z m 0,9.559 c -0.319,-0.12 -0.598,-0.318 -0.836,-0.598 l -0.358,-0.179 -0.538,0.179 -0.18,0.538 c 0.478,0.678 1.055,1.096 1.733,1.255 l 0.478,-0.299 v -0.598 z m 0.896,-12.427 0.418,-0.06 0.359,-0.479 -0.179,-0.478 c -0.319,-0.159 -0.678,-0.239 -1.076,-0.239 -0.398,0 -0.757,0.08 -1.075,0.239 l -0.179,0.478 0.358,0.479 0.418,0.06 c 0.08,-0.039 0.239,-0.06 0.478,-0.06 0.239,0 0.398,0.021 0.478,0.06 z m 0,9.559 0.418,-0.06 0.359,-0.478 -0.179,-0.478 c -0.319,-0.159 -0.678,-0.239 -1.076,-0.239 -0.398,0 -0.757,0.08 -1.075,0.239 l -0.179,0.478 0.358,0.478 0.418,0.06 c 0.08,-0.039 0.239,-0.06 0.478,-0.06 0.239,0 0.398,0.021 0.478,0.06 z m -1.105,-8.753 c -0.179,0.179 -0.269,0.389 -0.269,0.627 0,0.239 0.089,0.448 0.269,0.627 0.18,0.18 0.389,0.269 0.627,0.269 0.239,0 0.448,-0.089 0.627,-0.269 0.179,-0.179 0.269,-0.388 0.269,-0.627 0,-0.239 -0.089,-0.448 -0.269,-0.627 -0.18,-0.179 -0.388,-0.269 -0.627,-0.269 -0.239,0 -0.448,0.09 -0.627,0.269 z m 0,9.56 c -0.179,0.18 -0.269,0.388 -0.269,0.627 0,0.239 0.089,0.448 0.269,0.627 0.18,0.179 0.389,0.269 0.627,0.269 0.239,0 0.448,-0.089 0.627,-0.269 0.179,-0.18 0.269,-0.388 0.269,-0.627 0,-0.239 -0.089,-0.448 -0.269,-0.627 -0.179,-0.179 -0.388,-0.269 -0.627,-0.269 -0.239,0 -0.448,0.089 -0.627,0.269 z m 0.627,-8.633 c -0.2,0 -0.299,-0.1 -0.299,-0.299 0,-0.199 0.099,-0.298 0.299,-0.298 0.199,0 0.299,0.1 0.299,0.298 0,0.199 -0.1,0.299 -0.299,0.299 z m 0,9.559 c -0.2,0 -0.299,-0.099 -0.299,-0.299 0,-0.199 0.099,-0.299 0.299,-0.299 0.199,0 0.299,0.1 0.299,0.299 0,0.2 -0.1,0.299 -0.299,0.299 z m 1.614,-9.201 c -0.478,0.2 -0.977,0.559 -1.494,1.076 v 0.598 l 0.478,0.298 c 0.677,-0.159 1.254,-0.577 1.732,-1.254 l -0.179,-0.538 z m 0,9.559 c -0.478,0.2 -0.977,0.558 -1.494,1.075 v 0.598 l 0.478,0.299 c 0.677,-0.159 1.254,-0.577 1.732,-1.255 l -0.179,-0.538 z m -0.479,-11.531 c 0.04,0.239 0.109,0.458 0.209,0.658 0.099,0.2 0.149,0.418 0.149,0.657 l 0.239,0.418 0.538,0.179 0.418,-0.358 v -0.239 c 0,-0.677 -0.219,-1.274 -0.657,-1.792 h -0.538 z m 0,9.56 c 0.04,0.239 0.109,0.458 0.209,0.657 0.099,0.2 0.149,0.418 0.149,0.657 l 0.239,0.418 0.538,0.179 0.418,-0.358 v -0.239 c 0,-0.677 -0.219,-1.274 -0.657,-1.792 h -0.538 z m 6.125,-5.945 c -0.657,-0.657 -0.986,-1.424 -0.986,-2.3 0,-0.875 0.329,-1.643 0.986,-2.3 0.657,-0.657 1.424,-0.986 2.3,-0.986 0.875,0 1.643,0.329 2.3,0.986 0.658,0.657 0.986,1.424 0.986,2.3 0,0.876 -0.329,1.643 -0.986,2.3 -0.657,0.658 -1.424,0.986 -2.3,0.986 -0.877,0 -1.643,-0.329 -2.3,-0.986 z m 0,9.559 c -0.657,-0.657 -0.986,-1.423 -0.986,-2.3 0,-0.876 0.329,-1.643 0.986,-2.3 0.657,-0.657 1.424,-0.986 2.3,-0.986 0.875,0 1.643,0.329 2.3,0.986 0.658,0.657 0.986,1.424 0.986,2.3 0,0.876 -0.329,1.643 -0.986,2.3 -0.657,0.658 -1.424,0.986 -2.3,0.986 -0.877,0 -1.643,-0.328 -2.3,-0.986 z m 0.029,-11.262 c 0.397,-0.08 0.657,-0.278 0.777,-0.598 0,-0.239 0.049,-0.457 0.149,-0.657 0.099,-0.199 0.169,-0.418 0.209,-0.658 l -0.358,-0.478 h -0.538 c -0.438,0.518 -0.657,1.115 -0.657,1.792 v 0.239 z m 0,9.559 c 0.397,-0.079 0.657,-0.278 0.777,-0.597 0,-0.239 0.049,-0.458 0.149,-0.657 0.099,-0.199 0.169,-0.418 0.209,-0.657 l -0.358,-0.478 h -0.538 c -0.438,0.519 -0.657,1.116 -0.657,1.792 v 0.239 z m 1.852,-8.722 c -0.319,-0.119 -0.597,-0.318 -0.836,-0.598 l -0.358,-0.179 -0.538,0.179 -0.179,0.538 c 0.478,0.678 1.055,1.096 1.732,1.254 l 0.478,-0.298 v -0.598 z m 0,9.559 c -0.319,-0.12 -0.597,-0.318 -0.836,-0.598 l -0.358,-0.179 -0.538,0.179 -0.179,0.538 c 0.478,0.678 1.055,1.096 1.732,1.255 l 0.478,-0.299 v -0.598 z m 0.897,-12.427 0.418,-0.06 0.358,-0.479 -0.179,-0.478 c -0.319,-0.159 -0.678,-0.239 -1.075,-0.239 -0.398,0 -0.757,0.08 -1.076,0.239 l -0.179,0.478 0.358,0.479 0.418,0.06 c 0.08,-0.039 0.239,-0.06 0.478,-0.06 0.24,0 0.398,0.021 0.479,0.06 z m 0,9.559 0.418,-0.06 0.358,-0.478 -0.179,-0.478 c -0.319,-0.159 -0.678,-0.239 -1.075,-0.239 -0.398,0 -0.757,0.08 -1.076,0.239 l -0.179,0.478 0.358,0.478 0.418,0.06 c 0.08,-0.039 0.239,-0.06 0.478,-0.06 0.24,0 0.398,0.021 0.479,0.06 z m -1.106,-8.753 c -0.179,0.179 -0.269,0.389 -0.269,0.627 0,0.239 0.09,0.448 0.269,0.627 0.179,0.18 0.388,0.269 0.627,0.269 0.239,0 0.448,-0.089 0.627,-0.269 0.18,-0.179 0.269,-0.388 0.269,-0.627 0,-0.239 -0.089,-0.448 -0.269,-0.627 -0.179,-0.179 -0.388,-0.269 -0.627,-0.269 -0.238,0 -0.447,0.09 -0.627,0.269 z m 0,9.56 c -0.179,0.18 -0.269,0.388 -0.269,0.627 0,0.239 0.09,0.448 0.269,0.627 0.179,0.179 0.388,0.269 0.627,0.269 0.239,0 0.448,-0.089 0.627,-0.269 0.18,-0.18 0.269,-0.388 0.269,-0.627 0,-0.239 -0.089,-0.448 -0.269,-0.627 -0.179,-0.179 -0.388,-0.269 -0.627,-0.269 -0.238,0 -0.447,0.089 -0.627,0.269 z m 0.628,-8.633 c -0.2,0 -0.299,-0.1 -0.299,-0.299 0,-0.199 0.099,-0.298 0.299,-0.298 0.199,0 0.299,0.1 0.299,0.298 0,0.199 -0.1,0.299 -0.299,0.299 z m 0,9.559 c -0.2,0 -0.299,-0.099 -0.299,-0.299 0,-0.199 0.099,-0.299 0.299,-0.299 0.199,0 0.299,0.1 0.299,0.299 0,0.2 -0.1,0.299 -0.299,0.299 z m 1.613,-9.201 c -0.478,0.2 -0.976,0.559 -1.494,1.076 v 0.598 l 0.478,0.298 c 0.677,-0.159 1.254,-0.577 1.733,-1.254 l -0.179,-0.538 z m 0,9.559 c -0.478,0.2 -0.976,0.558 -1.494,1.075 v 0.598 l 0.478,0.299 c 0.677,-0.159 1.254,-0.577 1.733,-1.255 l -0.179,-0.538 z m -0.478,-11.531 c 0.04,0.239 0.109,0.458 0.209,0.658 0.1,0.2 0.15,0.418 0.15,0.657 l 0.239,0.418 0.538,0.179 0.418,-0.358 v -0.239 c 0,-0.677 -0.219,-1.274 -0.657,-1.792 h -0.538 z m 0,9.56 c 0.04,0.239 0.109,0.458 0.209,0.657 0.1,0.2 0.15,0.418 0.15,0.657 l 0.239,0.418 0.538,0.179 0.418,-0.358 v -0.239 c 0,-0.677 -0.219,-1.274 -0.657,-1.792 h -0.538 z" /></g></svg>