<?xml version="1.0" encoding="UTF-8" standalone="no"?>
<!-- Generator: Adobe Illustrator 16.0.0, SVG Export Plug-In . SVG Version: 6.00 Build 0)  -->

<svg
   xmlns:dc="http://purl.org/dc/elements/1.1/"
   xmlns:cc="http://creativecommons.org/ns#"
   xmlns:rdf="http://www.w3.org/1999/02/22-rdf-syntax-ns#"
   xmlns:svg="http://www.w3.org/2000/svg"
   xmlns="http://www.w3.org/2000/svg"
   xmlns:sodipodi="http://sodipodi.sourceforge.net/DTD/sodipodi-0.dtd"
   xmlns:inkscape="http://www.inkscape.org/namespaces/inkscape"
   version="1.1"
   id="图层_1"
   x="0px"
   y="0px"
   width="139.76401"
   height="200"
   viewBox="0 0 139.764 200"
   enable-background="new 0 0 714 341"
   xml:space="preserve"
   sodipodi:docname="0203三餅.svg"
   inkscape:version="0.92.3 (2405546, 2018-03-11)"><metadata
   id="metadata621"><rdf:RDF><cc:Work
       rdf:about=""><dc:format>image/svg+xml</dc:format><dc:type
         rdf:resource="http://purl.org/dc/dcmitype/StillImage" /><dc:title /></cc:Work></rdf:RDF></metadata><defs
   id="defs619" /><sodipodi:namedview
   pagecolor="#ffffff"
   bordercolor="#666666"
   borderopacity="1"
   objecttolerance="10"
   gridtolerance="10"
   guidetolerance="10"
   inkscape:pageopacity="0"
   inkscape:pageshadow="2"
   inkscape:window-width="1366"
   inkscape:window-height="705"
   id="namedview617"
   showgrid="false"
   inkscape:zoom="1"
   inkscape:cx="-230.16014"
   inkscape:cy="152.60966"
   inkscape:window-x="-8"
   inkscape:window-y="-8"
   inkscape:window-maximized="1"
   inkscape:current-layer="图层_1" />



















































































































































































































































































































<g
   transform="matrix(4.0332338,0,0,4.0332338,-375.18754,-611.50277)"
   id="g1649"><path
     inkscape:connector-curvature="0"
     id="path130"
     d="m 127.676,155.2 v 42.419 c 0,0.995 -0.349,1.842 -1.045,2.539 -0.697,0.697 -1.544,1.046 -2.54,1.046 H 96.608 c -0.996,0 -1.842,-0.349 -2.539,-1.046 -0.697,-0.697 -1.045,-1.544 -1.045,-2.539 V 155.2 c 0,-0.995 0.348,-1.842 1.045,-2.539 0.697,-0.697 1.543,-1.045 2.539,-1.045 h 27.483 c 0.996,0 1.842,0.349 2.54,1.045 0.696,0.697 1.045,1.544 1.045,2.539 z m -3.585,-1.792 H 96.608 c -0.518,0 -0.946,0.17 -1.284,0.508 -0.339,0.339 -0.508,0.768 -0.508,1.285 v 42.419 c 0,0.517 0.169,0.946 0.508,1.285 0.338,0.338 0.766,0.508 1.284,0.508 h 27.483 c 0.518,0 0.946,-0.17 1.285,-0.508 0.338,-0.339 0.508,-0.768 0.508,-1.285 V 155.2 c 0,-0.517 -0.17,-0.946 -0.508,-1.285 -0.339,-0.337 -0.767,-0.507 -1.285,-0.507 z" /><path
     style="fill:#00082d"
     inkscape:connector-curvature="0"
     id="path132"
     d="m 114.353,172.407 c 1.115,1.115 1.673,2.449 1.673,4.003 0,1.553 -0.558,2.888 -1.673,4.003 -1.116,1.115 -2.45,1.673 -4.003,1.673 -1.553,0 -2.888,-0.558 -4.003,-1.673 -1.116,-1.115 -1.673,-2.45 -1.673,-4.003 0,-1.554 0.557,-2.888 1.673,-4.003 1.115,-1.115 2.45,-1.673 4.003,-1.673 1.553,0 2.887,0.558 4.003,1.673 z m -0.627,7.378 c 0.936,-0.935 1.404,-2.061 1.404,-3.375 0,-1.315 -0.469,-2.439 -1.404,-3.376 -0.936,-0.935 -2.061,-1.404 -3.375,-1.404 -1.314,0 -2.44,0.469 -3.376,1.404 -0.936,0.937 -1.404,2.061 -1.404,3.376 0,1.314 0.468,2.44 1.404,3.375 0.936,0.937 2.062,1.404 3.376,1.404 1.314,0 2.439,-0.467 3.375,-1.404 z" /><path
     style="fill:#870000"
     inkscape:connector-curvature="0"
     id="path134"
     d="m 113.308,173.453 c 0.816,0.816 1.225,1.803 1.225,2.958 0,1.155 -0.409,2.142 -1.225,2.957 -0.817,0.817 -1.803,1.225 -2.958,1.225 -1.156,0 -2.142,-0.408 -2.958,-1.225 -0.817,-0.815 -1.225,-1.802 -1.225,-2.957 0,-1.155 0.408,-2.141 1.225,-2.958 0.816,-0.816 1.802,-1.225 2.958,-1.225 1.155,0 2.141,0.409 2.958,1.225 z m -4.75,3.017 c 0,-0.239 0.02,-0.438 0.06,-0.598 0.039,-0.158 0.099,-0.318 0.179,-0.478 0.079,-0.159 0.139,-0.278 0.179,-0.359 l -0.657,-0.956 h -0.717 c -0.559,0.678 -0.837,1.455 -0.837,2.331 v 0.239 l 0.538,0.418 1.135,-0.358 z m 0.956,3.405 0.538,-0.358 v -1.195 l -0.179,-0.18 c -0.438,-0.12 -0.776,-0.358 -1.016,-0.717 l -0.239,-0.12 -1.076,0.358 -0.239,0.658 c 0.478,0.798 1.215,1.315 2.211,1.554 z m -0.478,-6.811 -0.239,0.657 0.657,0.956 h 0.239 c 0.159,-0.039 0.378,-0.06 0.657,-0.06 0.278,0 0.498,0.021 0.657,0.06 h 0.239 l 0.657,-0.956 -0.239,-0.657 c -0.478,-0.158 -0.917,-0.239 -1.314,-0.239 -0.398,0 -0.836,0.081 -1.314,0.239 z m 2.151,4.182 c 0.239,-0.239 0.358,-0.517 0.358,-0.836 0,-0.318 -0.12,-0.598 -0.358,-0.836 -0.239,-0.239 -0.518,-0.358 -0.836,-0.358 -0.319,0 -0.598,0.12 -0.836,0.358 -0.238,0.238 -0.358,0.518 -0.358,0.836 0,0.319 0.12,0.597 0.358,0.836 0.239,0.239 0.517,0.359 0.836,0.359 0.317,0 0.596,-0.12 0.836,-0.359 z m -0.837,-1.433 c 0.397,0 0.597,0.2 0.597,0.598 0,0.398 -0.2,0.597 -0.597,0.597 -0.398,0 -0.598,-0.199 -0.598,-0.597 0,-0.399 0.2,-0.598 0.598,-0.598 z m 1.733,1.493 c -0.597,0.518 -1.075,0.857 -1.434,1.016 v 1.195 l 0.538,0.358 c 0.995,-0.239 1.732,-0.756 2.21,-1.553 l -0.239,-0.658 z m 0.06,-0.836 0.12,0.239 1.135,0.358 0.538,-0.418 v -0.239 c 0,-0.876 -0.279,-1.652 -0.837,-2.331 h -0.717 l -0.657,0.956 c 0.039,0.081 0.099,0.2 0.179,0.359 0.08,0.159 0.139,0.319 0.179,0.478 0.039,0.16 0.06,0.359 0.06,0.598 z" /><path
     style="fill:#00082d"
     inkscape:connector-curvature="0"
     id="path136"
     d="m 107.184,158.964 c 1.115,1.115 1.673,2.449 1.673,4.003 0,1.553 -0.558,2.888 -1.673,4.003 -1.116,1.116 -2.45,1.673 -4.003,1.673 -1.554,0 -2.889,-0.557 -4.003,-1.673 -1.116,-1.115 -1.673,-2.45 -1.673,-4.003 0,-1.554 0.557,-2.888 1.673,-4.003 1.114,-1.115 2.449,-1.673 4.003,-1.673 1.553,0 2.887,0.559 4.003,1.673 z m -0.628,7.379 c 0.936,-0.936 1.404,-2.061 1.404,-3.375 0,-1.315 -0.468,-2.439 -1.404,-3.375 -0.937,-0.936 -2.061,-1.404 -3.375,-1.404 -1.314,0 -2.44,0.469 -3.375,1.404 -0.937,0.936 -1.404,2.061 -1.404,3.375 0,1.314 0.468,2.44 1.404,3.375 0.935,0.937 2.061,1.404 3.375,1.404 1.314,0 2.439,-0.468 3.375,-1.404 z m -0.418,-6.333 c 0.816,0.816 1.225,1.803 1.225,2.958 0,1.155 -0.409,2.142 -1.225,2.958 -0.817,0.816 -1.803,1.225 -2.958,1.225 -1.156,0 -2.142,-0.408 -2.958,-1.225 -0.817,-0.816 -1.225,-1.802 -1.225,-2.958 0,-1.155 0.408,-2.141 1.225,-2.958 0.816,-0.816 1.802,-1.225 2.958,-1.225 1.155,0 2.141,0.409 2.958,1.225 z m -4.75,3.017 c 0,-0.239 0.02,-0.438 0.06,-0.598 0.039,-0.158 0.099,-0.318 0.179,-0.478 0.08,-0.159 0.14,-0.278 0.179,-0.359 l -0.657,-0.956 h -0.717 c -0.558,0.678 -0.836,1.455 -0.836,2.331 v 0.239 l 0.538,0.418 1.135,-0.358 z m 0.956,3.406 0.538,-0.358 v -1.195 l -0.179,-0.18 c -0.439,-0.12 -0.777,-0.358 -1.016,-0.717 l -0.239,-0.119 -1.076,0.358 -0.239,0.658 c 0.478,0.796 1.215,1.313 2.211,1.553 z m -0.478,-6.812 -0.239,0.658 0.657,0.956 h 0.239 c 0.159,-0.039 0.378,-0.06 0.657,-0.06 0.278,0 0.498,0.021 0.657,0.06 h 0.239 l 0.657,-0.956 -0.239,-0.658 c -0.478,-0.158 -0.917,-0.239 -1.314,-0.239 -0.398,0 -0.836,0.081 -1.314,0.239 z m 2.151,4.183 c 0.239,-0.239 0.358,-0.517 0.358,-0.836 0,-0.318 -0.12,-0.598 -0.358,-0.836 -0.239,-0.239 -0.518,-0.358 -0.836,-0.358 -0.319,0 -0.598,0.12 -0.836,0.358 -0.239,0.239 -0.358,0.518 -0.358,0.836 0,0.319 0.119,0.597 0.358,0.836 0.239,0.239 0.517,0.358 0.836,0.358 0.318,0 0.597,-0.119 0.836,-0.358 z m -0.836,-1.434 c 0.398,0 0.597,0.2 0.597,0.598 0,0.398 -0.199,0.597 -0.597,0.597 -0.398,0 -0.598,-0.199 -0.598,-0.597 0,-0.399 0.199,-0.598 0.598,-0.598 z m 1.732,1.494 c -0.597,0.518 -1.075,0.856 -1.434,1.016 v 1.195 l 0.538,0.358 c 0.995,-0.239 1.732,-0.756 2.21,-1.553 l -0.239,-0.658 z m 0.06,-0.837 0.119,0.239 1.135,0.358 0.538,-0.418 v -0.239 c 0,-0.875 -0.279,-1.652 -0.836,-2.331 h -0.717 l -0.657,0.956 c 0.04,0.081 0.099,0.2 0.179,0.359 0.08,0.159 0.139,0.319 0.179,0.478 0.039,0.16 0.06,0.359 0.06,0.598 z m 16.549,22.823 c 1.115,1.115 1.673,2.449 1.673,4.003 0,1.553 -0.558,2.888 -1.673,4.003 -1.115,1.114 -2.449,1.672 -4.003,1.672 -1.553,0 -2.888,-0.558 -4.003,-1.672 -1.116,-1.115 -1.673,-2.45 -1.673,-4.003 0,-1.554 0.557,-2.888 1.673,-4.003 1.115,-1.115 2.45,-1.673 4.003,-1.673 1.554,0 2.888,0.558 4.003,1.673 z m -0.627,7.378 c 0.936,-0.935 1.404,-2.061 1.404,-3.375 0,-1.315 -0.469,-2.439 -1.404,-3.376 -0.936,-0.935 -2.061,-1.404 -3.375,-1.404 -1.314,0 -2.44,0.469 -3.375,1.404 -0.937,0.937 -1.404,2.061 -1.404,3.376 0,1.314 0.467,2.44 1.404,3.375 0.936,0.937 2.061,1.404 3.375,1.404 1.314,0 2.439,-0.467 3.375,-1.404 z m -0.418,-6.333 c 0.816,0.817 1.225,1.803 1.225,2.958 0,1.155 -0.409,2.141 -1.225,2.957 -0.817,0.817 -1.803,1.225 -2.958,1.225 -1.156,0 -2.142,-0.408 -2.958,-1.225 -0.817,-0.816 -1.225,-1.802 -1.225,-2.957 0,-1.155 0.408,-2.141 1.225,-2.958 0.816,-0.815 1.802,-1.224 2.958,-1.224 1.155,0 2.141,0.409 2.958,1.224 z m -4.75,3.018 c 0,-0.239 0.02,-0.438 0.06,-0.598 0.04,-0.158 0.099,-0.318 0.18,-0.478 0.079,-0.159 0.139,-0.278 0.179,-0.359 l -0.657,-0.956 h -0.717 c -0.558,0.678 -0.836,1.455 -0.836,2.331 v 0.239 l 0.538,0.418 1.135,-0.358 z m 0.956,3.405 0.538,-0.358 v -1.195 l -0.179,-0.179 c -0.438,-0.12 -0.777,-0.358 -1.016,-0.717 l -0.239,-0.12 -1.075,0.358 -0.239,0.657 c 0.478,0.798 1.214,1.315 2.21,1.554 z m -0.478,-6.811 -0.239,0.657 0.657,0.956 h 0.239 c 0.159,-0.039 0.378,-0.06 0.657,-0.06 0.278,0 0.498,0.021 0.657,0.06 h 0.239 l 0.657,-0.956 -0.239,-0.657 c -0.478,-0.159 -0.917,-0.239 -1.314,-0.239 -0.398,0 -0.836,0.08 -1.314,0.239 z m 2.151,4.182 c 0.239,-0.239 0.358,-0.517 0.358,-0.836 0,-0.318 -0.119,-0.598 -0.358,-0.836 -0.239,-0.239 -0.518,-0.358 -0.836,-0.358 -0.319,0 -0.597,0.119 -0.836,0.358 -0.239,0.239 -0.358,0.518 -0.358,0.836 0,0.319 0.12,0.597 0.358,0.836 0.239,0.239 0.517,0.359 0.836,0.359 0.318,0 0.597,-0.12 0.836,-0.359 z m -0.836,-1.434 c 0.397,0 0.598,0.2 0.598,0.598 0,0.398 -0.2,0.597 -0.598,0.597 -0.398,0 -0.597,-0.199 -0.597,-0.597 0,-0.398 0.198,-0.598 0.597,-0.598 z m 1.732,1.494 c -0.597,0.518 -1.075,0.857 -1.434,1.016 v 1.195 l 0.538,0.358 c 0.995,-0.239 1.733,-0.756 2.211,-1.553 l -0.239,-0.657 z m 0.06,-0.836 0.119,0.239 1.136,0.358 0.538,-0.418 v -0.239 c 0,-0.876 -0.279,-1.652 -0.836,-2.331 h -0.717 l -0.657,0.956 c 0.04,0.081 0.099,0.2 0.18,0.359 0.079,0.159 0.139,0.319 0.179,0.478 0.038,0.16 0.058,0.358 0.058,0.598 z" /></g></svg>