<?xml version="1.0" encoding="UTF-8" standalone="no"?>
<!-- Generator: Adobe Illustrator 16.0.0, SVG Export Plug-In . SVG Version: 6.00 Build 0)  -->

<svg
   xmlns:dc="http://purl.org/dc/elements/1.1/"
   xmlns:cc="http://creativecommons.org/ns#"
   xmlns:rdf="http://www.w3.org/1999/02/22-rdf-syntax-ns#"
   xmlns:svg="http://www.w3.org/2000/svg"
   xmlns="http://www.w3.org/2000/svg"
   xmlns:sodipodi="http://sodipodi.sourceforge.net/DTD/sodipodi-0.dtd"
   xmlns:inkscape="http://www.inkscape.org/namespaces/inkscape"
   version="1.1"
   id="图层_1"
   x="0px"
   y="0px"
   width="139.76401"
   height="200"
   viewBox="0 0 139.764 200"
   enable-background="new 0 0 714 341"
   xml:space="preserve"
   sodipodi:docname="0407白.svg"
   inkscape:version="0.92.3 (2405546, 2018-03-11)"><metadata
   id="metadata621"><rdf:RDF><cc:Work
       rdf:about=""><dc:format>image/svg+xml</dc:format><dc:type
         rdf:resource="http://purl.org/dc/dcmitype/StillImage" /><dc:title /></cc:Work></rdf:RDF></metadata><defs
   id="defs619" /><sodipodi:namedview
   pagecolor="#ffffff"
   bordercolor="#666666"
   borderopacity="1"
   objecttolerance="10"
   gridtolerance="10"
   guidetolerance="10"
   inkscape:pageopacity="0"
   inkscape:pageshadow="2"
   inkscape:window-width="1366"
   inkscape:window-height="705"
   id="namedview617"
   showgrid="false"
   inkscape:zoom="1"
   inkscape:cx="-6.49666"
   inkscape:cy="112.60966"
   inkscape:window-x="-8"
   inkscape:window-y="-8"
   inkscape:window-maximized="1"
   inkscape:current-layer="图层_1" />



















































































































































































































































































































<g
   transform="matrix(4.0331525,0,0,4.0331525,-2543.1043,-882.47797)"
   id="g1988"><path
     inkscape:connector-curvature="0"
     id="path596"
     d="m 630.55,222.39 c 0,-0.994 0.349,-1.842 1.046,-2.539 0.696,-0.696 1.543,-1.045 2.539,-1.045 h 27.483 c 0.995,0 1.843,0.349 2.54,1.045 0.695,0.697 1.045,1.545 1.045,2.539 v 42.42 c 0,0.995 -0.35,1.842 -1.045,2.539 -0.697,0.696 -1.545,1.046 -2.54,1.046 h -27.483 c -0.996,0 -1.843,-0.35 -2.539,-1.046 -0.697,-0.697 -1.046,-1.544 -1.046,-2.539 m 1.793,0 c 0,0.518 0.169,0.945 0.508,1.285 0.338,0.338 0.766,0.508 1.284,0.508 h 27.483 c 0.518,0 0.946,-0.17 1.284,-0.508 0.338,-0.34 0.508,-0.768 0.508,-1.285 v -42.42 c 0,-0.518 -0.17,-0.945 -0.508,-1.284 -0.338,-0.338 -0.767,-0.508 -1.284,-0.508 h -27.483 c -0.519,0 -0.946,0.17 -1.284,0.508 -0.339,0.339 -0.508,0.767 -0.508,1.284" /><path
     style="fill:#00082d"
     inkscape:connector-curvature="0"
     id="path600"
     d="m 635.497,222.786 h 3.604 v 3.552 h -3.604 z m 3.605,4.23 v 3.03 h -2.349 v -1.828 h 1.148 v 0.628 h -0.575 v 0.574 h 1.201 v -1.83 h -2.403 v 2.979 h 2.978 v 4.283 h -3.604 v -3.029 h 2.404 v 1.827 h -1.148 v -0.627 h 0.573 v -0.625 h -1.202 v 1.881 h 2.403 v -3.03 h -3.03 v -4.232 h 3.604 z m 0,8.462 v 3.03 h -2.349 v -1.881 h 1.148 v 0.628 h -0.575 v 0.625 h 1.201 v -1.828 h -2.403 v 3.03 h 2.978 v 4.23 h -3.604 v -3.028 h 2.404 v 1.828 h -1.148 v -0.627 h 0.573 v -0.625 h -1.202 v 1.828 h 2.403 v -3.083 h -3.03 v -4.126 h 3.604 z m 0,8.41 v 3.029 h -2.349 v -1.828 h 1.148 v 0.575 h -0.575 v 0.627 h 1.201 v -1.777 h -2.403 v 3.03 h 2.978 v 4.18 h -3.604 v -2.979 h 2.404 v 1.777 h -1.148 v -0.628 h 0.573 v -0.574 h -1.202 v 1.829 h 2.403 v -3.03 h -3.03 v -4.231 z m 0,8.462 v 2.977 h -2.349 v -1.775 h 1.148 v 0.575 h -0.575 v 0.627 h 1.201 v -1.83 h -2.403 v 3.03 h 2.978 v 4.232 h -3.604 v -3.03 h 2.404 v 1.775 h -1.148 v -0.575 h 0.573 v -0.521 h -1.202 v 1.724 h 2.403 v -2.977 h -3.03 v -4.231 h 3.604 z m -3.605,8.462 h 3.604 v 3.604 h -3.604 z m 0.627,-37.452 v 2.403 h 2.403 v -2.403 z m 0,38.026 v 2.402 h 2.403 v -2.402 z m 0.629,-37.4 h 1.148 v 1.255 h -1.148 z m 0,37.974 h 1.148 v 1.202 h -1.148 z m 2.976,-39.174 h 3.029 v 2.456 h -1.776 v -1.255 h 0.574 v 0.627 h 0.575 v -1.253 h -1.777 v 2.403 h 2.979 v -2.977 h 4.229 v 3.552 h -3.03 v -2.351 h 1.83 v 1.255 h -0.574 v -0.628 h -0.627 v 1.149 h 1.88 v -2.403 h -3.082 v 2.978 h -4.23 z m 0,38.026 h 3.029 v 2.351 h -1.776 v -1.202 h 0.574 v 0.679 h 0.575 v -1.253 h -1.777 v 2.402 h 2.979 v -2.977 h 4.229 v 3.604 h -3.03 v -2.456 h 1.83 v 1.202 h -0.574 v -0.523 h -0.627 v 1.149 h 1.88 v -2.402 h -3.082 v 3.03 h -4.23 z m 8.461,-38.026 h 3.03 v 2.456 h -1.829 v -1.255 h 0.627 v 0.627 h 0.575 v -1.253 h -1.828 v 2.403 h 3.082 v -2.977 h 4.23 v 3.552 h -3.082 v -2.351 h 1.828 v 1.255 h -0.575 v -0.628 h -0.679 v 1.149 h 1.827 v -2.403 h -2.977 v 2.978 h -4.23 v -3.553 z m 0,38.026 h 3.03 v 2.351 h -1.829 v -1.202 h 0.627 v 0.679 h 0.575 v -1.253 h -1.828 v 2.402 h 3.082 v -2.977 h 4.23 v 3.604 h -3.082 v -2.456 h 1.828 v 1.202 h -0.575 v -0.523 h -0.679 v 1.149 h 1.827 v -2.402 h -2.977 v 3.03 h -4.23 v -3.604 z m 8.463,-38.026 h 3.603 v 3.552 h -3.603 z m 3.603,4.23 v 3.03 h -2.454 v -1.828 h 1.254 v 0.628 h -0.628 v 0.574 h 1.202 v -1.83 h -2.351 v 2.979 h 2.977 v 4.283 h -3.603 v -3.029 h 2.402 v 1.827 h -1.254 v -0.627 h 0.626 v -0.625 h -1.148 v 1.881 h 2.351 v -3.03 h -2.977 v -4.232 h 3.603 z m 0,8.462 v 3.03 h -2.454 v -1.881 h 1.254 v 0.628 h -0.628 v 0.625 h 1.202 v -1.828 h -2.351 v 3.03 h 2.977 v 4.23 h -3.603 v -3.028 h 2.402 v 1.828 h -1.254 v -0.627 h 0.626 v -0.625 h -1.148 v 1.828 h 2.351 v -3.083 h -2.977 v -4.126 h 3.603 z m 0,8.41 v 3.029 h -2.454 v -1.828 h 1.254 v 0.575 h -0.628 v 0.627 h 1.202 v -1.777 h -2.351 v 3.03 h 2.977 v 4.18 h -3.603 v -2.979 h 2.402 v 1.777 h -1.254 v -0.628 h 0.626 v -0.574 h -1.148 v 1.829 h 2.351 v -3.03 h -2.977 v -4.231 z m 0,8.462 v 2.977 h -2.454 v -1.775 h 1.254 v 0.575 h -0.628 v 0.627 h 1.202 v -1.83 h -2.351 v 3.03 h 2.977 v 4.232 h -3.603 v -3.03 h 2.402 v 1.775 h -1.254 v -0.575 h 0.626 v -0.521 h -1.148 v 1.724 h 2.351 v -2.977 h -2.977 v -4.231 h 3.603 z m -3.603,8.462 h 3.603 v 3.604 h -3.603 z m 0.626,-37.452 v 2.403 h 2.351 v -2.403 z m 0,38.026 v 2.402 h 2.351 v -2.402 z m 0.523,-37.4 h 1.254 v 1.255 h -1.254 z m 0,37.974 h 1.254 v 1.202 h -1.254 z" /></g></svg>