<?xml version="1.0" encoding="UTF-8" standalone="no"?>
<svg xmlns="http://www.w3.org/2000/svg" xml:space="preserve" width="139.76401" height="200" viewBox="0 0 139.764 200">
  <g transform="translate(-992.04259 -900.64328) scale(4.03315)">
    <path d="M280.625 226.895v42.419c0 .995-.349 1.842-1.045 2.539-.697.696-1.544 1.046-2.54 1.046h-27.483c-.996 0-1.843-.35-2.54-1.046-.697-.697-1.045-1.544-1.045-2.539v-42.419c0-.995.348-1.842 1.045-2.54.697-.696 1.543-1.045 2.54-1.045h27.483c.995 0 1.842.349 2.54 1.045.696.698 1.045 1.545 1.045 2.54zm-3.584-1.792h-27.483c-.519 0-.947.17-1.285.508-.339.339-.508.767-.508 1.285v42.419c0 .517.169.946.508 1.285.338.338.766.508 1.285.508h27.483c.518 0 .946-.17 1.284-.508.338-.339.508-.768.508-1.285v-42.419c0-.518-.17-.946-.508-1.285-.339-.339-.767-.508-1.284-.508z"/>
    <path fill="#870000" d="M262.343 233.766c.796.319 1.573.977 2.33 1.972.756.996 1.135 1.773 1.135 2.33 0 .239-.07.448-.209.627-.14.179-.298.349-.478.508-.179.16-.369.518-.568 1.075-.2.558-.339 1.275-.418 2.151.518-.158 1.195-.408 2.032-.747.836-.338 1.533-.606 2.091-.807.557-.199.976-.299 1.254-.299.318 0 .757.359 1.315 1.075.12.16.378.439.776.837.398.398.667.687.807.866.139.179.288.418.448.717.159.299.239.567.239.807 0 .358-.16.537-.479.537-.757 0-1.314.14-1.672.418-.279.439-.648.956-1.105 1.554-.458.598-.827 1.076-1.105 1.434-.28.359-.419.619-.419.777 0 .717-.279 1.076-.836 1.076-.2 0-.608-.06-1.225-.179-.618-.12-1.404-.199-2.36-.239 0 .358-.021 1.205-.06 2.539-.04 1.335-.06 2.082-.06 2.24 0 .279.039 1.036.12 2.271.08 1.235.12 2.071.12 2.509 0 1.036-.14 2.071-.418 3.107-.28 1.036-.578 1.713-.896 2.031-.478-.398-.717-1.932-.717-4.6 0-.278.02-.876.06-1.792.04-.916.06-1.753.06-2.51 0-.438-.02-1.344-.06-2.718-.04-1.374-.06-2.379-.06-3.017-.319 0-.856.13-1.613.388-.757.26-1.375.389-1.852.389-.319 0-.479-.299-.479-.896 0-.358-.757-1.195-2.27-2.509-1.514-1.314-2.27-2.31-2.27-2.987 0-.995.158-1.673.478-2.032.318.2.707.499 1.165.896.458.399.856.717 1.195.956.339.239.627.359.867.359s1.055-.259 2.45-.777c1.394-.518 2.17-.856 2.33-1.016v-.896c0-.477-.01-.826-.029-1.046-.021-.218-.051-.538-.09-.956-.04-.418-.1-.737-.179-.956-.081-.219-.17-.458-.269-.717-.1-.259-.249-.458-.448-.598-.2-.139-.418-.209-.657-.209 0-.079-.041-.229-.12-.448-.079-.219-.119-.389-.119-.508-.002-.916.754-1.912 2.268-2.987zm-4.421 12.008c.875 1.235 1.593 2.43 2.151 3.585.637-.08 1.274-.199 1.912-.358v-4.481c-.358.119-.806.309-1.344.567-.538.26-.996.458-1.374.598-.379.14-.667.209-.866.209-.161.001-.32-.039-.479-.12zm6.213-1.971c-.159 1.912-.239 3.584-.239 5.018.159 0 .438.011.836.03.398.021.756.03 1.076.03.119-.159.358-.487.717-.986.358-.498.637-.896.836-1.195.199-.298.428-.657.687-1.075.258-.418.448-.797.568-1.135.12-.338.179-.627.179-.867 0-.478-.319-.716-.956-.716-.876 0-2.111.299-3.704.896z"/>
  </g>
</svg>