<?xml version="1.0" encoding="UTF-8" standalone="no"?>
<!-- Generator: Adobe Illustrator 16.0.0, SVG Export Plug-In . SVG Version: 6.00 Build 0)  -->

<svg
   xmlns:dc="http://purl.org/dc/elements/1.1/"
   xmlns:cc="http://creativecommons.org/ns#"
   xmlns:rdf="http://www.w3.org/1999/02/22-rdf-syntax-ns#"
   xmlns:svg="http://www.w3.org/2000/svg"
   xmlns="http://www.w3.org/2000/svg"
   xmlns:sodipodi="http://sodipodi.sourceforge.net/DTD/sodipodi-0.dtd"
   xmlns:inkscape="http://www.inkscape.org/namespaces/inkscape"
   version="1.1"
   id="图层_1"
   x="0px"
   y="0px"
   width="139.76401"
   height="200"
   viewBox="0 0 139.764 200"
   enable-background="new 0 0 714 341"
   xml:space="preserve"
   sodipodi:docname="0508竹.svg"
   inkscape:version="0.92.3 (2405546, 2018-03-11)"><metadata
   id="metadata621"><rdf:RDF><cc:Work
       rdf:about=""><dc:format>image/svg+xml</dc:format><dc:type
         rdf:resource="http://purl.org/dc/dcmitype/StillImage" /><dc:title /></cc:Work></rdf:RDF></metadata><defs
   id="defs619" /><sodipodi:namedview
   pagecolor="#ffffff"
   bordercolor="#666666"
   borderopacity="1"
   objecttolerance="10"
   gridtolerance="10"
   guidetolerance="10"
   inkscape:pageopacity="0"
   inkscape:pageshadow="2"
   inkscape:window-width="1366"
   inkscape:window-height="705"
   id="namedview617"
   showgrid="false"
   inkscape:zoom="1"
   inkscape:cx="-98.49666"
   inkscape:cy="112.60966"
   inkscape:window-x="-8"
   inkscape:window-y="-8"
   inkscape:window-maximized="1"
   inkscape:current-layer="图层_1" />



















































































































































































































































































































<g
   transform="matrix(4.0331525,0,0,4.0331525,-1541.1926,-881.46968)"
   id="g2247"><path
     inkscape:connector-curvature="0"
     id="path462"
     d="m 416.783,222.14 v 42.42 c 0,0.995 -0.349,1.842 -1.045,2.539 -0.697,0.696 -1.544,1.046 -2.54,1.046 h -27.483 c -0.996,0 -1.842,-0.35 -2.539,-1.046 -0.697,-0.697 -1.045,-1.544 -1.045,-2.539 v -42.42 c 0,-0.994 0.348,-1.842 1.045,-2.539 0.697,-0.696 1.543,-1.045 2.539,-1.045 h 27.483 c 0.996,0 1.842,0.349 2.54,1.045 0.696,0.697 1.045,1.545 1.045,2.539 z m -3.585,-1.792 h -27.483 c -0.518,0 -0.946,0.17 -1.284,0.508 -0.339,0.339 -0.508,0.767 -0.508,1.284 v 42.42 c 0,0.518 0.169,0.945 0.508,1.285 0.338,0.338 0.766,0.508 1.284,0.508 h 27.483 c 0.518,0 0.946,-0.17 1.285,-0.508 0.338,-0.34 0.508,-0.768 0.508,-1.285 v -42.42 c 0,-0.518 -0.17,-0.945 -0.508,-1.284 -0.339,-0.338 -0.767,-0.508 -1.285,-0.508 z" /><path
     style="fill:#003a37"
     inkscape:connector-curvature="0"
     id="path464"
     d="m 388.026,251.036 h -0.604 -0.215 c -0.058,0 -0.13,0.032 -0.216,0.096 l -0.173,0.096 c -0.72,0.772 -1.18,1.288 -1.381,1.546 -0.087,0.258 -0.252,0.579 -0.497,0.964 -0.245,0.386 -0.367,0.645 -0.367,0.772 l 0.475,-0.337 c 0.345,-0.258 0.647,-0.531 0.907,-0.821 0.719,-0.514 1.179,-0.9 1.381,-1.158 0.346,-0.258 0.519,-0.45 0.519,-0.58 v -0.192 z" /><path
     style="fill:#003a37"
     inkscape:connector-curvature="0"
     id="path466"
     d="m 391.306,251.036 c -0.115,-0.127 -0.288,-0.194 -0.518,-0.194 h -0.432 -0.345 -0.258 -0.173 c -0.23,0 -0.417,0.13 -0.561,0.386 -0.432,0.258 -0.82,0.838 -1.165,1.738 v 0.194 c 0,0.128 -0.058,0.192 -0.173,0.192 l -0.346,0.58 c -0.431,1.063 -0.719,1.707 -0.863,1.931 1.267,-1.417 2.475,-2.639 3.626,-3.669 0.23,-0.258 0.46,-0.45 0.69,-0.58 0.346,-0.256 0.518,-0.449 0.518,-0.578 z" /><path
     style="fill:#870000"
     inkscape:connector-curvature="0"
     id="path468"
     d="m 388.229,223.251 c 0.47,0 0.882,0.411 1.234,1.234 -0.118,0.589 -0.412,1.354 -0.881,2.294 h 0.176 c 0.442,-0.353 0.735,-0.544 0.882,-0.573 h 0.706 l 0.177,0.22 v 0.177 c -0.471,1.765 -0.706,2.764 -0.706,3 v 0.353 h 0.176 l 0.882,-2.294 h 0.177 l -0.706,4.413 -0.529,0.353 c -0.56,-0.353 -0.854,-1.119 -0.883,-2.294 l 0.353,-2.648 c -1.176,1.177 -1.897,1.766 -2.162,1.766 -0.088,0 -0.192,-0.236 -0.309,-0.706 v -0.353 c 0.941,-1.501 1.412,-2.912 1.412,-4.235 v -0.53 -0.177 z" /><path
     style="fill:#003a37"
     inkscape:connector-curvature="0"
     id="path470"
     d="m 391.998,241.38 c -0.115,0 -0.404,-0.194 -0.864,-0.58 -0.201,-0.127 -0.374,-0.321 -0.518,-0.58 -0.115,0 -0.202,-0.064 -0.259,-0.192 -0.058,-0.128 -0.086,-0.258 -0.086,-0.386 -0.576,-0.772 -1.497,-1.674 -2.762,-2.704 0.23,0.13 0.431,0.42 0.604,0.87 0.173,0.451 0.317,0.805 0.432,1.063 0.546,0.9 0.892,1.48 1.036,1.738 0.115,0.386 0.173,0.644 0.173,0.772 l 0.172,0.337 c 0.115,0.162 0.173,0.307 0.173,0.435 l -0.087,0.192 c -0.058,0.13 -0.086,0.258 -0.086,0.387 0,0.129 0.115,0.258 0.345,0.388 0.115,0.128 0.23,0.192 0.345,0.192 0.202,0 0.489,-0.064 0.863,-0.192 0.346,-0.258 0.519,-0.645 0.519,-1.16 z" /><path
     style="fill:#003a37"
     inkscape:connector-curvature="0"
     id="path472"
     d="m 395.968,251.615 c 0,-0.128 -0.115,-0.386 -0.345,-0.772 -0.345,-0.386 -0.749,-1.158 -1.208,-2.316 -0.72,-1.546 -1.123,-2.705 -1.209,-3.477 v -0.29 -0.29 -0.192 -0.386 -0.194 c 0,-0.225 -0.188,-0.354 -0.561,-0.386 -0.922,0 -1.482,0.065 -1.684,0.194 -0.432,0.096 -0.663,0.289 -0.691,0.578 0,0.129 0.173,0.452 0.518,0.966 1.237,2.703 1.856,4.185 1.856,4.441 0.46,1.514 0.705,2.351 0.733,2.51 v 0.386 c 0,0.388 0.287,0.58 0.864,0.58 h 0.173 c 0.431,0 0.719,-0.064 0.863,-0.192 0.461,-0.291 0.691,-0.676 0.691,-1.16 z" /><path
     style="fill:#003a37"
     inkscape:connector-curvature="0"
     id="path474"
     d="m 391.998,252.387 h -0.519 c -0.115,0.13 -0.23,0.452 -0.345,0.966 -0.115,0.482 -0.172,1.062 -0.172,1.738 v 1.545 1.546 0.386 c 0.345,-0.901 0.748,-2.125 1.209,-3.671 0,-0.128 0.028,-0.353 0.086,-0.675 0.057,-0.321 0.086,-0.547 0.086,-0.676 0,-0.513 -0.115,-0.901 -0.345,-1.159 z" /><path
     style="fill:#870000"
     inkscape:connector-curvature="0"
     id="path476"
     d="m 392.464,222.191 c 0.823,0.325 1.411,0.736 1.765,1.235 v 0.177 c 0,0.236 -0.295,1 -0.883,2.294 h 0.176 c 1.529,-0.471 2.706,-0.707 3.53,-0.707 0.852,0.236 1.264,0.472 1.234,0.707 0,0.205 -0.882,0.308 -2.646,0.308 l -0.706,0.397 -0.221,-0.177 -1.544,0.177 h -0.176 c -0.559,0.854 -1.147,1.265 -1.765,1.236 v -0.178 c 0.735,-0.852 1.323,-2.206 1.765,-4.058 v -0.353 z" /><path
     style="fill:#870000"
     inkscape:connector-curvature="0"
     id="path478"
     d="m 394.582,226.956 c 0.706,0.825 1.059,1.765 1.059,2.825 -0.236,3.175 -0.765,4.763 -1.588,4.763 h -0.177 c -0.118,0 -0.235,-0.234 -0.353,-0.706 -1.059,-0.558 -1.587,-1.147 -1.587,-1.764 0.706,0.353 1.234,0.529 1.587,0.529 h 0.353 c 0.354,0 0.589,-1.059 0.707,-3.177 l -0.353,-1.941 c 0.116,-0.354 0.234,-0.529 0.352,-0.529 z" /><path
     style="fill:#003a37"
     inkscape:connector-curvature="0"
     id="path480"
     d="m 398.904,262.043 c -0.547,-1.414 -1.065,-3.539 -1.554,-6.371 -0.115,-0.935 -0.288,-1.513 -0.518,-1.739 -0.547,-0.484 -1.181,-0.74 -1.9,-0.772 -0.317,0 -0.49,0.515 -0.518,1.544 0,0.386 0.021,0.772 0.065,1.159 0.043,0.386 0.186,0.772 0.431,1.158 0.244,0.386 0.424,0.646 0.54,0.774 0.691,1.641 1.036,3.315 1.036,5.021 v 0.772 0.386 c 0,0.225 0.23,0.354 0.69,0.386 0.691,0 1.324,-0.322 1.9,-0.966 0.23,-0.258 0.345,-0.45 0.345,-0.579 z" /><path
     style="fill:#003a37"
     inkscape:connector-curvature="0"
     id="path482"
     d="m 400.804,242.539 c -0.115,-0.258 -0.403,-0.386 -0.864,-0.386 l -0.69,0.386 c -0.921,0.514 -1.842,1.931 -2.763,4.249 0.346,-0.258 0.892,-0.708 1.641,-1.352 0.748,-0.645 1.352,-1.095 1.813,-1.353 0.546,-0.354 0.892,-0.676 1.037,-0.964 v -0.194 c -0.001,-0.129 -0.06,-0.258 -0.174,-0.386 z" /><path
     style="fill:#003a37"
     inkscape:connector-curvature="0"
     id="path484"
     d="m 412.2,237.517 c -3.454,0.935 -6.562,2.737 -9.324,5.408 -1.382,1.416 -2.476,2.832 -3.281,4.249 -0.95,1.288 -1.813,2.703 -2.59,4.249 -0.23,0.482 -0.345,0.868 -0.345,1.158 v 0.386 l 0.259,0.194 0.259,0.192 0.346,-0.386 V 252.775 252.581 252 c 0.114,-0.352 0.331,-0.804 0.647,-1.35 0.229,-0.516 0.864,-1.738 1.899,-3.67 0.834,-1.415 1.884,-2.768 3.151,-4.055 2.532,-2.317 5.526,-4.119 8.979,-5.408 z" /><path
     style="fill:#003a37"
     inkscape:connector-curvature="0"
     id="path486"
     d="m 402.012,241.38 c 0,-0.128 -0.086,-0.29 -0.259,-0.484 -0.172,-0.192 -0.317,-0.288 -0.432,-0.288 -0.115,-0.129 -0.288,-0.194 -0.518,-0.194 -1.151,0 -2.245,0.386 -3.281,1.158 h 1.467 c 0.749,0 1.295,0.066 1.641,0.194 0.345,0.128 0.632,0.192 0.863,0.192 0.346,-0.031 0.519,-0.224 0.519,-0.578 z" /><path
     style="fill:#003a37"
     inkscape:connector-curvature="0"
     id="path488"
     d="m 402.185,256.058 c 0,-0.098 -0.115,-0.162 -0.345,-0.194 l -0.863,0.386 c -0.115,0 -0.345,0.194 -0.691,0.58 -0.201,0.514 -0.604,1.416 -1.208,2.703 l 2.072,-2.316 c 0.46,-0.386 0.748,-0.645 0.863,-0.772 z" /><path
     style="fill:#003a37"
     inkscape:connector-curvature="0"
     id="path490"
     d="m 404.084,257.602 c 0,-0.128 -0.116,-0.29 -0.345,-0.482 -0.231,-0.194 -0.461,-0.29 -0.691,-0.29 -0.576,0.128 -0.979,0.45 -1.209,0.966 -0.72,0.9 -1.065,2.317 -1.036,4.247 0,0.612 0.058,1.256 0.173,1.932 0.23,-0.806 0.518,-1.642 0.863,-2.51 0.432,-1.158 0.777,-1.932 1.037,-2.318 0.115,-0.128 0.23,-0.288 0.345,-0.482 0.115,-0.194 0.23,-0.354 0.345,-0.482 0.346,-0.259 0.518,-0.452 0.518,-0.581 z" /><path
     style="fill:#003a37"
     inkscape:connector-curvature="0"
     id="path492"
     d="m 405.811,247.56 c -0.202,-0.386 -0.72,-0.58 -1.554,-0.58 -1.151,0 -1.727,0.194 -1.727,0.58 0,0.096 0.087,0.217 0.26,0.363 0.172,0.145 0.259,0.281 0.259,0.41 0.115,0.258 0.173,0.58 0.173,0.966 v 0.772 c 0,0.128 -0.029,0.322 -0.087,0.58 -0.058,0.258 -0.086,0.45 -0.086,0.578 v 0.194 0.192 c 0.115,0.098 0.173,0.29 0.173,0.58 0,0.128 -0.029,0.29 -0.087,0.482 -0.058,0.194 -0.086,0.356 -0.086,0.484 v 0.772 0.578 0.194 0.192 0.29 0.484 0.386 0.579 l 0.173,-0.192 1.036,-1.158 0.519,-0.388 c 0,0.13 0.115,0.194 0.345,0.194 0.23,0 0.345,-0.194 0.345,-0.58 0,-0.256 -0.029,-0.61 -0.086,-1.062 -0.058,-0.45 -0.086,-0.804 -0.086,-1.063 v -0.192 l 0.086,-0.194 c 0.057,-0.127 0.086,-0.256 0.086,-0.386 v -1.496 c 0,-0.804 0.043,-1.401 0.13,-1.787 l 0.129,-0.192 c 0.058,-0.128 0.086,-0.258 0.086,-0.388 v -0.192 z" /><path
     style="fill:#003a37"
     inkscape:connector-curvature="0"
     id="path494"
     d="m 406.156,240.8 c -0.69,0.482 -1.266,0.935 -1.727,1.353 -0.345,0.386 -0.59,0.579 -0.733,0.579 v 1.16 c -0.087,0.127 -0.13,0.258 -0.13,0.386 v 0.386 0.386 h -0.172 c -0.116,0.128 -0.173,0.258 -0.173,0.386 0,0.096 0.057,0.226 0.173,0.386 0.114,0.386 0.345,0.58 0.69,0.58 h 0.518 c 0.23,0 0.46,-0.064 0.691,-0.194 l 0.518,-0.192 c 0.23,-0.258 0.345,-0.45 0.345,-0.58 l -0.172,-0.194 v -0.965 c 0,-1.03 0.057,-1.933 0.172,-2.705 0,-0.096 0.029,-0.184 0.087,-0.264 0.057,-0.081 0.086,-0.186 0.086,-0.314 0,-0.128 -0.058,-0.194 -0.173,-0.194 z" /><path
     style="fill:#003a37"
     inkscape:connector-curvature="0"
     id="path496"
     d="m 406.674,234.427 c -0.115,0 -0.345,0.065 -0.69,0.194 h -0.518 c -0.46,0 -0.749,0.064 -0.864,0.192 l -0.172,0.966 c -0.116,1.063 -0.288,2.221 -0.518,3.477 0,0.096 -0.036,0.282 -0.108,0.555 -0.072,0.273 -0.107,0.476 -0.107,0.604 v 0.482 0.484 0.192 h 0.388 c 0.345,-0.224 0.849,-0.676 1.511,-1.352 l 0.388,-0.192 0.345,-0.194 v -0.964 c 0.114,-0.386 0.201,-0.804 0.259,-1.256 0.057,-0.45 0.086,-0.74 0.086,-0.868 v -0.58 c 0,-0.256 0.057,-0.45 0.172,-0.58 l 0.173,-0.386 c 10e-4,-0.516 -0.114,-0.774 -0.345,-0.774 z" /><path
     style="fill:#003a37"
     inkscape:connector-curvature="0"
     id="path498"
     d="m 407.883,223.226 h -0.173 c -0.115,0 -0.172,-0.064 -0.172,-0.194 -0.547,0.13 -1.008,0.29 -1.382,0.484 -0.374,0.192 -0.561,0.482 -0.561,0.868 l 0.129,0.194 0.086,0.192 v 0.194 c -0.115,0.354 -0.23,0.999 -0.345,1.931 -0.23,1.771 -0.403,3.187 -0.518,4.249 v 0.58 0.578 c -0.116,0.386 -0.173,0.693 -0.173,0.917 v 0.243 0.192 c 0.23,0.13 0.403,0.258 0.518,0.386 h 0.518 c 0.95,0 1.468,-0.192 1.554,-0.578 l -0.172,-0.58 v -0.194 -0.386 c 0,-0.128 -0.029,-0.29 -0.087,-0.482 -0.058,-0.194 -0.086,-0.354 -0.086,-0.482 0,-1.03 0.23,-2.962 0.69,-5.795 v -0.337 -0.339 -0.192 c 0,-0.064 0.058,-0.16 0.173,-0.29 l 0.345,-0.386 c 0.002,-0.129 -0.114,-0.387 -0.344,-0.773 z" /><path
     style="fill:#003a37"
     inkscape:connector-curvature="0"
     id="path500"
     d="m 407.02,257.216 -0.259,-0.194 c -0.172,-0.128 -0.317,-0.256 -0.432,-0.386 h -0.733 c -0.547,0 -0.82,0.065 -0.82,0.194 l 0.173,0.192 v 0.194 l -0.173,0.192 v 0.194 c 0,0.482 0.173,0.804 0.518,0.966 0.114,0.128 0.258,0.258 0.431,0.386 0.173,0.127 0.316,0.257 0.432,0.386 l 0.345,0.192 c 0.23,0.13 0.403,0.258 0.519,0.388 0.115,0.224 0.287,0.61 0.518,1.158 0.23,0.515 0.402,0.901 0.518,1.158 l 0.863,2.705 h 0.173 v -0.966 c -0.001,-3.219 -0.692,-5.471 -2.073,-6.759 z" /><path
     style="fill:#003a37"
     inkscape:connector-curvature="0"
     id="path502"
     d="m 412.373,259.727 c -0.46,-1.19 -1.036,-2.157 -1.727,-2.896 0,-0.128 -0.288,-0.515 -0.863,-1.158 -0.432,-0.645 -0.777,-0.967 -1.036,-0.967 l -0.346,0.096 -0.345,0.096 -0.172,-0.192 h -0.087 c -0.058,0 -0.144,0.032 -0.258,0.096 l -0.173,0.096 c -0.345,0.13 -0.519,0.452 -0.519,0.966 0,0.484 0.231,0.742 0.691,0.772 h 0.086 0.172 c 0.058,0 0.202,0.065 0.432,0.194 0.46,0.128 1.266,0.772 2.417,1.93 0.114,0 0.345,0.162 0.691,0.484 0.345,0.322 0.632,0.61 0.863,0.869 l 0.345,0.386 c 0.001,-0.16 -0.057,-0.418 -0.171,-0.772 z" /><path
     style="fill:#003a37"
     inkscape:connector-curvature="0"
     id="path504"
     d="m 408.747,242.539 c -0.346,-0.258 -0.576,-0.386 -0.691,-0.386 -0.23,-0.128 -0.576,-0.194 -1.036,-0.194 0.115,0.258 0.23,0.58 0.345,0.966 0,0.128 0.058,0.258 0.173,0.386 0.115,0.129 0.172,0.258 0.172,0.386 0.46,0.515 0.805,0.772 1.036,0.772 0.316,0 0.546,-0.192 0.691,-0.578 0.115,-0.128 0.173,-0.258 0.173,-0.386 -0.029,-0.258 -0.317,-0.58 -0.863,-0.966 z" /><path
     style="fill:#003a37"
     inkscape:connector-curvature="0"
     id="path506"
     d="m 414.1,243.505 c -0.115,0 -0.288,-0.162 -0.518,-0.484 -0.23,-0.32 -0.404,-0.547 -0.519,-0.677 -0.431,-0.386 -0.776,-0.706 -1.036,-0.964 -0.921,-0.804 -1.727,-1.32 -2.417,-1.546 -0.317,-0.128 -0.605,-0.192 -0.864,-0.192 -0.231,0 -0.461,0.064 -0.691,0.192 -0.345,0.13 -0.518,0.386 -0.518,0.774 0,0.128 0.172,0.322 0.518,0.578 0.23,0.13 0.575,0.258 1.037,0.386 0.46,0.13 0.748,0.194 0.863,0.194 0.346,0.096 1.727,0.677 4.145,1.739 z" /></g></svg>