<?xml version="1.0" encoding="UTF-8" standalone="no"?>
<!-- Generator: Adobe Illustrator 16.0.0, SVG Export Plug-In . SVG Version: 6.00 Build 0)  -->

<svg
   xmlns:dc="http://purl.org/dc/elements/1.1/"
   xmlns:cc="http://creativecommons.org/ns#"
   xmlns:rdf="http://www.w3.org/1999/02/22-rdf-syntax-ns#"
   xmlns:svg="http://www.w3.org/2000/svg"
   xmlns="http://www.w3.org/2000/svg"
   xmlns:sodipodi="http://sodipodi.sourceforge.net/DTD/sodipodi-0.dtd"
   xmlns:inkscape="http://www.inkscape.org/namespaces/inkscape"
   version="1.1"
   id="图层_1"
   x="0px"
   y="0px"
   width="139.76401"
   height="200"
   viewBox="0 0 139.764 200"
   enable-background="new 0 0 714 341"
   xml:space="preserve"
   sodipodi:docname="0506蘭.svg"
   inkscape:version="0.92.3 (2405546, 2018-03-11)"><metadata
   id="metadata621"><rdf:RDF><cc:Work
       rdf:about=""><dc:format>image/svg+xml</dc:format><dc:type
         rdf:resource="http://purl.org/dc/dcmitype/StillImage" /><dc:title /></cc:Work></rdf:RDF></metadata><defs
   id="defs619" /><sodipodi:namedview
   pagecolor="#ffffff"
   bordercolor="#666666"
   borderopacity="1"
   objecttolerance="10"
   gridtolerance="10"
   guidetolerance="10"
   inkscape:pageopacity="0"
   inkscape:pageshadow="2"
   inkscape:window-width="1366"
   inkscape:window-height="705"
   id="namedview617"
   showgrid="false"
   inkscape:zoom="1"
   inkscape:cx="44.50334"
   inkscape:cy="112.60966"
   inkscape:window-x="-8"
   inkscape:window-y="-8"
   inkscape:window-maximized="1"
   inkscape:current-layer="图层_1" />



















































































































































































































































































































<g
   transform="matrix(4.0331525,0,0,4.0331525,-1362.9273,-881.46968)"
   id="g2151"><path
     inkscape:connector-curvature="0"
     id="path436"
     d="m 372.583,222.14 v 42.42 c 0,0.995 -0.349,1.842 -1.045,2.539 -0.697,0.696 -1.544,1.046 -2.54,1.046 h -27.483 c -0.996,0 -1.842,-0.35 -2.539,-1.046 -0.697,-0.697 -1.045,-1.544 -1.045,-2.539 v -42.42 c 0,-0.994 0.348,-1.842 1.045,-2.539 0.697,-0.696 1.543,-1.045 2.539,-1.045 h 27.483 c 0.996,0 1.842,0.349 2.54,1.045 0.696,0.697 1.045,1.545 1.045,2.539 z m -3.585,-1.792 h -27.483 c -0.518,0 -0.946,0.17 -1.284,0.508 -0.339,0.339 -0.508,0.767 -0.508,1.284 v 42.42 c 0,0.518 0.169,0.945 0.508,1.285 0.338,0.338 0.766,0.508 1.284,0.508 h 27.483 c 0.518,0 0.946,-0.17 1.285,-0.508 0.338,-0.34 0.508,-0.768 0.508,-1.285 v -42.42 c 0,-0.518 -0.17,-0.945 -0.508,-1.284 -0.339,-0.338 -0.767,-0.508 -1.285,-0.508 z" /><path
     style="fill:#3b67e2"
     inkscape:connector-curvature="0"
     id="path438"
     d="m 348.099,258.038 c -0.114,-0.235 -0.285,-0.47 -0.512,-0.706 h -0.17 c -0.085,0 -0.143,-0.059 -0.171,-0.177 l 0.086,-0.088 c 0.028,-0.059 0.114,-0.117 0.256,-0.177 l 0.17,-0.088 c 0.228,-0.117 0.399,-0.235 0.514,-0.354 H 348.1 c -0.114,0 -0.228,-0.029 -0.342,-0.087 -0.114,-0.059 -0.199,-0.09 -0.256,-0.09 -0.057,0 -0.143,0.06 -0.256,0.177 h -0.341 c -0.456,0.118 -0.683,0.412 -0.683,0.883 0,0.324 0.227,0.618 0.683,0.881 h -0.17 l 0.17,0.177 -0.17,0.088 -0.171,0.087 c -0.341,0.119 -0.513,0.398 -0.513,0.838 v 0.397 0.353 0.176 h -0.171 -0.171 l -0.213,-0.176 c -0.314,-0.117 -0.527,-0.367 -0.641,-0.75 -0.113,0 -0.17,-0.16 -0.17,-0.485 v -0.175 c 0.114,-0.47 0.455,-1 1.024,-1.589 0.114,0 0.171,-0.117 0.171,-0.353 l 0.855,-0.883 c 0,-0.117 -0.171,-0.175 -0.512,-0.175 -0.456,0 -0.798,0.175 -1.025,0.528 -0.228,0.118 -0.342,0.353 -0.342,0.708 0,0.235 0.114,0.353 0.342,0.353 h 0.171 -0.171 c 0,0.117 -0.114,0.236 -0.342,0.353 -0.34,0.235 -0.569,0.353 -0.682,0.353 H 344 h -0.171 -0.512 c 0.113,-0.235 0.17,-0.412 0.17,-0.53 0.086,-0.117 0.129,-0.234 0.129,-0.353 0,-0.117 -0.043,-0.294 -0.129,-0.53 -0.228,-0.353 -0.455,-0.528 -0.683,-0.528 l -0.17,-0.178 0.513,-0.175 0.17,-0.177 c 0.199,0 0.37,0.061 0.512,0.177 h 0.257 0.17 0.341 0.598 0.512 c 0,-0.089 -0.07,-0.148 -0.213,-0.177 -1.139,-0.234 -1.864,-0.587 -2.178,-1.058 -0.228,-0.236 -0.341,-0.412 -0.341,-0.531 0,-0.117 0.028,-0.292 0.085,-0.528 0.057,-0.235 0.085,-0.412 0.085,-0.529 v -0.175 -0.178 h 0.47 l 0.384,0.178 c 0.569,0.235 1.024,0.469 1.366,0.705 l 0.128,0.176 c -0.314,-0.971 -0.869,-1.616 -1.666,-1.941 -0.313,-0.117 -0.619,-0.176 -0.917,-0.176 -0.3,0 -0.506,0.176 -0.619,0.529 l 0.085,0.177 0.086,0.177 c 0,0.117 -0.086,0.354 -0.257,0.705 -0.17,0.353 -0.256,0.574 -0.256,0.662 0,0.353 0.057,0.662 0.171,0.927 0,0.117 0.057,0.206 0.17,0.264 0.113,0.06 0.228,0.148 0.341,0.265 h -0.17 -0.257 -0.084 c -0.428,0.236 -0.655,0.472 -0.684,0.706 v 0.178 c 0.113,0.235 0.17,0.411 0.17,0.528 0.114,0 0.228,0.06 0.342,0.177 l 0.171,0.177 c -0.2,0.558 -0.315,0.97 -0.342,1.234 0,0.119 0.057,0.294 0.171,0.53 0.114,0.235 0.398,0.413 0.854,0.53 0.114,0 0.314,-0.059 0.599,-0.177 0.284,-0.117 0.483,-0.177 0.598,-0.177 v 0.177 l -0.171,0.177 c 0,0.558 0.286,1.087 0.854,1.587 l 0.342,0.354 c 0.228,0.087 0.569,0.138 1.024,0.154 0.455,0.015 0.74,-0.154 0.854,-0.508 0.228,-0.118 0.341,-0.411 0.341,-0.881 l -0.17,-0.178 v -0.176 c 0,-0.117 0.028,-0.191 0.085,-0.222 h 0.299 0.128 c 0.113,0 0.17,-0.043 0.17,-0.131 h 0.171 c 0.343,-0.236 0.513,-0.471 0.513,-0.708 0.002,-0.117 -0.112,-0.292 -0.34,-0.528 z" /><path
     style="fill:#3b67e2"
     inkscape:connector-curvature="0"
     id="path440"
     d="m 355.273,247.979 h -0.342 -0.086 -0.085 -0.214 c -0.199,0 -0.356,-0.059 -0.469,-0.177 h -0.684 c -1.139,0.118 -2.163,0.766 -3.074,1.941 0.797,-0.587 1.765,-0.881 2.904,-0.881 h 0.255 0.427 c 0.428,0 0.712,0.118 0.854,0.353 v 0.353 c -0.114,0.236 -0.228,0.412 -0.342,0.528 -0.456,0.472 -0.854,0.824 -1.195,1.061 -0.315,0.235 -0.883,0.352 -1.708,0.352 -0.427,0 -0.883,-0.058 -1.367,-0.177 l 0.171,0.177 h 0.171 -0.171 c -0.114,0.118 -0.114,0.294 0,0.529 l 0.342,0.354 v 0.175 0.178 0.175 0.176 h -0.17 -0.684 c -0.228,0 -0.47,0.176 -0.726,0.529 l -0.128,0.132 c 0,0.119 -0.058,0.192 -0.17,0.22 h -0.17 c 0,-0.117 -0.058,-0.191 -0.171,-0.22 -0.114,0 -0.256,0.037 -0.427,0.111 -0.171,0.074 -0.371,0.109 -0.598,0.109 l -0.171,-0.22 c 0.428,-0.205 0.711,-0.425 0.854,-0.662 l 0.172,-0.176 c 0.113,0.118 0.227,0.176 0.341,0.176 0.227,0 0.384,-0.235 0.469,-0.705 l 0.384,-0.354 v -0.176 l 0.171,-0.177 -0.341,-0.176 c -0.314,0 -0.599,0.176 -0.854,0.529 l -0.17,0.354 c -0.115,0 -0.229,-0.06 -0.343,-0.177 -0.114,0 -0.171,-0.059 -0.171,-0.177 0.228,0 0.399,-0.059 0.514,-0.176 l 0.17,-0.177 h 0.171 l -1.196,-0.353 c -0.797,-0.353 -1.252,-0.587 -1.367,-0.706 -0.342,-0.234 -0.526,-0.765 -0.555,-1.589 v -0.706 c 0,-0.323 0.071,-0.499 0.213,-0.529 0.114,0.118 0.228,0.177 0.342,0.177 l 0.513,0.132 v 0.308 0.265 l 0.171,0.53 c 0.426,0.56 1.337,1.207 2.732,1.942 v -0.177 c -1.024,-0.706 -1.651,-1.412 -1.878,-2.117 -0.114,-0.236 -0.17,-0.485 -0.17,-0.75 0,-0.941 0.455,-1.691 1.366,-2.25 0.113,-0.118 0.369,-0.265 0.769,-0.442 0.397,-0.175 0.654,-0.323 0.768,-0.44 0.228,-0.117 0.342,-0.236 0.342,-0.353 l -0.17,-0.178 c -0.228,-0.088 -0.457,-0.146 -0.684,-0.176 h -0.171 c -0.341,0.088 -0.741,0.264 -1.195,0.529 -0.912,0.588 -1.481,1.236 -1.708,1.941 0,0.119 -0.058,0.236 -0.171,0.353 h -0.513 l -0.342,0.178 -0.084,0.175 c -0.058,0.118 -0.143,0.176 -0.256,0.176 -0.229,0 -0.456,0.118 -0.684,0.354 -0.228,0.207 -0.341,0.5 -0.341,0.883 0,0.353 0.056,0.647 0.171,0.881 0,0.206 0.057,0.501 0.17,0.883 l 0.342,0.177 c 0.228,0.354 0.569,0.589 1.024,0.706 0.115,0 0.285,0.059 0.513,0.176 -0.341,0.118 -0.513,0.294 -0.513,0.53 0,0.235 0.115,0.412 0.342,0.53 0.228,0 0.342,0.058 0.342,0.175 -0.569,0.353 -0.855,0.706 -0.855,1.058 v 0.354 l 0.171,0.177 c 0.228,0.353 0.455,0.53 0.684,0.53 0.113,0 0.312,-0.03 0.598,-0.09 0.285,-0.058 0.483,-0.087 0.597,-0.087 l 0.171,0.177 h 0.427 0.427 c 0.314,0 0.599,-0.177 0.854,-0.53 v -0.177 c 0.113,-0.118 0.228,-0.176 0.342,-0.176 h 0.171 0.598 c 0.028,0 0.085,-0.059 0.171,-0.178 l 0.086,-0.22 0.17,-0.132 c 0.113,-0.118 0.171,-0.234 0.171,-0.353 v -0.265 -0.088 -0.175 c 0.113,-0.118 0.171,-0.237 0.171,-0.354 l -0.171,-0.354 c 0.113,0 0.313,0.031 0.598,0.089 0.285,0.058 0.54,0.088 0.769,0.088 0.568,0 1.124,-0.294 1.665,-0.883 0.711,-0.587 1.125,-1.117 1.238,-1.588 v -0.529 c -0.002,-0.616 -0.173,-1.027 -0.514,-1.233 z" /><path
     style="fill:#870000"
     inkscape:connector-curvature="0"
     id="path442"
     d="m 345.198,225.458 c 0.359,0.24 0.539,0.418 0.539,0.539 l -0.179,1.255 h 0.179 0.18 c -0.988,1.318 -1.766,1.975 -2.334,1.975 l -0.179,-0.179 -0.179,1.794 0.179,3.052 c -0.119,0.33 -0.24,0.509 -0.358,0.538 -0.359,0 -0.66,-0.418 -0.898,-1.256 l 0.359,-3.95 v -1.616 l -0.224,-1.435 0.224,-0.179 c 0.36,0 0.658,0.299 0.897,0.896 0.569,-0.208 1.047,-0.329 1.436,-0.359 l -0.179,-0.537 -1.256,0.537 -0.179,-0.358 v -0.179 c -0.002,-0.12 0.655,-0.298 1.972,-0.538 z m 2.513,-3.052 h 0.179 c 1.077,0.24 1.616,0.418 1.616,0.538 l -0.18,0.359 v 0.18 l 1.257,-0.18 c 0.748,0.121 1.106,0.299 1.077,0.539 v 0.181 c 0,0.119 -0.121,0.178 -0.36,0.178 h -2.154 -0.359 c -0.838,0.718 -1.496,1.077 -1.975,1.077 h -0.18 l 1.078,-1.077 v -0.178 l -2.154,0.537 v 0.18 c 0,0.329 -0.12,0.569 -0.359,0.718 h -0.36 l -0.359,-0.718 c -0.329,0.21 -0.688,0.329 -1.077,0.359 -0.119,0 -0.419,-0.24 -0.897,-0.718 h 0.36 l 1.391,-0.18 -0.135,-1.077 h 0.135 l 0.942,0.718 c 0,-0.119 0.119,-0.24 0.359,-0.359 v 0.359 c 1.645,-0.119 2.468,-0.299 2.468,-0.539 v -0.179 h 0.225 z m -3.949,5.744 v -0.18 l 0.359,-0.537 h -0.718 v 0.358 0.54 c 0.837,-0.119 1.256,-0.42 1.256,-0.898 v -0.181 z m 6.821,-3.231 c 0.748,0.12 1.106,0.358 1.077,0.717 l -0.18,1.796 0.359,7.179 c 0,0.121 -0.179,0.301 -0.539,0.539 h -0.179 c -0.599,-0.238 -1.196,-0.658 -1.795,-1.256 v -0.18 l 1.077,0.18 c 0.119,0 0.18,-0.239 0.18,-0.718 v -5.026 h -1.257 -0.18 l -0.359,-0.18 c 0,0.45 -0.12,0.69 -0.359,0.72 l -0.179,-0.54 -1.257,0.54 v 0.358 l 1.436,-0.18 c 0.599,0.121 0.898,0.358 0.898,0.717 v 0.359 c 0,0.45 -0.359,1.048 -1.077,1.796 l -0.897,-0.181 h -0.36 v 0.181 c 1.556,0.358 2.334,0.898 2.334,1.615 l -0.18,0.179 c -0.24,0 -0.897,-0.373 -1.974,-1.122 h -0.181 l 0.181,1.661 c 0,0.329 -0.121,0.509 -0.36,0.538 -0.449,0 -0.988,-0.419 -1.615,-1.256 v -0.18 h 0.18 l 0.897,0.359 v -1.257 c -0.958,0.838 -1.856,1.257 -2.693,1.257 v -0.179 -0.18 c 0.359,0 0.897,-0.359 1.616,-1.077 -0.36,0 -0.673,-0.898 -0.942,-2.692 l 0.224,-0.18 0.54,0.359 c 0.837,-0.119 1.256,-0.238 1.256,-0.359 v -0.179 h -0.539 l 0.18,-0.18 c -0.6,0 -0.897,-0.06 -0.897,-0.179 0.119,-0.211 0.539,-0.389 1.256,-0.54 l -0.359,-1.257 h 0.179 c 0.718,0 1.078,0.3 1.078,0.898 h 0.179 0.538 l 0.135,-2.155 0.225,-0.179 c 0.239,0 0.478,0.24 0.718,0.718 l 1.033,-0.179 c 0.359,0 0.553,0.059 0.583,0.179 v 0.18 c -0.449,0.448 -0.868,0.688 -1.257,0.718 v -0.404 h -0.539 v 0.763 h 1.616 0.18 v -1.436 c 0,-0.24 -0.12,-0.42 -0.359,-0.539 H 350 l -1.033,0.359 h -0.18 l -0.359,-0.359 v -0.18 z m -5.205,5.025 h -0.18 l 0.359,1.257 0.718,-0.179 v -0.358 h -0.18 c -0.358,0 -0.538,-0.06 -0.538,-0.181 v -0.179 l 0.718,-0.18 v -0.181 h -0.897 z m 1.615,-0.359 v 0.18 l 0.181,-0.18 h 0.538 l 0.179,0.359 c 0,0.121 -0.239,0.42 -0.717,0.898 h 0.359 c 0.119,0 0.358,-0.478 0.718,-1.436 -0.839,0.001 -1.258,0.061 -1.258,0.179 z" /><path
     style="fill:#00082d"
     inkscape:connector-curvature="0"
     id="path444"
     d="m 350.383,261.92 c -0.384,-0.235 -0.698,-0.442 -0.939,-0.618 -0.242,-0.177 -0.463,-0.442 -0.662,-0.795 0,-0.234 -0.057,-0.353 -0.17,-0.353 -0.228,0.353 -0.341,0.706 -0.341,1.06 v 0.175 c 0,0.471 0.17,0.883 0.512,1.236 0.113,0.233 0.342,0.411 0.683,0.528 0.455,0.206 1.082,0.315 1.879,0.331 0.797,0.016 1.538,-0.095 2.221,-0.331 -0.115,0 -0.456,-0.088 -1.025,-0.264 -0.57,-0.178 -0.976,-0.324 -1.218,-0.442 -0.243,-0.115 -0.555,-0.291 -0.94,-0.527 z" /><path
     style="fill:#00082d"
     inkscape:connector-curvature="0"
     id="path446"
     d="m 350.96,258.391 c 0,-0.236 -0.043,-0.941 -0.129,-2.119 h -0.17 c -0.456,0.236 -0.741,0.648 -0.854,1.236 v 0.177 c 0,0.589 0.228,1.117 0.684,1.588 0.113,0.088 0.626,0.441 1.537,1.058 -0.598,-0.94 -0.955,-1.587 -1.068,-1.94 z" /><path
     style="fill:#3b67e2"
     inkscape:connector-curvature="0"
     id="path448"
     d="m 352.198,246.743 c -0.228,-0.323 -0.456,-0.558 -0.683,-0.705 l -0.171,-0.088 -0.17,-0.088 c -0.115,-0.118 -0.2,-0.293 -0.257,-0.53 l -0.085,-0.353 c -0.113,0.235 -0.17,0.411 -0.17,0.528 0,0.236 0.142,0.5 0.427,0.795 0.285,0.294 0.427,0.676 0.427,1.146 v 0.353 l -0.171,0.177 c -0.114,0.088 -0.242,0.207 -0.384,0.353 v 0.178 0.175 c 0.113,0 0.24,-0.059 0.384,-0.175 l 0.342,-0.178 c 0.341,-0.205 0.512,-0.558 0.512,-1.058 v -0.53 z" /><path
     style="fill:#00082d"
     inkscape:connector-curvature="0"
     id="path450"
     d="m 353.052,253.625 c -0.427,0.206 -0.712,0.383 -0.854,0.53 -0.228,0.353 -0.342,0.941 -0.342,1.764 0,0.971 0.342,1.912 1.026,2.825 l 0.085,0.087 0.085,0.088 c -0.2,-0.47 -0.314,-1.117 -0.342,-1.939 0,-0.854 0.057,-1.56 0.171,-2.118 0.113,-0.236 0.198,-0.5 0.255,-0.794 l 0.086,-0.442 h -0.17 z" /><path
     style="fill:#00082d"
     inkscape:connector-curvature="0"
     id="path452"
     d="m 357.664,234.037 c -0.712,-0.47 -1.338,-0.705 -1.879,-0.705 h -0.17 c -0.341,0 -0.74,0.06 -1.196,0.177 -0.114,0 -0.313,0.029 -0.597,0.088 l -0.428,0.087 -0.341,0.177 h 0.171 c 0.825,0.236 1.451,0.589 1.878,1.059 0.91,0.559 1.352,1.265 1.324,2.119 0.113,0.117 0.185,0.236 0.213,0.353 0,0.588 -0.285,1.353 -0.854,2.294 -0.455,0.588 -0.683,1.176 -0.683,1.764 -0.228,0.706 -0.341,1.588 -0.341,2.647 0,0.706 0.057,1.411 0.171,2.118 0.455,-1.647 0.91,-3.118 1.366,-4.412 0.313,-0.735 0.541,-1.146 0.683,-1.236 0,-0.117 0.085,-0.235 0.256,-0.353 0.17,-0.117 0.256,-0.234 0.256,-0.354 0.91,-0.822 1.366,-1.764 1.366,-2.822 0,-1.177 -0.399,-2.177 -1.195,-3.001 z" /><path
     style="fill:#00082d"
     inkscape:connector-curvature="0"
     id="path454"
     d="m 367.742,234.39 c 0.455,1.06 0.683,2.236 0.683,3.53 0,0.472 -0.058,0.824 -0.172,1.059 -0.228,1.648 -0.682,2.942 -1.366,3.882 -0.569,0.971 -1.423,1.912 -2.562,2.824 -0.542,0.559 -2.477,2.089 -5.807,4.588 -0.427,0.353 -0.883,0.825 -1.367,1.412 -1.367,1.617 -2.107,3.442 -2.22,5.471 -0.114,0.706 -0.171,1.178 -0.171,1.411 0,1.06 0.171,2.235 0.513,3.53 0,-3.412 0.854,-6.294 2.562,-8.647 0.541,-0.97 1.11,-1.618 1.708,-1.941 0.114,-0.117 0.313,-0.293 0.598,-0.529 0.285,-0.234 0.483,-0.353 0.597,-0.353 l 1.366,-1.059 c 2.619,-2.029 4.498,-3.794 5.638,-5.294 0.568,-0.735 0.854,-1.147 0.854,-1.235 0.427,-0.942 0.711,-2 0.854,-3.177 v -0.353 c -10e-4,-1.677 -0.571,-3.383 -1.708,-5.119 z" /><path
     style="fill:#00082d"
     inkscape:connector-curvature="0"
     id="path456"
     d="m 364.325,235.097 c -0.114,-1.382 -0.626,-2.737 -1.538,-4.061 -0.797,-1.087 -1.765,-1.912 -2.903,-2.469 -1.366,-0.825 -2.676,-1.353 -3.929,-1.589 0.684,0.44 1.139,0.793 1.368,1.059 0.341,0.235 0.796,0.588 1.366,1.058 l 1.196,1.413 c 1.024,0.823 1.693,1.764 2.007,2.823 0.113,0.235 0.185,0.941 0.212,2.118 v 0.354 c 0,1.175 -0.284,2.411 -0.853,3.705 -0.712,0.941 -1.453,1.883 -2.22,2.824 -0.684,0.823 -1.31,1.824 -1.879,3 -0.683,1.647 -1.367,4.119 -2.05,7.413 v 0.528 -0.176 c 0.91,-1.765 2.05,-4.176 3.417,-7.235 l 1.024,-1.765 c 0.114,-0.234 0.342,-0.499 0.684,-0.793 0.341,-0.294 0.568,-0.501 0.683,-0.618 1.708,-1.734 2.733,-3.441 3.075,-5.118 0.226,-0.559 0.34,-1.383 0.34,-2.471 z" /><path
     style="fill:#00082d"
     inkscape:connector-curvature="0"
     id="path458"
     d="m 369.791,253.978 c 0,-0.117 -0.029,-0.25 -0.086,-0.396 l -0.084,-0.132 v -0.529 c 0,-0.234 -0.058,-0.47 -0.172,-0.706 -0.683,-0.707 -1.479,-1.176 -2.392,-1.412 -0.455,-0.117 -0.853,-0.177 -1.195,-0.177 -0.541,0 -1.224,0.119 -2.049,0.353 -1.254,0.471 -2.733,1.471 -4.44,2.999 -1.595,1.53 -2.577,3.119 -2.947,4.766 -0.084,0.56 -0.128,1.323 -0.128,2.294 0,1.411 0.171,2.883 0.513,4.411 0,-1.618 0.17,-3.265 0.512,-4.941 0.455,-1.764 0.967,-3 1.536,-3.705 l 1.367,-1.411 c 0.939,-0.971 1.964,-1.735 3.074,-2.295 0.911,-0.47 1.637,-0.705 2.177,-0.705 h 0.214 c 0.711,0 1.224,0.235 1.537,0.705 0.085,0 0.171,0.088 0.257,0.264 l 0.085,0.266 c 0.227,0.325 0.341,0.559 0.341,0.706 v 0.177 c 0,0.735 -0.284,1.323 -0.854,1.764 -0.569,0.588 -1.479,1.236 -2.732,1.941 v 0.177 c 0.114,0 0.227,-0.058 0.341,-0.177 1.794,-0.353 3.103,-0.999 3.929,-1.941 0.427,-0.44 0.769,-0.91 1.025,-1.411 l 0.084,-0.353 0.086,-0.353 v -0.179 z" /><path
     style="fill:#00082d"
     inkscape:connector-curvature="0"
     id="path460"
     d="m 363.129,257.685 h -0.853 c -0.542,0 -1.054,0.059 -1.538,0.176 -1.68,0.853 -2.761,2.795 -3.245,5.823 1.252,-1.999 2.676,-3.588 4.27,-4.765 0.684,-0.47 1.31,-0.823 1.879,-1.058 h -0.17 l -0.171,-0.088 z" /></g></svg>