<?xml version="1.0" encoding="UTF-8" standalone="no"?>
<!-- Generator: Adobe Illustrator 16.0.0, SVG Export Plug-In . SVG Version: 6.00 Build 0)  -->

<svg
   xmlns:dc="http://purl.org/dc/elements/1.1/"
   xmlns:cc="http://creativecommons.org/ns#"
   xmlns:rdf="http://www.w3.org/1999/02/22-rdf-syntax-ns#"
   xmlns:svg="http://www.w3.org/2000/svg"
   xmlns="http://www.w3.org/2000/svg"
   xmlns:sodipodi="http://sodipodi.sourceforge.net/DTD/sodipodi-0.dtd"
   xmlns:inkscape="http://www.inkscape.org/namespaces/inkscape"
   version="1.1"
   id="图层_1"
   x="0px"
   y="0px"
   width="139.76401"
   height="200"
   viewBox="0 0 139.764 200"
   enable-background="new 0 0 714 341"
   xml:space="preserve"
   sodipodi:docname="0507菊.svg"
   inkscape:version="0.92.3 (2405546, 2018-03-11)"><metadata
   id="metadata621"><rdf:RDF><cc:Work
       rdf:about=""><dc:format>image/svg+xml</dc:format><dc:type
         rdf:resource="http://purl.org/dc/dcmitype/StillImage" /><dc:title /></cc:Work></rdf:RDF></metadata><defs
   id="defs619" /><sodipodi:namedview
   pagecolor="#ffffff"
   bordercolor="#666666"
   borderopacity="1"
   objecttolerance="10"
   gridtolerance="10"
   guidetolerance="10"
   inkscape:pageopacity="0"
   inkscape:pageshadow="2"
   inkscape:window-width="1366"
   inkscape:window-height="705"
   id="namedview617"
   showgrid="false"
   inkscape:zoom="1"
   inkscape:cx="-126.99666"
   inkscape:cy="112.60966"
   inkscape:window-x="-8"
   inkscape:window-y="-8"
   inkscape:window-maximized="1"
   inkscape:current-layer="图层_1" />



















































































































































































































































































































<g
   transform="matrix(4.0331525,0,0,4.0331525,-1719.228,-881.46968)"
   id="g2194"><path
     inkscape:connector-curvature="0"
     id="path508"
     d="m 460.926,222.14 v 42.42 c 0,0.995 -0.349,1.842 -1.045,2.539 -0.697,0.696 -1.544,1.046 -2.54,1.046 h -27.483 c -0.996,0 -1.842,-0.35 -2.539,-1.046 -0.697,-0.697 -1.045,-1.544 -1.045,-2.539 v -42.42 c 0,-0.994 0.348,-1.842 1.045,-2.539 0.697,-0.696 1.543,-1.045 2.539,-1.045 h 27.483 c 0.996,0 1.842,0.349 2.54,1.045 0.696,0.697 1.045,1.545 1.045,2.539 z m -3.585,-1.792 h -27.483 c -0.518,0 -0.946,0.17 -1.284,0.508 -0.339,0.339 -0.508,0.767 -0.508,1.284 v 42.42 c 0,0.518 0.169,0.945 0.508,1.285 0.338,0.338 0.766,0.508 1.284,0.508 h 27.483 c 0.518,0 0.946,-0.17 1.285,-0.508 0.338,-0.34 0.508,-0.768 0.508,-1.285 v -42.42 c 0,-0.518 -0.17,-0.945 -0.508,-1.284 -0.339,-0.338 -0.767,-0.508 -1.285,-0.508 z" /><path
     style="fill:#00082d"
     inkscape:connector-curvature="0"
     id="path510"
     d="m 435.074,249.267 c 0,-0.123 -0.088,-0.217 -0.263,-0.28 l -0.263,-0.092 c -0.117,-0.249 -0.263,-0.467 -0.438,-0.652 -0.175,-0.188 -0.35,-0.342 -0.525,-0.467 -0.175,-0.124 -0.322,-0.186 -0.438,-0.186 h -0.175 -0.088 -0.087 c -0.351,0.218 -0.525,0.403 -0.525,0.559 v 0.186 l -0.175,0.187 v 0.186 0.187 c 0,0.249 0.175,0.558 0.525,0.931 l 0.35,0.374 c 0.117,0.124 0.466,0.25 1.051,0.373 h 0.263 0.438 0.176 0.175 c 0.321,-0.249 0.497,-0.498 0.525,-0.747 -0.03,-0.125 -0.205,-0.31 -0.526,-0.559 z" /><path
     style="fill:#00082d"
     inkscape:connector-curvature="0"
     id="path512"
     d="m 441.558,256.162 c -0.116,-0.249 -0.292,-0.56 -0.525,-0.932 -0.322,-0.373 -0.848,-0.622 -1.577,-0.745 l -0.175,-0.187 h -0.219 c 0.35,-0.248 0.89,-0.559 1.621,-0.931 0,-0.124 0.028,-0.187 0.087,-0.187 0.058,0 0.116,-0.032 0.175,-0.093 0.058,-0.062 0.087,-0.155 0.087,-0.28 -0.205,0 -0.38,0.063 -0.526,0.188 -1.167,0.868 -2.161,1.613 -2.979,2.235 l -0.087,0.092 c -0.059,0.063 -0.162,0.095 -0.307,0.095 l -0.132,0.185 c -0.117,-0.124 -0.175,-0.309 -0.175,-0.558 -0.234,-0.249 -0.525,-0.498 -0.876,-0.746 -0.234,0 -0.41,-0.063 -0.525,-0.186 l -0.088,-0.233 -0.088,-0.328 c -0.234,-0.62 -0.832,-0.93 -1.796,-0.93 -0.322,0 -0.541,0.062 -0.657,0.186 l -0.525,0.56 c -0.35,0.342 -0.526,0.551 -0.526,0.627 0,0.078 0.029,0.148 0.088,0.21 0.058,0.063 0.088,0.156 0.088,0.28 v 0.092 0.28 l 0.35,0.373 -0.35,0.187 h -0.176 c -0.117,0 -0.234,0.092 -0.351,0.278 -0.117,0.187 -0.233,0.28 -0.35,0.28 h -0.526 c -0.35,0.125 -0.759,0.498 -1.227,1.118 -0.117,0 -0.175,0.063 -0.175,0.187 v 0.325 c -0.117,0.125 -0.234,0.328 -0.351,0.607 0.233,0.622 0.642,0.931 1.227,0.931 h 0.175 c 0.116,-0.124 0.204,-0.186 0.262,-0.186 0.058,0 0.146,0.093 0.263,0.28 l 0.175,0.279 c 0.233,0 0.525,-0.187 0.876,-0.56 0.117,-0.123 0.176,-0.249 0.176,-0.372 v -0.188 c 0,-0.123 0.028,-0.247 0.087,-0.373 0.058,-0.124 0.204,-0.224 0.438,-0.302 0.233,-0.077 0.378,-0.118 0.438,-0.118 0.06,0 0.118,-0.045 0.176,-0.138 l 0.088,-0.188 h 0.876 0.526 0.351 c 0,0.125 -0.118,0.233 -0.351,0.325 -0.467,0.375 -0.832,0.577 -1.095,0.607 h -0.131 -0.175 -0.175 c -0.468,0 -0.875,0.186 -1.227,0.559 v 0.187 c -0.205,0.124 -0.321,0.311 -0.351,0.56 l -0.174,0.186 h 0.174 c -0.117,0.125 -0.292,0.187 -0.525,0.187 -0.234,0.124 -0.41,0.372 -0.526,0.745 -0.117,0.124 -0.175,0.248 -0.175,0.374 0,0.123 0.058,0.247 0.175,0.372 0.116,0 0.175,0.062 0.175,0.185 l -0.175,0.375 c -0.117,0 -0.175,0.123 -0.175,0.372 0,0.496 0.35,0.868 1.051,1.118 0.116,0.093 0.291,0.14 0.525,0.14 0.352,-0.095 0.526,-0.389 0.526,-0.885 v -0.187 -0.186 l 0.351,-0.187 0.175,-0.093 c 0.117,-0.063 0.233,-0.156 0.351,-0.28 0,-0.093 0.058,-0.341 0.175,-0.744 0.321,-0.995 0.613,-1.616 0.876,-1.865 l 0.701,-0.745 0.087,-0.186 0.088,-0.187 c 0.116,-0.247 0.233,-0.387 0.351,-0.42 v 1.073 c 0,0.56 -0.118,1.088 -0.351,1.584 0,0.124 -0.059,0.311 -0.175,0.559 -0.118,0.249 -0.176,0.434 -0.176,0.56 0,0.124 0.087,0.311 0.263,0.56 0.175,0.247 0.38,0.372 0.613,0.372 0.116,0 0.351,-0.063 0.702,-0.187 0.116,-0.124 0.292,-0.373 0.525,-0.745 0.204,-0.372 0.307,-0.622 0.307,-0.746 0,-0.123 -0.045,-0.249 -0.132,-0.373 l -0.088,-0.094 c -0.058,-0.062 -0.087,-0.124 -0.087,-0.186 0,-0.063 0.029,-0.124 0.087,-0.187 l 0.088,-0.093 0.132,-0.186 v -0.187 l -0.307,-1.118 c 0,-0.249 -0.117,-0.45 -0.351,-0.607 l -0.526,-0.512 c 0,-0.124 0.175,-0.247 0.526,-0.373 l 0.351,-0.372 0.307,0.187 0.394,0.185 c 0.233,0.249 0.351,0.624 0.351,1.119 l -0.175,0.186 v 0.56 0.745 l -0.087,0.141 c -0.059,0.124 -0.088,0.263 -0.088,0.419 0,0.249 0.175,0.434 0.526,0.558 0.116,0 0.204,-0.03 0.263,-0.092 0.059,-0.062 0.117,-0.093 0.176,-0.093 0.058,0 0.088,0.032 0.088,0.093 v 0.092 l 0.351,-0.373 v -0.185 c 0.32,-0.342 0.496,-0.714 0.525,-1.119 0,-0.62 -0.35,-1.242 -1.052,-1.863 -0.234,-0.372 -0.525,-0.621 -0.876,-0.745 l -0.175,-0.187 0.35,-0.558 c 0.467,-0.25 0.759,-0.435 0.877,-0.56 l 0.351,-0.372 c 0.087,0 0.262,0.249 0.525,0.745 v 0.559 0.186 0.187 c 0,0.124 0.087,0.218 0.263,0.28 0.175,0.062 0.262,0.217 0.262,0.465 l -0.262,0.28 c -0.176,0.185 -0.263,0.325 -0.263,0.417 0,0.125 0.116,0.288 0.35,0.49 0.233,0.203 0.467,0.302 0.701,0.302 h 0.176 c 0.321,-0.247 0.554,-0.619 0.701,-1.118 0.115,-0.249 0.174,-0.497 0.174,-0.745 v -0.369 z m -8.937,-0.932 c 0.116,0 0.175,-0.063 0.175,-0.186 0.351,-0.125 0.876,-0.187 1.578,-0.187 h 0.175 c 0.934,0 1.577,0.249 1.928,0.745 h 0.176 c 0,0.093 -0.03,0.148 -0.088,0.163 -0.059,0.016 -0.087,0.056 -0.087,0.117 v 0.093 c 0,0.125 -0.116,0.249 -0.351,0.373 -0.234,0.125 -0.351,0.249 -0.351,0.372 l -0.087,-0.185 -0.088,-0.187 h -0.525 c -0.117,0 -0.263,0.032 -0.438,0.094 l -0.262,0.093 h -0.175 c -0.117,0 -0.176,-0.062 -0.176,-0.187 v -0.186 c -0.117,-0.249 -0.234,-0.434 -0.351,-0.56 -0.117,0 -0.248,-0.031 -0.394,-0.093 l -0.131,-0.092 c -0.117,0 -0.175,-0.031 -0.175,-0.095 0,-0.062 -0.059,-0.092 -0.175,-0.092 z" /><path
     style="fill:#870000"
     inkscape:connector-curvature="0"
     id="path514"
     d="m 436.431,221.551 h 0.723 c 0.361,0 0.602,0.12 0.723,0.362 l -0.181,0.542 h 1.266 c 0.873,0.242 1.294,0.541 1.264,0.902 l -0.18,0.182 -2.71,-0.361 c -0.452,0.843 -1.235,1.445 -2.349,1.806 0.752,-0.963 1.113,-1.565 1.083,-1.806 -1.083,0.241 -1.625,0.421 -1.625,0.541 -0.121,0.874 -0.242,1.295 -0.362,1.265 h -0.361 c -0.121,0 -0.302,-0.361 -0.542,-1.083 -0.452,0.241 -0.814,0.361 -1.084,0.361 h -0.361 c -0.361,-0.241 -0.618,-0.481 -0.769,-0.723 l 0.226,-0.182 0.542,0.182 1.445,-0.361 v -1.085 -0.179 c 0.602,0.602 0.903,0.964 0.903,1.083 l 0.181,-0.36 h 0.181 v 0.36 c 1.445,-0.239 2.168,-0.48 2.168,-0.722 v -0.361 l -0.181,-0.182 z m -3.478,2.89 c 0.241,0.483 0.376,0.784 0.406,0.904 v 0.542 c 1.807,-0.331 3.132,-0.513 3.976,-0.542 h 1.084 c 1.325,0.09 1.988,0.573 1.988,1.445 -0.482,5.06 -1.265,7.589 -2.35,7.589 -0.752,0 -1.475,-0.663 -2.167,-1.988 h 0.18 c 0.451,0.241 0.934,0.423 1.445,0.542 0.753,0 1.355,-1.868 1.807,-5.602 0,-0.994 -0.422,-1.475 -1.266,-1.445 h -0.542 c -1.686,0 -2.529,0.12 -2.529,0.361 v 0.181 c 0.361,0.121 0.542,0.361 0.542,0.724 l 0.362,-0.363 v -0.18 l -0.181,-0.181 0.181,-0.181 h 0.542 c 0.572,0.12 0.874,0.242 0.904,0.362 v 0.18 c -0.573,0.452 -1.175,0.814 -1.807,1.085 v 0.18 l 1.446,-0.18 c 0.24,0 0.481,0.18 0.722,0.541 0,0.122 -0.783,0.242 -2.349,0.362 v 0.724 c 0,0.12 0.542,0.302 1.626,0.542 0.481,0.122 0.903,0.423 1.265,0.904 v 0.18 l -0.182,0.135 h -0.542 c -0.121,0 -0.843,-0.286 -2.168,-0.858 v 1.265 c 0,0.994 -0.121,1.477 -0.361,1.446 h -0.181 c -0.361,-0.24 -0.542,-0.602 -0.542,-1.084 l 0.181,-1.806 v -0.182 c -1.085,0.964 -1.868,1.446 -2.349,1.446 h -0.904 v -0.227 c 0.873,-0.09 1.717,-0.737 2.53,-1.942 l -1.626,0.543 c -0.242,-0.331 -0.361,-0.633 -0.361,-0.904 v -0.182 l 0.361,0.182 c 0.481,0 1.264,-0.361 2.349,-1.084 v -0.543 c 0,-0.481 -0.061,-0.722 -0.181,-0.722 -0.753,0.12 -1.717,0.603 -2.891,1.445 -0.122,0 -0.256,-0.3 -0.407,-0.902 0.602,-0.241 1.266,-1.146 1.989,-2.712 z m 0,2.712 h 0.226 l 0.18,0.361 0.723,-0.361 v 0.179 c -0.361,0.845 -0.738,1.266 -1.129,1.266 l -0.135,-0.542 v -0.361 z" /><path
     style="fill:#00082d"
     inkscape:connector-curvature="0"
     id="path516"
     d="m 439.805,249.825 c 0,-0.216 -0.175,-0.465 -0.525,-0.746 h -0.219 c 0,-0.123 -0.044,-0.185 -0.131,-0.185 -0.117,-0.124 -0.176,-0.56 -0.176,-1.305 0,-0.124 0.029,-0.25 0.087,-0.373 0.059,-0.124 0.088,-0.25 0.088,-0.373 0,-0.124 -0.059,-0.311 -0.176,-0.56 -0.234,-0.994 -0.935,-1.49 -2.103,-1.49 h -0.176 c -0.584,0.123 -0.994,0.249 -1.227,0.373 l -0.526,0.373 c -0.467,0.465 -0.701,0.901 -0.701,1.305 0,0.249 0.292,0.684 0.877,1.304 0.233,0.249 0.526,0.497 0.875,0.746 l 0.088,0.092 c 0.058,0.063 0.175,0.125 0.35,0.188 l 0.263,0.092 0.526,0.373 1.578,0.559 c 0.321,0.124 0.554,0.186 0.701,0.186 h 0.175 c 0.235,-0.123 0.352,-0.31 0.352,-0.559 z" /><path
     style="fill:#00082d"
     inkscape:connector-curvature="0"
     id="path518"
     d="m 438.93,252.248 c -0.235,-0.373 -0.41,-0.574 -0.527,-0.605 h -0.262 c -0.175,0 -0.292,-0.023 -0.35,-0.07 -0.059,-0.046 -0.088,-0.101 -0.088,-0.163 0,-0.062 -0.059,-0.154 -0.175,-0.28 -0.233,-0.247 -0.525,-0.373 -0.875,-0.373 -0.468,0 -0.819,0.187 -1.052,0.559 v 0.093 c 0,0.062 -0.117,0.14 -0.35,0.233 -0.234,0.373 -0.35,0.638 -0.35,0.792 0,0.124 0.058,0.311 0.175,0.561 0.205,0.249 0.497,0.434 0.876,0.557 h 0.175 c 0.117,0 0.314,-0.03 0.592,-0.092 0.277,-0.062 0.488,-0.092 0.635,-0.092 h 0.525 c 0,0.123 0.058,0.249 0.175,0.372 0.116,0.124 0.233,0.186 0.35,0.186 0.117,0 0.234,-0.063 0.351,-0.186 l 0.263,-0.28 c 0.146,-0.187 0.22,-0.341 0.22,-0.465 -0.002,-0.124 -0.105,-0.373 -0.308,-0.747 z" /><path
     style="fill:#00082d"
     inkscape:connector-curvature="0"
     id="path520"
     d="m 456.455,235.663 c 0.351,-0.248 0.525,-0.559 0.525,-0.93 v -0.561 c -0.234,-0.465 -0.525,-0.837 -0.876,-1.118 h -0.351 c -0.234,0 -0.584,0.233 -1.051,0.698 -0.556,0.778 -0.848,1.414 -0.876,1.911 v 0.373 0.374 0.373 c -0.117,0.373 -0.41,0.683 -0.876,0.93 l -0.701,0.373 0.176,-0.746 c 0.233,-1.118 0.35,-2.174 0.35,-3.168 v -0.42 -0.139 -0.373 c 0.818,-0.373 1.461,-0.745 1.929,-1.117 0.583,-0.465 0.978,-1.087 1.183,-1.863 v -0.187 -0.28 c 0,-0.062 0.065,-0.155 0.197,-0.278 0.131,-0.124 0.255,-0.187 0.373,-0.187 0.116,-0.25 0.175,-0.435 0.175,-0.56 0,-0.124 -0.117,-0.373 -0.351,-0.745 l -0.175,-0.233 c -0.117,-0.093 -0.19,-0.202 -0.219,-0.326 -0.087,-0.123 -0.19,-0.311 -0.307,-0.56 -0.117,-0.249 -0.234,-0.435 -0.35,-0.56 l -0.263,-0.092 c -0.176,-0.062 -0.322,-0.093 -0.438,-0.093 -0.35,0 -0.701,0.185 -1.051,0.558 -0.351,0.498 -0.526,0.933 -0.526,1.305 0,0.249 0.058,0.436 0.175,0.559 l 0.088,0.28 0.087,0.278 v 0.187 0.187 0.185 l 0.176,0.188 c 0.116,0.123 0.175,0.249 0.175,0.373 l -0.088,0.092 -0.087,0.093 c 0.116,0.125 0.234,0.279 0.351,0.467 l 0.131,0.278 v 0.187 0.372 c -0.087,0.342 -0.481,0.776 -1.183,1.305 v -0.187 c 0,-0.123 -0.058,-0.185 -0.174,-0.185 -0.234,-1.367 -0.876,-2.795 -1.928,-4.287 l -0.176,-0.186 c 0,-0.124 0.058,-0.187 0.176,-0.187 h 0.174 c 0.351,-0.124 0.644,-0.373 0.877,-0.746 0.233,-0.247 0.409,-0.56 0.525,-0.933 0,-0.588 -0.117,-1.086 -0.35,-1.49 -0.234,-0.496 -0.468,-0.745 -0.701,-0.745 -0.235,-0.124 -0.468,-0.188 -0.701,-0.188 h -0.35 l -0.176,0.188 h -0.175 l -0.174,-0.093 -0.175,-0.094 h -0.176 c -0.234,0 -0.409,0.188 -0.526,0.56 l 0.526,0.56 c 0.117,0.124 0.314,0.279 0.592,0.466 0.277,0.186 0.482,0.372 0.613,0.559 0.131,0.186 0.255,0.403 0.372,0.651 0,0.249 -0.117,0.607 -0.35,1.072 0,0.125 -0.073,0.201 -0.219,0.233 -0.088,-0.216 -0.366,-0.527 -0.832,-0.931 l -0.352,-0.375 c 0,-0.124 0.029,-0.216 0.088,-0.278 l 0.087,-0.095 c 0,-0.247 -0.175,-0.558 -0.526,-0.93 l -0.393,-0.188 c -0.088,0 -0.132,-0.123 -0.132,-0.372 l -0.263,-0.279 c -0.059,-0.062 -0.146,-0.093 -0.263,-0.093 -0.117,-0.249 -0.234,-0.434 -0.35,-0.56 -0.352,-0.217 -0.819,-0.34 -1.402,-0.373 h -0.263 -0.438 c 0,0.125 -0.059,0.187 -0.175,0.187 -0.235,0 -0.468,0.063 -0.702,0.186 -0.234,0.249 -0.351,0.436 -0.351,0.56 0,0.124 0.176,0.373 0.525,0.745 v 0.373 c 0.322,0.343 0.672,0.591 1.053,0.745 l 0.087,-0.092 c 0.058,-0.062 0.146,-0.093 0.263,-0.093 0.116,0 0.291,0.063 0.525,0.185 l 0.525,0.56 c 0.117,0.125 0.263,0.188 0.438,0.188 h 0.263 c 1.051,0 1.753,0.185 2.103,0.558 0.117,0 0.204,0.093 0.263,0.28 0.058,0.187 0.131,0.28 0.219,0.28 0.964,1.367 1.621,2.671 1.971,3.913 0.233,0.901 0.351,1.445 0.351,1.629 v 0.42 c 0,0.25 -0.059,0.684 -0.175,1.305 -0.701,2.952 -1.812,5.249 -3.331,6.895 -0.234,0.249 -0.351,0.435 -0.351,0.558 l 0.176,0.187 h 0.088 c 0.059,0 0.146,-0.092 0.262,-0.279 0.117,-0.186 0.234,-0.28 0.352,-0.28 1.051,-1.118 1.81,-2.297 2.278,-3.54 0,-0.373 0.116,-0.622 0.35,-0.746 h 0.351 c 0.729,0 1.314,-0.062 1.752,-0.187 l 0.175,-0.093 c 0.117,-0.062 0.233,-0.092 0.351,-0.092 h 0.175 0.351 c 0.233,-0.094 0.467,-0.216 0.701,-0.373 0.233,-0.124 0.351,-0.559 0.351,-1.305 v -0.187 -0.185 -0.186 z" /><path
     style="fill:#00082d"
     inkscape:connector-curvature="0"
     id="path522"
     d="m 450.671,237.34 c 0,-0.496 -0.351,-0.745 -1.051,-0.745 h -0.527 c -0.234,0 -0.482,-0.062 -0.744,-0.186 -0.323,-0.125 -0.833,-0.188 -1.535,-0.188 h -0.35 c -0.35,0 -0.643,0.062 -0.875,0.188 -0.585,0.373 -0.936,0.684 -1.053,0.931 l -0.175,0.187 c 0,0.124 0.059,0.311 0.175,0.559 l 0.351,0.187 0.176,0.186 -0.088,0.28 c -0.059,0.187 -0.088,0.343 -0.088,0.467 l 0.176,0.185 v 0.187 c 0.233,0.093 0.408,0.218 0.526,0.373 h 0.525 c 0.321,0 0.613,-0.078 0.875,-0.232 0.117,-0.094 0.204,-0.202 0.263,-0.327 0.059,-0.124 0.146,-0.185 0.263,-0.185 h 0.351 c 0.32,-0.249 0.554,-0.56 0.701,-0.933 V 237.9 h 0.175 c 0.585,-0.216 0.993,-0.342 1.227,-0.373 h 0.176 l 0.218,0.186 0.132,0.188 c 0.117,-0.25 0.176,-0.436 0.176,-0.561 z" /><path
     style="fill:#00082d"
     inkscape:connector-curvature="0"
     id="path524"
     d="m 449.97,229.7 c 0.117,0.093 0.219,0.157 0.307,0.188 l -0.131,-0.188 c -0.584,-1.366 -1.403,-2.049 -2.454,-2.049 h -0.175 c -1.168,0.093 -1.87,0.403 -2.103,0.932 -0.117,0.249 -0.176,0.435 -0.176,0.559 0,0.374 0.117,0.685 0.351,0.932 0.233,0.373 0.525,0.683 0.875,0.932 l 0.35,0.186 c 0.233,0 0.468,-0.124 0.702,-0.373 0.233,-0.124 0.466,-0.372 0.701,-0.745 l 0.132,-0.558 h 0.744 0.701 z" /><path
     style="fill:#00082d"
     inkscape:connector-curvature="0"
     id="path526"
     d="m 451.547,233.055 c -0.234,-0.775 -0.585,-1.273 -1.051,-1.49 -0.438,-0.498 -1.198,-0.747 -2.278,-0.747 -0.351,0 -0.701,0.063 -1.052,0.188 -0.438,0.249 -0.73,0.56 -0.876,0.932 -0.117,0.25 -0.175,0.435 -0.175,0.559 0,0.125 0.028,0.249 0.087,0.372 l 0.087,0.187 v 0.186 0.188 c 0,0.591 0.409,1.025 1.227,1.305 0.233,0.124 0.409,0.185 0.525,0.185 0.438,0 0.964,-0.185 1.578,-0.559 l 0.262,-0.187 c 0.175,-0.124 0.321,-0.224 0.438,-0.302 0.117,-0.077 0.292,-0.118 0.525,-0.118 0.351,0 0.818,0.204 1.402,0.607 -0.115,-0.125 -0.348,-0.561 -0.699,-1.306 z" /><path
     style="fill:#00082d"
     inkscape:connector-curvature="0"
     id="path528"
     d="m 449.97,257.092 c -0.35,-0.496 -0.701,-0.745 -1.051,-0.745 h -0.176 c -0.116,0 -0.262,0.063 -0.437,0.187 -0.176,0.124 -0.323,0.248 -0.438,0.372 h -0.351 c -0.117,0 -0.263,0.031 -0.438,0.093 l -0.264,0.093 c -0.117,0 -0.234,0.125 -0.35,0.375 -0.117,0.249 -0.175,0.403 -0.175,0.465 v 0.279 0.373 c 0.117,0.372 0.292,0.558 0.525,0.558 l 0.175,0.187 c 0.234,0 0.41,-0.062 0.526,-0.187 0.351,-0.247 0.584,-0.434 0.701,-0.558 v -0.28 -0.093 c 0.204,-0.249 0.438,-0.373 0.701,-0.373 0.467,0 0.817,-0.123 1.051,-0.372 v -0.188 c 0.117,0.125 0.219,0.188 0.307,0.188 0.351,0.216 0.598,0.341 0.744,0.372 0.117,0 0.176,-0.078 0.176,-0.234 0.35,-0.092 0.526,-0.261 0.526,-0.512 l -0.176,-0.186 c -0.234,-0.248 -0.526,-0.372 -0.875,-0.372 -0.118,0 -0.249,0.062 -0.395,0.185 l -0.131,0.187 z" /><path
     style="fill:#00082d"
     inkscape:connector-curvature="0"
     id="path530"
     d="m 449.445,258.211 c -0.235,0 -0.469,0.124 -0.702,0.373 l -0.525,0.558 -0.088,0.234 -0.087,0.326 h -0.175 -0.175 l -0.175,0.187 -0.175,0.185 c -0.118,0.125 -0.234,0.437 -0.352,0.933 -0.117,0.123 -0.175,0.247 -0.175,0.372 h 0.175 c 0,0.341 0.117,0.589 0.352,0.745 0.233,0.124 0.408,0.187 0.525,0.187 0.233,-0.125 0.394,-0.311 0.482,-0.56 v -0.372 -0.372 h 0.218 v 0.185 c 0.466,-0.124 0.701,-0.372 0.701,-0.745 l -0.087,-0.186 -0.088,-0.187 c 0,-0.124 0.059,-0.247 0.175,-0.372 0,-0.093 0.088,-0.21 0.263,-0.35 0.175,-0.14 0.263,-0.271 0.263,-0.396 0.117,0 0.175,-0.062 0.175,-0.187 0,-0.372 -0.176,-0.558 -0.525,-0.558 z" /><path
     style="fill:#00082d"
     inkscape:connector-curvature="0"
     id="path532"
     d="m 452.424,262.125 c 0,-0.124 -0.03,-0.218 -0.088,-0.28 -0.059,-0.062 -0.087,-0.154 -0.087,-0.28 v -0.185 -0.372 c 0,-0.125 -0.117,-0.435 -0.35,-0.933 l -0.175,-0.185 -0.176,-0.187 -0.175,-0.186 c -0.117,0 -0.204,-0.03 -0.262,-0.094 -0.059,-0.062 -0.117,-0.154 -0.175,-0.28 -0.059,-0.124 -0.147,-0.247 -0.263,-0.372 h -0.176 l -0.219,-0.186 -0.131,-0.373 -0.176,0.373 v 0.186 l 0.088,0.187 0.088,0.186 c 0.087,0.344 0.131,0.653 0.131,0.932 l -0.131,0.373 c -0.117,0.373 -0.176,0.622 -0.176,0.745 v 0.188 c 0.117,0 0.263,0.093 0.438,0.279 0.176,0.186 0.264,0.342 0.264,0.466 0,0.124 -0.03,0.217 -0.087,0.28 -0.059,0.062 -0.088,0.154 -0.088,0.28 v 0.186 c 0,0.373 0.233,0.604 0.701,0.699 h 0.35 c 0.438,-0.217 0.729,-0.576 0.877,-1.072 v -0.375 z" /><path
     style="fill:#00082d"
     inkscape:connector-curvature="0"
     id="path534"
     d="m 452.599,243.025 c 0,-0.062 -0.059,-0.156 -0.175,-0.28 -0.117,-0.124 -0.206,-0.187 -0.263,-0.187 -0.059,0 -0.117,0.063 -0.175,0.187 l -0.087,0.186 h -0.175 l -0.176,0.095 -0.175,0.092 v 0.373 l -0.175,0.188 c 0,0.092 -0.059,0.178 -0.176,0.255 -0.117,0.078 -0.204,0.148 -0.262,0.21 -0.059,0.061 -0.146,0.092 -0.263,0.092 0.964,-0.124 1.49,-0.185 1.578,-0.185 0.087,-0.124 0.203,-0.311 0.351,-0.56 0.116,-0.123 0.175,-0.249 0.175,-0.373 v -0.093 z" /><path
     style="fill:#00082d"
     inkscape:connector-curvature="0"
     id="path536"
     d="m 454.352,258.957 -0.175,-0.187 c -0.117,-0.124 -0.234,-0.186 -0.351,-0.186 -0.117,-0.249 -0.234,-0.435 -0.351,-0.56 -0.117,-0.124 -0.235,-0.186 -0.351,-0.186 l -0.175,0.186 h -0.176 -0.174 -0.175 -0.176 c -0.205,0 -0.431,-0.031 -0.679,-0.092 -0.249,-0.062 -0.431,-0.093 -0.548,-0.093 -0.35,0.124 -0.525,0.25 -0.525,0.373 l 0.176,0.093 c 0.116,0.062 0.204,0.125 0.263,0.188 0.058,0.062 0.117,0.186 0.175,0.373 l 0.087,0.278 0.35,0.374 h 0.351 0.219 0.307 0.263 c 0.059,0 0.117,0.031 0.176,0.093 0.058,0.062 0.087,0.156 0.087,0.28 0.233,0.249 0.467,0.372 0.701,0.372 0.554,0 0.846,-0.249 0.876,-0.745 -10e-4,-0.126 -0.059,-0.312 -0.175,-0.561 z" /><path
     style="fill:#00082d"
     inkscape:connector-curvature="0"
     id="path538"
     d="m 448.743,255.23 c -0.234,-0.248 -0.467,-0.373 -0.701,-0.373 h -0.263 -0.087 -0.175 c 0,0.125 -0.088,0.249 -0.263,0.373 -0.175,0.125 -0.263,0.249 -0.263,0.372 0,0.218 0.176,0.404 0.526,0.56 h 0.175 0.087 c 0.058,0 0.116,-0.03 0.175,-0.093 l 0.175,-0.187 c 0.058,-0.062 0.088,-0.154 0.088,-0.28 0.351,-0.123 0.526,-0.247 0.526,-0.372 z" /><path
     style="fill:#e07f00"
     inkscape:connector-curvature="0"
     id="path540"
     d="m 447.517,248.335 -0.351,-0.186 h -0.351 c -0.117,0.124 -0.292,0.186 -0.525,0.186 -0.234,0 -0.409,0.063 -0.526,0.187 l -0.263,0.186 -0.263,0.187 h -0.57 c -0.204,0 -0.307,-0.124 -0.307,-0.373 0,-0.124 0.029,-0.249 0.088,-0.373 0.058,-0.123 0.087,-0.248 0.087,-0.374 0,-0.217 -0.059,-0.34 -0.175,-0.373 l -0.351,-0.373 c -0.117,0 -0.292,0.125 -0.525,0.373 l -0.35,0.373 c -0.234,0.374 -0.365,0.808 -0.395,1.304 v 0.373 l -0.132,-0.186 h -0.174 c -0.118,0 -0.176,-0.062 -0.176,-0.187 -0.117,0 -0.175,-0.093 -0.175,-0.28 0,-0.186 0.059,-0.34 0.175,-0.465 v -0.186 c 0,-0.59 -0.117,-1.024 -0.35,-1.304 l -1.051,-0.373 c -0.468,0.124 -0.76,0.496 -0.877,1.118 l -0.175,0.373 -0.175,0.373 v 0.187 c 0,0.249 0.175,0.558 0.526,0.931 0.467,0.343 0.876,0.528 1.227,0.56 h 0.875 l 0.176,0.187 0.306,-0.187 c 0.117,-0.124 0.219,-0.187 0.307,-0.187 h 0.088 l 0.175,0.187 c 0.351,0.249 0.701,0.372 1.051,0.372 0.205,0 0.497,-0.186 0.876,-0.559 l 0.351,-0.373 c 0.583,-0.373 0.934,-0.62 1.051,-0.745 h 0.35 c 0.353,-0.125 0.528,-0.248 0.528,-0.373 z m 0,1.118 c 0,-0.248 -0.117,-0.373 -0.351,-0.373 v 0.187 c -0.351,0.25 -0.936,0.684 -1.752,1.305 -0.936,0.497 -1.695,0.745 -2.278,0.745 h -0.395 v -0.094 -0.093 c -0.087,-0.247 -0.249,-0.373 -0.482,-0.373 -0.117,0 -0.292,0.063 -0.526,0.187 -0.35,0.124 -0.525,0.311 -0.525,0.558 0,0.095 0.028,0.18 0.087,0.257 0.058,0.078 0.116,0.116 0.175,0.116 0.058,0 0.087,0.063 0.087,0.187 l 0.351,0.56 c 0.116,0.249 0.395,0.435 0.832,0.559 h 0.57 c 0.73,0 1.431,-0.373 2.104,-1.118 0.729,-0.465 1.255,-1.025 1.576,-1.678 0.352,-0.404 0.527,-0.715 0.527,-0.932 z m -3.506,-3.913 c 0,-0.249 -0.087,-0.435 -0.263,-0.56 -0.175,-0.124 -0.321,-0.185 -0.438,-0.185 -0.438,0.123 -0.73,0.311 -0.876,0.558 v 0.187 0.14 c -0.118,0.249 -0.176,0.451 -0.176,0.605 0,0.373 0.117,0.683 0.35,0.932 l 0.527,0.186 c 0.233,0 0.35,-0.063 0.35,-0.186 l -0.175,-0.187 v -0.186 c 0,-0.124 0.059,-0.311 0.175,-0.56 0,-0.124 0.087,-0.256 0.263,-0.396 0.176,-0.138 0.263,-0.256 0.263,-0.348 z m 2.454,2.05 c -0.234,-0.124 -0.409,-0.311 -0.525,-0.56 -0.117,-0.247 -0.176,-0.497 -0.176,-0.745 v -0.185 -0.187 -0.233 c 0,-0.092 -0.029,-0.17 -0.087,-0.233 -0.059,-0.062 -0.146,-0.094 -0.262,-0.094 h -0.176 -0.175 c -0.117,0.125 -0.293,0.374 -0.527,0.747 v 0.373 0.373 c 0.088,0.249 0.205,0.373 0.351,0.373 0.234,0.465 0.584,0.714 1.052,0.745 h 0.35 0.175 v 0.187 l 0.175,-0.374 -0.087,-0.138 z m 0.35,-4.286 c -0.321,-0.249 -0.554,-0.374 -0.7,-0.374 -0.584,0 -0.993,0.311 -1.228,0.932 v 0.56 c 0,0.373 0.059,0.558 0.176,0.558 l 0.351,-0.185 c 0.35,-0.373 0.642,-0.56 0.875,-0.56 h 0.175 0.175 l 0.35,-0.373 c 0.001,-0.123 -0.057,-0.308 -0.174,-0.558 z m 1.227,1.863 c -0.117,-0.25 -0.292,-0.435 -0.525,-0.56 h -0.351 -0.176 l -0.525,0.746 c -0.117,0.218 -0.175,0.466 -0.175,0.747 0,0.496 0.059,0.868 0.175,1.118 0.204,0.341 0.438,0.528 0.701,0.558 l 0.351,-0.186 c 0,-0.124 -0.059,-0.28 -0.175,-0.465 l -0.176,-0.28 c 0,-0.373 0.117,-0.622 0.351,-0.745 l 0.087,-0.187 0.088,-0.233 c 0,-0.092 0.058,-0.202 0.175,-0.327 z m 0.876,4.658 c 0,-0.216 -0.059,-0.465 -0.176,-0.746 l -0.175,-0.185 c -0.117,-0.124 -0.218,-0.187 -0.307,-0.187 h -0.043 c -0.351,0.372 -0.585,0.932 -0.701,1.677 0,0.499 -0.117,0.995 -0.351,1.491 -0.118,0.125 -0.234,0.28 -0.351,0.467 -0.117,0.186 -0.234,0.342 -0.35,0.465 -0.117,0.125 -0.175,0.373 -0.175,0.745 v 0.188 c 0.117,0.496 0.351,0.746 0.701,0.746 l 0.702,-0.373 c 0.438,-0.25 0.729,-0.561 0.876,-0.932 0.116,-0.124 0.233,-0.684 0.351,-1.678 v -0.279 -0.651 -0.28 -0.468 z m 0.876,-4.145 c -0.116,-0.342 -0.292,-0.512 -0.526,-0.512 -0.35,0.124 -0.701,0.373 -1.051,0.745 -0.235,0.498 -0.351,0.871 -0.351,1.118 0,0.125 0.058,0.249 0.175,0.373 0.117,0.218 0.219,0.343 0.308,0.373 0.115,0 0.247,-0.062 0.393,-0.186 0.73,-0.622 1.081,-1.179 1.052,-1.677 z m 0.176,2.842 -0.175,-0.187 h 0.175 -0.175 c 0.701,-0.124 1.167,-0.309 1.402,-0.56 0.233,-0.34 0.35,-0.774 0.35,-1.303 -0.117,-0.373 -0.35,-0.56 -0.701,-0.56 h -0.174 c -0.234,0.125 -0.41,0.31 -0.526,0.56 v 0.186 0.373 c -0.117,0.249 -0.41,0.498 -0.877,0.745 -0.35,0.125 -0.526,0.251 -0.526,0.374 0,0.124 0.058,0.186 0.176,0.186 h 0.175 0.527 l -0.175,0.187 h 0.175 v 0.186 c 0.554,0.498 1.197,0.745 1.927,0.745 h 0.176 0.175 0.35 v 0.187 h 0.525 0.702 0.175 c -0.234,0.218 -0.351,0.465 -0.351,0.745 v 0.281 0.279 0.186 l -0.175,0.187 c 0,0.124 -0.234,0.186 -0.701,0.186 -0.206,0 -0.438,-0.062 -0.701,-0.186 l -0.088,-0.187 -0.088,-0.186 c -0.467,-0.622 -0.76,-0.932 -0.875,-0.932 -0.234,-0.217 -0.468,-0.342 -0.702,-0.373 l -0.175,0.186 c 0,0.374 0.117,0.559 0.351,0.559 0,0.125 0.043,0.311 0.131,0.56 0,0.124 0.131,0.435 0.395,0.931 0.116,0.498 0.35,0.809 0.7,0.932 0.118,0 0.351,0.063 0.702,0.188 0.554,0.249 1.022,0.373 1.402,0.373 0.116,0 0.226,-0.032 0.328,-0.095 0.103,-0.062 0.219,-0.154 0.351,-0.278 0.131,-0.124 0.255,-0.188 0.372,-0.188 l 0.176,-0.093 0.175,-0.093 c 0.467,-0.249 0.701,-0.574 0.701,-0.979 0,-0.093 -0.087,-0.233 -0.262,-0.42 -0.175,-0.186 -0.264,-0.31 -0.264,-0.373 0,-0.063 -0.028,-0.248 -0.087,-0.558 -0.059,-0.311 -0.088,-0.528 -0.088,-0.652 -0.118,-0.124 -0.292,-0.187 -0.525,-0.187 h -0.175 -0.22 l 0.22,-0.186 c 0.233,-0.123 0.35,-0.248 0.35,-0.372 0,-0.249 -0.117,-0.497 -0.35,-0.746 -0.117,-0.123 -0.292,-0.187 -0.526,-0.187 h -0.175 l -0.351,0.373 v 0.187 h 0.175 l -0.35,0.373 c -0.117,0 -0.204,0.031 -0.263,0.092 -0.059,0.063 -0.146,0.093 -0.263,0.093 0.116,0 0.175,-0.123 0.175,-0.372 0,-0.497 -0.175,-0.745 -0.526,-0.745 l -0.175,0.092 -0.175,0.094 c -0.351,0.249 -0.833,0.373 -1.446,0.373 -0.088,-0.124 -0.19,-0.187 -0.307,-0.187 v 0.186 z m 2.629,5.03 c -0.118,0 -0.234,0.064 -0.351,0.188 -0.117,0.124 -0.234,0.186 -0.35,0.186 -0.468,0 -0.818,-0.186 -1.052,-0.558 -0.233,-0.373 -0.423,-0.947 -0.569,-1.725 -0.088,-0.093 -0.131,-0.202 -0.131,-0.326 v -0.372 c -0.117,-0.249 -0.292,-0.373 -0.525,-0.373 -0.117,0 -0.234,0.124 -0.352,0.373 -0.117,0.124 -0.175,0.356 -0.175,0.698 0,0.249 0.029,0.567 0.088,0.955 0.058,0.389 0.087,0.708 0.087,0.954 0.117,0.591 0.176,0.964 0.176,1.118 l 0.525,0.561 0.526,0.559 c 0.233,0.124 0.466,0.186 0.701,0.186 0.233,0 0.584,-0.124 1.051,-0.373 0.584,-0.372 0.876,-0.807 0.876,-1.304 10e-4,-0.498 -0.175,-0.747 -0.525,-0.747 z m -2.629,-5.217 h -0.175 l 0.175,0.187 z m 3.329,-1.677 c -0.35,-0.247 -0.584,-0.373 -0.7,-0.373 -0.323,0 -0.498,0.125 -0.526,0.373 0,0.125 -0.03,0.218 -0.088,0.279 -0.059,0.064 -0.087,0.125 -0.087,0.188 0,0.063 -0.059,0.093 -0.175,0.093 -0.117,0 -0.205,0.031 -0.263,0.093 l -0.088,0.093 c 0,0.125 0.059,0.187 0.175,0.187 0.117,0.092 0.351,0.156 0.701,0.186 0.351,0 0.642,-0.062 0.876,-0.186 0.233,-0.25 0.351,-0.435 0.351,-0.56 0,-0.124 -0.059,-0.248 -0.176,-0.373 z" /><path
     style="fill:#00082d"
     inkscape:connector-curvature="0"
     id="path542"
     d="m 458.382,242.93 c -0.117,-0.62 -0.468,-1.054 -1.052,-1.303 h -0.525 c -0.351,0 -0.658,0.124 -0.92,0.373 l -0.087,0.186 c -0.031,0.125 -0.045,0.25 -0.045,0.373 l -0.175,0.187 h -0.175 l -0.351,0.745 c 0.233,-0.373 0.351,-0.683 0.351,-0.932 0,-0.124 -0.087,-0.309 -0.263,-0.559 -0.175,-0.249 -0.381,-0.373 -0.614,-0.373 -0.234,0 -0.424,0.124 -0.57,0.373 -0.204,0 -0.306,0.062 -0.306,0.186 h 0.175 v 0.187 c -0.351,0.776 -0.76,1.336 -1.227,1.678 -0.323,0.249 -0.614,0.373 -0.876,0.373 0,0.124 0.058,0.185 0.175,0.185 0.116,0 0.233,-0.029 0.35,-0.093 0.117,-0.062 0.204,-0.092 0.263,-0.092 0.058,0 0.146,0.062 0.263,0.185 l 0.176,0.188 c 0.467,0.249 1.168,0.373 2.103,0.373 h 0.351 c 0.116,0 0.226,-0.062 0.328,-0.188 0.103,-0.124 0.226,-0.185 0.373,-0.185 l 0.175,-0.188 h 0.351 c 0.583,-0.123 0.934,-0.247 1.051,-0.373 0.35,-0.28 0.585,-0.715 0.701,-1.306 z" /><path
     style="fill:#00082d"
     inkscape:connector-curvature="0"
     id="path544"
     d="m 457.506,245.913 c -0.351,-0.466 -0.643,-0.714 -0.876,-0.745 -0.117,0 -0.264,0.093 -0.438,0.279 l -0.307,0.233 h -0.219 c -0.059,0 -0.146,-0.014 -0.263,-0.047 l -0.175,-0.092 c -0.117,0 -0.292,0.062 -0.525,0.187 -0.234,0.123 -0.351,0.249 -0.351,0.373 l 0.351,0.373 0.35,0.373 h 0.176 l 0.35,0.373 h 0.701 c 0.351,0 0.642,-0.062 0.876,-0.187 0.351,-0.373 0.584,-0.62 0.7,-0.745 z" /></g></svg>