<?xml version="1.0" encoding="UTF-8" standalone="no"?>
<!-- Generator: Adobe Illustrator 16.0.0, SVG Export Plug-In . SVG Version: 6.00 Build 0)  -->

<svg
   xmlns:dc="http://purl.org/dc/elements/1.1/"
   xmlns:cc="http://creativecommons.org/ns#"
   xmlns:rdf="http://www.w3.org/1999/02/22-rdf-syntax-ns#"
   xmlns:svg="http://www.w3.org/2000/svg"
   xmlns="http://www.w3.org/2000/svg"
   xmlns:sodipodi="http://sodipodi.sourceforge.net/DTD/sodipodi-0.dtd"
   xmlns:inkscape="http://www.inkscape.org/namespaces/inkscape"
   version="1.1"
   id="图层_1"
   x="0px"
   y="0px"
   width="139.76401"
   height="200"
   viewBox="0 0 139.764 200"
   enable-background="new 0 0 714 341"
   xml:space="preserve"
   sodipodi:docname="0403南.svg"
   inkscape:version="0.92.3 (2405546, 2018-03-11)"><metadata
   id="metadata621"><rdf:RDF><cc:Work
       rdf:about=""><dc:format>image/svg+xml</dc:format><dc:type
         rdf:resource="http://purl.org/dc/dcmitype/StillImage" /><dc:title /></cc:Work></rdf:RDF></metadata><defs
   id="defs619" /><sodipodi:namedview
   pagecolor="#ffffff"
   bordercolor="#666666"
   borderopacity="1"
   objecttolerance="10"
   gridtolerance="10"
   guidetolerance="10"
   inkscape:pageopacity="0"
   inkscape:pageshadow="2"
   inkscape:window-width="1366"
   inkscape:window-height="705"
   id="namedview617"
   showgrid="false"
   inkscape:zoom="1"
   inkscape:cx="-40.49666"
   inkscape:cy="152.60966"
   inkscape:window-x="-8"
   inkscape:window-y="-8"
   inkscape:window-maximized="1"
   inkscape:current-layer="图层_1" />



















































































































































































































































































































<g
   transform="matrix(4.0331525,0,0,4.0331525,-220.96433,-900.64328)"
   id="g1928"><path
     inkscape:connector-curvature="0"
     id="path180"
     d="m 89.439,226.895 v 42.419 c 0,0.995 -0.349,1.842 -1.045,2.539 -0.697,0.696 -1.544,1.046 -2.539,1.046 H 58.372 c -0.996,0 -1.843,-0.35 -2.54,-1.046 -0.697,-0.697 -1.045,-1.544 -1.045,-2.539 v -42.419 c 0,-0.995 0.348,-1.842 1.045,-2.54 0.697,-0.696 1.543,-1.045 2.54,-1.045 h 27.483 c 0.995,0 1.842,0.349 2.539,1.045 0.696,0.698 1.045,1.545 1.045,2.54 z m -3.585,-1.792 H 58.372 c -0.518,0 -0.947,0.17 -1.285,0.508 -0.339,0.339 -0.508,0.767 -0.508,1.285 v 42.419 c 0,0.517 0.169,0.946 0.508,1.285 0.338,0.338 0.767,0.508 1.285,0.508 h 27.483 c 0.517,0 0.946,-0.17 1.285,-0.508 0.338,-0.339 0.508,-0.768 0.508,-1.285 v -42.419 c 0,-0.518 -0.17,-0.946 -0.508,-1.285 -0.34,-0.339 -0.768,-0.508 -1.286,-0.508 z" /><path
     inkscape:connector-curvature="0"
     id="path182"
     d="m 70.918,255.812 c -0.239,0.08 -0.499,0.16 -0.776,0.239 -0.279,0.081 -0.508,0.149 -0.687,0.209 -0.18,0.06 -0.329,0.09 -0.448,0.09 -0.279,0 -0.518,-0.199 -0.717,-0.598 0.199,-0.119 0.577,-0.258 1.135,-0.418 0.558,-0.159 1.055,-0.318 1.494,-0.478 -0.04,-0.199 -0.08,-0.478 -0.12,-0.836 -0.04,-0.358 -0.08,-0.637 -0.119,-0.836 -0.359,0.08 -0.678,0.179 -0.956,0.299 -0.279,0.12 -0.488,0.219 -0.627,0.298 -0.14,0.081 -0.249,0.12 -0.329,0.12 -0.319,0 -0.618,-0.179 -0.896,-0.538 0.278,-0.239 0.995,-0.557 2.151,-0.956 -0.081,-0.797 -0.499,-1.614 -1.255,-2.45 -0.558,0.16 -1.215,0.448 -1.971,0.867 -0.757,0.418 -1.136,0.747 -1.136,0.986 0,0.598 0.418,1.732 1.255,3.406 0.836,1.672 1.255,2.828 1.255,3.465 0,0.279 -0.12,0.529 -0.358,0.747 -0.239,0.219 -0.478,0.329 -0.717,0.329 -0.239,0 -0.478,-0.109 -0.717,-0.329 -0.239,-0.218 -0.488,-0.558 -0.747,-1.016 -0.259,-0.458 -0.488,-0.886 -0.687,-1.285 -0.2,-0.397 -0.448,-0.926 -0.747,-1.583 -0.299,-0.657 -0.528,-1.165 -0.687,-1.523 -0.797,-1.513 -1.434,-3.007 -1.912,-4.481 l 0.358,-0.179 c 0.278,0 0.577,0.07 0.896,0.209 0.318,0.14 0.687,0.338 1.105,0.597 0.418,0.259 0.767,0.448 1.046,0.567 1.912,-0.717 2.987,-1.135 3.226,-1.254 -0.638,-0.637 -1.325,-1.135 -2.062,-1.494 -0.737,-0.359 -1.294,-0.598 -1.672,-0.717 -0.379,-0.12 -0.568,-0.259 -0.568,-0.418 0,-0.159 0.05,-0.289 0.149,-0.388 0.099,-0.099 0.188,-0.129 0.269,-0.09 2.907,1.235 4.52,2.131 4.839,2.689 0.318,-0.159 0.657,-0.299 1.016,-0.418 0.278,-1.434 0.478,-2.809 0.597,-4.123 -0.956,0.239 -1.912,0.359 -2.868,0.359 -0.239,0 -0.458,-0.12 -0.657,-0.359 0.119,-0.12 0.636,-0.308 1.553,-0.568 0.916,-0.258 1.673,-0.567 2.27,-0.926 0.199,-2.071 0.299,-3.425 0.299,-4.063 0,-1.234 -0.219,-1.853 -0.657,-1.853 H 70.56 c 0.557,-1.195 1.314,-2.23 2.271,-3.106 0.397,0.16 0.965,0.787 1.703,1.882 0.736,1.096 1.105,2.001 1.105,2.719 0,0.04 -0.01,0.119 -0.03,0.239 -0.021,0.12 -0.03,0.2 -0.03,0.239 -0.12,0.04 -0.279,0.06 -0.478,0.06 -0.519,0 -0.997,-0.179 -1.434,-0.538 -0.081,0.279 -0.209,0.836 -0.389,1.672 -0.179,0.837 -0.328,1.455 -0.448,1.853 0.318,-0.159 0.776,-0.508 1.374,-1.046 0.598,-0.538 0.995,-0.807 1.195,-0.807 0.239,0 0.508,0.26 0.807,0.777 0.299,0.519 0.468,0.937 0.508,1.255 -1.036,0.558 -2.53,1.115 -4.481,1.673 -0.358,0.917 -0.717,1.952 -1.075,3.107 0.677,-0.12 1.732,-0.717 3.167,-1.792 1.434,-1.076 2.409,-1.752 2.927,-2.032 0.796,0.717 1.195,1.216 1.195,1.494 0,0.239 -0.05,0.429 -0.149,0.568 -0.1,0.14 -0.25,0.299 -0.448,0.478 -0.2,0.179 -0.358,0.349 -0.478,0.508 0.717,0 1.225,0.029 1.523,0.09 0.299,0.06 0.627,0.239 0.986,0.537 0.358,0.299 0.756,0.807 1.195,1.524 0.199,0.319 0.448,0.667 0.747,1.045 0.298,0.379 0.508,0.687 0.627,0.926 0.119,0.239 0.179,0.518 0.179,0.836 0,0.678 -0.757,2.351 -2.271,5.019 -0.358,0.597 -0.737,1.275 -1.135,2.031 -0.398,0.757 -0.697,1.325 -0.896,1.703 -0.2,0.379 -0.429,0.757 -0.687,1.135 -0.26,0.379 -0.499,0.638 -0.717,0.777 -0.219,0.14 -0.468,0.209 -0.747,0.209 -0.358,0 -0.697,-0.069 -1.016,-0.209 -0.319,-0.139 -0.638,-0.338 -0.956,-0.598 -0.319,-0.258 -0.896,-0.677 -1.732,-1.254 -0.836,-0.577 -1.773,-1.185 -2.808,-1.823 0.397,0 0.777,0.06 1.135,0.18 0.079,-0.479 0.119,-1.355 0.119,-2.63 z m 3.227,-7.349 c -1.912,0.239 -3.446,0.618 -4.601,1.135 0.557,0.876 0.956,1.733 1.195,2.569 0.796,-0.159 1.473,-0.378 2.031,-0.657 0.598,-1.114 1.055,-2.13 1.375,-3.047 z m -3.107,-1.075 c -0.081,0.16 -0.179,0.538 -0.299,1.135 1.912,-0.517 3.246,-1.036 4.003,-1.553 0.08,-0.239 0.12,-0.418 0.12,-0.538 0,-0.239 -0.16,-0.358 -0.478,-0.358 -0.12,0 -0.339,0.08 -0.657,0.239 -0.319,0.159 -0.737,0.349 -1.254,0.567 -0.519,0.22 -0.997,0.389 -1.435,0.508 z m 4.959,4.779 c -1.235,0 -2.33,0.14 -3.286,0.418 -0.04,0.12 -0.1,0.698 -0.179,1.733 0.557,-0.119 1.045,-0.258 1.464,-0.418 0.418,-0.158 0.717,-0.269 0.896,-0.329 0.179,-0.06 0.308,-0.089 0.388,-0.089 0.518,0 0.777,0.319 0.777,0.956 0,0.279 -0.12,0.418 -0.358,0.418 -0.996,0 -2.052,0.14 -3.167,0.418 -0.081,1.753 -0.219,2.948 -0.418,3.584 1.394,0.598 2.17,0.896 2.33,0.896 0.12,0 0.308,-0.139 0.568,-0.418 0.258,-0.279 0.598,-0.757 1.016,-1.435 0.418,-0.676 0.826,-1.453 1.225,-2.33 0.159,-0.358 0.368,-0.787 0.627,-1.285 0.259,-0.498 0.428,-0.846 0.508,-1.045 0.08,-0.199 0.179,-0.448 0.299,-0.747 0.12,-0.299 0.199,-0.547 0.239,-0.747 0.04,-0.199 0.06,-0.418 0.06,-0.657 0,-0.359 -0.698,-1.294 -2.091,-2.808 -0.398,-0.08 -0.776,-0.08 -1.135,0 -0.119,0.159 -0.299,0.409 -0.538,0.747 -0.239,0.339 -0.469,0.687 -0.687,1.046 -0.219,0.358 -0.409,0.716 -0.567,1.075 0.836,-0.159 1.413,-0.239 1.732,-0.239 0.239,0 0.458,0.09 0.657,0.269 0.199,0.179 0.299,0.388 0.299,0.627 -0.002,0.241 -0.221,0.36 -0.659,0.36 z" /></g></svg>