<?xml version="1.0" encoding="UTF-8" standalone="no"?>
<!-- Generator: Adobe Illustrator 16.0.0, SVG Export Plug-In . SVG Version: 6.00 Build 0)  -->

<svg
   xmlns:dc="http://purl.org/dc/elements/1.1/"
   xmlns:cc="http://creativecommons.org/ns#"
   xmlns:rdf="http://www.w3.org/1999/02/22-rdf-syntax-ns#"
   xmlns:svg="http://www.w3.org/2000/svg"
   xmlns="http://www.w3.org/2000/svg"
   xmlns:sodipodi="http://sodipodi.sourceforge.net/DTD/sodipodi-0.dtd"
   xmlns:inkscape="http://www.inkscape.org/namespaces/inkscape"
   version="1.1"
   id="图层_1"
   x="0px"
   y="0px"
   width="139.76401"
   height="200"
   viewBox="0 0 139.764 200"
   enable-background="new 0 0 714 341"
   xml:space="preserve"
   sodipodi:docname="0404北風.svg"
   inkscape:version="0.92.3 (2405546, 2018-03-11)"><metadata
   id="metadata621"><rdf:RDF><cc:Work
       rdf:about=""><dc:format>image/svg+xml</dc:format><dc:type
         rdf:resource="http://purl.org/dc/dcmitype/StillImage" /><dc:title /></cc:Work></rdf:RDF></metadata><defs
   id="defs619" /><sodipodi:namedview
   pagecolor="#ffffff"
   bordercolor="#666666"
   borderopacity="1"
   objecttolerance="10"
   gridtolerance="10"
   guidetolerance="10"
   inkscape:pageopacity="0"
   inkscape:pageshadow="2"
   inkscape:window-width="1366"
   inkscape:window-height="705"
   id="namedview617"
   showgrid="false"
   inkscape:zoom="1"
   inkscape:cx="-91.99666"
   inkscape:cy="152.60966"
   inkscape:window-x="-8"
   inkscape:window-y="-8"
   inkscape:window-maximized="1"
   inkscape:current-layer="图层_1" />



















































































































































































































































































































<g
   transform="matrix(4.0331525,0,0,4.0331525,-529.39966,-900.64328)"
   id="g1943"><path
     inkscape:connector-curvature="0"
     id="path188"
     d="m 165.914,226.895 v 42.419 c 0,0.995 -0.349,1.842 -1.045,2.539 -0.697,0.696 -1.544,1.046 -2.54,1.046 h -27.483 c -0.996,0 -1.842,-0.35 -2.539,-1.046 -0.697,-0.697 -1.045,-1.544 -1.045,-2.539 v -42.419 c 0,-0.995 0.348,-1.842 1.045,-2.54 0.697,-0.696 1.543,-1.045 2.539,-1.045 h 27.483 c 0.996,0 1.842,0.349 2.54,1.045 0.695,0.698 1.045,1.545 1.045,2.54 z m -3.585,-1.792 h -27.483 c -0.518,0 -0.946,0.17 -1.284,0.508 -0.339,0.339 -0.508,0.767 -0.508,1.285 v 42.419 c 0,0.517 0.169,0.946 0.508,1.285 0.338,0.338 0.766,0.508 1.284,0.508 h 27.483 c 0.518,0 0.946,-0.17 1.285,-0.508 0.338,-0.339 0.508,-0.768 0.508,-1.285 v -42.419 c 0,-0.518 -0.17,-0.946 -0.508,-1.285 -0.34,-0.339 -0.768,-0.508 -1.285,-0.508 z" /><path
     inkscape:connector-curvature="0"
     id="path190"
     d="m 136.817,257.963 c 0,-0.318 0.249,-0.767 0.747,-1.345 0.498,-0.576 1.135,-1.553 1.912,-2.927 0.777,-1.375 1.424,-3.057 1.942,-5.049 -1.395,-0.916 -2.151,-1.872 -2.271,-2.868 0.796,0.359 1.692,0.598 2.688,0.717 0.04,-0.398 0.159,-0.777 0.359,-1.135 0.119,0.279 0.199,0.737 0.239,1.374 1.115,0.359 1.673,0.797 1.673,1.315 0,0.558 -0.638,0.836 -1.912,0.836 -0.239,1.275 -0.478,2.419 -0.717,3.436 -0.239,1.016 -0.409,1.723 -0.508,2.121 -0.1,0.398 -0.149,0.678 -0.149,0.836 0,0.319 0.04,0.538 0.12,0.657 0.398,-0.039 1.125,-0.388 2.181,-1.045 1.055,-0.658 1.882,-1.225 2.479,-1.703 0.239,-0.397 0.358,-1.255 0.358,-2.569 0,-0.279 -0.01,-0.756 -0.03,-1.434 -0.021,-0.677 -0.03,-1.174 -0.03,-1.494 0,-1.115 -0.1,-2.021 -0.299,-2.718 -0.2,-0.697 -0.428,-1.165 -0.687,-1.404 -0.26,-0.239 -0.488,-0.498 -0.687,-0.776 -0.2,-0.278 -0.299,-0.598 -0.299,-0.956 0,-0.438 0.159,-0.816 0.478,-1.135 0.637,0.239 1.304,0.448 2.001,0.627 0.696,0.179 1.155,0.319 1.374,0.418 0.218,0.1 0.448,0.29 0.687,0.568 0.239,0.279 0.438,0.697 0.598,1.254 -0.678,0.438 -1.096,1.116 -1.255,2.031 -0.16,0.917 -0.279,2.987 -0.358,6.214 0.397,-0.239 0.866,-0.577 1.404,-1.016 0.538,-0.438 0.906,-0.716 1.105,-0.836 0,-0.956 0.08,-2.14 0.239,-3.554 0.159,-1.414 0.239,-2.38 0.239,-2.898 0,-0.318 -0.021,-0.607 -0.06,-0.866 -0.04,-0.259 -0.1,-0.479 -0.179,-0.658 -0.081,-0.179 -0.149,-0.337 -0.209,-0.478 -0.06,-0.139 -0.16,-0.269 -0.299,-0.388 -0.14,-0.12 -0.239,-0.209 -0.299,-0.269 -0.06,-0.06 -0.179,-0.139 -0.358,-0.239 -0.18,-0.099 -0.29,-0.168 -0.329,-0.209 0.159,-0.478 0.368,-0.886 0.627,-1.225 0.259,-0.338 0.607,-0.696 1.046,-1.075 0.438,-0.378 0.776,-0.707 1.016,-0.986 0.358,0.279 0.846,0.827 1.464,1.643 0.617,0.817 0.926,1.464 0.926,1.942 0,0.16 -0.11,0.329 -0.329,0.508 -0.219,0.179 -0.448,0.358 -0.687,0.538 -0.239,0.18 -0.469,0.578 -0.687,1.195 -0.219,0.618 -0.329,1.404 -0.329,2.36 v 3.465 c 0.278,-0.199 0.657,-0.438 1.135,-0.716 0.478,-0.278 0.826,-0.488 1.045,-0.627 0.218,-0.139 0.418,-0.359 0.598,-0.657 0.179,-0.299 0.269,-0.647 0.269,-1.046 0,-0.079 -0.01,-0.159 -0.03,-0.239 -0.021,-0.08 -0.03,-0.159 -0.03,-0.239 0.239,-0.239 0.657,-0.358 1.254,-0.358 0.558,0 1.135,0.189 1.733,0.567 0.598,0.379 0.896,0.827 0.896,1.344 0,0.239 -0.249,0.418 -0.747,0.538 -0.499,0.12 -1.335,0.369 -2.509,0.747 -1.175,0.379 -2.34,0.926 -3.495,1.643 v 0.478 c 0,2.47 0.218,4.043 0.657,4.72 0.438,0.678 1.434,1.016 2.987,1.016 0.796,0 1.603,-0.089 2.42,-0.269 0.816,-0.179 1.364,-0.269 1.643,-0.269 0.517,0 0.777,0.2 0.777,0.597 0,1.673 -2.251,2.509 -6.751,2.509 -1.036,0 -1.882,-0.218 -2.539,-0.657 -0.657,-0.438 -0.986,-1.036 -0.986,-1.792 0,-0.278 0.009,-0.627 0.03,-1.045 0.02,-0.418 0.03,-0.747 0.03,-0.986 0,-0.438 -0.03,-1.005 -0.089,-1.703 -0.06,-0.697 -0.09,-1.205 -0.09,-1.524 -0.757,0.559 -1.593,1.235 -2.509,2.032 0,0.16 0.02,0.358 0.06,0.598 0.039,0.239 0.06,0.438 0.06,0.597 0,0.518 -0.17,0.966 -0.508,1.344 -0.339,0.379 -0.627,0.588 -0.867,0.627 -0.119,0 -0.259,-0.069 -0.418,-0.209 -0.16,-0.139 -0.239,-0.289 -0.239,-0.448 0,-0.199 -0.14,-0.478 -0.418,-0.836 -0.757,0.518 -1.604,1.216 -2.539,2.091 -0.937,0.876 -1.753,1.534 -2.45,1.972 -0.697,0.438 -1.444,0.657 -2.24,0.657 -0.716,-0.003 -1.075,-0.421 -1.075,-1.257 z" /></g></svg>