<?xml version="1.0" encoding="UTF-8" standalone="no"?>
<!-- Generator: Adobe Illustrator 16.0.0, SVG Export Plug-In . SVG Version: 6.00 Build 0)  -->

<svg
   xmlns:dc="http://purl.org/dc/elements/1.1/"
   xmlns:cc="http://creativecommons.org/ns#"
   xmlns:rdf="http://www.w3.org/1999/02/22-rdf-syntax-ns#"
   xmlns:svg="http://www.w3.org/2000/svg"
   xmlns="http://www.w3.org/2000/svg"
   xmlns:sodipodi="http://sodipodi.sourceforge.net/DTD/sodipodi-0.dtd"
   xmlns:inkscape="http://www.inkscape.org/namespaces/inkscape"
   version="1.1"
   id="图层_1"
   x="0px"
   y="0px"
   width="139.76401"
   height="200"
   viewBox="0 0 139.764 200"
   enable-background="new 0 0 714 341"
   xml:space="preserve"
   sodipodi:docname="0401東.svg"
   inkscape:version="0.92.3 (2405546, 2018-03-11)"><metadata
   id="metadata621"><rdf:RDF><cc:Work
       rdf:about=""><dc:format>image/svg+xml</dc:format><dc:type
         rdf:resource="http://purl.org/dc/dcmitype/StillImage" /><dc:title /></cc:Work></rdf:RDF></metadata><defs
   id="defs619" /><sodipodi:namedview
   pagecolor="#ffffff"
   bordercolor="#666666"
   borderopacity="1"
   objecttolerance="10"
   gridtolerance="10"
   guidetolerance="10"
   inkscape:pageopacity="0"
   inkscape:pageshadow="2"
   inkscape:window-width="1366"
   inkscape:window-height="705"
   id="namedview617"
   showgrid="false"
   inkscape:zoom="1"
   inkscape:cx="-59.16014"
   inkscape:cy="152.60966"
   inkscape:window-x="-8"
   inkscape:window-y="-8"
   inkscape:window-maximized="1"
   inkscape:current-layer="图层_1" />



















































































































































































































































































































<g
   transform="matrix(4.0331525,0,0,4.0331525,-66.744641,-900.64328)"
   id="g1898"><path
     inkscape:connector-curvature="0"
     id="path176"
     d="m 51.202,226.895 v 42.419 c 0,0.995 -0.349,1.842 -1.045,2.539 -0.697,0.696 -1.544,1.046 -2.539,1.046 H 20.134 c -0.996,0 -1.843,-0.35 -2.54,-1.046 -0.697,-0.697 -1.045,-1.544 -1.045,-2.539 v -42.419 c 0,-0.995 0.348,-1.842 1.045,-2.54 0.697,-0.696 1.543,-1.045 2.54,-1.045 h 27.483 c 0.995,0 1.842,0.349 2.539,1.045 0.697,0.698 1.046,1.545 1.046,2.54 z m -3.585,-1.792 H 20.134 c -0.518,0 -0.947,0.17 -1.285,0.508 -0.339,0.339 -0.508,0.767 -0.508,1.285 v 42.419 c 0,0.517 0.169,0.946 0.508,1.285 0.338,0.338 0.767,0.508 1.285,0.508 h 27.483 c 0.517,0 0.946,-0.17 1.285,-0.508 0.338,-0.339 0.508,-0.768 0.508,-1.285 v -42.419 c 0,-0.518 -0.17,-0.946 -0.508,-1.285 -0.339,-0.339 -0.768,-0.508 -1.285,-0.508 z" /><path
     inkscape:connector-curvature="0"
     id="path178"
     d="m 24.914,243.684 c 0.079,-0.199 0.239,-0.299 0.478,-0.299 0.159,0 0.676,0.2 1.553,0.598 1.951,-0.398 3.724,-0.836 5.317,-1.315 -0.041,-0.239 -0.06,-0.676 -0.06,-1.314 -0.12,0 -0.418,0.06 -0.896,0.179 -0.478,0.119 -0.876,0.18 -1.195,0.18 -0.757,0 -1.255,-0.279 -1.494,-0.837 0.159,-0.04 0.647,-0.109 1.464,-0.209 0.816,-0.099 1.483,-0.249 2.001,-0.448 v -0.179 c 0,-1.394 -0.358,-2.608 -1.075,-3.645 -0.717,-1.035 -1.075,-2.11 -1.075,-3.227 1.114,0.519 2.25,0.927 3.405,1.225 1.155,0.299 1.892,0.529 2.21,0.687 0.318,0.16 0.478,0.479 0.478,0.956 0,0.239 -0.11,0.418 -0.329,0.538 -0.219,0.119 -0.458,0.229 -0.717,0.328 -0.26,0.1 -0.518,0.388 -0.776,0.867 -0.26,0.478 -0.429,1.135 -0.508,1.972 0.597,-0.159 1.055,-0.389 1.374,-0.688 0.318,-0.299 0.558,-0.448 0.717,-0.448 0.358,0 0.747,0.129 1.165,0.388 0.418,0.26 0.627,0.489 0.627,0.688 0,0.2 -0.17,0.358 -0.508,0.478 -0.339,0.119 -0.876,0.249 -1.613,0.388 -0.738,0.14 -1.344,0.289 -1.822,0.448 0,0.159 -0.021,0.399 -0.06,0.717 -0.04,0.319 -0.06,0.537 -0.06,0.657 l 5.079,-0.896 c 0.358,0 0.856,0.35 1.494,1.046 0.637,0.697 0.956,1.285 0.956,1.763 0,0.398 -0.439,0.657 -1.314,0.776 -0.279,0.757 -0.717,1.514 -1.314,2.271 -0.598,0.757 -0.896,1.314 -0.896,1.673 0,0.637 -0.179,0.956 -0.538,0.956 -0.239,0 -0.538,-0.139 -0.896,-0.418 -0.518,0.04 -0.917,0.12 -1.195,0.239 1.075,1.355 2.399,2.411 3.973,3.167 1.573,0.757 3.017,1.395 4.332,1.912 1.314,0.518 2.23,1.175 2.748,1.972 -0.598,-0.08 -1.205,-0.259 -1.822,-0.538 -0.618,-0.278 -1.045,-0.418 -1.285,-0.418 -0.16,0 -0.558,0.189 -1.195,0.567 -0.638,0.379 -1.175,0.568 -1.613,0.568 -0.559,0 -1.116,-0.288 -1.673,-0.866 -0.559,-0.577 -1.305,-1.593 -2.241,-3.047 -0.937,-1.454 -1.664,-2.519 -2.181,-3.197 -0.08,0.041 -0.239,0.06 -0.478,0.06 0,0.439 -0.021,0.997 -0.06,1.673 -0.041,0.677 -0.06,1.195 -0.06,1.553 0,1.116 0.149,2.56 0.448,4.332 0.299,1.772 0.448,2.759 0.448,2.958 0,1.833 -0.379,2.748 -1.135,2.748 -0.439,0 -0.857,-0.557 -1.255,-1.672 -0.398,-1.115 -0.597,-2.111 -0.597,-2.987 0,-0.398 -0.977,-1.932 -2.928,-4.601 -2.151,1.754 -3.844,2.629 -5.079,2.629 -0.677,0 -1.155,-0.06 -1.434,-0.179 2.668,-1.354 4.62,-2.549 5.855,-3.585 l -0.239,-0.777 0.538,0.418 c 0.717,-0.598 1.354,-1.454 1.912,-2.569 -0.398,-0.039 -0.776,-0.278 -1.135,-0.717 -0.041,-0.04 -0.03,-0.109 0.03,-0.209 0.06,-0.099 0.089,-0.169 0.089,-0.209 0,-0.079 -0.29,-0.457 -0.866,-1.135 -0.578,-0.676 -1.195,-1.423 -1.852,-2.24 -0.657,-0.817 -1.063,-1.388 -1.222,-1.706 z m 7.349,-0.24 c -1.634,0.319 -3.127,0.777 -4.481,1.375 0.677,0.678 1.075,1.116 1.195,1.314 0.358,-0.199 0.926,-0.349 1.703,-0.448 0.777,-0.099 1.324,-0.188 1.643,-0.269 0,-0.199 -0.01,-0.517 -0.03,-0.956 -0.021,-0.438 -0.03,-0.776 -0.03,-1.016 z m 0.119,6.573 c -0.08,0 -0.229,-0.009 -0.448,-0.03 -0.22,-0.02 -0.389,-0.03 -0.508,-0.03 -0.478,0.836 -1.335,2.012 -2.569,3.525 0.199,0.2 0.487,0.538 0.866,1.016 0.378,0.478 0.717,0.847 1.016,1.105 0.298,0.26 0.547,0.389 0.747,0.389 0.358,-10e-4 0.657,-1.992 0.896,-5.975 z m -0.06,-3.466 c -1.354,0.081 -2.25,0.239 -2.688,0.478 0.278,0.638 0.617,1.156 1.016,1.553 0.199,0.041 0.498,0.07 0.896,0.09 0.398,0.021 0.677,0.03 0.836,0.03 0,-0.278 -0.01,-0.657 -0.03,-1.135 -0.02,-0.478 -0.03,-0.816 -0.03,-1.016 z m 5.736,-3.226 c 0,-0.318 -0.478,-0.478 -1.434,-0.478 -0.956,0 -1.992,0.14 -3.107,0.418 -0.04,0.279 -0.07,0.648 -0.089,1.106 -0.021,0.458 -0.03,0.767 -0.03,0.926 0.557,-0.08 1.005,-0.239 1.344,-0.478 0.338,-0.239 0.726,-0.359 1.165,-0.359 0.159,0 0.308,0.041 0.448,0.12 0.139,0.081 0.299,0.2 0.478,0.359 0.179,0.159 0.329,0.279 0.448,0.358 0.517,-0.916 0.777,-1.573 0.777,-1.972 z m -1.195,2.808 c -0.319,-0.159 -0.538,-0.239 -0.658,-0.239 -0.2,0 -0.637,0.08 -1.314,0.239 -0.678,0.159 -1.156,0.259 -1.434,0.298 -0.041,0.2 -0.06,0.538 -0.06,1.016 0,0.478 0.019,0.857 0.06,1.135 0.597,0 1.334,-0.099 2.21,-0.298 0.12,-0.159 0.318,-0.508 0.598,-1.046 0.279,-0.537 0.478,-0.905 0.598,-1.105 z" /></g></svg>