<?xml version="1.0" encoding="UTF-8" standalone="no"?>
<!-- Generator: Adobe Illustrator 16.0.0, SVG Export Plug-In . SVG Version: 6.00 Build 0)  -->

<svg
   xmlns:dc="http://purl.org/dc/elements/1.1/"
   xmlns:cc="http://creativecommons.org/ns#"
   xmlns:rdf="http://www.w3.org/1999/02/22-rdf-syntax-ns#"
   xmlns:svg="http://www.w3.org/2000/svg"
   xmlns="http://www.w3.org/2000/svg"
   xmlns:sodipodi="http://sodipodi.sourceforge.net/DTD/sodipodi-0.dtd"
   xmlns:inkscape="http://www.inkscape.org/namespaces/inkscape"
   version="1.1"
   id="图层_1"
   x="0px"
   y="0px"
   width="139.76401"
   height="200"
   viewBox="0 0 139.764 200"
   enable-background="new 0 0 714 341"
   xml:space="preserve"
   sodipodi:docname="0209九餅.svg"
   inkscape:version="0.92.3 (2405546, 2018-03-11)"><metadata
   id="metadata621"><rdf:RDF><cc:Work
       rdf:about=""><dc:format>image/svg+xml</dc:format><dc:type
         rdf:resource="http://purl.org/dc/dcmitype/StillImage" /><dc:title /></cc:Work></rdf:RDF></metadata><defs
   id="defs619" /><sodipodi:namedview
   pagecolor="#ffffff"
   bordercolor="#666666"
   borderopacity="1"
   objecttolerance="10"
   gridtolerance="10"
   guidetolerance="10"
   inkscape:pageopacity="0"
   inkscape:pageshadow="2"
   inkscape:window-width="1366"
   inkscape:window-height="705"
   id="namedview617"
   showgrid="false"
   inkscape:zoom="1"
   inkscape:cx="-139.16014"
   inkscape:cy="152.60966"
   inkscape:window-x="-8"
   inkscape:window-y="-8"
   inkscape:window-maximized="1"
   inkscape:current-layer="图层_1" />



















































































































































































































































































































<g
   transform="matrix(4.0332338,0,0,4.0332338,-1300.5041,-611.50277)"
   id="g1753"><path
     inkscape:connector-curvature="0"
     id="path168"
     d="m 357.1,155.2 v 42.419 c 0,0.995 -0.349,1.842 -1.045,2.539 -0.697,0.697 -1.544,1.046 -2.54,1.046 h -27.483 c -0.996,0 -1.843,-0.349 -2.54,-1.046 -0.697,-0.697 -1.045,-1.544 -1.045,-2.539 V 155.2 c 0,-0.995 0.348,-1.842 1.045,-2.539 0.697,-0.697 1.543,-1.045 2.54,-1.045 h 27.483 c 0.995,0 1.842,0.349 2.54,1.045 0.696,0.697 1.045,1.544 1.045,2.539 z m -3.585,-1.792 h -27.483 c -0.519,0 -0.947,0.17 -1.285,0.508 -0.339,0.339 -0.508,0.768 -0.508,1.285 v 42.419 c 0,0.517 0.169,0.946 0.508,1.285 0.338,0.338 0.766,0.508 1.285,0.508 h 27.483 c 0.518,0 0.946,-0.17 1.284,-0.508 0.338,-0.339 0.508,-0.768 0.508,-1.285 V 155.2 c 0,-0.517 -0.17,-0.946 -0.508,-1.285 -0.338,-0.337 -0.766,-0.507 -1.284,-0.507 z" /><path
     style="fill:#00082d"
     inkscape:connector-curvature="0"
     id="path170"
     d="m 327.2,179.883 c -0.961,-0.96 -1.441,-2.119 -1.441,-3.473 0,-1.354 0.48,-2.512 1.441,-3.473 0.961,-0.96 2.119,-1.442 3.473,-1.442 1.048,0 1.987,0.295 2.818,0.885 0.83,0.589 1.419,1.343 1.769,2.26 0.35,-0.917 0.939,-1.671 1.77,-2.26 0.83,-0.59 1.77,-0.885 2.817,-0.885 1.049,0 1.988,0.295 2.818,0.885 0.83,0.589 1.419,1.343 1.77,2.26 0.348,-0.917 0.938,-1.671 1.769,-2.26 0.829,-0.59 1.77,-0.885 2.818,-0.885 1.353,0 2.511,0.481 3.473,1.442 0.96,0.961 1.441,2.119 1.441,3.473 0,1.354 -0.481,2.513 -1.441,3.473 -0.962,0.961 -2.12,1.441 -3.473,1.441 -1.048,0 -1.989,-0.294 -2.818,-0.884 -0.83,-0.59 -1.42,-1.343 -1.769,-2.261 -0.351,0.917 -0.94,1.671 -1.77,2.261 -0.83,0.59 -1.769,0.884 -2.818,0.884 -1.048,0 -1.988,-0.294 -2.817,-0.884 -0.831,-0.59 -1.42,-1.343 -1.77,-2.261 -0.35,0.917 -0.939,1.671 -1.769,2.261 -0.831,0.59 -1.77,0.884 -2.818,0.884 -1.355,0 -2.512,-0.48 -3.473,-1.441 z m 0.688,-6.258 c -0.765,0.765 -1.147,1.693 -1.147,2.785 0,1.092 0.382,2.021 1.147,2.785 0.764,0.765 1.692,1.146 2.785,1.146 1.092,0 2.02,-0.382 2.785,-1.146 0.764,-0.764 1.147,-1.693 1.147,-2.785 0,-1.092 -0.383,-2.02 -1.147,-2.785 -0.765,-0.764 -1.693,-1.147 -2.785,-1.147 -1.092,0 -2.021,0.383 -2.785,1.147 z m 9.174,0 c -0.765,0.765 -1.147,1.693 -1.147,2.785 0,1.092 0.382,2.021 1.147,2.785 0.764,0.765 1.692,1.146 2.785,1.146 1.092,0 2.02,-0.382 2.785,-1.146 0.764,-0.764 1.147,-1.693 1.147,-2.785 0,-1.092 -0.383,-2.02 -1.147,-2.785 -0.765,-0.764 -1.693,-1.147 -2.785,-1.147 -1.093,0 -2.021,0.383 -2.785,1.147 z m 9.174,0 c -0.765,0.765 -1.147,1.693 -1.147,2.785 0,1.092 0.382,2.021 1.147,2.785 0.764,0.765 1.692,1.146 2.785,1.146 1.091,0 2.02,-0.382 2.785,-1.146 0.764,-0.764 1.147,-1.693 1.147,-2.785 0,-1.092 -0.383,-2.02 -1.147,-2.785 -0.765,-0.764 -1.693,-1.147 -2.785,-1.147 -1.093,0 -2.021,0.383 -2.785,1.147 z" /><path
     style="fill:#870000"
     inkscape:connector-curvature="0"
     id="path172"
     d="m 328.347,178.736 c -0.634,-0.633 -0.951,-1.409 -0.951,-2.326 0,-0.917 0.316,-1.693 0.951,-2.327 0.633,-0.632 1.409,-0.95 2.326,-0.95 0.917,0 1.693,0.317 2.327,0.95 0.633,0.634 0.95,1.409 0.95,2.327 0,0.917 -0.317,1.693 -0.95,2.326 -0.634,0.633 -1.409,0.95 -2.327,0.95 -0.917,0.001 -1.693,-0.316 -2.326,-0.95 z m 0.688,-2.391 c 0,-0.394 0.13,-0.721 0.393,-0.983 0,-0.349 -0.131,-0.655 -0.393,-0.917 l -0.59,0.065 c -0.481,0.569 -0.72,1.203 -0.72,1.901 v 0.196 l 0.458,0.458 c 0.349,-0.043 0.633,-0.283 0.852,-0.72 z m 1.245,1.637 c -0.438,-0.087 -0.765,-0.327 -0.983,-0.721 l -0.524,-0.131 -0.459,0.197 -0.131,0.655 c 0.48,0.699 1.07,1.114 1.769,1.245 l 0.59,-0.262 v -0.525 z m -0.983,-3.734 c 0.131,0.393 0.394,0.612 0.787,0.655 0.262,-0.086 0.458,-0.13 0.589,-0.13 0.131,0 0.328,0.044 0.59,0.13 0.393,-0.042 0.655,-0.262 0.787,-0.655 l -0.263,-0.59 c -0.306,-0.131 -0.678,-0.196 -1.114,-0.196 -0.437,0 -0.809,0.065 -1.114,0.196 z m 0.459,1.245 c -0.263,0.262 -0.394,0.568 -0.394,0.917 0,0.35 0.131,0.655 0.394,0.917 0.262,0.262 0.567,0.394 0.917,0.394 0.349,0 0.655,-0.131 0.917,-0.394 0.262,-0.263 0.394,-0.567 0.394,-0.917 0,-0.349 -0.131,-0.655 -0.394,-0.917 -0.262,-0.262 -0.568,-0.393 -0.917,-0.393 -0.35,0 -0.655,0.131 -0.917,0.393 z m 0.917,1.572 c -0.437,0 -0.655,-0.218 -0.655,-0.655 0,-0.437 0.218,-0.655 0.655,-0.655 0.436,0 0.655,0.219 0.655,0.655 0,0.437 -0.219,0.655 -0.655,0.655 z m 0.721,2.163 c 0.698,-0.131 1.288,-0.546 1.77,-1.245 l -0.132,-0.655 -0.458,-0.197 -0.523,0.131 c -0.22,0.394 -0.547,0.634 -0.983,0.721 l -0.262,0.458 v 0.525 z m 0.918,-2.883 c 0.218,0.437 0.501,0.678 0.852,0.72 l 0.458,-0.458 v -0.196 c 0,-0.698 -0.241,-1.332 -0.721,-1.901 l -0.589,-0.065 c -0.262,0.262 -0.394,0.568 -0.394,0.917 0.262,0.262 0.394,0.589 0.394,0.983 z m 5.209,2.391 c -0.634,-0.633 -0.95,-1.409 -0.95,-2.326 0,-0.917 0.316,-1.693 0.95,-2.327 0.633,-0.632 1.409,-0.95 2.326,-0.95 0.917,0 1.692,0.317 2.326,0.95 0.633,0.634 0.951,1.409 0.951,2.327 0,0.917 -0.317,1.693 -0.951,2.326 -0.634,0.633 -1.409,0.95 -2.326,0.95 -0.917,0.001 -1.694,-0.316 -2.326,-0.95 z m 0.687,-2.391 c 0,-0.394 0.131,-0.721 0.393,-0.983 0,-0.349 -0.131,-0.655 -0.393,-0.917 l -0.589,0.065 c -0.482,0.569 -0.721,1.203 -0.721,1.901 v 0.196 l 0.458,0.458 c 0.35,-0.043 0.633,-0.283 0.852,-0.72 z m 1.246,1.637 c -0.437,-0.087 -0.765,-0.327 -0.983,-0.721 l -0.524,-0.131 -0.459,0.197 -0.131,0.655 c 0.48,0.699 1.07,1.114 1.77,1.245 l 0.589,-0.262 v -0.525 z m -0.983,-3.734 c 0.131,0.393 0.394,0.612 0.787,0.655 0.262,-0.086 0.458,-0.13 0.589,-0.13 0.131,0 0.328,0.044 0.59,0.13 0.393,-0.042 0.655,-0.262 0.787,-0.655 l -0.262,-0.59 c -0.306,-0.131 -0.678,-0.196 -1.114,-0.196 -0.436,0 -0.809,0.065 -1.114,0.196 z m 0.459,1.245 c -0.263,0.262 -0.394,0.568 -0.394,0.917 0,0.35 0.131,0.655 0.394,0.917 0.262,0.262 0.567,0.394 0.917,0.394 0.349,0 0.656,-0.131 0.917,-0.394 0.263,-0.262 0.394,-0.567 0.394,-0.917 0,-0.349 -0.131,-0.655 -0.394,-0.917 -0.262,-0.262 -0.568,-0.393 -0.917,-0.393 -0.35,0 -0.655,0.131 -0.917,0.393 z m 0.917,1.572 c -0.437,0 -0.655,-0.218 -0.655,-0.655 0,-0.437 0.218,-0.655 0.655,-0.655 0.437,0 0.656,0.219 0.656,0.655 -10e-4,0.437 -0.22,0.655 -0.656,0.655 z m 0.721,2.163 c 0.698,-0.131 1.288,-0.546 1.769,-1.245 l -0.13,-0.655 -0.459,-0.197 -0.524,0.131 c -0.219,0.394 -0.547,0.634 -0.983,0.721 l -0.262,0.458 v 0.525 z m 0.917,-2.883 c 0.218,0.437 0.501,0.678 0.852,0.72 l 0.458,-0.458 v -0.196 c 0,-0.698 -0.24,-1.332 -0.721,-1.901 l -0.589,-0.065 c -0.262,0.262 -0.394,0.568 -0.394,0.917 0.263,0.262 0.394,0.589 0.394,0.983 z m 5.21,2.391 c -0.634,-0.633 -0.95,-1.409 -0.95,-2.326 0,-0.917 0.316,-1.693 0.95,-2.327 0.632,-0.632 1.409,-0.95 2.326,-0.95 0.917,0 1.692,0.317 2.326,0.95 0.633,0.634 0.95,1.409 0.95,2.327 0,0.917 -0.317,1.693 -0.95,2.326 -0.634,0.633 -1.409,0.95 -2.326,0.95 -0.917,0.001 -1.694,-0.316 -2.326,-0.95 z m 0.688,-2.391 c 0,-0.394 0.13,-0.721 0.393,-0.983 0,-0.349 -0.131,-0.655 -0.393,-0.917 l -0.59,0.065 c -0.481,0.569 -0.721,1.203 -0.721,1.901 v 0.196 l 0.458,0.458 c 0.349,-0.043 0.634,-0.283 0.853,-0.72 z m 1.245,1.637 c -0.438,-0.087 -0.765,-0.327 -0.983,-0.721 l -0.524,-0.131 -0.459,0.197 -0.131,0.655 c 0.48,0.699 1.07,1.114 1.77,1.245 l 0.589,-0.262 v -0.525 z m -0.983,-3.734 c 0.131,0.393 0.394,0.612 0.787,0.655 0.262,-0.086 0.458,-0.13 0.59,-0.13 0.132,0 0.328,0.044 0.589,0.13 0.394,-0.042 0.656,-0.262 0.787,-0.655 l -0.263,-0.59 c -0.306,-0.131 -0.678,-0.196 -1.114,-0.196 -0.438,0 -0.809,0.065 -1.114,0.196 z m 0.459,1.245 c -0.262,0.262 -0.394,0.568 -0.394,0.917 0,0.35 0.132,0.655 0.394,0.917 0.262,0.262 0.567,0.394 0.917,0.394 0.349,0 0.655,-0.131 0.917,-0.394 0.263,-0.262 0.394,-0.567 0.394,-0.917 0,-0.349 -0.131,-0.655 -0.394,-0.917 -0.262,-0.262 -0.568,-0.393 -0.917,-0.393 -0.35,0 -0.656,0.131 -0.917,0.393 z m 0.917,1.572 c -0.438,0 -0.656,-0.218 -0.656,-0.655 0,-0.437 0.218,-0.655 0.656,-0.655 0.436,0 0.655,0.219 0.655,0.655 0,0.437 -0.219,0.655 -0.655,0.655 z m 0.721,2.163 c 0.698,-0.131 1.288,-0.546 1.77,-1.245 l -0.131,-0.655 -0.459,-0.197 -0.523,0.131 c -0.22,0.394 -0.547,0.634 -0.983,0.721 l -0.262,0.458 v 0.525 z m 0.917,-2.883 c 0.218,0.437 0.502,0.678 0.852,0.72 l 0.458,-0.458 v -0.196 c 0,-0.698 -0.24,-1.332 -0.721,-1.901 l -0.59,-0.065 c -0.262,0.262 -0.393,0.568 -0.393,0.917 0.263,0.262 0.394,0.589 0.394,0.983 z" /><path
     style="fill:#00082d"
     inkscape:connector-curvature="0"
     id="path174"
     d="m 327.2,165.139 c -0.961,-0.96 -1.441,-2.119 -1.441,-3.473 0,-1.354 0.48,-2.511 1.441,-3.473 0.961,-0.961 2.119,-1.442 3.473,-1.442 1.048,0 1.987,0.295 2.818,0.885 0.83,0.59 1.419,1.343 1.769,2.261 0.35,-0.917 0.939,-1.671 1.77,-2.261 0.83,-0.59 1.77,-0.885 2.817,-0.885 1.049,0 1.988,0.295 2.818,0.885 0.83,0.59 1.419,1.343 1.77,2.261 0.348,-0.917 0.938,-1.671 1.769,-2.261 0.829,-0.59 1.77,-0.885 2.818,-0.885 1.353,0 2.511,0.481 3.473,1.442 0.96,0.961 1.441,2.119 1.441,3.473 0,1.354 -0.481,2.513 -1.441,3.473 -0.962,0.961 -2.12,1.442 -3.473,1.442 -1.048,0 -1.989,-0.295 -2.818,-0.885 -0.83,-0.59 -1.42,-1.344 -1.769,-2.261 -0.351,0.917 -0.94,1.671 -1.77,2.261 -0.83,0.589 -1.769,0.885 -2.818,0.885 -1.048,0 -1.988,-0.295 -2.817,-0.885 -0.831,-0.59 -1.42,-1.344 -1.77,-2.261 -0.35,0.917 -0.939,1.671 -1.769,2.261 -0.831,0.589 -1.77,0.885 -2.818,0.885 -1.355,0 -2.512,-0.48 -3.473,-1.442 z m 0,29.487 c -0.961,-0.96 -1.441,-2.118 -1.441,-3.473 0,-1.354 0.48,-2.512 1.441,-3.473 0.961,-0.961 2.119,-1.442 3.473,-1.442 1.048,0 1.987,0.295 2.818,0.885 0.83,0.589 1.419,1.343 1.769,2.261 0.35,-0.917 0.939,-1.671 1.77,-2.261 0.83,-0.59 1.77,-0.885 2.817,-0.885 1.049,0 1.988,0.295 2.818,0.885 0.83,0.589 1.419,1.343 1.77,2.261 0.348,-0.917 0.938,-1.671 1.769,-2.261 0.829,-0.59 1.77,-0.885 2.818,-0.885 1.353,0 2.511,0.481 3.473,1.442 0.96,0.961 1.441,2.119 1.441,3.473 0,1.354 -0.481,2.513 -1.441,3.473 -0.962,0.962 -2.12,1.442 -3.473,1.442 -1.048,0 -1.989,-0.295 -2.818,-0.884 -0.83,-0.59 -1.42,-1.344 -1.769,-2.261 -0.351,0.917 -0.94,1.671 -1.77,2.261 -0.83,0.589 -1.769,0.884 -2.818,0.884 -1.048,0 -1.988,-0.295 -2.817,-0.884 -0.831,-0.59 -1.42,-1.344 -1.77,-2.261 -0.35,0.917 -0.939,1.671 -1.769,2.261 -0.831,0.589 -1.77,0.884 -2.818,0.884 -1.355,0 -2.512,-0.48 -3.473,-1.442 z m 0.688,-35.745 c -0.765,0.765 -1.147,1.693 -1.147,2.785 0,1.093 0.382,2.021 1.147,2.785 0.764,0.765 1.692,1.146 2.785,1.146 1.092,0 2.02,-0.382 2.785,-1.146 0.764,-0.764 1.147,-1.692 1.147,-2.785 0,-1.092 -0.383,-2.02 -1.147,-2.785 -0.765,-0.764 -1.693,-1.147 -2.785,-1.147 -1.092,0 -2.021,0.383 -2.785,1.147 z m 0,29.488 c -0.765,0.765 -1.147,1.693 -1.147,2.785 0,1.093 0.382,2.021 1.147,2.785 0.764,0.765 1.692,1.147 2.785,1.147 1.092,0 2.02,-0.382 2.785,-1.147 0.764,-0.763 1.147,-1.692 1.147,-2.785 0,-1.092 -0.383,-2.02 -1.147,-2.785 -0.765,-0.764 -1.693,-1.147 -2.785,-1.147 -1.092,0 -2.021,0.383 -2.785,1.147 z m 0.459,-24.377 c -0.634,-0.633 -0.951,-1.409 -0.951,-2.326 0,-0.917 0.316,-1.692 0.951,-2.326 0.633,-0.633 1.409,-0.95 2.326,-0.95 0.917,0 1.693,0.317 2.327,0.95 0.633,0.634 0.95,1.409 0.95,2.326 0,0.917 -0.317,1.693 -0.95,2.326 -0.634,0.634 -1.409,0.951 -2.327,0.951 -0.917,0 -1.693,-0.317 -2.326,-0.951 z m 0,29.488 c -0.634,-0.633 -0.951,-1.409 -0.951,-2.326 0,-0.917 0.316,-1.692 0.951,-2.327 0.633,-0.633 1.409,-0.95 2.326,-0.95 0.917,0 1.693,0.317 2.327,0.95 0.633,0.634 0.95,1.41 0.95,2.327 0,0.917 -0.317,1.693 -0.95,2.326 -0.634,0.634 -1.409,0.951 -2.327,0.951 -0.917,0 -1.693,-0.317 -2.326,-0.951 z m 0.688,-31.879 c 0,-0.394 0.13,-0.721 0.393,-0.983 0,-0.35 -0.131,-0.656 -0.393,-0.918 l -0.59,0.066 c -0.481,0.568 -0.72,1.202 -0.72,1.9 v 0.197 l 0.458,0.458 c 0.349,-0.043 0.633,-0.283 0.852,-0.72 z m 0,29.488 c 0,-0.394 0.13,-0.722 0.393,-0.983 0,-0.349 -0.131,-0.656 -0.393,-0.917 l -0.59,0.065 c -0.481,0.568 -0.72,1.202 -0.72,1.9 v 0.197 l 0.458,0.458 c 0.349,-0.043 0.633,-0.284 0.852,-0.72 z m 1.245,-27.85 c -0.438,-0.087 -0.765,-0.328 -0.983,-0.721 l -0.524,-0.13 -0.459,0.196 -0.131,0.655 c 0.48,0.7 1.07,1.114 1.769,1.245 l 0.59,-0.262 v -0.524 z m 0,29.488 c -0.438,-0.087 -0.765,-0.328 -0.983,-0.721 l -0.524,-0.131 -0.459,0.196 -0.131,0.656 c 0.48,0.699 1.07,1.114 1.769,1.245 l 0.59,-0.262 v -0.524 z m -0.983,-33.223 c 0.131,0.393 0.394,0.612 0.787,0.655 0.262,-0.086 0.458,-0.131 0.589,-0.131 0.131,0 0.328,0.044 0.59,0.131 0.393,-0.043 0.655,-0.262 0.787,-0.655 l -0.263,-0.59 c -0.306,-0.131 -0.678,-0.197 -1.114,-0.197 -0.437,0 -0.809,0.065 -1.114,0.197 z m 0,29.488 c 0.131,0.393 0.394,0.612 0.787,0.655 0.262,-0.086 0.458,-0.131 0.589,-0.131 0.131,0 0.328,0.045 0.59,0.131 0.393,-0.043 0.655,-0.262 0.787,-0.655 l -0.263,-0.59 c -0.306,-0.131 -0.678,-0.197 -1.114,-0.197 -0.437,0 -0.809,0.066 -1.114,0.197 z m 0.459,-28.243 c -0.263,0.262 -0.394,0.568 -0.394,0.917 0,0.351 0.131,0.655 0.394,0.917 0.262,0.263 0.567,0.393 0.917,0.393 0.349,0 0.655,-0.13 0.917,-0.393 0.262,-0.262 0.394,-0.567 0.394,-0.917 0,-0.349 -0.131,-0.655 -0.394,-0.917 -0.262,-0.262 -0.568,-0.394 -0.917,-0.394 -0.35,0 -0.655,0.132 -0.917,0.394 z m 0,29.488 c -0.263,0.262 -0.394,0.568 -0.394,0.917 0,0.351 0.131,0.655 0.394,0.917 0.262,0.263 0.567,0.394 0.917,0.394 0.349,0 0.655,-0.131 0.917,-0.394 0.262,-0.262 0.394,-0.566 0.394,-0.917 0,-0.349 -0.131,-0.655 -0.394,-0.917 -0.262,-0.263 -0.568,-0.393 -0.917,-0.393 -0.35,0 -0.655,0.13 -0.917,0.393 z m 0.917,-27.916 c -0.437,0 -0.655,-0.218 -0.655,-0.655 0,-0.436 0.218,-0.655 0.655,-0.655 0.436,0 0.655,0.219 0.655,0.655 0,0.437 -0.219,0.655 -0.655,0.655 z m 0,29.488 c -0.437,0 -0.655,-0.218 -0.655,-0.655 0,-0.436 0.218,-0.655 0.655,-0.655 0.436,0 0.655,0.219 0.655,0.655 0,0.437 -0.219,0.655 -0.655,0.655 z m 0.721,-27.325 c 0.698,-0.131 1.288,-0.545 1.77,-1.245 l -0.132,-0.655 -0.458,-0.196 -0.523,0.13 c -0.22,0.394 -0.547,0.634 -0.983,0.721 l -0.262,0.458 v 0.524 z m 0,29.487 c 0.698,-0.131 1.288,-0.545 1.77,-1.245 l -0.132,-0.656 -0.458,-0.196 -0.523,0.131 c -0.22,0.393 -0.547,0.634 -0.983,0.721 l -0.262,0.458 v 0.524 z m 0.918,-32.37 c 0.218,0.437 0.501,0.677 0.852,0.72 l 0.458,-0.458 v -0.197 c 0,-0.698 -0.241,-1.332 -0.721,-1.9 l -0.589,-0.066 c -0.262,0.262 -0.394,0.568 -0.394,0.918 0.262,0.262 0.394,0.589 0.394,0.983 z m 0,29.488 c 0.218,0.436 0.501,0.677 0.852,0.72 l 0.458,-0.458 v -0.197 c 0,-0.698 -0.241,-1.332 -0.721,-1.9 l -0.589,-0.065 c -0.262,0.262 -0.394,0.568 -0.394,0.917 0.262,0.261 0.394,0.589 0.394,0.983 z m 4.75,-32.208 c -0.765,0.765 -1.147,1.693 -1.147,2.785 0,1.093 0.382,2.021 1.147,2.785 0.764,0.765 1.692,1.146 2.785,1.146 1.092,0 2.02,-0.382 2.785,-1.146 0.764,-0.764 1.147,-1.692 1.147,-2.785 0,-1.092 -0.383,-2.02 -1.147,-2.785 -0.765,-0.764 -1.693,-1.147 -2.785,-1.147 -1.093,0 -2.021,0.383 -2.785,1.147 z m 0,29.488 c -0.765,0.765 -1.147,1.693 -1.147,2.785 0,1.093 0.382,2.021 1.147,2.785 0.764,0.765 1.692,1.147 2.785,1.147 1.092,0 2.02,-0.382 2.785,-1.147 0.764,-0.763 1.147,-1.692 1.147,-2.785 0,-1.092 -0.383,-2.02 -1.147,-2.785 -0.765,-0.764 -1.693,-1.147 -2.785,-1.147 -1.093,0 -2.021,0.383 -2.785,1.147 z m 0.459,-24.377 c -0.634,-0.633 -0.95,-1.409 -0.95,-2.326 0,-0.917 0.316,-1.692 0.95,-2.326 0.633,-0.633 1.409,-0.95 2.326,-0.95 0.917,0 1.692,0.317 2.326,0.95 0.633,0.634 0.951,1.409 0.951,2.326 0,0.917 -0.317,1.693 -0.951,2.326 -0.634,0.634 -1.409,0.951 -2.326,0.951 -0.917,0 -1.694,-0.317 -2.326,-0.951 z m 0,29.488 c -0.634,-0.633 -0.95,-1.409 -0.95,-2.326 0,-0.917 0.316,-1.692 0.95,-2.327 0.633,-0.633 1.409,-0.95 2.326,-0.95 0.917,0 1.692,0.317 2.326,0.95 0.633,0.634 0.951,1.41 0.951,2.327 0,0.917 -0.317,1.693 -0.951,2.326 -0.634,0.634 -1.409,0.951 -2.326,0.951 -0.917,0 -1.694,-0.317 -2.326,-0.951 z m 0.687,-31.879 c 0,-0.394 0.131,-0.721 0.393,-0.983 0,-0.35 -0.131,-0.656 -0.393,-0.918 l -0.589,0.066 c -0.482,0.568 -0.721,1.202 -0.721,1.9 v 0.197 l 0.458,0.458 c 0.35,-0.043 0.633,-0.283 0.852,-0.72 z m 0,29.488 c 0,-0.394 0.131,-0.722 0.393,-0.983 0,-0.349 -0.131,-0.656 -0.393,-0.917 l -0.589,0.065 c -0.482,0.568 -0.721,1.202 -0.721,1.9 v 0.197 l 0.458,0.458 c 0.35,-0.043 0.633,-0.284 0.852,-0.72 z m 1.246,-27.85 c -0.437,-0.087 -0.765,-0.328 -0.983,-0.721 l -0.524,-0.13 -0.459,0.196 -0.131,0.655 c 0.48,0.7 1.07,1.114 1.77,1.245 l 0.589,-0.262 v -0.524 z m 0,29.488 c -0.437,-0.087 -0.765,-0.328 -0.983,-0.721 l -0.524,-0.131 -0.459,0.196 -0.131,0.656 c 0.48,0.699 1.07,1.114 1.77,1.245 l 0.589,-0.262 v -0.524 z m -0.983,-33.223 c 0.131,0.393 0.394,0.612 0.787,0.655 0.262,-0.086 0.458,-0.131 0.589,-0.131 0.131,0 0.328,0.044 0.59,0.131 0.393,-0.043 0.655,-0.262 0.787,-0.655 l -0.262,-0.59 c -0.306,-0.131 -0.678,-0.197 -1.114,-0.197 -0.436,0 -0.809,0.065 -1.114,0.197 z m 0,29.488 c 0.131,0.393 0.394,0.612 0.787,0.655 0.262,-0.086 0.458,-0.131 0.589,-0.131 0.131,0 0.328,0.045 0.59,0.131 0.393,-0.043 0.655,-0.262 0.787,-0.655 l -0.262,-0.59 c -0.306,-0.131 -0.678,-0.197 -1.114,-0.197 -0.436,0 -0.809,0.066 -1.114,0.197 z m 0.459,-28.243 c -0.263,0.262 -0.394,0.568 -0.394,0.917 0,0.351 0.131,0.655 0.394,0.917 0.262,0.263 0.567,0.393 0.917,0.393 0.349,0 0.656,-0.13 0.917,-0.393 0.263,-0.262 0.394,-0.567 0.394,-0.917 0,-0.349 -0.131,-0.655 -0.394,-0.917 -0.262,-0.262 -0.568,-0.394 -0.917,-0.394 -0.35,0 -0.655,0.132 -0.917,0.394 z m 0,29.488 c -0.263,0.262 -0.394,0.568 -0.394,0.917 0,0.351 0.131,0.655 0.394,0.917 0.262,0.263 0.567,0.394 0.917,0.394 0.349,0 0.656,-0.131 0.917,-0.394 0.263,-0.262 0.394,-0.566 0.394,-0.917 0,-0.349 -0.131,-0.655 -0.394,-0.917 -0.262,-0.263 -0.568,-0.393 -0.917,-0.393 -0.35,0 -0.655,0.13 -0.917,0.393 z m 0.917,-27.916 c -0.437,0 -0.655,-0.218 -0.655,-0.655 0,-0.436 0.218,-0.655 0.655,-0.655 0.437,0 0.656,0.219 0.656,0.655 -10e-4,0.437 -0.22,0.655 -0.656,0.655 z m 0,29.488 c -0.437,0 -0.655,-0.218 -0.655,-0.655 0,-0.436 0.218,-0.655 0.655,-0.655 0.437,0 0.656,0.219 0.656,0.655 -10e-4,0.437 -0.22,0.655 -0.656,0.655 z m 0.721,-27.325 c 0.698,-0.131 1.288,-0.545 1.769,-1.245 l -0.13,-0.655 -0.459,-0.196 -0.524,0.13 c -0.219,0.394 -0.547,0.634 -0.983,0.721 l -0.262,0.458 v 0.524 z m 0,29.487 c 0.698,-0.131 1.288,-0.545 1.769,-1.245 l -0.13,-0.656 -0.459,-0.196 -0.524,0.131 c -0.219,0.393 -0.547,0.634 -0.983,0.721 l -0.262,0.458 v 0.524 z m 0.917,-32.37 c 0.218,0.437 0.501,0.677 0.852,0.72 l 0.458,-0.458 v -0.197 c 0,-0.698 -0.24,-1.332 -0.721,-1.9 l -0.589,-0.066 c -0.262,0.262 -0.394,0.568 -0.394,0.918 0.263,0.262 0.394,0.589 0.394,0.983 z m 0,29.488 c 0.218,0.436 0.501,0.677 0.852,0.72 l 0.458,-0.458 v -0.197 c 0,-0.698 -0.24,-1.332 -0.721,-1.9 l -0.589,-0.065 c -0.262,0.262 -0.394,0.568 -0.394,0.917 0.263,0.261 0.394,0.589 0.394,0.983 z m 4.751,-32.208 c -0.765,0.765 -1.147,1.693 -1.147,2.785 0,1.093 0.382,2.021 1.147,2.785 0.764,0.765 1.692,1.146 2.785,1.146 1.091,0 2.02,-0.382 2.785,-1.146 0.764,-0.764 1.147,-1.692 1.147,-2.785 0,-1.092 -0.383,-2.02 -1.147,-2.785 -0.765,-0.764 -1.693,-1.147 -2.785,-1.147 -1.093,0 -2.021,0.383 -2.785,1.147 z m 0,29.488 c -0.765,0.765 -1.147,1.693 -1.147,2.785 0,1.093 0.382,2.021 1.147,2.785 0.764,0.765 1.692,1.147 2.785,1.147 1.091,0 2.02,-0.382 2.785,-1.147 0.764,-0.763 1.147,-1.692 1.147,-2.785 0,-1.092 -0.383,-2.02 -1.147,-2.785 -0.765,-0.764 -1.693,-1.147 -2.785,-1.147 -1.093,0 -2.021,0.383 -2.785,1.147 z m 0.459,-24.377 c -0.634,-0.633 -0.95,-1.409 -0.95,-2.326 0,-0.917 0.316,-1.692 0.95,-2.326 0.632,-0.633 1.409,-0.95 2.326,-0.95 0.917,0 1.692,0.317 2.326,0.95 0.633,0.634 0.95,1.409 0.95,2.326 0,0.917 -0.317,1.693 -0.95,2.326 -0.634,0.634 -1.409,0.951 -2.326,0.951 -0.917,0 -1.694,-0.317 -2.326,-0.951 z m 0,29.488 c -0.634,-0.633 -0.95,-1.409 -0.95,-2.326 0,-0.917 0.316,-1.692 0.95,-2.327 0.632,-0.633 1.409,-0.95 2.326,-0.95 0.917,0 1.692,0.317 2.326,0.95 0.633,0.634 0.95,1.41 0.95,2.327 0,0.917 -0.317,1.693 -0.95,2.326 -0.634,0.634 -1.409,0.951 -2.326,0.951 -0.917,0 -1.694,-0.317 -2.326,-0.951 z m 0.688,-31.879 c 0,-0.394 0.13,-0.721 0.393,-0.983 0,-0.35 -0.131,-0.656 -0.393,-0.918 l -0.59,0.066 c -0.481,0.568 -0.721,1.202 -0.721,1.9 v 0.197 l 0.458,0.458 c 0.349,-0.043 0.634,-0.283 0.853,-0.72 z m 0,29.488 c 0,-0.394 0.13,-0.722 0.393,-0.983 0,-0.349 -0.131,-0.656 -0.393,-0.917 l -0.59,0.065 c -0.481,0.568 -0.721,1.202 -0.721,1.9 v 0.197 l 0.458,0.458 c 0.349,-0.043 0.634,-0.284 0.853,-0.72 z m 1.245,-27.85 c -0.438,-0.087 -0.765,-0.328 -0.983,-0.721 l -0.524,-0.13 -0.459,0.196 -0.131,0.655 c 0.48,0.7 1.07,1.114 1.77,1.245 l 0.589,-0.262 v -0.524 z m 0,29.488 c -0.438,-0.087 -0.765,-0.328 -0.983,-0.721 l -0.524,-0.131 -0.459,0.196 -0.131,0.656 c 0.48,0.699 1.07,1.114 1.77,1.245 l 0.589,-0.262 v -0.524 z m -0.983,-33.223 c 0.131,0.393 0.394,0.612 0.787,0.655 0.262,-0.086 0.458,-0.131 0.59,-0.131 0.132,0 0.328,0.044 0.589,0.131 0.394,-0.043 0.656,-0.262 0.787,-0.655 l -0.263,-0.59 c -0.306,-0.131 -0.678,-0.197 -1.114,-0.197 -0.438,0 -0.809,0.065 -1.114,0.197 z m 0,29.488 c 0.131,0.393 0.394,0.612 0.787,0.655 0.262,-0.086 0.458,-0.131 0.59,-0.131 0.132,0 0.328,0.045 0.589,0.131 0.394,-0.043 0.656,-0.262 0.787,-0.655 l -0.263,-0.59 c -0.306,-0.131 -0.678,-0.197 -1.114,-0.197 -0.438,0 -0.809,0.066 -1.114,0.197 z m 0.459,-28.243 c -0.262,0.262 -0.394,0.568 -0.394,0.917 0,0.351 0.132,0.655 0.394,0.917 0.262,0.263 0.567,0.393 0.917,0.393 0.349,0 0.655,-0.13 0.917,-0.393 0.263,-0.262 0.394,-0.567 0.394,-0.917 0,-0.349 -0.131,-0.655 -0.394,-0.917 -0.262,-0.262 -0.568,-0.394 -0.917,-0.394 -0.35,0 -0.656,0.132 -0.917,0.394 z m 0,29.488 c -0.262,0.262 -0.394,0.568 -0.394,0.917 0,0.351 0.132,0.655 0.394,0.917 0.262,0.263 0.567,0.394 0.917,0.394 0.349,0 0.655,-0.131 0.917,-0.394 0.263,-0.262 0.394,-0.566 0.394,-0.917 0,-0.349 -0.131,-0.655 -0.394,-0.917 -0.262,-0.263 -0.568,-0.393 -0.917,-0.393 -0.35,0 -0.656,0.13 -0.917,0.393 z m 0.917,-27.916 c -0.438,0 -0.656,-0.218 -0.656,-0.655 0,-0.436 0.218,-0.655 0.656,-0.655 0.436,0 0.655,0.219 0.655,0.655 0,0.437 -0.219,0.655 -0.655,0.655 z m 0,29.488 c -0.438,0 -0.656,-0.218 -0.656,-0.655 0,-0.436 0.218,-0.655 0.656,-0.655 0.436,0 0.655,0.219 0.655,0.655 0,0.437 -0.219,0.655 -0.655,0.655 z m 0.721,-27.325 c 0.698,-0.131 1.288,-0.545 1.77,-1.245 l -0.131,-0.655 -0.459,-0.196 -0.523,0.13 c -0.22,0.394 -0.547,0.634 -0.983,0.721 l -0.262,0.458 v 0.524 z m 0,29.487 c 0.698,-0.131 1.288,-0.545 1.77,-1.245 l -0.131,-0.656 -0.459,-0.196 -0.523,0.131 c -0.22,0.393 -0.547,0.634 -0.983,0.721 l -0.262,0.458 v 0.524 z m 0.917,-32.37 c 0.218,0.437 0.502,0.677 0.852,0.72 l 0.458,-0.458 v -0.197 c 0,-0.698 -0.24,-1.332 -0.721,-1.9 l -0.59,-0.066 c -0.262,0.262 -0.393,0.568 -0.393,0.918 0.263,0.262 0.394,0.589 0.394,0.983 z m 0,29.488 c 0.218,0.436 0.502,0.677 0.852,0.72 l 0.458,-0.458 v -0.197 c 0,-0.698 -0.24,-1.332 -0.721,-1.9 l -0.59,-0.065 c -0.262,0.262 -0.393,0.568 -0.393,0.917 0.263,0.261 0.394,0.589 0.394,0.983 z" /></g></svg>