<?xml version="1.0" encoding="UTF-8" standalone="no"?>
<!-- Generator: Adobe Illustrator 16.0.0, SVG Export Plug-In . SVG Version: 6.00 Build 0)  -->

<svg
   xmlns:dc="http://purl.org/dc/elements/1.1/"
   xmlns:cc="http://creativecommons.org/ns#"
   xmlns:rdf="http://www.w3.org/1999/02/22-rdf-syntax-ns#"
   xmlns:svg="http://www.w3.org/2000/svg"
   xmlns="http://www.w3.org/2000/svg"
   xmlns:sodipodi="http://sodipodi.sourceforge.net/DTD/sodipodi-0.dtd"
   xmlns:inkscape="http://www.inkscape.org/namespaces/inkscape"
   version="1.1"
   id="图层_1"
   x="0px"
   y="0px"
   width="139.76401"
   height="200"
   viewBox="0 0 139.764 200"
   enable-background="new 0 0 714 341"
   xml:space="preserve"
   sodipodi:docname="0505梅.svg"
   inkscape:version="0.92.3 (2405546, 2018-03-11)"><metadata
   id="metadata621"><rdf:RDF><cc:Work
       rdf:about=""><dc:format>image/svg+xml</dc:format><dc:type
         rdf:resource="http://purl.org/dc/dcmitype/StillImage" /><dc:title /></cc:Work></rdf:RDF></metadata><defs
   id="defs619" /><sodipodi:namedview
   pagecolor="#ffffff"
   bordercolor="#666666"
   borderopacity="1"
   objecttolerance="10"
   gridtolerance="10"
   guidetolerance="10"
   inkscape:pageopacity="0"
   inkscape:pageshadow="2"
   inkscape:window-width="1366"
   inkscape:window-height="705"
   id="namedview617"
   showgrid="false"
   inkscape:zoom="1"
   inkscape:cx="-223.99666"
   inkscape:cy="112.60966"
   inkscape:window-x="-8"
   inkscape:window-y="-8"
   inkscape:window-maximized="1"
   inkscape:current-layer="图层_1" />



















































































































































































































































































































<g
   transform="matrix(4.0331525,0,0,4.0331525,-1209.1633,-881.46968)"
   id="g2111"><path
     inkscape:connector-curvature="0"
     id="path404"
     d="m 334.458,222.14 v 42.42 c 0,0.995 -0.349,1.842 -1.045,2.539 -0.697,0.696 -1.544,1.046 -2.54,1.046 H 303.39 c -0.996,0 -1.842,-0.35 -2.539,-1.046 -0.697,-0.697 -1.045,-1.544 -1.045,-2.539 v -42.42 c 0,-0.994 0.348,-1.842 1.045,-2.539 0.697,-0.696 1.543,-1.045 2.539,-1.045 h 27.483 c 0.996,0 1.842,0.349 2.54,1.045 0.696,0.697 1.045,1.545 1.045,2.539 z m -3.584,-1.792 h -27.483 c -0.518,0 -0.946,0.17 -1.284,0.508 -0.339,0.339 -0.508,0.767 -0.508,1.284 v 42.42 c 0,0.518 0.169,0.945 0.508,1.285 0.338,0.338 0.766,0.508 1.284,0.508 h 27.483 c 0.518,0 0.946,-0.17 1.285,-0.508 0.338,-0.34 0.508,-0.768 0.508,-1.285 v -42.42 c 0,-0.518 -0.17,-0.945 -0.508,-1.284 -0.34,-0.338 -0.768,-0.508 -1.285,-0.508 z" /><path
     style="fill:#560042"
     inkscape:connector-curvature="0"
     id="path406"
     d="m 307.751,261.934 c 0,-0.127 -0.256,-0.256 -0.767,-0.383 h -0.575 -0.957 c -0.64,0.256 -1.023,0.575 -1.15,0.958 l -0.095,0.288 c -0.064,0.19 -0.096,0.352 -0.096,0.479 v 0.192 c 0.127,0.479 0.574,0.861 1.342,1.149 0.126,0 0.383,-0.127 0.766,-0.383 0.127,-0.128 0.51,-0.702 1.15,-1.725 l 0.192,-0.19 c 0.126,-0.161 0.19,-0.288 0.19,-0.385 z" /><path
     style="fill:#560042"
     inkscape:connector-curvature="0"
     id="path408"
     d="m 310.577,256.953 c 0,-0.511 -0.304,-0.766 -0.91,-0.766 -0.895,0.128 -1.342,0.416 -1.342,0.863 0,0.446 0.255,0.67 0.766,0.67 h 0.192 c 0.384,0 0.639,-0.063 0.767,-0.192 0.351,-0.127 0.527,-0.32 0.527,-0.575 z" /><path
     style="fill:#560042"
     inkscape:connector-curvature="0"
     id="path410"
     d="m 311.008,259.636 h -0.191 c -1.149,0 -1.916,0.448 -2.299,1.341 v 0.383 c 0,0.479 0.255,0.734 0.766,0.766 0.255,0 0.447,-0.192 0.576,-0.575 0.126,0 0.191,-0.063 0.191,-0.191 v -0.383 c 0,-0.256 0.175,-0.639 0.527,-1.149 z" /><path
     style="fill:#870000"
     inkscape:connector-curvature="0"
     id="path412"
     d="m 305.107,222.85 h 0.178 c 0.946,0.208 1.42,0.445 1.42,0.71 l -0.177,2.31 h 0.711 c 0.355,0 0.533,0.119 0.533,0.357 0,0.118 -0.488,0.473 -1.466,1.065 v 1.065 l 0.755,-0.888 v 0.178 l -0.755,2.132 v 0.178 h 0.222 c 1.776,0 2.665,-0.355 2.665,-1.065 0.236,-0.445 0.355,-0.859 0.355,-1.245 l -0.177,-0.178 c 0.71,-0.444 1.775,-0.74 3.197,-0.887 1.066,0.118 1.599,0.651 1.599,1.598 v 0.533 h -0.178 v 0.179 h 0.178 l 1.42,-0.179 c 0.445,0.088 0.918,0.385 1.422,0.889 v 0.177 l -0.178,0.178 -2.842,-0.355 -0.711,3.199 0.355,0.177 h 0.178 v -0.4 h 0.178 c 0.592,1.214 0.888,1.94 0.888,2.176 v 0.178 l -0.355,0.179 c -0.237,0 -0.77,-0.416 -1.599,-1.244 -0.355,0.947 -0.666,1.42 -0.932,1.42 -1.066,-0.561 -1.585,-1.095 -1.555,-1.599 l 0.888,0.355 c 0.237,0 0.459,-0.294 0.667,-0.887 -1.51,-0.712 -2.562,-1.067 -3.154,-1.067 l -0.889,0.178 -0.177,-0.355 v -0.178 l 0.533,-1.065 -0.888,0.178 c -0.592,-0.208 -0.889,-0.445 -0.889,-0.712 h -0.222 v 0.357 l 0.222,4.085 c -0.119,0.474 -0.297,0.71 -0.533,0.71 -0.237,0 -0.474,-0.473 -0.71,-1.42 v -2.665 -0.179 l -1.244,1.244 h -0.178 c -0.355,-0.237 -0.533,-0.593 -0.533,-1.065 1.184,-1.541 1.836,-2.783 1.955,-3.732 l -0.533,0.178 h -0.533 c -0.741,-0.118 -1.096,-0.295 -1.066,-0.533 1.42,-0.326 2.25,-0.622 2.487,-0.887 0,-2.133 -0.178,-3.199 -0.533,-3.199 v -0.179 z m 4.797,0 h 0.133 c 0.118,0 0.311,0.296 0.577,0.889 v 0.355 l -0.177,0.888 h 0.177 c 1.303,-0.473 2.19,-0.71 2.665,-0.71 h 0.533 l 0.178,0.355 v 0.177 c 0,0.208 -1.126,0.622 -3.376,1.244 l 0.178,-0.355 c -1.065,0.74 -1.718,1.095 -1.954,1.065 l -0.355,-0.888 c 0.947,-1.451 1.421,-2.457 1.421,-3.02 z m -0.711,8.527 0.71,0.178 0.71,-1.777 c -0.946,0.119 -1.42,0.651 -1.42,1.599 z m 1.066,-3.375 v 0.355 l -0.355,1.066 c 0.828,0 1.243,-0.414 1.243,-1.244 l -0.177,-0.533 h 0.177 c 0.829,0.118 1.244,0.355 1.244,0.71 l -0.178,0.711 c 0.473,0 0.71,-0.059 0.71,-0.177 v -1.067 c 0,-0.355 -0.119,-0.591 -0.355,-0.71 h -0.178 c -0.236,0 -0.947,0.297 -2.131,0.889 z m 0.355,3.73 1.777,0.534 0.533,-2.665 h -0.932 z" /><path
     style="fill:#560042"
     inkscape:connector-curvature="0"
     id="path414"
     d="m 314.649,249.098 h -0.192 -0.192 c -0.128,0 -0.224,0.033 -0.287,0.097 l -0.096,0.095 h -0.191 c -0.383,0 -0.575,0.161 -0.575,0.479 0,0.319 0.192,0.48 0.575,0.48 0.383,0 0.575,-0.129 0.575,-0.385 0,-0.222 -0.128,-0.413 -0.383,-0.574 0.127,0 0.255,0.032 0.383,0.095 l 0.192,0.096 c 0.223,0 0.351,-0.064 0.383,-0.191 z" /><path
     style="fill:#560042"
     inkscape:connector-curvature="0"
     id="path416"
     d="m 316.373,247.756 c 0,-0.223 -0.319,-0.542 -0.958,-0.957 -0.256,0 -0.383,-0.063 -0.383,-0.192 v -0.191 c 0,-0.255 -0.192,-0.383 -0.575,-0.383 -0.256,0 -0.383,0.127 -0.383,0.383 0,0.511 0.127,0.767 0.383,0.767 0.127,0 0.255,-0.063 0.383,-0.192 l 0.192,-0.383 c 0.127,0.129 0.35,0.353 0.67,0.671 0.319,0.319 0.542,0.544 0.67,0.671 0.127,0 0.191,-0.032 0.191,-0.095 v -0.097 h -0.19 z" /><path
     style="fill:#560042"
     inkscape:connector-curvature="0"
     id="path418"
     d="m 316.948,247.565 v -0.192 c -0.128,0 -0.208,-0.063 -0.24,-0.191 l -0.144,-0.192 c -0.128,-0.127 -0.191,-0.254 -0.191,-0.383 l -0.383,-0.191 v -0.192 -0.191 c 0,-0.351 -0.128,-0.543 -0.383,-0.575 -0.256,0 -0.383,0.192 -0.383,0.575 0,0.256 0.127,0.383 0.383,0.383 h 0.191 0.192 l 0.383,0.574 c 0,0.256 0.063,0.448 0.191,0.575 0,0.095 0.128,0.161 0.384,0.191 z" /><path
     style="fill:#560042"
     inkscape:connector-curvature="0"
     id="path420"
     d="m 316.708,246.033 c 0,-0.127 -0.048,-0.271 -0.144,-0.431 0,0.127 0.024,0.262 0.072,0.406 0.049,0.144 0.072,0.281 0.072,0.408 0.127,0.383 0.271,0.703 0.431,0.958 l 0.192,0.192 v -0.192 c -0.033,-0.384 -0.24,-0.831 -0.623,-1.341 z" /><path
     style="fill:#560042"
     inkscape:connector-curvature="0"
     id="path422"
     d="m 318.289,245.266 -0.191,-0.191 c -0.128,-0.127 -0.256,-0.192 -0.383,-0.192 h -0.192 c -0.128,0 -0.191,0.065 -0.191,0.192 -0.128,0.127 -0.192,0.256 -0.192,0.383 0,0.096 0.064,0.224 0.192,0.383 h 0.191 v 0.192 0.191 0.192 0.383 c 0,0.256 0.064,0.383 0.192,0.383 l 0.191,0.191 v -0.383 -0.574 -0.575 h 0.191 v -0.383 z" /><path
     style="fill:#560042"
     inkscape:connector-curvature="0"
     id="path424"
     d="m 319.151,245.17 c -0.064,-0.064 -0.224,-0.096 -0.479,-0.096 -0.128,0 -0.191,0.064 -0.191,0.191 -0.128,0 -0.192,0.097 -0.192,0.288 0,0.192 0.063,0.287 0.192,0.287 v 0.192 l -0.192,0.383 c -0.128,0.383 -0.191,0.64 -0.191,0.767 0,0.127 0.063,0.191 0.191,0.191 v 0.192 l 0.192,-0.192 v -0.191 c 0,-0.127 0.032,-0.352 0.096,-0.671 l 0.095,-0.479 h 0.383 l 0.192,-0.192 v -0.287 c 0,-0.19 -0.033,-0.318 -0.096,-0.383 z" /><path
     style="fill:#560042"
     inkscape:connector-curvature="0"
     id="path426"
     d="m 318.672,246.99 c 0,0.129 0.048,0.192 0.144,0.192 0.127,0 0.271,-0.063 0.432,-0.192 0,-0.127 0.031,-0.286 0.095,-0.479 l 0.097,-0.288 -0.384,0.383 z" /><path
     style="fill:#560042"
     inkscape:connector-curvature="0"
     id="path428"
     d="m 327.677,245.841 c 0,-0.605 -0.319,-1.244 -0.958,-1.915 -0.384,-0.224 -0.895,-0.415 -1.533,-0.576 h -0.383 -0.575 c -0.799,0 -1.501,0.065 -2.107,0.193 -0.128,0.222 -0.256,0.351 -0.383,0.383 v -0.383 -0.193 c 0,-0.797 -0.256,-1.308 -0.767,-1.532 -0.223,-0.127 -0.734,-0.192 -1.532,-0.192 -0.128,0 -0.353,0.032 -0.671,0.095 -0.32,0.065 -0.544,0.097 -0.671,0.097 -1.149,0.383 -1.98,1.022 -2.491,1.915 l -0.191,0.192 c -0.256,-0.127 -0.447,-0.192 -0.575,-0.192 -0.352,-0.095 -0.799,-0.159 -1.342,-0.19 -0.894,0 -1.596,0.127 -2.107,0.383 -0.766,0.51 -1.149,1.149 -1.149,1.915 0,0.129 0.063,0.383 0.191,0.766 0.223,0.512 0.606,0.958 1.149,1.342 l 0.191,0.192 c -0.127,0 -0.255,0.063 -0.383,0.19 -0.894,0.256 -1.469,0.639 -1.724,1.149 -0.257,0.607 -0.384,1.183 -0.384,1.725 0,0.351 0.063,0.607 0.191,0.766 l 0.384,0.383 c 0.383,0.385 0.702,0.575 0.958,0.575 0.127,0 0.702,0.065 1.725,0.193 l 0.239,0.095 c 0.096,0.063 0.207,0.095 0.335,0.095 0.255,0 0.575,-0.063 0.958,-0.19 l 0.191,-0.097 0.192,-0.096 c 0,0.256 0.192,0.512 0.575,0.766 0.638,0.607 1.467,0.927 2.49,0.958 0.255,0 0.446,-0.063 0.575,-0.192 1.533,-0.254 2.746,-0.957 3.641,-2.108 0.383,-0.383 0.574,-0.638 0.574,-0.766 0.127,-0.51 0.192,-0.83 0.192,-0.957 0,-0.256 -0.064,-0.703 -0.192,-1.342 -0.127,0 -0.191,-0.063 -0.191,-0.192 0.478,0.128 0.862,0.192 1.149,0.192 0.383,0 0.942,-0.127 1.677,-0.383 0.511,0 0.91,-0.127 1.197,-0.383 0.384,-0.256 0.767,-0.575 1.15,-0.958 0.257,-0.508 0.385,-1.084 0.385,-1.723 z m -6.898,-1.341 -0.287,0.192 c -0.192,0.127 -0.288,0.256 -0.288,0.383 -0.511,0.479 -0.766,1.054 -0.766,1.725 0,0.383 0.127,0.639 0.383,0.766 v 0.191 h -0.191 c -1.662,0.258 -3.066,0.831 -4.215,1.725 0,0.129 -0.064,0.192 -0.192,0.192 l -0.191,-0.192 c -0.353,0 -0.544,0.192 -0.575,0.575 v 0.192 h 0.192 v 0.191 l -0.192,0.192 v 0.383 0.383 c -0.128,0.127 -0.192,0.207 -0.192,0.239 v 0.096 h -0.191 -0.192 -0.383 c -0.127,0 -0.351,0.04 -0.67,0.121 -0.319,0.08 -0.543,0.118 -0.67,0.118 h -0.192 c -0.511,0 -0.894,-0.127 -1.149,-0.383 -0.353,-0.127 -0.544,-0.447 -0.575,-0.957 v -0.192 c 0,-0.479 0.255,-0.925 0.766,-1.341 0,-0.127 0.191,-0.254 0.575,-0.383 0.383,-0.127 0.639,-0.191 0.767,-0.191 h 0.192 0.144 l -0.144,0.191 c 0.095,0.383 0.287,0.575 0.574,0.575 0.255,0 0.446,-0.063 0.575,-0.192 l 0.096,-0.191 0.095,-0.192 h 0.192 0.383 l 0.575,0.192 h 0.191 l -0.191,-0.383 c -0.225,-0.127 -0.416,-0.192 -0.575,-0.192 -0.128,0 -0.224,0.032 -0.287,0.095 l -0.096,0.097 h -0.192 c -0.128,0 -0.191,-0.032 -0.191,-0.097 v -0.095 -0.19 0.19 h 0.191 c 0.127,0 0.255,-0.127 0.383,-0.383 v -0.095 c 0,-0.064 0.032,-0.097 0.096,-0.097 0.063,0 0.127,0.033 0.192,0.097 0.063,0.063 0.16,0.127 0.288,0.19 l 0.192,0.097 c 0.127,0 0.254,0.063 0.383,0.19 l 0.191,0.192 h 0.191 0.192 c -0.128,-0.256 -0.256,-0.446 -0.383,-0.575 -0.128,-0.127 -0.447,-0.192 -0.958,-0.192 -0.128,0 -0.225,-0.03 -0.288,-0.096 -0.064,-0.063 -0.096,-0.159 -0.096,-0.287 -0.128,-0.127 -0.256,-0.191 -0.383,-0.191 -0.383,0 -0.574,0.191 -0.574,0.574 0,0.129 0.063,0.258 0.191,0.385 -0.127,-0.127 -0.416,-0.288 -0.862,-0.48 -0.447,-0.19 -0.734,-0.415 -0.862,-0.67 -0.383,-0.383 -0.574,-0.766 -0.574,-1.149 0,-0.223 0.191,-0.542 0.574,-0.958 0.607,-0.254 1.246,-0.383 1.917,-0.383 h 0.767 c 0.479,0.128 0.925,0.383 1.341,0.766 l 0.575,0.336 h 0.191 c 0,-0.096 0.048,-0.144 0.144,-0.144 v -0.192 c 0,-0.127 -0.056,-0.286 -0.167,-0.479 -0.112,-0.19 -0.168,-0.351 -0.168,-0.478 0,-0.256 0.112,-0.511 0.335,-0.766 0.798,-0.798 1.772,-1.181 2.922,-1.151 h 0.191 0.383 0.192 0.191 c 0.224,0.256 0.352,0.576 0.383,0.958 v 0.193 c -0.034,0.381 -0.098,0.7 -0.194,0.955 z m 0.766,5.939 c 0,0.639 -0.256,1.149 -0.766,1.532 -0.383,0.383 -0.894,0.703 -1.532,0.958 -0.767,0.256 -1.406,0.383 -1.916,0.383 -1.023,0 -1.661,-0.318 -1.916,-0.958 -0.128,-0.254 -0.192,-0.461 -0.192,-0.622 0,-0.605 0.255,-1.164 0.767,-1.676 0.255,-0.222 0.766,-0.542 1.533,-0.958 0.638,-0.383 1.213,-0.574 1.725,-0.574 h 0.192 0.191 c 0.127,0.127 0.287,0.223 0.478,0.286 0.192,0.065 0.352,0.097 0.479,0.097 0.352,0.255 0.607,0.446 0.767,0.574 0.127,0.256 0.19,0.575 0.19,0.958 z m 4.79,-4.598 c 0,0.639 -0.32,1.149 -0.958,1.533 -0.128,0.128 -0.702,0.255 -1.725,0.383 -0.256,0.129 -0.639,0.192 -1.149,0.192 -0.511,0 -0.894,-0.063 -1.15,-0.192 l -0.191,-0.191 c -0.128,0 -0.287,-0.063 -0.479,-0.192 -0.191,-0.127 -0.352,-0.254 -0.479,-0.383 v -0.383 c 0,-0.383 0.192,-0.766 0.575,-1.149 0.606,-0.639 1.492,-0.958 2.659,-0.958 1.165,0 1.939,0.169 2.322,0.503 0.384,0.333 0.575,0.614 0.575,0.837 z" /><path
     style="fill:#00082d"
     inkscape:connector-curvature="0"
     id="path430"
     d="m 317.906,257.145 c -0.383,-0.256 -0.783,-0.383 -1.198,-0.383 h -0.144 -0.383 c -0.255,0 -0.383,-0.063 -0.383,-0.192 l 0.192,-0.191 c -0.256,-0.351 -0.703,-0.543 -1.341,-0.575 -0.256,0 -0.575,0.129 -0.958,0.383 -0.128,0 -0.256,0.065 -0.383,0.192 l -0.192,0.191 c -0.256,0.512 -0.448,0.766 -0.574,0.766 h -0.096 -0.287 c -1.916,0.48 -3.641,1.183 -5.174,2.107 -0.766,0.256 -1.149,0.576 -1.149,0.958 0,0.382 0.191,0.576 0.574,0.576 0.224,0 0.543,-0.127 0.958,-0.383 1.787,-0.895 3.257,-1.534 4.406,-1.917 0.256,-0.127 0.511,-0.19 0.768,-0.19 l 0.144,0.19 c 0.127,0.8 0.398,1.183 0.813,1.151 0.127,0 0.383,-0.128 0.767,-0.385 l 1.15,-1.34 c 0.127,-0.224 0.223,-0.343 0.288,-0.359 0.063,-0.017 0.159,-0.055 0.287,-0.121 0.127,-0.063 0.255,-0.095 0.383,-0.095 0.127,0 0.511,-0.127 1.15,-0.383 z m -2.683,4.789 h 0.958 c 0.127,0 0.703,-0.127 1.725,-0.383 0.893,-0.383 1.469,-0.574 1.725,-0.574 0.51,0 0.766,-0.127 0.766,-0.383 0,-0.127 -0.032,-0.224 -0.096,-0.288 l -0.096,-0.095 0.383,-0.575 c 0.224,-0.383 0.415,-0.703 0.575,-0.959 l 0.191,-0.574 0.191,0.191 h 0.384 c 0.127,0.129 0.894,0.319 2.299,0.575 1.404,0.256 2.363,0.639 2.874,1.149 l 0.192,0.288 c 0.127,0.191 0.223,0.319 0.288,0.383 0.063,0.063 0.159,0.095 0.287,0.095 0.255,0 0.502,-0.127 0.743,-0.383 0.239,-0.254 0.359,-0.447 0.359,-0.574 0,-0.128 -0.024,-0.256 -0.073,-0.385 -0.047,-0.127 -0.071,-0.222 -0.071,-0.286 0,-0.063 0.063,-0.161 0.191,-0.288 0.127,-0.127 0.223,-0.224 0.287,-0.288 l 0.096,-0.095 c 0,-0.256 -0.144,-0.51 -0.431,-0.766 -0.096,0 -0.336,-0.032 -0.719,-0.097 -0.383,-0.063 -0.639,-0.159 -0.766,-0.288 -0.352,-0.127 -0.607,-0.318 -0.766,-0.574 l -0.191,-0.192 h -0.096 c -0.064,0 -0.16,-0.063 -0.288,-0.191 l -0.766,-0.766 -0.766,-0.768 0.575,-0.191 0.191,-0.192 c 0.127,-0.127 0.288,-0.191 0.479,-0.191 0.191,0 0.35,-0.032 0.479,-0.095 l 0.192,-0.097 0.191,-0.383 c 0,-0.127 0.063,-0.317 0.191,-0.573 0.095,-0.256 0.159,-0.448 0.191,-0.576 l -0.383,-0.383 c 0,-0.256 -0.064,-0.4 -0.191,-0.432 h -0.384 -0.383 c -0.256,0 -0.383,-0.024 -0.383,-0.072 0,-0.047 -0.072,-0.136 -0.215,-0.263 -0.144,-0.127 -0.215,-0.256 -0.215,-0.383 -0.224,-0.256 -0.335,-0.446 -0.335,-0.575 l 0.096,-0.096 c 0.063,-0.063 0.096,-0.161 0.096,-0.288 0,-0.127 -0.064,-0.192 -0.192,-0.192 -0.128,0 -0.256,0.065 -0.383,0.192 -0.128,0.127 -0.191,0.319 -0.191,0.576 -0.128,0.383 -0.192,0.639 -0.192,0.766 0,0.127 0.064,0.319 0.192,0.573 0,0.129 0.031,0.225 0.095,0.288 0.063,0.065 0.096,0.161 0.096,0.288 0,0.127 -0.064,0.256 -0.191,0.383 -1.533,1.149 -2.811,2.237 -3.833,3.257 l -0.574,0.575 c 0,0.127 -0.064,0.191 -0.191,0.191 l -0.192,0.192 -1.15,1.149 c -1.149,1.149 -2.235,2.427 -3.257,3.832 h 0.192 z m 15.519,-39.851 c -1.789,3.705 -3.002,6.196 -3.64,7.472 l -0.191,0.192 v -0.192 c -0.383,-0.352 -0.767,-0.542 -1.15,-0.574 h -0.575 c -0.224,0.351 -0.352,0.605 -0.383,0.766 l 0.144,0.574 c 0.255,0.383 0.527,0.639 0.814,0.768 0.127,0 0.255,0.063 0.383,0.191 -0.128,0.095 -0.191,0.224 -0.191,0.383 -0.639,1.054 -1.341,2.012 -2.107,2.874 -1.022,1.149 -1.724,1.854 -2.107,2.108 -0.256,0.256 -0.512,0.448 -0.767,0.575 -0.351,0.127 -0.542,0.256 -0.574,0.383 v 0.191 c 0,0.129 0.063,0.256 0.191,0.383 l 0.192,0.192 c 0.096,0.256 0.223,0.622 0.383,1.102 l -0.192,-0.144 c -0.766,-0.383 -1.277,-0.83 -1.532,-1.341 -0.256,-0.478 -0.463,-0.734 -0.624,-0.766 h -0.144 c -0.383,0 -0.575,0.191 -0.575,0.574 0,0.129 0.127,0.32 0.383,0.576 0.479,0.639 1.181,1.005 2.107,1.102 0.352,0 0.543,0.081 0.575,0.239 0.127,0 0.191,0.256 0.191,0.766 0,0.256 0.063,0.766 0.191,1.532 0.128,0.8 0.384,1.183 0.767,1.151 0.255,0 0.383,-0.256 0.383,-0.768 v -0.766 c -0.128,-0.605 -0.256,-1.054 -0.383,-1.341 -0.127,-1.277 -0.383,-2.108 -0.767,-2.491 h -0.191 v -0.191 c 0.256,-0.095 0.447,-0.222 0.575,-0.383 0.894,-0.798 1.788,-1.692 2.682,-2.683 2.301,-2.808 4.344,-6.96 6.132,-12.454 z m -5.173,35.445 h -0.192 c -0.479,0 -0.927,-0.063 -1.34,-0.192 -0.128,0 -0.576,0.065 -1.342,0.192 h -0.574 l -0.096,0.095 -0.096,0.097 c 0,-0.127 0.063,-0.256 0.192,-0.385 0.766,-1.149 1.467,-1.916 2.107,-2.298 h 0.191 c 0.127,0.607 0.303,1.118 0.527,1.532 l 0.623,0.575 v 0.191 z" /><path
     style="fill:#560042"
     inkscape:connector-curvature="0"
     id="path432"
     d="m 327.485,233.339 c -0.256,-0.096 -0.448,-0.144 -0.575,-0.144 -1.182,0 -1.756,0.319 -1.725,0.958 0,0.129 0.063,0.319 0.191,0.576 0.127,0.255 0.192,0.446 0.192,0.573 0.255,0.225 0.574,0.354 0.958,0.383 0.478,0 0.854,-0.127 1.125,-0.383 0.271,-0.254 0.407,-0.51 0.407,-0.766 0.002,-0.541 -0.19,-0.941 -0.573,-1.197 z" /><path
     style="fill:#560042"
     inkscape:connector-curvature="0"
     id="path434"
     d="m 330.742,227.064 c -0.128,-0.637 -0.383,-0.958 -0.766,-0.958 -0.383,0 -0.719,0.192 -1.006,0.575 v 0.383 c 0,0.225 0.072,0.504 0.215,0.838 0.144,0.336 0.343,0.503 0.599,0.503 0.638,0.001 0.958,-0.446 0.958,-1.341 z" /></g></svg>