<?xml version="1.0" encoding="UTF-8" standalone="no"?>
<!-- Generator: Adobe Illustrator 16.0.0, SVG Export Plug-In . SVG Version: 6.00 Build 0)  -->

<svg
   xmlns:dc="http://purl.org/dc/elements/1.1/"
   xmlns:cc="http://creativecommons.org/ns#"
   xmlns:rdf="http://www.w3.org/1999/02/22-rdf-syntax-ns#"
   xmlns:svg="http://www.w3.org/2000/svg"
   xmlns="http://www.w3.org/2000/svg"
   xmlns:sodipodi="http://sodipodi.sourceforge.net/DTD/sodipodi-0.dtd"
   xmlns:inkscape="http://www.inkscape.org/namespaces/inkscape"
   version="1.1"
   id="图层_1"
   x="0px"
   y="0px"
   width="139.76401"
   height="200"
   viewBox="0 0 139.764 200"
   enable-background="new 0 0 714 341"
   xml:space="preserve"
   sodipodi:docname="0503秋.svg"
   inkscape:version="0.92.3 (2405546, 2018-03-11)"><metadata
   id="metadata621"><rdf:RDF><cc:Work
       rdf:about=""><dc:format>image/svg+xml</dc:format><dc:type
         rdf:resource="http://purl.org/dc/dcmitype/StillImage" /><dc:title /></cc:Work></rdf:RDF></metadata><defs
   id="defs619" /><sodipodi:namedview
   pagecolor="#ffffff"
   bordercolor="#666666"
   borderopacity="1"
   objecttolerance="10"
   gridtolerance="10"
   guidetolerance="10"
   inkscape:pageopacity="0"
   inkscape:pageshadow="2"
   inkscape:window-width="1366"
   inkscape:window-height="705"
   id="namedview617"
   showgrid="false"
   inkscape:zoom="1"
   inkscape:cx="-40.99666"
   inkscape:cy="112.60966"
   inkscape:window-x="-8"
   inkscape:window-y="-8"
   inkscape:window-maximized="1"
   inkscape:current-layer="图层_1" />



















































































































































































































































































































<g
   transform="matrix(4.0331525,0,0,4.0331525,-2209.1956,-882.09078)"
   id="g2051"><path
     inkscape:connector-curvature="0"
     id="path570"
     d="m 547.759,222.294 c 0,-0.994 0.349,-1.842 1.046,-2.539 0.696,-0.696 1.543,-1.045 2.539,-1.045 h 27.483 c 0.995,0 1.843,0.349 2.54,1.045 0.695,0.697 1.045,1.545 1.045,2.539 v 42.42 c 0,0.995 -0.35,1.842 -1.045,2.539 -0.697,0.696 -1.545,1.046 -2.54,1.046 h -27.483 c -0.996,0 -1.843,-0.35 -2.539,-1.046 -0.697,-0.697 -1.046,-1.544 -1.046,-2.539 m 1.793,0 c 0,0.518 0.169,0.945 0.508,1.285 0.338,0.338 0.766,0.508 1.284,0.508 h 27.483 c 0.518,0 0.946,-0.17 1.284,-0.508 0.338,-0.34 0.508,-0.768 0.508,-1.285 v -42.42 c 0,-0.518 -0.17,-0.945 -0.508,-1.284 -0.338,-0.338 -0.767,-0.508 -1.284,-0.508 h -27.483 c -0.519,0 -0.946,0.17 -1.284,0.508 -0.339,0.339 -0.508,0.767 -0.508,1.284" /><path
     style="fill:#870000"
     inkscape:connector-curvature="0"
     id="path572"
     d="m 570.151,225.878 c 0.588,0 0.883,0.235 0.883,0.706 h 0.528 c 0.323,0 0.5,0.118 0.529,0.353 v 0.177 c 0,0.117 -0.353,0.412 -1.058,0.881 l -0.53,1.94 h 0.178 c 0.938,-0.734 1.41,-1.263 1.41,-1.586 0.236,0 0.53,0.117 0.883,0.353 l 0.706,-0.707 -0.883,2.117 c 0,0.323 -0.06,0.501 -0.176,0.53 -0.353,0 -0.604,-0.413 -0.751,-1.235 -0.823,0.941 -1.221,1.763 -1.189,2.469 v 1.235 0.706 c -0.119,0.559 -0.235,0.853 -0.353,0.882 -0.235,0 -0.413,-0.353 -0.53,-1.058 l 0.133,-1.765 -1.721,1.765 h -0.353 l -0.176,-0.353 v -0.177 l 1.764,-2.999 c 0.323,-0.852 0.485,-1.381 0.485,-1.588 -0.824,0.088 -1.633,0.559 -2.426,1.411 -0.354,-0.117 -0.53,-0.353 -0.53,-0.705 0,-0.352 0.236,-0.706 0.707,-1.058 l 0.353,0.353 c 0.823,-0.234 1.528,-0.764 2.116,-1.587 0,-0.205 -0.117,-0.441 -0.353,-0.706 0.031,-0.118 0.148,-0.235 0.354,-0.354 z m 0.883,-2.646 c 0.822,0.117 1.235,0.411 1.235,0.883 l -1.588,0.88 c -1.061,0.736 -1.823,1.089 -2.294,1.06 1.293,-1.177 1.941,-1.882 1.941,-2.117 v -0.175 z m 3.704,0.353 0.353,0.178 0.484,-0.178 0.221,0.53 c -0.205,0.941 -0.323,2.116 -0.353,3.527 0.559,-0.353 1.147,-0.881 1.765,-1.587 0.44,0 0.91,0.221 1.411,0.661 v 0.22 c 0,0.118 -1.118,0.53 -3.352,1.235 0,2.911 -0.706,4.793 -2.117,5.645 -0.47,0.235 -0.896,0.353 -1.279,0.353 h -0.662 v -0.175 c 0.941,-0.47 1.589,-1.015 1.941,-1.633 0.94,-0.558 1.411,-2.954 1.411,-7.187 v -0.353 c 0,-0.117 -0.176,-0.236 -0.528,-0.353 v -0.177 c 0.236,-0.353 0.469,-0.589 0.705,-0.706 z m 0.705,8.115 c 1.294,0 2.47,0.528 3.528,1.588 l 0.177,0.528 v 0.177 c -0.119,0.117 -0.294,0.175 -0.529,0.175 h -0.883 l -1.411,0.177 c 0.47,-0.441 0.705,-0.795 0.705,-1.058 -0.353,-0.588 -0.881,-1.06 -1.587,-1.412 z" /><path
     style="fill:#a00283"
     inkscape:connector-curvature="0"
     id="path574"
     d="m 562.037,252.705 c -0.353,0.117 -0.528,0.294 -0.528,0.528 v 0.133 c 0,0.119 0.117,0.192 0.353,0.22 0.353,0 0.586,-0.072 0.705,-0.22 0.118,-0.087 0.176,-0.191 0.176,-0.308 0,-0.235 -0.176,-0.353 -0.528,-0.353 z m 1.058,-1.941 c -0.44,0 -0.793,0.117 -1.058,0.353 -0.117,0.117 -0.176,0.294 -0.176,0.528 0,0.471 0.176,0.707 0.528,0.707 0.206,0 0.441,-0.178 0.705,-0.53 l 0.354,-0.177 c 0.117,-0.088 0.177,-0.205 0.177,-0.353 0,-0.117 -0.06,-0.176 -0.177,-0.176 -0.118,-0.235 -0.235,-0.352 -0.353,-0.352 z m 0.353,1.588 c -0.235,0 -0.411,0.117 -0.528,0.353 v 0.353 l -0.178,0.175 c 0,0.09 0.117,0.133 0.353,0.133 0.236,0 0.413,-0.043 0.53,-0.133 h 0.176 v -0.175 l 0.177,-0.177 v -0.175 c 0,-0.237 -0.177,-0.354 -0.53,-0.354 z m 1.235,0.705 -0.176,0.175 c -0.118,0.09 -0.192,0.325 -0.22,0.706 0,0.354 0.19,0.53 0.572,0.53 0.117,0 0.176,-0.059 0.176,-0.176 0,-0.118 0.059,-0.177 0.177,-0.177 0.117,0 0.177,-0.029 0.177,-0.087 v -0.178 c 0,-0.059 0.028,-0.117 0.089,-0.175 l 0.087,-0.089 v -0.22 c 0,-0.205 -0.058,-0.308 -0.176,-0.308 h -0.706 z m 0,-1.588 c -0.235,0.088 -0.36,0.257 -0.374,0.507 -0.016,0.251 0.169,0.376 0.551,0.376 0.47,0 0.705,-0.178 0.705,-0.53 0,-0.204 -0.176,-0.323 -0.529,-0.353 h -0.176 z m 7.375,1.363 -0.309,-0.883 c -0.353,-0.469 -1.117,-0.763 -2.294,-0.882 0.442,0.119 0.795,0.294 1.06,0.529 0.353,0.353 0.529,0.766 0.529,1.235 0,0.44 -0.177,0.734 -0.529,0.881 -0.235,0.118 -0.471,0.177 -0.706,0.177 -0.734,0 -1.44,-0.25 -2.116,-0.75 l -0.353,-0.133 c -0.236,-0.117 -0.354,-0.586 -0.354,-1.411 v -0.353 h -0.177 l -0.087,0.22 c -0.06,0.088 -0.089,0.162 -0.089,0.221 0,0.06 -0.031,0.089 -0.089,0.089 h -0.264 l -0.178,-0.177 c -0.117,0 -0.235,0.059 -0.353,0.177 0,0.236 0.117,0.353 0.353,0.353 h 0.178 0.133 v 0.528 0.177 0.175 h -0.133 c -0.353,0.207 -0.53,0.442 -0.53,0.706 0,0.118 0.06,0.235 0.178,0.354 l 0.175,0.176 c 0,0.119 -0.117,0.177 -0.353,0.177 h -0.705 l -0.178,0.176 c -0.116,0.119 -0.248,0.177 -0.395,0.177 h -0.133 c -0.118,0.117 -0.294,0.176 -0.53,0.176 h -0.175 -0.178 c -0.235,0 -0.353,-0.059 -0.353,-0.176 l 0.176,-0.353 0.354,0.353 h 0.175 c 0.117,0 0.236,-0.058 0.353,-0.177 l 0.311,-0.529 v -0.177 c 0,-0.235 -0.164,-0.353 -0.485,-0.353 -0.235,0 -0.413,0.117 -0.53,0.353 -0.235,-0.235 -0.471,-0.353 -0.705,-0.353 -0.207,0 -0.382,0.059 -0.529,0.176 l -0.088,0.089 -0.089,0.087 -0.176,-0.177 -0.088,-0.088 c -0.061,-0.059 -0.089,-0.146 -0.089,-0.265 -0.118,-0.117 -0.176,-0.234 -0.176,-0.353 -0.117,0 -0.177,-0.058 -0.177,-0.175 0,-0.117 0.028,-0.207 0.088,-0.265 0.059,-0.059 0.146,-0.087 0.265,-0.087 h 0.177 c 0.235,-0.235 0.353,-0.411 0.353,-0.53 0,-0.235 -0.117,-0.411 -0.353,-0.529 h -0.177 v -0.176 l 0.177,-0.177 0.087,-0.176 0.178,-0.353 c 0.058,-0.117 0.146,-0.177 0.265,-0.177 0.323,-0.234 0.676,-0.353 1.058,-0.353 h 0.353 0.353 c 0.117,0 0.178,-0.059 0.178,-0.176 l -0.53,-0.354 h -0.175 c 0,-0.087 0.117,-0.146 0.353,-0.175 h 0.175 c 0.56,0 1.029,0.235 1.411,0.706 0.236,0.235 0.354,0.413 0.354,0.529 0,0.117 -0.089,0.207 -0.265,0.265 l -0.266,0.088 c 0.941,-0.117 1.588,-0.411 1.941,-0.882 0.117,-0.117 0.175,-0.412 0.175,-0.883 0.117,-0.234 0.235,-0.586 0.354,-1.058 0,-1.293 -0.06,-2.116 -0.177,-2.469 -0.118,0 -0.207,-0.058 -0.265,-0.177 -0.06,-0.117 -0.148,-0.235 -0.266,-0.353 v -0.177 -0.176 c 0,-0.118 0.117,-0.236 0.353,-0.353 0.117,0 0.206,-0.059 0.266,-0.177 l 0.089,-0.176 c 0.233,-0.117 0.764,-0.53 1.586,-1.235 0,-0.235 0.059,-0.353 0.178,-0.353 0.233,1.058 0.529,1.764 0.882,2.116 0.353,0.588 0.998,1.176 1.94,1.765 l 0.881,0.528 c 0,0.119 -0.116,0.294 -0.353,0.53 -0.469,0.323 -0.882,0.618 -1.234,0.882 l -0.353,0.175 c -0.59,0.236 -0.882,0.824 -0.882,1.765 v 0.353 l 0.353,-0.177 c 0.117,-0.117 0.346,-0.265 0.685,-0.44 0.337,-0.177 0.639,-0.324 0.903,-0.442 0.733,-0.321 1.204,-0.616 1.411,-0.88 0.088,-0.117 0.205,-0.236 0.353,-0.353 0,-0.117 0.029,-0.206 0.088,-0.265 0.059,-0.059 0.087,-0.146 0.087,-0.265 0.12,-0.205 0.178,-0.382 0.178,-0.53 0,-0.353 -0.058,-0.705 -0.178,-1.058 -0.116,-0.117 -0.469,-0.292 -1.058,-0.529 -0.853,-0.471 -1.381,-0.941 -1.587,-1.412 l -0.177,-0.353 c -0.118,-0.088 -0.235,-0.199 -0.353,-0.332 -0.118,-0.131 -0.176,-0.256 -0.176,-0.375 -0.117,-0.353 -0.177,-0.646 -0.177,-0.882 v -0.176 -0.353 c 0,-0.117 -0.061,-0.294 -0.177,-0.529 l -0.353,-0.176 h -0.353 c -0.236,0 -0.472,0.059 -0.705,0.176 -0.353,0.235 -0.766,0.705 -1.235,1.411 -0.235,0.235 -0.413,0.354 -0.53,0.354 -0.117,0 -0.235,-0.06 -0.353,-0.177 -0.235,-0.235 -0.485,-0.543 -0.748,-0.925 -0.09,-0.089 -0.133,-0.191 -0.133,-0.31 l -0.178,-0.176 c -0.353,-0.117 -0.588,-0.177 -0.705,-0.177 -0.353,0 -0.53,0.06 -0.53,0.177 -0.116,0 -0.248,0.162 -0.395,0.485 v 1.103 c 0,1.175 0.249,2.058 0.748,2.646 0.236,0.205 0.412,0.382 0.529,0.529 v -0.176 c 0.117,0.236 0.235,0.353 0.353,0.353 -0.353,-0.442 -0.529,-1.206 -0.529,-2.293 v -0.53 -0.705 -0.53 c 0.119,0.119 0.266,0.294 0.442,0.53 l 0.397,0.53 c 0.233,0 0.366,0.117 0.396,0.353 h -0.176 -0.22 l -0.311,0.353 c -0.117,0.117 -0.175,0.294 -0.175,0.528 0,0.236 0.117,0.588 0.353,1.059 l 0.528,0.529 c 0.117,0.353 0.177,0.765 0.177,1.235 v 0.53 0.353 c -0.118,0.734 -0.235,1.206 -0.353,1.411 -0.206,0.588 -0.441,0.882 -0.705,0.882 v -0.353 c 0,-0.559 -0.295,-1.028 -0.883,-1.412 -0.118,0 -0.206,-0.028 -0.265,-0.088 -0.059,-0.059 -0.161,-0.087 -0.308,-0.087 h -0.311 -0.439 c -0.178,0 -0.353,0.029 -0.53,0.087 l -0.265,0.088 c -1.175,0.353 -1.999,1.001 -2.469,1.94 l -0.353,0.882 v 0.706 c 0,0.559 0.116,1.089 0.353,1.588 0.44,1.177 1.323,1.882 2.646,2.116 0.234,0.119 0.53,0.177 0.883,0.177 0.705,0 1.292,-0.117 1.763,-0.353 l 0.178,-0.177 0.175,-0.176 c 0.441,-0.235 0.734,-0.588 0.883,-1.058 v -0.177 c 0.588,0.706 1.352,1.118 2.294,1.235 0.116,0 0.233,0.03 0.353,0.088 0,0 1.439,-0.277 1.983,-0.957 0.546,-0.674 0.445,-1.772 0.445,-1.772 z" /><path
     style="fill:#00082d"
     inkscape:connector-curvature="0"
     id="path576"
     d="m 550.396,244.06 c 0.117,0.353 0.293,0.588 0.528,0.705 h 0.353 0.53 c 0.234,-0.117 0.491,-0.204 0.771,-0.263 0.279,-0.059 0.49,-0.148 0.639,-0.265 h 0.353 -0.175 l -0.706,1.058 c 0,0.117 -0.06,0.235 -0.177,0.353 -0.117,0 -0.207,0.029 -0.265,0.088 -0.06,0.06 -0.088,0.147 -0.088,0.265 -0.589,0.472 -0.941,1.177 -1.059,2.118 v 0.176 c 0,0.941 0.411,1.529 1.235,1.765 0.117,0.117 0.233,0.176 0.353,0.176 0.118,0 0.197,-0.029 0.242,-0.088 0.045,-0.059 0.066,-0.117 0.066,-0.177 v -0.265 c 0,-0.088 0.071,-0.146 0.22,-0.176 l 0.178,-2.293 c 0,-0.588 0.058,-1.058 0.175,-1.411 0.117,-0.471 0.295,-0.824 0.53,-1.06 0.557,-0.469 1.381,-0.705 2.469,-0.705 0.441,0 1.029,0.119 1.765,0.353 h -0.353 c -1.647,0 -2.706,0.472 -3.176,1.413 -0.117,0.088 -0.235,0.263 -0.353,0.528 v 0.442 0.263 0.177 l 0.178,0.485 c 0.116,0.235 0.22,0.426 0.307,0.573 0.236,0.236 0.426,0.353 0.574,0.353 0.47,0 0.763,-0.176 0.882,-0.529 0.116,-0.117 0.176,-0.294 0.176,-0.529 v -0.353 c 0,-0.353 0.118,-0.647 0.354,-0.882 0.353,-0.706 0.822,-1.293 1.411,-1.764 l 0.133,-0.087 0.175,-0.09 c 0.117,0 0.25,0.06 0.397,0.177 l 0.178,0.175 c 1.175,0.589 2.233,1.354 3.174,2.293 -0.734,-1.175 -1.499,-1.999 -2.294,-2.469 0,-0.117 -0.058,-0.207 -0.175,-0.265 l -0.178,-0.087 -0.175,-0.706 v -0.442 c 0,-0.176 -0.061,-0.323 -0.178,-0.44 v -0.177 -0.176 -1.412 l -0.087,-0.176 c -0.061,-0.117 -0.088,-0.235 -0.088,-0.353 l -0.178,-0.353 c -0.117,-0.117 -0.294,-0.177 -0.529,-0.177 -0.353,0 -0.647,0.118 -0.882,0.353 -0.118,0.206 -0.176,0.442 -0.176,0.705 v 0.177 c 0,0.588 0.176,1.118 0.529,1.588 0.117,0 0.205,0.029 0.266,0.088 l 0.175,0.177 c 0.058,0.059 0.111,0.117 0.153,0.176 0.045,0.061 0.066,0.119 0.066,0.177 0,0.058 0.029,0.147 0.09,0.265 l 0.131,0.175 v 0.178 c -0.117,0 -0.191,-0.059 -0.221,-0.178 -0.822,-0.234 -1.396,-0.353 -1.719,-0.353 h -0.354 -0.176 -0.177 c -0.117,-0.117 -0.176,-0.235 -0.176,-0.353 h -0.177 c -0.235,-0.353 -0.353,-0.822 -0.353,-1.411 0,-0.235 0.058,-0.353 0.177,-0.353 0,-0.117 0.059,-0.294 0.176,-0.53 0.117,-0.236 0.177,-0.411 0.177,-0.529 0,-0.353 -0.119,-0.646 -0.353,-0.881 -0.236,-0.117 -0.485,-0.177 -0.751,-0.177 l -0.132,0.177 h -0.353 c -0.119,0.117 -0.235,0.294 -0.353,0.528 -0.235,0.235 -0.353,0.588 -0.353,1.058 0,0.237 0.058,0.413 0.175,0.53 l 0.354,0.662 c 0.354,0.588 0.765,1.013 1.235,1.278 -0.441,0.119 -0.794,0.236 -1.059,0.353 l -0.177,0.178 -0.176,-0.178 c -0.119,0 -0.235,-0.058 -0.353,-0.175 l -0.178,-0.089 -0.175,-0.088 -1.588,-0.353 h -0.265 -0.089 c -0.464,0.266 -0.816,0.619 -1.05,1.059 z m 5.292,11.996 c -0.236,0 -0.647,0.117 -1.235,0.353 -0.472,0.118 -0.824,0.235 -1.058,0.353 l -0.09,0.177 -0.088,0.176 -0.353,0.177 c -0.235,0.117 -0.47,0.294 -0.705,0.528 l -0.178,0.353 h 0.178 c 0.353,-0.353 0.94,-0.528 1.763,-0.528 h 0.354 l 0.354,0.176 v 0.265 0.265 0.176 c 0,0.442 0.058,0.853 0.175,1.235 0.088,0.119 0.205,0.294 0.353,0.529 h 0.53 0.528 0.265 0.266 0.176 l 0.177,0.176 0.353,0.354 0.176,0.353 0.529,0.528 h 0.484 c 0.353,0 1.074,-0.292 2.161,-0.88 1.177,-0.588 1.94,-0.941 2.293,-1.06 0.118,-0.117 0.471,-0.234 1.06,-0.353 h 0.133 c -0.09,0 -0.133,-0.059 -0.133,-0.176 -0.472,-0.117 -0.941,-0.191 -1.412,-0.221 -0.94,0 -1.586,0.192 -1.94,0.574 l -0.353,0.176 v -0.088 -0.177 -0.088 c 0,-0.234 -0.117,-0.47 -0.354,-0.705 l -0.353,-0.353 c -0.117,-0.117 -0.293,-0.236 -0.527,-0.353 h -0.354 -0.221 l -0.087,-0.087 c -0.03,-0.059 -0.075,-0.117 -0.133,-0.178 -0.06,-0.059 -0.117,-0.087 -0.175,-0.087 h -0.178 -0.176 c -0.06,0 -0.148,-0.059 -0.266,-0.177 -0.118,0 -0.235,-0.059 -0.353,-0.176 -0.118,0 -0.206,-0.104 -0.265,-0.31 l -0.088,-0.22 c -0.089,-0.234 -0.206,-0.411 -0.354,-0.53 -0.116,-0.119 -0.411,-0.177 -0.879,-0.177 z m -1.058,4.056 h -0.354 c -0.354,0 -0.706,0.119 -1.059,0.353 -0.559,0.442 -0.854,0.971 -0.881,1.587 v 0.178 1.235 c 0.353,0.939 0.823,1.411 1.411,1.411 h 0.175 c -0.588,0 -0.896,-0.53 -0.925,-1.588 l -0.045,-0.221 c -0.059,-0.177 -0.088,-0.338 -0.088,-0.485 l 0.088,-0.177 0.045,-0.175 0.397,-0.883 c 0.353,-0.822 0.764,-1.235 1.236,-1.235 z m 9.877,-32.457 c -0.824,0 -1.47,0.236 -1.94,0.706 l -0.353,0.353 c -0.119,0.119 -0.294,0.294 -0.529,0.53 -0.235,0.235 -0.471,0.469 -0.706,0.705 -1.058,1.293 -1.705,2.706 -1.94,4.233 v 0.53 l -0.397,-0.177 c -0.323,-0.117 -0.602,-0.175 -0.837,-0.175 h -0.353 -0.177 c -0.941,0.205 -1.587,0.734 -1.939,1.586 l -0.178,0.177 v 0.176 c 0,0.442 0.236,0.736 0.706,0.882 0.117,0.119 0.293,0.177 0.529,0.177 0.236,0 0.558,-0.089 0.971,-0.265 0.41,-0.178 0.676,-0.265 0.793,-0.265 0.116,-0.117 0.353,-0.175 0.705,-0.175 v 0.175 0.53 c 0,0.706 0.06,1.293 0.177,1.764 0.117,0.118 0.205,0.264 0.266,0.44 l 0.087,0.265 2.823,4.586 c 0.706,1.06 1.294,1.824 1.764,2.293 0.94,0.941 1.765,1.471 2.47,1.588 -0.441,-0.353 -1.265,-1.235 -2.47,-2.646 -0.734,-1.087 -1.265,-1.911 -1.588,-2.469 -0.117,-0.119 -0.204,-0.265 -0.265,-0.442 -0.059,-0.176 -0.146,-0.324 -0.264,-0.441 l -0.177,-0.309 -0.176,-0.22 c -0.235,-0.353 -0.546,-0.823 -0.927,-1.411 -0.207,-0.205 -0.309,-0.382 -0.309,-0.53 0,-0.117 0.088,-0.265 0.265,-0.441 0.177,-0.177 0.264,-0.323 0.264,-0.44 v -0.089 c 0,-0.059 0.059,-0.088 0.177,-0.088 h 0.178 v 0.177 h 0.175 c 0.118,0 0.295,-0.059 0.53,-0.177 0.117,0 0.205,-0.029 0.264,-0.088 0.061,-0.059 0.147,-0.089 0.265,-0.089 l 0.353,-0.353 c 0.588,-0.353 0.883,-1.058 0.883,-2.116 v -0.353 c 0,-0.353 -0.177,-0.647 -0.53,-0.883 -0.235,-0.117 -0.47,-0.175 -0.705,-0.175 -0.235,0 -0.47,0.059 -0.705,0.175 v 0.353 l -0.176,0.178 c -0.119,0 -0.178,0.029 -0.178,0.087 0,0.058 -0.028,0.294 -0.088,0.706 -0.06,0.413 -0.147,0.678 -0.265,0.795 0,0.117 -0.088,0.263 -0.264,0.44 -0.177,0.175 -0.266,0.323 -0.266,0.44 -0.236,0.119 -0.354,0.294 -0.354,0.53 l 0.09,0.088 0.088,0.087 -0.353,0.354 v -0.354 c -0.118,-0.44 -0.178,-0.91 -0.178,-1.411 v -0.265 -0.263 h 0.178 c 0.117,0 0.175,-0.074 0.175,-0.222 0,-0.087 -0.058,-0.308 -0.175,-0.661 0,-0.117 -0.061,-0.235 -0.178,-0.353 v -0.265 -0.265 l 0.089,-0.175 c 0.058,-0.089 0.089,-0.207 0.089,-0.353 0.234,-1.646 0.998,-3.117 2.293,-4.411 0.205,-0.353 0.374,-0.53 0.507,-0.53 0.133,0 0.199,0.06 0.199,0.177 0.233,0.117 0.528,0.175 0.881,0.175 0.117,0 0.294,-0.027 0.529,-0.088 0.235,-0.059 0.382,-0.087 0.442,-0.087 0.058,0 0.234,-0.03 0.527,-0.088 0.295,-0.059 0.501,-0.089 0.617,-0.089 0.117,0 0.295,-0.059 0.53,-0.175 0.234,-0.205 0.353,-0.382 0.353,-0.53 l -0.177,-0.353 c 0,-0.117 -0.029,-0.205 -0.088,-0.265 -0.059,-0.059 -0.088,-0.146 -0.088,-0.263 h -0.22 c -0.325,-0.119 -0.663,-0.178 -1.016,-0.178 h -0.703 z m -3.176,18.523 c -0.235,-0.117 -0.529,-0.178 -0.882,-0.178 -0.734,0 -1.382,0.294 -1.94,0.883 -0.853,0.706 -1.265,1.352 -1.234,1.94 0,0.235 0.06,0.411 0.177,0.528 0.116,0.118 0.353,0.235 0.705,0.353 0.116,0.119 0.235,0.177 0.353,0.177 0.206,0 0.382,-0.059 0.529,-0.177 0.117,-0.088 0.353,-0.38 0.705,-0.881 0,-0.117 0.06,-0.235 0.178,-0.353 l 0.175,-0.177 c 0.117,-0.234 0.178,-0.47 0.178,-0.705 0,-0.117 -0.029,-0.236 -0.088,-0.353 l -0.09,-0.177 c 0.116,-0.586 0.529,-0.88 1.234,-0.88 z m -2.115,8.467 c -0.354,0 -0.648,0.059 -0.883,0.176 -0.235,0.119 -0.353,0.413 -0.353,0.882 v 0.353 c 0.234,0.117 0.456,0.175 0.66,0.175 h 0.221 c 0.119,0 0.236,-0.028 0.354,-0.088 0.117,-0.059 0.234,-0.087 0.353,-0.087 0.117,0 0.234,0.058 0.353,0.175 0.117,0.119 0.234,0.177 0.353,0.177 0.204,0 0.382,-0.059 0.528,-0.177 0.117,-0.117 0.177,-0.234 0.177,-0.353 0,-0.117 -0.06,-0.292 -0.177,-0.528 v -0.09 c 0,-0.059 -0.073,-0.146 -0.22,-0.263 -0.089,-0.117 -0.191,-0.177 -0.309,-0.177 -0.353,-0.117 -0.647,-0.176 -0.883,-0.176 h -0.174 z m 9.347,4.939 v 0.353 1.235 c -0.117,-0.207 -0.47,-0.442 -1.058,-0.707 v -0.176 -0.177 -0.176 c 0.235,-0.469 0.411,-0.882 0.529,-1.235 0.089,0 0.197,0.052 0.33,0.154 0.132,0.104 0.198,0.287 0.198,0.551 v 0.178 z m 2.471,-2.646 -1.413,0.176 0.178,0.177 c 0.323,0 0.557,0.176 0.705,0.528 l 0.088,0.353 c 0.059,0.236 0.147,0.353 0.265,0.353 l 0.53,0.177 c 0.117,0 0.233,-0.029 0.353,-0.088 l 0.132,-0.089 c 0.117,0 0.25,-0.059 0.398,-0.176 l 0.176,-0.706 c 0,-0.117 -0.117,-0.294 -0.354,-0.529 -0.119,-0.118 -0.235,-0.176 -0.353,-0.176 h -0.353 z m 1.411,-1.412 h -0.266 c -0.176,0 -0.278,0.06 -0.309,0.177 l -0.484,0.175 c 0,0.119 0.059,0.178 0.176,0.178 v -0.178 c 0.323,0.119 0.617,0.294 0.883,0.53 0.117,0.118 0.293,0.265 0.529,0.44 l 0.528,0.442 c 0.206,0.117 0.56,0.176 1.059,0.176 h 0.529 c 0.235,0 0.397,-0.117 0.484,-0.353 0.117,-0.118 0.191,-0.293 0.221,-0.529 v -0.354 c -0.205,-0.353 -0.44,-0.528 -0.705,-0.528 -0.117,0 -0.266,0.029 -0.44,0.088 -0.178,0.06 -0.324,0.087 -0.442,0.087 -0.117,-0.117 -0.235,-0.205 -0.353,-0.263 -0.118,-0.058 -0.235,-0.089 -0.353,-0.089 h -1.057 z m -0.574,-1.588 c 0,0.119 0.072,0.177 0.221,0.177 v -0.177 z m 0.221,0.177 -0.221,-0.177 h 0.133 0.088 z m 7.585,-0.883 v -0.353 c -0.117,-0.469 -0.353,-0.764 -0.705,-0.881 -0.117,0 -0.235,-0.06 -0.353,-0.177 l -0.178,-0.087 c -0.117,-0.059 -0.235,-0.089 -0.353,-0.089 h -0.176 c -0.235,0 -0.412,0.06 -0.529,0.177 -0.236,0 -0.881,0.294 -1.94,0.883 -0.47,0.235 -1.058,0.588 -1.763,1.058 0.087,0 0.233,-0.029 0.439,-0.088 l 0.266,-0.089 h 0.882 1.41 c 0.117,0.119 0.286,0.206 0.508,0.265 0.221,0.061 0.404,0.148 0.551,0.265 h 0.353 0.177 c 0.471,0 0.883,-0.059 1.236,-0.177 0,-0.117 0.026,-0.234 0.087,-0.353 l 0.088,-0.22 z m -8.468,1.451 h -0.175 m 1.141,-0.409 c -1.528,1.222 -2.729,2.537 -2.729,2.537 l -0.881,0.883 c -0.56,0.853 -0.971,1.617 -1.235,2.293 v 0.353 h -0.178 l -0.353,-0.529 c -0.235,0 -0.368,-0.117 -0.395,-0.353 0,-0.117 0.188,-0.47 0.572,-1.058 0.234,-0.353 0.411,-0.706 0.528,-1.058 0,-0.207 -0.059,-0.324 -0.176,-0.353 h -0.178 l -0.175,0.175 -0.353,0.178 c -0.118,0.117 -0.28,0.265 -0.485,0.44 l -0.221,0.265 c -0.118,0 -0.294,0.117 -0.529,0.353 l -0.178,-0.178 v -0.353 c -0.557,-0.823 -1.675,-1.292 -3.351,-1.411 h -0.529 c -1.059,0 -1.939,0.353 -2.646,1.058 0.824,-0.324 1.588,-0.499 2.293,-0.528 h 0.53 c 0.47,0 1.176,0.175 2.117,0.528 0.705,0.235 1.175,0.413 1.411,0.53 0.234,0.236 0.353,0.411 0.353,0.528 h -0.178 c -0.235,0.325 -0.353,0.736 -0.353,1.235 v 0.353 c 0,0.235 0.09,0.442 0.266,0.617 0.177,0.177 0.265,0.325 0.265,0.442 0.117,0 0.175,0.117 0.175,0.353 0,0.117 -0.029,0.236 -0.087,0.353 -0.06,0.117 -0.088,0.234 -0.088,0.353 0,0.117 0.059,0.234 0.175,0.353 0.119,0.441 0.473,0.793 1.061,1.058 h 0.353 c 0.234,0 0.587,-0.117 1.058,-0.353 0.205,-0.117 0.382,-0.294 0.53,-0.53 0.233,-0.235 0.353,-0.47 0.353,-0.705 v -0.176 -0.177 l 0.353,0.53 0.353,0.176 c 0.233,0 0.354,0.059 0.354,0.177 h 0.044 0.087 c 0.354,0 0.721,-0.177 1.104,-0.529 0.354,-0.353 0.528,-0.764 0.528,-1.234 0,-0.236 -0.059,-0.354 -0.175,-0.354 -0.119,-0.47 -0.354,-0.705 -0.707,-0.705 -0.118,0 -0.264,-0.03 -0.441,-0.088 l -0.309,-0.087 c -0.439,-0.117 -0.837,-0.31 -1.189,-0.575 l -0.53,-0.308 v -0.177 c 0.117,0 0.178,-0.059 0.178,-0.175 0.734,-1.058 1.896,-2.235 3.483,-3.529 0.117,-0.234 1.19,-1.116 3.219,-2.646 l 0.266,-0.176 c 0.146,-0.118 0.286,-0.235 0.418,-0.354 0.133,-0.117 0.257,-0.176 0.374,-0.176 0.117,0 0.647,-0.059 1.588,-0.177 0.353,-0.117 0.589,-0.234 0.706,-0.353 l 0.354,-0.528 v -0.177 -0.265 -0.265 c 0.117,-0.087 0.176,-0.263 0.176,-0.528 0,-0.117 -0.059,-0.265 -0.176,-0.441 -0.118,-0.177 -0.177,-0.323 -0.177,-0.442 v -0.353 -0.22 c -0.119,-0.205 -0.235,-0.368 -0.353,-0.485 -0.353,-0.235 -0.604,-0.353 -0.75,-0.353 -0.323,0 -0.603,0.117 -0.838,0.353 0,0.117 -0.029,0.207 -0.088,0.265 -0.061,0.059 -0.147,0.088 -0.265,0.088 -0.118,0.087 -0.178,0.265 -0.178,0.53 -0.235,0.353 -0.353,1 -0.353,1.94 0,0.117 -0.036,0.235 -0.109,0.353 -0.073,0.118 -0.11,0.235 -0.11,0.353 -0.088,0 -0.133,0.117 -0.133,0.353 l 0.133,0.176 v 0.353 h -0.133 c -0.117,0.118 -0.235,0.177 -0.353,0.177 0,-0.002 -1.564,1.18 -3.093,2.4 z" /></g></svg>