<?xml version="1.0" encoding="UTF-8" standalone="no"?>
<!-- Generator: Adobe Illustrator 16.0.0, SVG Export Plug-In . SVG Version: 6.00 Build 0)  -->

<svg
   xmlns:dc="http://purl.org/dc/elements/1.1/"
   xmlns:cc="http://creativecommons.org/ns#"
   xmlns:rdf="http://www.w3.org/1999/02/22-rdf-syntax-ns#"
   xmlns:svg="http://www.w3.org/2000/svg"
   xmlns="http://www.w3.org/2000/svg"
   xmlns:sodipodi="http://sodipodi.sourceforge.net/DTD/sodipodi-0.dtd"
   xmlns:inkscape="http://www.inkscape.org/namespaces/inkscape"
   version="1.1"
   id="图层_1"
   x="0px"
   y="0px"
   width="139.76401"
   height="200"
   viewBox="0 0 139.764 200"
   enable-background="new 0 0 714 341"
   xml:space="preserve"
   sodipodi:docname="0402西.svg"
   inkscape:version="0.92.3 (2405546, 2018-03-11)"><metadata
   id="metadata621"><rdf:RDF><cc:Work
       rdf:about=""><dc:format>image/svg+xml</dc:format><dc:type
         rdf:resource="http://purl.org/dc/dcmitype/StillImage" /><dc:title /></cc:Work></rdf:RDF></metadata><defs
   id="defs619" /><sodipodi:namedview
   pagecolor="#ffffff"
   bordercolor="#666666"
   borderopacity="1"
   objecttolerance="10"
   gridtolerance="10"
   guidetolerance="10"
   inkscape:pageopacity="0"
   inkscape:pageshadow="2"
   inkscape:window-width="1366"
   inkscape:window-height="705"
   id="namedview617"
   showgrid="false"
   inkscape:zoom="1"
   inkscape:cx="-148.99666"
   inkscape:cy="152.60966"
   inkscape:window-x="-8"
   inkscape:window-y="-8"
   inkscape:window-maximized="1"
   inkscape:current-layer="图层_1" />



















































































































































































































































































































<g
   transform="matrix(4.0331525,0,0,4.0331525,-375.17998,-900.64328)"
   id="g1913"><path
     inkscape:connector-curvature="0"
     id="path184"
     d="m 127.676,226.895 v 42.419 c 0,0.995 -0.349,1.842 -1.045,2.539 -0.697,0.696 -1.544,1.046 -2.54,1.046 H 96.608 c -0.996,0 -1.842,-0.35 -2.539,-1.046 -0.697,-0.697 -1.045,-1.544 -1.045,-2.539 v -42.419 c 0,-0.995 0.348,-1.842 1.045,-2.54 0.697,-0.696 1.543,-1.045 2.539,-1.045 h 27.483 c 0.996,0 1.842,0.349 2.54,1.045 0.696,0.698 1.045,1.545 1.045,2.54 z m -3.585,-1.792 H 96.608 c -0.518,0 -0.946,0.17 -1.284,0.508 -0.339,0.339 -0.508,0.767 -0.508,1.285 v 42.419 c 0,0.517 0.169,0.946 0.508,1.285 0.338,0.338 0.766,0.508 1.284,0.508 h 27.483 c 0.518,0 0.946,-0.17 1.285,-0.508 0.338,-0.339 0.508,-0.768 0.508,-1.285 v -42.419 c 0,-0.518 -0.17,-0.946 -0.508,-1.285 -0.339,-0.339 -0.767,-0.508 -1.285,-0.508 z" /><path
     inkscape:connector-curvature="0"
     id="path186"
     d="m 105.989,258.979 c -1.514,0 -2.271,-0.398 -2.271,-1.195 0,-0.199 0.299,-0.478 0.896,-0.836 -0.678,-1.832 -1.345,-3.594 -2.002,-5.288 -0.657,-1.693 -1.125,-2.888 -1.404,-3.585 -0.279,-0.696 -0.439,-1.165 -0.478,-1.404 0.039,-0.039 0.09,-0.089 0.149,-0.149 0.06,-0.06 0.099,-0.099 0.12,-0.119 0.02,-0.02 0.069,-0.01 0.149,0.029 1.195,0.797 1.951,1.494 2.271,2.091 1.354,-0.438 2.429,-0.875 3.226,-1.314 -0.239,-2.151 -0.359,-3.266 -0.359,-3.346 0,-0.636 0.12,-0.956 0.359,-0.956 0.318,0 0.557,0.418 0.717,1.254 0.159,0.836 0.239,1.574 0.239,2.21 1.314,-1.354 2.25,-2.429 2.808,-3.226 0.12,-0.517 0.199,-0.836 0.239,-0.956 l 0.896,-0.299 c 0.677,-0.517 1.095,-0.995 1.255,-1.434 -0.2,-0.239 -0.877,-0.358 -2.031,-0.358 -1.315,0 -2.739,0.12 -4.272,0.358 -1.534,0.239 -2.818,0.479 -3.854,0.717 -1.036,0.239 -1.594,0.358 -1.673,0.358 -0.837,0 -1.275,-0.239 -1.314,-0.717 0.796,-0.159 2.648,-0.567 5.556,-1.225 2.907,-0.657 5.367,-1.204 7.378,-1.643 2.011,-0.438 3.216,-0.658 3.615,-0.658 0.318,0 0.577,0.05 0.777,0.15 0.199,0.1 0.448,0.259 0.747,0.478 0.299,0.22 0.547,0.388 0.747,0.508 1.712,0.956 2.569,1.833 2.569,2.629 0,0.519 -0.279,0.777 -0.836,0.777 -0.597,0 -1.574,-0.09 -2.928,-0.269 -1.354,-0.179 -2.31,-0.269 -2.867,-0.269 -0.16,0 -0.478,0.04 -0.956,0.12 -0.319,0.2 -0.499,0.418 -0.538,0.657 0.717,0.399 1.076,0.797 1.076,1.195 0,0.279 -0.09,0.469 -0.269,0.568 -0.179,0.1 -0.458,0.179 -0.836,0.239 -0.379,0.06 -0.667,0.13 -0.866,0.209 -0.2,0.398 -0.339,0.896 -0.418,1.493 0.637,-0.119 1.174,-0.298 1.613,-0.538 0.438,-0.239 0.836,-0.358 1.195,-0.358 0.636,0 1.652,0.547 3.047,1.643 1.394,1.096 2.091,2.001 2.091,2.719 0,0.319 -0.14,0.637 -0.418,0.956 -0.279,0.319 -0.648,0.667 -1.105,1.045 -0.458,0.379 -1.075,1.156 -1.852,2.33 -0.777,1.176 -1.544,2.62 -2.3,4.332 -0.279,0.717 -1.016,1.076 -2.21,1.076 -0.319,0 -0.777,-0.039 -1.374,-0.12 -0.598,-0.08 -1.076,-0.119 -1.434,-0.119 -0.398,0 -0.896,0.04 -1.494,0.119 -0.6,0.081 -1.058,0.121 -1.376,0.121 z m -2.211,-9.62 c 1.195,2.749 2.051,5.219 2.569,7.409 h 1.016 c -0.04,-0.398 -0.14,-1.135 -0.299,-2.211 -0.16,-1.075 -0.239,-2.01 -0.239,-2.808 0,-0.119 -0.01,-0.368 -0.03,-0.747 -0.021,-0.378 -0.05,-0.856 -0.09,-1.434 -0.04,-0.577 -0.06,-1.046 -0.06,-1.404 -0.716,0.2 -1.672,0.598 -2.867,1.195 z m 4.003,-1.613 c 0.039,0.359 0.119,1.564 0.239,3.615 0.12,2.052 0.219,3.874 0.299,5.467 0.079,0 0.239,0.01 0.478,0.03 0.239,0.021 0.397,0.03 0.478,0.03 0.079,-1.234 0.169,-2.469 0.269,-3.704 0.099,-1.234 0.199,-2.429 0.299,-3.585 0.099,-1.155 0.169,-1.972 0.209,-2.449 -0.2,0.04 -0.567,0.13 -1.105,0.269 -0.539,0.139 -0.927,0.248 -1.166,0.327 z m 2.51,-2.867 c -0.239,-0.08 -0.559,-0.02 -0.956,0.179 -0.239,0.398 -0.398,0.857 -0.478,1.374 0.239,-0.039 0.498,-0.099 0.777,-0.179 0.278,-0.08 0.478,-0.14 0.597,-0.179 0,-0.08 0.009,-0.24 0.03,-0.479 0.02,-0.239 0.03,-0.418 0.03,-0.538 z m 1.075,1.971 c -0.638,5.138 -1.016,8.524 -1.135,10.157 0.358,0.041 0.677,0.021 0.956,-0.06 0.557,-0.756 1.374,-2.2 2.45,-4.332 1.075,-2.13 1.613,-3.415 1.613,-3.854 0,-0.517 -0.289,-0.995 -0.866,-1.434 -0.578,-0.438 -1.066,-0.657 -1.464,-0.657 -0.44,0.001 -0.957,0.06 -1.554,0.18 z" /></g></svg>