<?xml version="1.0" encoding="UTF-8" standalone="no"?>
<!-- Created with Inkscape (http://www.inkscape.org/) -->

<svg
   width="1024"
   height="1024"
   viewBox="0 0 270.93333 270.93334"
   version="1.1"
   id="svg1054"
   inkscape:version="1.1.1 (c3084ef, 2021-09-22)"
   sodipodi:docname="mahjong-points-dark.svg"
   inkscape:export-filename="/Users/olafneumann/git/github/noxone/mahjong-points/art/icon/icon_192.png"
   inkscape:export-xdpi="18"
   inkscape:export-ydpi="18"
   xmlns:inkscape="http://www.inkscape.org/namespaces/inkscape"
   xmlns:sodipodi="http://sodipodi.sourceforge.net/DTD/sodipodi-0.dtd"
   xmlns:xlink="http://www.w3.org/1999/xlink"
   xmlns="http://www.w3.org/2000/svg"
   xmlns:svg="http://www.w3.org/2000/svg">
  <sodipodi:namedview
     id="namedview1056"
     pagecolor="#212529"
     bordercolor="#999999"
     borderopacity="1"
     inkscape:pageshadow="0"
     inkscape:pageopacity="0"
     inkscape:pagecheckerboard="false"
     inkscape:document-units="mm"
     showgrid="false"
     units="px"
     inkscape:zoom="0.5"
     inkscape:cx="655"
     inkscape:cy="561"
     inkscape:window-width="1383"
     inkscape:window-height="847"
     inkscape:window-x="0"
     inkscape:window-y="25"
     inkscape:window-maximized="0"
     inkscape:current-layer="g1007" />
  <defs
     id="defs1051">
    <linearGradient
       inkscape:collect="always"
       id="linearGradient1669">
      <stop
         style="stop-color:#e0e2e0;stop-opacity:1"
         offset="0"
         id="stop1819" />
      <stop
         style="stop-color:#afb3af;stop-opacity:1"
         offset="0.14567669"
         id="stop2430" />
      <stop
         style="stop-color:#f8f9f8;stop-opacity:1"
         offset="1"
         id="stop1821" />
    </linearGradient>
    <linearGradient
       inkscape:collect="always"
       xlink:href="#linearGradient1669"
       id="linearGradient1673"
       x1="98.95417"
       y1="-10.848714"
       x2="168.0724"
       y2="291.30545"
       gradientUnits="userSpaceOnUse" />
    <filter
       inkscape:collect="always"
       style="color-interpolation-filters:sRGB"
       id="filter1045"
       x="-0.070640779"
       y="-0.04862372"
       width="1.1412816"
       height="1.0972474">
      <feGaussianBlur
         inkscape:collect="always"
         stdDeviation="4.8060547"
         id="feGaussianBlur1047" />
    </filter>
  </defs>
  <g
     inkscape:groupmode="layer"
     id="layer2"
     inkscape:label="Hintergrund"
     style="display:none"
     sodipodi:insensitive="true">
    <rect
       style="opacity:1;fill:url(#linearGradient1673);fill-opacity:1;fill-rule:nonzero;stroke-width:1.11397"
       id="rect1173"
       width="269.14325"
       height="269.34424"
       x="1.0583334"
       y="1.0583333"
       ry="30.62038" />
  </g>
  <g
     inkscape:label="Schatten"
     inkscape:groupmode="layer"
     id="g1007"
     style="display:inline"
     sodipodi:insensitive="true">
    <g
       id="g1005"
       transform="translate(13.443381,-1.5875314)"
       style="mix-blend-mode:normal;fill:#797979;fill-opacity:1;filter:url(#filter1045)">
      <path
         style="display:inline;fill:#797979;fill-opacity:1;stroke-width:6.61736"
         inkscape:connector-curvature="0"
         id="path995"
         d="m 76.510542,159.7302 c 0,0.53579 -0.271614,0.79407 -0.794134,0.79407 -1.058739,0 -4.74464,-2.63374 -11.070856,-7.90778 -2.110969,-1.58157 -4.685111,-3.09691 -7.709273,-4.55278 -3.030738,-1.44252 -5.472602,-2.5675 -7.312207,-3.36163 -1.84623,-0.78744 -2.766066,-1.31684 -2.766066,-1.58151 0,-0.52958 1.052164,-0.78749 3.163133,-0.78749 4.208604,0.26479 8.496714,1.7139 12.844355,4.34764 4.347574,2.6403 7.709207,5.20786 10.078273,7.70927 2.375641,2.51462 3.566775,4.29467 3.566775,5.34021 z M 52.390138,126.12709 c 1.581575,0 4.215246,0.66174 7.907774,1.972 3.685901,1.32346 8.364386,4.08954 14.035488,8.30484 5.664477,4.22187 10.210618,9.48928 13.638423,15.81556 1.052163,2.6403 1.581574,4.08955 1.581574,4.34758 0,0.79413 -0.264805,1.18456 -0.787508,1.18456 l -4.347574,-4.34764 C 69.654932,138.9119 58.848681,130.34896 51.999714,127.70865 c -0.794067,-0.26479 -1.184508,-0.6551 -1.184508,-1.18449 -0.0067,-0.25798 0.515943,-0.39689 1.574932,-0.39689 z m 17.397122,39.92933 c -2.110969,0 -5.737275,-0.59534 -10.878982,-1.78008 -5.135132,-1.18451 -7.709273,-2.43517 -7.709273,-3.75207 0,-0.52958 1.44923,-0.79407 4.34764,-0.79407 1.316836,0 3.222663,0.46324 5.737274,1.38301 2.501344,0.92646 4.678469,1.8463 6.524716,2.76607 1.839655,0.92646 2.766066,1.5154 2.766066,1.78012 0,0.271 -0.264789,0.39688 -0.787441,0.39688 z m 10.276789,-9.87979 c 0,-0.25797 0.257964,-0.39687 0.794067,-0.39687 0.787491,0 2.89846,1.72053 6.326282,5.14171 3.421163,3.4278 5.141708,6.0681 5.141708,7.90777 0,1.84623 -0.794134,2.76607 -2.369066,2.76607 -2.11092,0 -4.744641,-0.6551 -7.907791,-1.97863 -3.163066,-1.31683 -4.74464,-2.36901 -4.74464,-3.16308 0,-0.25796 0.396883,-0.39688 1.184508,-0.39688 0.794066,0 2.177141,0.2648 4.14914,0.79406 1.978558,0.5296 3.096894,0.78751 3.361566,0.78751 0.529595,0 0.794134,-0.25798 0.794134,-0.78751 0,-1.05209 -1.124961,-2.96456 -3.361633,-5.73727 -2.249939,-2.766 -3.368275,-4.40717 -3.368275,-4.93657 z" />
      <path
         style="display:inline;fill:#797979;fill-opacity:1;stroke-width:6.61736"
         inkscape:connector-curvature="0"
         id="path997"
         d="m 116.43987,250.6664 c 0,0.78742 -0.52959,1.18449 -1.58157,1.18449 -0.53579,0 -1.25731,-0.33114 -2.17715,-0.98599 -0.92639,-0.65511 -1.64773,-0.85366 -2.17712,-0.59532 -0.26481,0 -2.63367,1.52196 -7.11366,4.54613 -4.486595,3.03075 -7.385005,4.55278 -8.695265,4.55278 -0.787508,0 -1.184508,-0.39688 -1.184508,-1.19113 0,-0.26479 1.244038,-1.58158 3.758649,-3.95058 2.501391,-2.36906 3.752064,-3.6859 3.752064,-3.9572 0,-0.25798 -0.26479,-0.39688 -0.79407,-0.39688 -1.581561,0 -3.493964,0.19843 -5.730635,0.59532 -2.243314,0.39688 -3.493977,0.58912 -3.752074,0.58912 -0.794067,0 -1.191134,-0.25798 -1.191134,-0.79408 0,-1.83959 4.877036,-3.28884 14.631063,-4.34763 1.8396,-0.2648 3.02416,-0.91978 3.56013,-1.97857 0.52277,-1.05218 0.79407,-3.81825 0.79407,-8.30486 0,-1.83959 -0.19844,-3.75206 -0.59532,-5.73063 -0.39689,-1.97858 -0.58913,-3.09691 -0.58913,-3.36163 0,-0.52277 0.39689,-0.79409 1.18451,-0.79409 2.89846,0 5.00281,1.05881 6.32628,3.16309 0.25797,0.52957 0.39687,1.58155 0.39687,3.16313 0,5.53213 -0.66174,10.27679 -1.97857,14.23399 2.0977,1.59484 3.1565,3.044 3.1565,4.36091 z" />
      <path
         style="display:inline;fill:#797979;fill-opacity:1;stroke-width:6.61736"
         inkscape:connector-curvature="0"
         id="path999"
         d="m 136.60306,240.77999 c 0,3.69252 0.32433,6.12769 0.98594,7.3122 0.65516,1.19114 2.23672,1.97863 4.74471,2.37564 2.50132,0.39689 4.67847,1.12496 6.52471,2.17713 0,0.2648 0.19844,0.52959 0.59532,0.78751 0.39688,0.27099 0.58911,0.53578 0.58911,0.79406 0,0.53579 -0.66173,0.79407 -1.97863,0.79407 -0.52959,0 -2.44181,-0.25796 -5.73065,-0.79407 -3.3021,-0.52277 -5.4726,-0.79406 -6.52476,-0.79406 -0.26481,0 -1.64775,0.98594 -4.14908,2.96456 -2.50797,1.97858 -4.41381,2.96458 -5.73727,2.96458 -0.52959,0 -0.78751,-0.39688 -0.78751,-1.19115 0,-0.26478 0.52277,-0.92639 1.58158,-1.97193 2.10432,-2.63374 2.76606,-3.9572 1.97862,-3.9572 -0.26479,0 -1.91903,0.66172 -4.94319,1.97856 -3.0308,1.32348 -5.07555,1.97864 -6.12772,1.97864 -0.79406,0 -1.1845,-0.25796 -1.1845,-0.79413 0,-0.79407 2.36901,-2.6999 7.11365,-5.73063 4.74469,-3.03076 7.12034,-6.52479 7.12034,-10.47536 0,-1.05216 -0.0664,-2.30283 -0.19844,-3.75207 -0.13267,-1.44252 -0.33114,-3.03074 -0.58912,-4.74464 -0.26479,-1.70726 -0.39689,-3.09034 -0.39689,-4.14908 -0.27098,-0.79413 0,-1.18456 0.78745,-1.18456 h 0.39688 c 4.47997,0 6.72326,1.32348 6.72326,3.95064 0,1.05874 -0.13883,2.96457 -0.39686,5.73728 -0.271,2.75942 -0.39689,4.67847 -0.39689,5.72401 z" />
      <path
         inkscape:connector-curvature="0"
         id="path1001"
         d="m 84.014623,85.800702 c 0,-0.522769 -0.589124,-1.442538 -1.780075,-2.766066 C 81.05004,81.7178 79.660407,80.136226 78.085474,78.289996 76.5039,76.450324 75.319408,75.126863 74.525275,74.339422 63.712515,59.582597 58.312711,50.357988 58.312711,46.66551 c 0,-0.794133 0.396884,-1.191133 1.184508,-1.191133 0.529578,0 1.184492,0.396883 1.978575,1.191133 15.286202,22.929204 23.716745,34.397194 25.304895,34.397194 0.522769,0 0.794134,-0.264806 0.794134,-0.794134 0,-0.794083 -3.500603,-5.790178 -10.47534,-15.028072 -6.987954,-9.224676 -10.475356,-15.286153 -10.475356,-18.184613 0,-0.794067 0.396884,-1.191084 1.184508,-1.191084 0.522769,0 4.215296,5.009314 11.070906,15.028073 6.848985,10.018743 10.806184,15.028122 11.858348,15.028122 0.522769,0 0.787508,-0.132178 0.787508,-0.396883 0,-1.052164 -3.096978,-5.995371 -9.290849,-14.829556 -6.200513,-8.827609 -9.290781,-13.903161 -9.290781,-15.219997 0,-0.787491 0.396883,-1.184491 1.184508,-1.184491 1.052163,0 4.082902,4.221872 9.092265,12.652414 5.002754,8.437185 7.90779,12.652414 8.701857,12.652414 0.522769,0 0.787491,-0.257963 0.787491,-0.794067 0,-0.522769 -1.44923,-3.421162 -4.347624,-8.695214 -2.898411,-5.26746 -4.347641,-8.695265 -4.347641,-10.283482 0,-1.052097 0.257964,-1.581508 0.794134,-1.581508 0.794066,0 3.030738,3.890977 6.723215,11.659847 3.685902,7.775396 5.664527,11.666423 5.929199,11.666423 0.522769,0 0.787491,-0.529577 0.787491,-1.581558 0,-1.052163 -1.581558,-5.135082 -4.744691,-12.255364 -3.163082,-7.120332 -4.74464,-11.20325 -4.74464,-12.26204 0,-0.787507 0.396866,-1.184507 1.184491,-1.184507 0.522769,0 2.501344,3.824805 5.929215,11.467922 l 5.532073,11.461348 c 1.58157,2.110902 2.62716,2.766066 3.16313,1.978558 0,-0.264789 -1.64773,-5.995371 -4.943193,-17.198555 -3.295413,-11.196675 -4.94316,-18.64121 -4.94316,-22.333687 0,-1.581575 0.396884,-2.369066 1.184508,-2.369066 1.052163,0 3.096912,6.127699 6.127715,18.383113 3.03074,12.262056 4.94314,18.38313 5.73064,18.38313 1.05216,0 1.58157,-0.655164 1.58157,-1.978642 0,-1.052163 -1.18451,-5.598304 -3.56015,-13.638405 -2.36907,-8.040118 -3.5602,-14.690586 -3.5602,-19.964705 0,-2.633671 0.25798,-3.957132 0.78749,-3.957132 1.83961,0 3.81825,5.604879 5.92915,16.80813 2.10434,11.203234 3.42123,16.801555 3.95722,16.801555 0.78749,0 1.18456,-1.316836 1.18456,-3.957216 0,-1.052164 -0.46324,-5.002738 -1.38308,-11.858348 -0.92639,-6.848967 -1.38299,-11.461347 -1.38299,-13.836989 0,-4.215229 0.39687,-6.326198 1.18449,-6.326198 1.05218,0 2.10434,3.229305 3.16308,9.687848 1.05217,6.458593 1.58156,12.718636 1.58156,18.78018 0,3.957216 0.65511,5.929148 1.97864,5.929148 0.79407,0 1.18451,-2.104327 1.18451,-6.326215 0,-2.375642 -0.19845,-6.193871 -0.58912,-11.467906 -0.39689,-5.267477 -0.59532,-8.82761 -0.59532,-10.673857 0,-3.163132 0.39687,-4.744707 1.18449,-4.744707 1.31684,0 2.30284,5.274102 2.96458,15.815564 0.6551,10.548153 1.38306,15.815613 2.17713,15.815613 1.31683,0 1.97857,-3.957199 1.97857,-11.858414 0,-8.165803 0.25798,-12.255414 0.79407,-12.255414 1.83967,0 2.76608,4.221938 2.76608,12.652481 0,1.058806 -0.0664,2.766066 -0.19845,5.135082 -0.13883,2.369066 -0.19843,4.089544 -0.19843,5.141707 0,2.369066 0.6551,3.030805 1.97857,1.978625 0.52277,-0.264789 0.78749,-0.655163 0.78749,-1.184491 0.26479,-0.529595 0.79407,-2.633738 1.58158,-6.326282 0.78742,-3.685835 1.64109,-6.848968 2.5675,-9.489282 0.91983,-2.627163 1.91247,-3.950624 2.96463,-3.950624 0.78744,0 1.18451,0.926461 1.18451,2.766066 0,1.323461 -0.66174,4.149141 -1.97864,8.50334 -1.32346,4.347641 -1.97858,7.312207 -1.97858,8.893782 0,0.529594 0.39689,0.794067 1.18451,0.794067 0.79407,0 3.03074,-5.532066 6.72328,-16.609631 3.68591,-11.070839 6.06153,-16.602988 7.11371,-16.602988 0.79407,0 1.18449,1.971933 1.18449,5.929149 -0.26479,2.110969 -1.12496,5.274035 -2.57414,9.489348 -1.44923,4.221872 -2.76607,7.980571 -3.95062,11.269406 -1.18451,3.302053 -1.78008,5.075552 -1.78008,5.340224 0,0.787492 0.39688,1.184492 1.18451,1.184492 0.79413,0 3.36163,-5.340208 7.70927,-16.014047 4.35427,-10.673857 7.17988,-16.007489 8.50334,-16.007489 0.5296,0 0.79407,0.529578 0.79407,1.581559 0,2.905052 -1.78006,8.304856 -5.34021,16.21263 -3.56013,7.907773 -5.34021,12.394384 -5.34021,13.439922 0.26479,0.264789 0.5296,0.396867 0.79407,0.396867 0.78744,0 3.61975,-4.413796 8.50336,-13.241406 4.87039,-8.827609 7.57688,-13.241422 8.10627,-13.241422 0.79407,0 1.18451,0.535787 1.18451,1.581575 0,1.323461 -1.18451,4.479969 -3.56015,9.489348 -1.58156,2.905036 -3.2293,5.730632 -4.94321,8.503341 -1.7139,2.766066 -2.96456,4.810813 -3.752,6.127715 -0.79414,1.323461 -1.18456,2.110903 -1.18456,2.368999 0,0.529578 0.39688,0.794067 1.18456,0.794067 1.05218,0 3.56015,-3.361633 7.51072,-10.084848 3.95056,-6.723282 6.18723,-10.07834 6.72326,-10.07834 0.79409,0 1.18451,0.529578 1.18451,1.581558 0,2.11097 -1.84624,5.929216 -5.53215,11.46799 l -5.92919,8.298198 c 0,0.794083 0.25798,1.191084 0.78749,1.191084 0.52959,0 2.69991,-2.633672 6.52478,-7.907774 3.81823,-5.26741 6.26004,-7.90779 7.31221,-7.90779 0.52959,0 0.78744,0.529594 0.78744,1.581575 0,1.581574 -2.44182,5.082177 -7.31221,10.475339 -4.87705,5.40638 -7.31222,8.371012 -7.31222,8.893781 l 0.79408,0.794067 c 1.83965,0 7.11371,-4.347624 15.81555,-13.049481 7.90777,-8.695281 12.26205,-13.049481 13.04949,-13.049481 0.52958,0 0.79412,0.535787 0.79412,1.581558 0,2.898411 -4.28809,8.172446 -12.85098,15.815564 -8.56951,7.649677 -12.84434,11.600251 -12.84434,11.858347 0,0.529595 0.25797,0.787442 0.78743,0.787442 2.10434,0 7.84161,-4.215247 17.19862,-12.652431 9.35038,-8.430543 14.55826,-12.652415 15.61706,-12.652415 0.52958,0 0.79407,0.396884 0.79407,1.184508 0,1.852873 -5.00938,6.921766 -15.02812,15.226623 -10.01868,8.298198 -15.02143,12.718586 -15.02143,13.241339 0,0.787508 0.0621,1.184508 0.19845,1.184508 0.13201,0 0.45641,0 0.98599,0 0.78744,0 5.39318,-3.096911 13.83692,-9.290782 8.43061,-6.187245 13.30759,-9.290848 14.62448,-9.290848 0.52959,0 0.79408,0.264805 0.79408,0.794133 0,1.052164 -0.79408,2.236672 -2.36901,3.56015 -7.90778,5.796804 -15.02148,10.673839 -21.34775,14.624413 -2.37564,1.581575 -3.56015,2.766066 -3.56015,3.560133 0,0.794134 0.25798,1.184508 0.78751,1.184508 0.26479,0 3.75863,-2.104277 10.47534,-6.326215 6.72321,-4.21523 11.13045,-6.326199 13.24135,-6.326199 1.31691,0 1.58156,0.661739 0.7875,1.971999 -0.26479,0.794067 -1.972,2.051373 -5.13514,3.758633 -3.16306,1.713902 -6.59088,3.560199 -10.27679,5.532149 -3.6991,1.978624 -6.06816,3.361632 -7.12026,4.149124 -1.32355,1.323478 -0.92648,1.978574 1.18449,1.978574 0.52277,0 3.42118,-1.449163 8.69521,-4.34764 5.26748,-2.898394 8.82761,-4.3542 10.67386,-4.3542 1.31689,0 1.972,0.535787 1.972,1.581558 0,0.529594 -3.2293,2.243314 -9.68785,5.141708 -6.45861,2.89841 -9.68129,4.876985 -9.68129,5.929148 0,0.794134 0.52277,1.184558 1.58158,1.184558 0.26479,0 3.22266,-0.721319 8.9004,-2.177125 5.65786,-1.442604 8.89379,-2.177141 9.68123,-2.177141 2.10432,0 3.16313,0.535787 3.16313,1.581575 0,1.058789 -4.08954,2.507969 -12.25541,4.34764 -8.17245,1.846231 -12.25542,3.163066 -12.25542,3.950558 0,1.058739 0.39689,1.581574 1.18449,1.581574 1.31691,0 4.87041,-0.721335 10.67386,-2.170499 5.79023,-1.44923 9.35038,-2.177141 10.67384,-2.177141 1.3169,0 1.97864,0.396883 1.97864,1.184508 0,0.787491 -0.59532,1.382991 -1.78007,1.780058 -1.19114,0.396883 -3.62638,0.926478 -7.31221,1.581574 -3.6991,0.661739 -7.25268,1.515403 -10.67384,2.567564 -0.79413,0.26479 -1.38308,0.66174 -1.78008,1.18451 -0.39688,0.53578 -0.39688,0.98599 0,1.38301 0.39689,0.39686 0.98595,0.5891 1.78008,0.5891 1.31683,0 4.21523,-0.52277 8.69521,-1.58151 4.47997,-1.05216 7.11371,-1.58155 7.90778,-1.58155 1.3169,0 1.97862,0.39688 1.97862,1.18449 0,1.58157 -5.9292,3.30212 -17.78754,5.14171 -0.53579,0 -0.98601,0.2648 -1.38308,0.79408 -0.39687,0.52958 -0.39687,1.05216 0,1.58156 0.39688,0.52959 1.1184,0.79408 2.17714,0.79408 0.78749,0 2.96457,-0.39688 6.51814,-1.18451 3.56015,-0.79406 5.99537,-1.18451 7.31221,-1.18451 0.79407,0 1.18451,0.13884 1.18451,0.39689 0,1.32348 -2.90504,2.5675 -8.69522,3.75865 -5.79687,1.18449 -8.69528,2.1705 -8.69528,2.96463 0,0.79407 0.91984,1.18449 2.76607,1.18449 1.3169,0 3.42118,-0.39687 6.32621,-1.18449 l 4.34764,-0.79413 c 1.31691,0 1.97864,0.39688 1.97864,1.19113 0,1.32348 -3.75207,2.50797 -11.26942,3.56013 -7.51077,1.05881 -11.26942,2.50804 -11.26942,4.34764 0.25798,0.26481 0.65511,0.39689 1.18451,0.39689 0.52277,0 1.90577,-0.25797 4.14907,-0.79407 2.23667,-0.52277 3.8844,-0.78751 4.94321,-0.78751 1.58156,0 2.369,0.5296 2.369,1.58158 0,0.79406 -1.84623,1.44918 -5.53213,1.97857 -3.69248,0.52958 -6.06812,0.79414 -7.11366,0.79414 -1.32346,0 -1.97863,0.39688 -1.97863,1.18449 0,0.52959 0.39689,0.78744 1.1845,0.78744 1.05218,0 2.50141,-0.13201 4.34764,-0.39689 1.83967,-0.26478 2.89841,-0.39686 3.16313,-0.39686 1.05218,0 1.58157,0.39686 1.58157,1.18449 0,1.84625 -3.69917,2.76607 -11.0709,2.76607 -0.78751,0.2648 -1.18451,1.19115 -1.18451,2.76608 0.52959,0 1.44916,-0.0664 2.76607,-0.19845 1.31683,-0.13201 2.30284,-0.26479 2.96458,-0.39689 0.65509,-0.13201 1.11169,-0.0621 1.38306,0.19845 0,0.79407 -0.59532,1.38301 -1.78013,1.78008 -1.18451,0.39687 -2.76608,0.86022 -4.74466,1.38299 -1.97855,0.53579 -3.6263,1.32348 -4.94319,2.37564 -2.63374,2.36907 -5.47255,3.75208 -8.50335,4.14914 -3.03074,0.39689 -5.07554,0.7279 -6.1277,0.98599 -0.26481,0 -2.56752,1.91905 -6.92178,5.73065 -4.34765,3.82487 -8.63569,5.73063 -12.84436,5.73063 -1.05881,0 -2.89839,-0.45639 -5.53213,-1.38299 -2.63374,-0.91983 -4.61232,-1.38307 -5.92915,-1.38307 -0.78749,0 -2.36907,0.39688 -4.74471,1.18451 -2.369,0.79413 -4.34764,1.18449 -5.92913,1.18449 -2.90505,0 -5.53215,-1.11832 -7.90779,-3.36157 -2.37569,-2.23674 -3.69253,-3.4874 -3.9572,-3.75207 -0.26479,0 -1.515403,-0.33115 -3.752077,-0.98599 -2.243297,-0.65512 -4.089544,-1.31691 -5.532132,-1.97864 -1.455806,-0.6551 -2.177142,-1.38301 -2.177142,-2.17708 0,-0.52958 0.257964,-0.78749 0.794067,-0.78749 0.787508,0 1.971999,0.33114 3.5602,0.98599 1.581508,0.66174 2.627112,0.98601 3.163082,0.98601 0.522769,0 0.787492,-0.25798 0.787492,-0.79409 0,-0.78749 -2.243297,-1.70732 -6.723266,-2.76606 -4.486611,-1.05216 -6.723282,-2.10433 -6.723282,-3.16313 0,-0.52277 0.396884,-0.79407 1.184508,-0.79407 1.052163,0 2.766066,0.271 5.141707,0.79407 l 3.560133,1.1845 c 1.316903,0 1.978642,-0.13217 1.978642,-0.39688 0,-1.58157 -0.926478,-2.36907 -2.766083,-2.36907 -10.81281,-1.8396 -16.212614,-3.81824 -16.212614,-5.92914 0,-0.7875 0.396884,-1.18456 1.184492,-1.18456 0.787507,0 3.222679,0.79413 7.312273,2.36906 4.082918,1.58156 6.65706,2.369 7.715849,2.369 0.787441,0 1.184508,-0.25796 1.184508,-0.78744 0,-0.79413 -0.985991,-1.58156 -2.964566,-2.36906 -1.978641,-0.79407 -4.486611,-1.71391 -7.510773,-2.76607 -3.030739,-1.05216 -5.472552,-2.10433 -7.312224,-3.16307 -5.009363,-3.16313 -10.018676,-7.24605 -15.028056,-12.25541 -5.009363,-5.00274 -7.510773,-8.16589 -7.510773,-9.48935 0,-1.05216 0.396884,-1.58157 1.184575,-1.58157 0.522752,0 3.29541,2.30947 8.298198,6.9152 5.002737,4.61894 8.30479,6.92179 9.886348,6.92179 0.529594,0 0.794083,-0.39689 0.794083,-1.19114 0,-0.52277 -0.860239,-1.4426 -2.567516,-2.76608 -1.720528,-1.31684 -3.891027,-3.16313 -6.524765,-5.53213 -2.640314,-2.369 -4.877035,-4.87704 -6.723282,-7.510706 -0.787442,-1.05218 -1.250664,-1.978642 -1.383008,-2.766083 -0.132012,-0.794117 -0.132012,-1.44923 0,-1.978625 0.132011,-0.529594 0.33116,-0.794066 0.595333,-0.794066 0.529578,0 3.222663,2.706469 8.106274,8.10627 4.87041,5.40645 8.106273,8.10634 9.681206,8.10634 0.529594,0 0.794133,-0.25796 0.794133,-0.79413 0,-0.52277 -2.905036,-4.0829 -8.695264,-10.67384 -5.796821,-6.584312 -8.695215,-10.799558 -8.695215,-12.652431 0,-0.794066 0.257963,-1.184491 0.794067,-1.184491 0.522769,0 3.487335,3.103536 8.893781,9.290782 5.399738,6.200513 9.026109,9.29084 10.87234,9.29084 l 0.396883,-0.79413 c 0,-0.25798 -3.163132,-3.957145 -9.489348,-11.070852 -6.326199,-7.120349 -9.489348,-12.123086 -9.489348,-15.028122 0,-0.522769 0.132178,-0.787442 0.396883,-0.787442 0.794067,0 4.082902,3.752074 9.886349,11.269423 5.796821,7.510707 9.35702,11.269407 10.673856,11.269407 0.787491,0 1.184491,-0.264789 1.184491,-0.794117 0,-0.787441 -1.515336,-3.090285 -4.546124,-6.915157 C 76.02696,85.331271 72.7315,81.241727 69.17135,76.894086 c -3.560199,-4.347641 -5.869668,-7.312207 -6.921765,-8.893781 -1.581575,-2.633722 -1.449247,-3.9572 0.396867,-3.9572 0.522769,0 3.685901,3.692544 9.489348,11.070923 5.796821,7.385004 9.489348,11.070906 11.070923,11.070906 0.542612,0.01165 0.807268,-0.119027 0.807268,-0.383865 z m 8.701907,20.560248 c -2.110969,0 -4.347641,0.85368 -6.723282,2.56759 -2.369066,1.72046 -3.560133,4.68511 -3.560133,8.89371 0,1.05879 0.198434,2.11097 0.589124,3.16313 0.396867,1.05881 1.449164,2.17715 3.163066,3.36164 1.713903,1.1845 3.884402,1.78007 6.524783,1.78007 7.378362,0 11.070912,-3.03074 11.070912,-9.09892 0,-2.8984 -1.12496,-5.39981 -3.36164,-7.51071 -2.236737,-2.0977 -4.804236,-3.15651 -7.702647,-3.15651 z m 0.396884,5.92915 c 2.633738,0 3.957199,1.58158 3.957199,4.74471 0,2.11097 -1.449163,3.16313 -4.347641,3.16313 -2.633671,0 -3.950557,-1.05216 -3.950557,-3.16313 -0.0067,-3.16313 1.435963,-4.74471 4.340999,-4.74471 z M 112.48254,91.332851 c 0,-2.898411 -1.05881,-5.46591 -3.16314,-7.709224 -2.11091,-2.236671 -4.48654,-3.361632 -7.1137,-3.361632 -3.42781,0 -6.32622,0.985991 -8.69522,2.964566 -2.369016,1.978575 -3.560149,4.68511 -3.560149,8.10629 0,6.85561 3.818246,10.276839 11.461279,10.276839 2.89842,0 5.46598,-1.05217 7.70929,-3.163132 2.23666,-2.097702 3.36164,-4.473343 3.36164,-7.113707 z m -15.418552,0 c 0,-1.05218 0.529577,-2.104344 1.581558,-3.163083 1.052161,-1.052163 2.104344,-1.581574 3.163134,-1.581574 1.05218,0 2.03817,0.529594 2.96458,1.581574 0.91984,1.058739 1.38306,2.110903 1.38306,3.163083 0,2.369066 -1.58156,3.560199 -4.74471,3.560199 -2.898392,0 -4.347622,-1.184574 -4.347622,-3.560199 z m 25.304902,49.028229 c 0,-6.85561 -3.30204,-10.28341 -9.88635,-10.28341 -6.32622,0 -9.48935,2.76606 -9.48935,8.30484 0,2.63373 0.99263,5.00938 2.96457,7.1137 1.97864,2.1109 4.67853,3.16307 8.10635,3.16307 5.53871,0.007 8.30478,-2.75943 8.30478,-8.2982 z m -4.34758,-35.58168 c -2.90503,0 -5.2741,1.12496 -7.11371,3.36163 -1.84624,2.24331 -2.76606,4.81745 -2.76606,7.70927 0,6.59089 4.21523,9.88635 12.65241,9.88635 3.16314,0 5.59831,-1.18449 7.31221,-3.56013 1.70733,-2.369 2.56757,-4.60574 2.56757,-6.72328 0,-7.11371 -4.22188,-10.67384 -12.65242,-10.67384 z m -9.09235,34.79424 c 0,-2.63374 1.31691,-3.9572 3.95722,-3.9572 2.6271,0 3.95057,1.45581 3.95057,4.34764 0,2.1109 -1.1845,3.16307 -3.56015,3.16307 -2.90503,0 -4.34764,-1.18451 -4.34764,-3.55351 z m 22.92927,-69.985501 c 0,-1.839655 -0.86024,-3.685902 -2.56756,-5.532132 -1.72048,-1.839672 -3.89098,-2.766066 -6.52472,-2.766066 -7.64967,0 -11.46792,3.69246 -11.46792,11.070839 0,2.110969 0.98601,3.752074 2.96458,4.943208 1.97856,1.19115 3.8844,1.780074 5.73063,1.780074 2.89841,0 5.59831,-1.052163 8.10634,-3.163066 2.50799,-2.110969 3.75865,-4.215313 3.75865,-6.332857 z m -8.69521,46.262161 c 0,2.11092 -1.18456,3.16308 -3.5602,3.16308 -2.90504,0 -4.34757,-1.05216 -4.34757,-3.16308 0,-2.89839 1.31683,-4.34762 3.95057,-4.34762 2.63367,0 3.9572,1.44923 3.9572,4.34762 z m -1.58158,-41.907945 c -2.90503,0 -4.35426,-1.316836 -4.35426,-3.9572 0,-2.627112 1.7139,-3.950574 5.14171,-3.950574 2.37564,0 3.5602,1.184492 3.5602,3.560133 -0.007,2.898477 -1.45588,4.347641 -4.34765,4.347641 z m 9.48273,28.858465 c 0.79406,0 1.9124,-0.19843 3.36163,-0.58912 1.44916,-0.39687 3.09691,-1.58151 4.94321,-3.560133 1.8396,-1.978575 2.76606,-4.552783 2.76606,-7.709274 0,-3.421179 -0.98599,-5.862976 -2.96463,-7.312206 -1.97857,-1.449181 -3.89104,-2.177075 -5.73727,-2.177075 -2.369,0 -5.13509,0.794066 -8.29822,2.368999 -3.16306,1.581558 -4.74464,4.221872 -4.74464,7.907773 0,2.905036 1.05216,5.472602 3.16308,7.709274 2.10433,2.243312 4.60572,3.361642 7.51078,3.361642 z m 0.79406,-14.22741 c 2.89841,0 4.34764,1.323478 4.34764,3.950574 0,2.633739 -1.44923,3.9572 -4.34764,3.9572 -2.90503,0 -4.34764,-1.316836 -4.34764,-3.9572 0,-2.633738 1.44261,-3.950574 4.34764,-3.950574 z m 15.81555,50.60316 c 0,-2.89839 -1.25066,-5.00274 -3.75206,-6.3262 -2.50797,-1.31685 -4.94314,-1.97857 -7.3122,-1.97857 -5.79682,0 -8.69522,3.69248 -8.69522,11.07084 0,5.79687 2.8984,8.69528 8.69522,8.69528 1.31688,0 2.63372,-0.19843 3.9572,-0.59532 1.3169,-0.39688 2.82566,-1.5154 4.54614,-3.36163 1.7007,-1.83303 2.56092,-4.34102 2.56092,-7.50415 z m -9.48933,-1.58156 c 2.36907,0 3.5602,1.05879 3.5602,3.16314 0,3.16313 -1.32348,4.74464 -3.95722,4.74464 -2.36906,0 -3.56013,-1.44254 -3.56013,-4.34758 0,-2.37564 1.31684,-3.5602 3.95715,-3.5602 z m -3.56015,-24.90784 c 0,2.90504 1.05216,5.14171 3.16313,6.72328 2.10435,1.58156 4.47999,2.369 7.11371,2.369 6.59089,0 9.88636,-3.03074 9.88636,-9.09891 0,-2.36901 -0.85368,-4.54614 -2.56758,-6.52471 -1.7139,-1.97864 -3.89098,-2.96458 -6.51807,-2.96458 -3.43443,0 -6.1277,0.92641 -8.10634,2.76608 -1.9852,1.8528 -2.97121,4.0961 -2.97121,6.72984 z m 13.04948,-33.609683 c 1.83967,0 4.01675,-0.794134 6.52478,-2.375692 2.50135,-1.581508 3.75208,-4.082918 3.75208,-7.510723 0,-5.532132 -2.89848,-8.30484 -8.69528,-8.30484 -7.12029,0 -10.67384,3.030805 -10.67384,9.092348 0,2.905036 0.85366,5.141707 2.56756,6.723215 1.7139,1.588201 3.8844,2.375692 6.5247,2.375692 z m -2.37562,29.652483 c 2.62709,0 3.9572,1.58156 3.9572,4.74471 0,2.369 -1.45581,3.56013 -4.35422,3.56013 -2.36907,0 -3.5602,-1.31684 -3.5602,-3.95057 0.007,-2.89841 1.32348,-4.35427 3.95722,-4.35427 z m 2.76606,-34.787615 c -2.369,0 -3.56015,-1.184508 -3.56015,-3.560133 0,-2.89841 1.31684,-4.347641 3.95722,-4.347641 2.62709,0 3.9572,1.184492 3.9572,3.560133 0,2.898477 -1.45586,4.347641 -4.35427,4.347641 z m 2.77271,56.929445 c 0,1.84623 1.18449,3.56013 3.56013,5.14171 2.369,1.5815 4.34764,2.369 5.92922,2.369 2.369,0 4.54612,-0.85367 6.5247,-2.56757 1.972,-1.7139 2.96463,-3.49398 2.96463,-5.34021 0,-2.37564 -0.98599,-4.54614 -2.96463,-6.52478 -1.97858,-1.97857 -4.28805,-2.96457 -6.92177,-2.96457 -2.36901,0 -4.48661,1.05881 -6.32621,3.16314 -1.84625,2.11754 -2.76607,4.35421 -2.76607,6.72328 z m 1.972,-43.489523 c 0,6.068169 3.16307,9.098907 9.48928,9.098907 2.6271,0 5.06896,-0.853663 7.31227,-2.574142 2.23668,-1.707326 3.36157,-3.884401 3.36157,-6.524765 0,-6.326215 -3.03074,-9.489348 -9.09228,-9.489348 -3.16307,0 -5.79681,0.985991 -7.90777,2.964632 -2.11091,1.978575 -3.16307,4.149074 -3.16307,6.524716 z m 11.07084,42.304943 c 0,0.79414 -0.39687,1.58158 -1.18449,2.36907 -0.78751,0.78744 -1.44923,1.18451 -1.97858,1.18451 -2.63374,0 -3.9572,-0.91984 -3.9572,-2.76607 0,-2.89841 1.18449,-4.34764 3.56014,-4.34764 2.37564,0 3.56013,1.18449 3.56013,3.56013 z m -3.95056,-41.907876 c 0,-2.898411 1.31684,-4.347641 3.9572,-4.347641 2.369,0 3.56013,1.323461 3.56013,3.950574 0,2.640364 -1.44916,3.957199 -4.34762,3.957199 -2.12419,-0.0067 -3.16971,-1.191133 -3.16971,-3.560132 z m 9.48933,30.837036 c 7.12029,0 10.67386,-2.89841 10.67386,-8.69528 0,-2.369 -0.79407,-4.60567 -2.37564,-6.72328 -1.58156,-2.10433 -3.82487,-3.16307 -6.72328,-3.16307 -2.11097,0 -4.34763,0.78743 -6.72327,2.369 -2.369,1.58158 -3.56015,3.9572 -3.56015,7.12035 0,2.369 0.79408,4.48655 2.36902,6.3262 1.59477,1.84625 3.6991,2.76608 6.33946,2.76608 z m 1.58158,-4.7447 c -3.16313,0 -4.74471,-1.18451 -4.74471,-3.56015 0,-1.31684 0.52277,-2.43517 1.58158,-3.36164 1.05216,-0.91983 2.10432,-1.383 3.16313,-1.383 2.10432,0 3.16308,1.44918 3.16308,4.34757 0,2.64038 -1.05876,3.95722 -3.16308,3.95722 z"
         style="display:inline;fill:#797979;fill-opacity:1;stroke-width:6.61736" />
      <path
         style="display:inline;fill:#797979;fill-opacity:1;stroke-width:6.61736"
         inkscape:connector-curvature="0"
         id="path1003"
         d="m 139.36912,217.45371 c -2.11097,0 -5.2741,-0.39688 -9.48933,-1.18455 -4.22194,-0.78744 -7.25269,-1.18451 -9.09228,-1.18451 -1.32354,0 -3.95722,0.78749 -7.90784,2.36906 -3.95715,1.58151 -7.12028,2.37565 -9.4893,2.37565 -1.32346,0 -4.089523,-0.32434 -8.304841,-0.98601 -4.215296,-0.65517 -7.252676,-0.98599 -9.092281,-0.98599 -15.557517,0 -29.255469,2.24329 -41.113883,6.72326 -0.535787,-1.05216 -0.794067,-2.62709 -0.794067,-4.74469 0,-11.07085 3.685902,-20.6198 11.070906,-28.66648 7.378379,-8.04018 14.756758,-12.05691 22.141779,-12.05691 2.104327,0 4.479969,0.39687 7.120332,1.18449 2.627113,0.79407 4.082919,1.18451 4.347574,1.18451 1.052181,0 1.581575,-0.39688 1.581575,-1.18451 0,-0.25796 -0.330528,-0.8536 -0.986008,-1.78007 -0.661722,-0.91982 -0.985924,-1.51539 -0.985924,-1.78006 0,-1.31684 0.264788,-1.97858 0.794066,-1.97858 0.529595,0 1.184508,0.52958 1.978575,1.58151 0.794067,1.05881 1.515403,2.83887 2.177142,5.34028 0.655096,2.50796 0.985991,5.20786 0.985991,8.10627 0,1.32348 -0.06642,3.69912 -0.198434,7.12035 -0.138836,3.4278 -0.19845,5.53213 -0.19845,6.3262 0,8.95995 2.766066,13.43992 8.298218,13.43992 1.83965,0 5.00274,-0.85366 9.48935,-2.57421 4.47332,-1.70726 8.16587,-2.5675 11.0709,-2.5675 0.78745,0 1.70728,0.0664 2.76607,0.19844 1.05218,0.13883 1.83961,0.19845 2.36902,0.19845 4.21529,0 6.3262,-2.89842 6.3262,-8.69522 0,-1.83967 -1.12497,-3.61973 -3.36164,-5.34027 -2.24329,-1.71391 -4.41379,-2.57415 -6.52471,-2.57415 -2.63374,0 -5.7307,2.2433 -9.29085,6.72329 -3.56013,4.48661 -6.5247,6.72326 -8.90034,6.72326 -4.21531,0 -6.326283,-3.16313 -6.326283,-9.48935 0,-2.62709 0.721333,-6.32619 2.177143,-11.0709 1.4426,-4.74464 2.17714,-8.30479 2.17714,-10.67384 0,-3.16308 -0.72791,-5.46598 -2.17714,-6.91516 -1.45581,-1.44259 -2.964573,-2.30283 -4.546146,-2.56756 -1.581558,-0.26479 -2.375642,-0.52958 -2.375642,-0.79407 0,-0.5296 0.794084,-0.79407 2.375642,-0.79407 2.627096,0 5.002736,1.38301 7.113706,4.14908 2.10435,2.76606 3.42118,4.14912 3.95722,4.14912 0.52275,0 1.58151,-1.18456 3.16307,-3.5602 1.58157,-2.37564 3.95057,-4.67847 7.1137,-6.92178 3.16314,-2.23666 6.98138,-3.36163 11.46135,-3.36163 5.26741,0 9.62168,2.44181 13.04948,7.3122 3.42781,4.87705 5.26741,7.31221 5.53215,7.31221 l 5.92915,-1.58149 c 3.9572,-1.3169 8.82761,-1.97864 14.63104,-1.97864 7.90779,0 16.21263,4.08954 24.90784,12.26205 8.69528,8.17245 13.04955,18.32354 13.04955,30.43998 l -1.19113,6.72327 c -0.5296,0 -5.40645,-0.79407 -14.62448,-2.36907 -9.23126,-1.58151 -16.74196,-2.369 -22.53221,-2.369 -9.23125,0 -16.08022,0.13884 -20.5602,0.39688 -4.47997,0.26479 -7.51077,0.39068 -9.09227,0.39068 z m -74.326551,-3.1565 c 0,-1.05217 -1.581508,-1.58156 -4.744657,-1.58156 -2.369,0 -4.413797,0.27161 -6.127699,0.79407 -1.713903,0.53578 -2.898411,1.1845 -3.56015,1.97862 -0.661722,0.78744 -0.985991,1.44918 -0.985991,1.97195 0,1.05881 0.529594,1.58156 1.581575,1.58156 1.316836,0 3.957199,-0.58911 7.907773,-1.78006 3.950574,-1.19115 5.929149,-2.17714 5.929149,-2.96458 z m -13.049498,-6.72327 c 0,1.05879 1.316903,1.58156 3.957217,1.58156 1.839654,0 4.010153,-0.39688 6.524765,-1.18456 2.501344,-0.79406 3.752074,-1.44254 3.752074,-1.97857 0,-1.31684 -1.581575,-1.972 -4.744707,-1.972 -6.326216,-0.007 -9.489349,1.18451 -9.489349,3.55357 z m 11.46799,-11.86499 c -4.744707,0 -7.120349,0.78744 -7.120349,2.369 0,1.32348 2.368999,1.97864 7.120349,1.97864 4.21523,0 6.326199,-0.65516 6.326199,-1.97864 0,-1.57493 -2.110969,-2.369 -6.326199,-2.369 z m -1.19115,-5.13508 c 0,1.58151 2.89841,2.36902 8.701857,2.36902 1.839604,0 2.766066,-0.39689 2.766066,-1.18451 0,-2.10433 -2.243297,-3.16313 -6.723266,-3.16313 -3.156507,0 -4.744657,0.66173 -4.744657,1.97862 z m 5.935791,-5.9292 c 0,1.32348 2.501393,1.972 7.510706,1.972 1.581575,0 2.369066,-0.39688 2.369066,-1.18451 0,-1.58156 -1.978641,-2.36906 -5.929198,-2.36906 -2.633739,-0.007 -3.950574,0.52959 -3.950574,1.58157 z m 21.347695,26.87983 c -13.439922,0 -20.163204,0.66174 -20.163204,1.97857 0,1.05881 1.707277,1.58158 5.141708,1.58158 1.05218,0 3.030804,-0.0664 5.929215,-0.19843 2.898394,-0.13218 5.141707,-0.19845 6.723282,-0.19845 3.421163,0 5.141708,-0.52958 5.141708,-1.58156 -0.0067,-1.04554 -0.933054,-1.58158 -2.772709,-1.58158 z m 1.191134,-4.34762 c 0,-2.10435 -5.141708,-3.16309 -15.425123,-3.16309 -3.163132,0 -4.744707,0.66174 -4.744707,1.97194 0,0.5358 0.132677,0.8603 0.396884,0.986 0.257963,0.13884 0.847021,0.26479 1.780074,0.39689 0.919819,0.13883 1.839655,0.19843 2.766066,0.19843 0.926462,0 2.435222,0 4.552767,0 2.104343,0 4.082918,0.13884 5.929148,0.39688 3.156508,0.271 4.744708,0 4.744708,-0.78749 z m -0.396884,-6.32622 c 0,-2.10433 -3.560133,-3.16313 -10.673839,-3.16313 -3.427805,0 -5.135082,0.66174 -5.135082,1.972 0,1.32346 4.082902,1.97862 12.255414,1.97862 2.362374,0 3.553507,-0.25796 3.553507,-0.78749 z m -12.652414,-7.11371 c 0,0.26479 1.70726,0.7279 5.135065,1.38306 3.42118,0.66174 5.399804,0.98601 5.929216,0.98601 1.052163,0 1.581558,-0.13268 1.581558,-0.39688 0,-0.52958 -0.396884,-1.05217 -1.184558,-1.58158 -0.794067,-0.52958 -1.978575,-1.05216 -3.56015,-1.58156 -1.581558,-0.52277 -3.163066,-0.79406 -4.744641,-0.79406 -2.104327,0.007 -3.15649,0.66836 -3.15649,1.9852 z m 2.766066,-5.92915 c 0,0.78745 1.383008,1.58151 4.149074,2.369 2.766066,0.78751 4.804237,1.18451 6.127715,1.18451 0.522753,0 0.787492,-0.25796 0.787492,-0.79407 0,-0.52276 -0.986008,-1.3169 -2.964633,-2.36899 -1.978575,-1.05218 -3.890977,-1.58158 -5.730649,-1.58158 -1.574932,0 -2.368999,0.39688 -2.368999,1.19113 z m 10.673856,-2.37564 c 0,-1.83965 -1.846247,-2.76606 -5.532149,-2.76606 -1.581574,0 -2.375641,0.26479 -2.375641,0.79406 0,0.79409 0.919836,1.44918 2.766066,1.972 1.839605,0.53579 3.163083,0.79409 3.957216,0.79409 0.794067,0 1.184508,-0.26481 1.184508,-0.79409 z m 8.304772,-7.51077 c 0,0.78751 -0.39688,1.18451 -1.184506,1.18451 -0.787425,0 -1.713903,-0.79407 -2.766066,-2.369 -1.058739,-1.58158 -1.581558,-2.89841 -1.581558,-3.95722 0,-0.52277 0.257963,-0.79406 0.787491,-0.79406 1.052163,0 2.104327,0.72791 3.163133,2.17714 1.045538,1.4558 1.581506,2.70647 1.581506,3.75863 z m 9.092353,17.3905 c 0,-1.58158 -0.92648,-2.369 -2.76608,-2.369 -2.11097,0 -3.16314,1.97857 -3.16314,5.9292 0,1.5815 0.5296,2.36899 1.58158,2.36899 0.52277,0 1.38301,-0.72131 2.56757,-2.17712 1.1845,-1.43596 1.78007,-2.69327 1.78007,-3.75207 z m 4.74464,3.9572 c 0,-1.31684 -0.39688,-1.97858 -1.18451,-1.97858 -1.0588,0 -2.30947,0.86024 -3.75207,2.56752 -1.45581,1.72052 -2.17713,3.1036 -2.17713,4.15576 0,1.05874 0.52958,1.58151 1.58156,1.58151 0.79409,0 1.9124,-0.79407 3.36165,-2.369 1.44259,-1.58815 2.1705,-2.89841 2.1705,-3.95721 z m -1.97857,-7.11371 c 0.52957,0 1.11833,-0.52958 1.78007,-1.58151 0.6551,-1.05216 0.98599,-1.83965 0.98599,-2.36907 0,-2.10432 -0.92646,-3.16306 -2.76606,-3.16306 -3.16314,0 -4.74471,1.32348 -4.74471,3.95715 0,2.10432 1.58157,3.15649 4.74471,3.15649 z m 8.30477,-20.95726 c 0,-1.05218 -0.79407,-1.58157 -2.37563,-1.58157 -2.63373,0 -3.95057,1.18456 -3.95057,3.5602 0,1.31683 0.78749,1.97195 2.369,1.97195 2.63374,0 3.9572,-1.31021 3.9572,-3.95058 z m -3.16307,13.44655 c 1.83961,0 2.76607,-1.05216 2.76607,-3.16313 0,-1.83961 -0.92646,-2.76607 -2.76607,-2.76607 -2.11097,0 -3.16313,1.05879 -3.16313,3.16314 0,1.83965 1.05216,2.76606 3.16313,2.76606 z m 0.78744,5.13507 c -0.52959,0 -1.11833,0.39688 -1.78007,1.19115 -0.66174,0.78749 -0.98601,1.44923 -0.98601,1.972 0,1.84623 0.91984,2.76606 2.76608,2.76606 1.83966,0 2.76607,-1.18451 2.76607,-3.56015 0,-1.57493 -0.92641,-2.36906 -2.76607,-2.36906 z m 5.14171,-25.3049 c -2.11092,0 -3.16308,0.79414 -3.16308,2.37564 0,1.58156 1.05216,2.36907 3.16308,2.36907 0.52275,0.26479 1.05217,0.19843 1.58156,-0.19845 0.52959,-0.39687 0.79407,-0.98599 0.79407,-1.78013 0,-1.8396 -0.79407,-2.76606 -2.37563,-2.76606 z m 0,14.63106 c 1.83966,0 2.76607,-0.91977 2.76607,-2.76607 0,-1.8396 -0.92641,-2.76606 -2.76607,-2.76606 -1.84624,0 -2.76608,0.92646 -2.76608,2.76606 0,1.8463 0.91984,2.76607 2.76608,2.76607 z m 3.55356,7.90777 c 0,-2.10433 -0.92646,-3.16307 -2.76607,-3.16307 -2.369,0 -3.56013,0.9264 -3.56013,2.76607 0,2.1109 1.05216,3.16307 3.16307,3.16307 2.11097,0 3.16313,-0.91977 3.16313,-2.76607 z m 1.97857,-9.09228 c -2.1109,0 -3.16306,1.05881 -3.16306,3.16315 -0.271,0.78742 0.0621,1.51533 0.98599,2.1705 0.91977,0.66172 1.64768,0.99257 2.17707,0.99257 2.10435,0 3.16314,-0.92642 3.16314,-2.76607 0,-2.37564 -1.05217,-3.56015 -3.16314,-3.56015 z m -0.39067,-3.9572 c 2.36907,0 3.5602,-1.05216 3.5602,-3.16308 0,-1.58156 -0.92646,-2.36907 -2.76607,-2.36907 -2.11097,0 -3.16313,1.05881 -3.16313,3.16315 -0.007,1.58156 0.78085,2.369 2.369,2.369 z m 0.78749,-11.46792 c -1.84623,0 -2.76606,0.66174 -2.76606,1.97857 0,1.32353 0.91983,1.97864 2.76606,1.97864 1.58158,0 2.369,-0.65511 2.369,-1.97864 0.007,-1.31683 -0.78742,-1.97857 -2.369,-1.97857 z m 11.46792,52.19138 c 1.58158,0 6.3858,-0.59534 14.43256,-1.78014 8.0401,-1.18449 15.47808,-1.78008 22.34026,-1.78008 3.6859,0 5.53215,-0.52958 5.53215,-1.58149 0,-2.10434 -2.50799,-3.16315 -7.51072,-3.16315 -2.90504,0 -7.38501,0.53579 -13.44655,1.58158 -6.06812,1.05874 -9.75402,1.58157 -11.07086,1.58157 -1.0588,0 -1.58155,-0.13268 -1.58155,-0.39688 0,-1.31684 3.42116,-2.69991 10.27677,-4.14914 6.85561,-1.44254 11.72602,-2.17708 14.63105,-2.17708 2.89841,0 4.34764,-0.65516 4.34764,-1.972 0,-1.31683 -1.32347,-1.97857 -3.95057,-1.97857 -2.64036,0 -6.65711,0.66174 -12.05691,1.97857 -5.40638,1.31684 -8.76802,1.972 -10.07828,1.972 -0.79408,0 -1.1845,-0.25796 -1.1845,-0.78749 0,-1.8396 6.06154,-3.69248 18.18456,-5.53877 2.89846,-0.25798 4.34764,-1.05212 4.34764,-2.36902 0,-0.79407 -0.79408,-1.19113 -2.36902,-1.19113 -1.84623,0 -5.20786,0.72791 -10.07827,2.17714 -4.88368,1.4558 -7.70927,2.17714 -8.50334,2.17714 -1.58157,0 -1.44925,-0.65516 0.39687,-1.97864 0.52277,-0.52277 1.05218,-0.91977 1.58157,-1.18451 1.58158,-0.52958 3.29548,-1.11832 5.14171,-1.78006 1.83967,-0.65509 3.22266,-1.11833 4.14914,-1.38301 0.91977,-0.26478 1.8396,-0.52959 2.76607,-0.79413 0.91977,-0.25796 1.51533,-0.59532 1.78007,-0.98599 0.26479,-0.39688 0.39688,-0.72127 0.39688,-0.98594 0,-0.79413 -0.66173,-1.18458 -1.97857,-1.18458 -1.58158,0 -4.28804,0.72798 -8.10629,2.17715 -3.82487,1.44923 -6.002,2.17714 -6.52477,2.17714 -0.79408,0 -1.1845,-0.13218 -1.1845,-0.39689 0,-0.79406 2.43517,-2.30282 7.3122,-4.55278 4.87704,-2.23665 7.31221,-3.61966 7.31221,-4.14906 0,-0.79408 -0.52958,-1.1845 -1.58156,-1.1845 -0.79407,0 -3.03074,0.98599 -6.72328,2.96456 -3.69248,1.97858 -6.06812,2.96458 -7.11364,2.96458 -0.53579,0 -0.79413,-0.25798 -0.79413,-0.79408 0,-1.05216 2.17714,-2.69989 6.52476,-4.94321 4.34764,-2.23665 6.52472,-3.75863 6.52472,-4.54614 0,-0.52958 -0.52958,-0.79406 -1.58151,-0.79406 -1.8463,0 -4.14913,0.72791 -6.92177,2.17714 -2.76608,1.44916 -5.07555,2.83224 -6.9152,4.14907 l -3.16315,1.97864 c -1.05874,0 -1.58149,-0.52959 -1.58149,-1.58157 0,-0.25798 0.45641,-1.11834 1.38299,-2.56757 0.91983,-1.44918 1.38307,-2.43517 1.38307,-2.96458 0,-1.05216 -0.78751,-1.58156 -2.36906,-1.58156 -1.58158,0 -4.48655,2.37564 -8.69522,7.12035 -4.22194,4.74464 -6.32626,7.51071 -6.32626,8.30477 0,0.26479 1.78012,1.51541 5.34025,3.75208 3.56015,2.24329 5.34023,5.4726 5.34023,9.68785 0,3.95057 -1.18451,7.1137 -3.56015,9.48934 2.0977,0.52958 3.94393,0.78749 5.5255,0.78749 z m -2.37564,-39.53895 c 0,-1.58151 -1.18451,-2.36902 -3.56013,-2.36902 -0.52959,0 -1.18451,0.39689 -1.972,1.18451 -0.79408,0.79413 -1.18451,1.58157 -1.18451,2.36907 0,1.5815 1.05217,2.369 3.16314,2.369 0.79406,0 1.5815,-0.39689 2.37564,-1.1845 0.7808,-0.78086 1.17786,-1.57495 1.17786,-2.36906 z m -2.369,-11.4613 c -1.84624,0 -2.76606,1.05881 -2.76606,3.16308 0,1.32353 0.79406,1.972 2.369,1.972 2.369,0 3.56013,-0.91983 3.56013,-2.76606 0,-1.58158 -1.05874,-2.36902 -3.16307,-2.36902 z m 7.11371,7.11371 c 0,-1.31689 -0.66174,-1.97863 -1.97864,-1.97863 -1.58156,0 -2.369,0.66174 -2.369,1.97863 0,1.58151 0.6551,2.37564 1.97857,2.37564 1.58158,0 2.36907,-0.79413 2.36907,-2.37564 z m 12.65241,-7.51078 c 7.37838,-8.1658 15.02813,-14.75674 22.92927,-19.77276 7.90778,-5.00274 13.96932,-7.51071 18.19119,-7.51071 1.58158,0 2.369,0.5296 2.369,1.58158 0,0.53579 -0.26479,0.92639 -0.78742,1.18449 -1.32348,1.05881 -4.08955,2.56757 -8.30484,4.54614 -4.22189,1.97858 -6.98796,3.36165 -8.30486,4.14907 -5.27403,3.42781 -10.07827,6.72329 -14.43249,9.88642 -4.35426,3.16313 -7.37838,5.34021 -9.09228,6.52472 -1.72053,1.18455 -2.83224,1.78012 -3.36163,1.78012 -1.05217,0 -0.78749,-0.78749 0.79406,-2.36907 z m 13.44657,16.60306 c 0,1.0588 0.52275,1.58157 1.58156,1.58157 6.85561,0 10.28341,-0.91983 10.28341,-2.76606 0,-1.05217 -1.0588,-1.58158 -3.16313,-1.58158 -1.32348,0 -3.10354,0.33053 -5.34021,0.98601 -2.24331,0.66172 -3.36163,1.25731 -3.36163,1.78006 z m 0.39067,-17.00006 c 0,-0.25796 1.51534,-1.5154 4.54614,-3.7587 3.03074,-2.23667 6.72327,-4.47334 11.07086,-6.72328 4.34762,-2.23667 7.70927,-3.36163 10.08491,-3.36163 2.36905,0 3.56014,0.39688 3.56014,1.19113 0,0.78749 -8.83419,4.87704 -26.48941,12.25542 -2.11754,1.0588 -3.03738,1.19113 -2.77264,0.39688 z m 15.02806,20.56021 c -6.06812,0 -9.09228,1.05216 -9.09228,3.16313 0,0.79407 0.78744,1.19113 2.369,1.19113 0.7875,0 2.23667,-0.0664 4.34764,-0.19843 2.10434,-0.13218 3.42118,-0.19845 3.95057,-0.19845 1.58158,0 2.37564,-0.52275 2.37564,-1.58156 0,-1.58157 -1.32348,-2.37564 -3.95057,-2.37564 z m -7.91442,-16.60306 c 0,-0.26479 0.85367,-0.85359 2.57421,-1.78007 1.7139,-0.91977 3.8844,-1.78008 6.52472,-2.57414 2.63372,-0.78749 4.87039,-1.18449 6.72326,-1.18449 2.36907,0 3.95722,0.78742 4.74471,2.369 0.26479,0.52957 0.13218,0.86028 -0.39688,0.98599 -0.52958,0.13217 -1.71391,0.19845 -3.56014,0.19845 -2.90503,0.26479 -5.60494,0.5891 -8.10634,0.98599 -2.50798,0.39688 -4.28804,0.72791 -5.3402,0.99263 -1.05881,0.26481 -1.71391,0.39688 -1.972,0.39688 -0.79409,0.007 -1.19115,-0.12585 -1.19115,-0.39067 z m 3.95722,26.88647 c 0,1.05881 3.42123,1.58158 10.28341,1.58158 2.36907,0 3.5602,-0.39689 3.5602,-1.18451 0,-1.58157 -2.11097,-2.37564 -6.32628,-2.37564 -5.01594,0 -7.51733,0.66174 -7.51733,1.97857 z m 19.76619,9.09228 c 0,-2.36899 -3.42788,-3.56014 -10.27686,-3.56014 -2.11097,0 -3.56013,0.13883 -4.34762,0.39688 -0.79409,0.27161 -1.05874,0.79407 -0.79409,1.58157 0,0.79407 1.91242,1.51534 5.73729,2.17708 3.81823,0.66174 6.2534,0.98599 7.31221,0.98599 1.58156,0 2.36907,-0.52958 2.36907,-1.58156 z m -2.36907,6.32627 c -2.11092,-0.52277 -4.34764,-0.79413 -6.72328,-0.79413 -2.37564,0 -3.56013,0.39688 -3.56013,1.18457 0,2.37563 4.0829,3.95713 12.25541,4.74464 1.31684,0.26479 1.97857,-0.13218 1.97857,-1.18451 0.007,-2.10432 -1.32347,-3.42123 -3.95057,-3.95057 z" />
    </g>
  </g>
  <g
     inkscape:label="Vogel"
     inkscape:groupmode="layer"
     id="layer1"
     style="display:inline"
     sodipodi:insensitive="true">
    <path
       style="display:inline;fill:#fd7e14;fill-opacity:1;stroke-width:6.61736"
       inkscape:connector-curvature="0"
       id="path70"
       d="m 86.249755,154.4385 c 0,0.53579 -0.271614,0.79407 -0.794134,0.79407 -1.058739,0 -4.74464,-2.63374 -11.070856,-7.90778 -2.110969,-1.58157 -4.685111,-3.09691 -7.709273,-4.55278 -3.030738,-1.44252 -5.472602,-2.5675 -7.312207,-3.36163 -1.84623,-0.78744 -2.766066,-1.31684 -2.766066,-1.58151 0,-0.52958 1.052164,-0.78749 3.163133,-0.78749 4.208604,0.26479 8.496714,1.7139 12.844355,4.34764 4.347574,2.6403 7.709207,5.20786 10.078273,7.70927 2.375641,2.51462 3.566775,4.29467 3.566775,5.34021 z M 62.129351,120.83539 c 1.581575,0 4.215246,0.66174 7.907774,1.972 3.685901,1.32346 8.364386,4.08954 14.035488,8.30484 5.664477,4.22187 10.210618,9.48928 13.638423,15.81556 1.052163,2.6403 1.581574,4.08955 1.581574,4.34758 0,0.79413 -0.264805,1.18456 -0.787508,1.18456 l -4.347574,-4.34764 C 79.394145,133.6202 68.587894,125.05726 61.738927,122.41695 c -0.794067,-0.26479 -1.184508,-0.6551 -1.184508,-1.18449 -0.0067,-0.25798 0.515943,-0.39689 1.574932,-0.39689 z m 17.397122,39.92933 c -2.110969,0 -5.737275,-0.59534 -10.878982,-1.78008 -5.135132,-1.18451 -7.709273,-2.43517 -7.709273,-3.75207 0,-0.52958 1.44923,-0.79407 4.34764,-0.79407 1.316836,0 3.222663,0.46324 5.737274,1.38301 2.501344,0.92646 4.678469,1.8463 6.524716,2.76607 1.839655,0.92646 2.766066,1.5154 2.766066,1.78012 0,0.271 -0.264789,0.39688 -0.787441,0.39688 z m 10.276789,-9.87979 c 0,-0.25797 0.257964,-0.39687 0.794067,-0.39687 0.787491,0 2.89846,1.72053 6.326282,5.14171 3.421159,3.4278 5.141709,6.0681 5.141709,7.90777 0,1.84623 -0.79414,2.76607 -2.369067,2.76607 -2.11092,0 -4.744641,-0.6551 -7.907791,-1.97863 -3.163066,-1.31683 -4.74464,-2.36901 -4.74464,-3.16308 0,-0.25796 0.396883,-0.39688 1.184508,-0.39688 0.794066,0 2.177141,0.2648 4.14914,0.79406 1.978558,0.5296 3.096894,0.78751 3.361566,0.78751 0.529595,0 0.794134,-0.25798 0.794134,-0.78751 0,-1.05209 -1.124961,-2.96456 -3.361633,-5.73727 -2.249939,-2.766 -3.368275,-4.40717 -3.368275,-4.93657 z" />
    <path
       style="display:inline;fill:#fd7e14;fill-opacity:1;stroke-width:6.61736"
       inkscape:connector-curvature="0"
       id="path72"
       d="m 126.17908,245.3747 c 0,0.78742 -0.52959,1.18449 -1.58157,1.18449 -0.53579,0 -1.25731,-0.33114 -2.17715,-0.98599 -0.92639,-0.65511 -1.64773,-0.85366 -2.17712,-0.59532 -0.26481,0 -2.63367,1.52196 -7.11366,4.54613 -4.48659,3.03075 -7.385,4.55278 -8.69526,4.55278 -0.78751,0 -1.18451,-0.39688 -1.18451,-1.19113 0,-0.26479 1.24404,-1.58158 3.75865,-3.95058 2.50139,-2.36906 3.75206,-3.6859 3.75206,-3.9572 0,-0.25798 -0.26479,-0.39688 -0.79407,-0.39688 -1.58156,0 -3.49396,0.19843 -5.73063,0.59532 -2.24332,0.39688 -3.49398,0.58912 -3.75208,0.58912 -0.794063,0 -1.19113,-0.25798 -1.19113,-0.79408 0,-1.83959 4.87704,-3.28884 14.63106,-4.34763 1.8396,-0.2648 3.02416,-0.91978 3.56013,-1.97857 0.52277,-1.05218 0.79407,-3.81825 0.79407,-8.30486 0,-1.83959 -0.19844,-3.75206 -0.59532,-5.73063 -0.39689,-1.97858 -0.58913,-3.09691 -0.58913,-3.36163 0,-0.52277 0.39689,-0.79409 1.18451,-0.79409 2.89846,0 5.00281,1.05881 6.32628,3.16309 0.25797,0.52957 0.39687,1.58155 0.39687,3.16313 0,5.53213 -0.66174,10.27679 -1.97857,14.23399 2.0977,1.59484 3.1565,3.044 3.1565,4.36091 z" />
    <path
       style="display:inline;fill:#fd7e14;fill-opacity:1;stroke-width:6.61736"
       inkscape:connector-curvature="0"
       id="path74"
       d="m 146.34227,235.48829 c 0,3.69252 0.32433,6.12769 0.98594,7.3122 0.65516,1.19114 2.23672,1.97863 4.74471,2.37564 2.50132,0.39689 4.67847,1.12496 6.52471,2.17713 0,0.2648 0.19844,0.52959 0.59532,0.78751 0.39688,0.27099 0.58911,0.53578 0.58911,0.79406 0,0.53579 -0.66173,0.79407 -1.97863,0.79407 -0.52959,0 -2.44181,-0.25796 -5.73065,-0.79407 -3.3021,-0.52277 -5.4726,-0.79406 -6.52476,-0.79406 -0.26481,0 -1.64775,0.98594 -4.14908,2.96456 -2.50797,1.97858 -4.41381,2.96458 -5.73727,2.96458 -0.52959,0 -0.78751,-0.39688 -0.78751,-1.19115 0,-0.26478 0.52277,-0.92639 1.58158,-1.97193 2.10432,-2.63374 2.76606,-3.9572 1.97862,-3.9572 -0.26479,0 -1.91903,0.66172 -4.94319,1.97856 -3.0308,1.32348 -5.07555,1.97864 -6.12772,1.97864 -0.79406,0 -1.1845,-0.25796 -1.1845,-0.79413 0,-0.79407 2.36901,-2.6999 7.11365,-5.73063 4.74469,-3.03076 7.12034,-6.52479 7.12034,-10.47536 0,-1.05216 -0.0664,-2.30283 -0.19844,-3.75207 -0.13267,-1.44252 -0.33114,-3.03074 -0.58912,-4.74464 -0.26479,-1.70726 -0.39689,-3.09034 -0.39689,-4.14908 -0.27098,-0.79413 0,-1.18456 0.78745,-1.18456 h 0.39688 c 4.47997,0 6.72326,1.32348 6.72326,3.95064 0,1.05874 -0.13883,2.96457 -0.39686,5.73728 -0.271,2.75942 -0.39689,4.67847 -0.39689,5.72401 z" />
    <path
       inkscape:connector-curvature="0"
       id="path76"
       d="m 93.753836,80.509004 c 0,-0.522769 -0.589124,-1.442538 -1.780075,-2.766066 -1.184508,-1.316836 -2.574141,-2.89841 -4.149074,-4.74464 C 86.243113,71.158626 85.058621,69.835165 84.264488,69.047724 73.451728,54.290899 68.051924,45.06629 68.051924,41.373812 c 0,-0.794133 0.396884,-1.191133 1.184508,-1.191133 0.529578,0 1.184492,0.396883 1.978575,1.191133 15.286202,22.929204 23.716745,34.397194 25.304895,34.397194 0.522769,0 0.794134,-0.264806 0.794134,-0.794134 0,-0.794083 -3.500603,-5.790178 -10.47534,-15.028072 C 79.850742,50.724124 76.36334,44.662647 76.36334,41.764187 c 0,-0.794067 0.396884,-1.191084 1.184508,-1.191084 0.522769,0 4.215296,5.009314 11.070906,15.028073 6.848985,10.018743 10.806184,15.028122 11.858346,15.028122 0.52277,0 0.78751,-0.132178 0.78751,-0.396883 0,-1.052164 -3.096978,-5.995371 -9.290849,-14.829556 C 85.773248,46.57525 82.68298,41.499698 82.68298,40.182862 c 0,-0.787491 0.396883,-1.184491 1.184508,-1.184491 1.052163,0 4.082902,4.221872 9.092265,12.652414 5.002754,8.437185 7.907787,12.652414 8.701857,12.652414 0.52277,0 0.78749,-0.257963 0.78749,-0.794067 0,-0.522769 -1.44923,-3.421162 -4.347623,-8.695214 -2.898411,-5.26746 -4.347641,-8.695265 -4.347641,-10.283482 0,-1.052097 0.257964,-1.581508 0.794134,-1.581508 0.794066,0 3.030738,3.890977 6.72321,11.659847 3.68591,7.775396 5.66453,11.666423 5.9292,11.666423 0.52277,0 0.78749,-0.529577 0.78749,-1.581558 0,-1.052163 -1.58155,-5.135082 -4.74469,-12.255364 -3.16308,-7.120332 -4.744636,-11.20325 -4.744636,-12.26204 0,-0.787507 0.396866,-1.184507 1.184491,-1.184507 0.522765,0 2.501345,3.824805 5.929215,11.467922 l 5.53207,11.461348 c 1.58157,2.110902 2.62716,2.766066 3.16313,1.978558 0,-0.264789 -1.64773,-5.995371 -4.94319,-17.198555 -3.29541,-11.196675 -4.94316,-18.64121 -4.94316,-22.333687 0,-1.581575 0.39688,-2.369066 1.18451,-2.369066 1.05216,0 3.09691,6.127699 6.12771,18.383113 3.03074,12.262056 4.94314,18.38313 5.73064,18.38313 1.05216,0 1.58157,-0.655164 1.58157,-1.978642 0,-1.052163 -1.18451,-5.598304 -3.56015,-13.638405 -2.36907,-8.040118 -3.5602,-14.690586 -3.5602,-19.964705 0,-2.633671 0.25798,-3.957132 0.78749,-3.957132 1.83961,0 3.81825,5.604879 5.92915,16.80813 2.10434,11.203234 3.42123,16.801555 3.95722,16.801555 0.78749,0 1.18456,-1.316836 1.18456,-3.957216 0,-1.052164 -0.46324,-5.002738 -1.38308,-11.858348 -0.92639,-6.848967 -1.38299,-11.461347 -1.38299,-13.836989 0,-4.215229 0.39687,-6.326198 1.18449,-6.326198 1.05218,0 2.10434,3.229305 3.16308,9.687848 1.05217,6.458593 1.58156,12.718636 1.58156,18.78018 0,3.957216 0.65511,5.929148 1.97864,5.929148 0.79407,0 1.18451,-2.104327 1.18451,-6.326215 0,-2.375642 -0.19845,-6.193871 -0.58912,-11.467906 -0.39689,-5.267477 -0.59532,-8.82761 -0.59532,-10.673857 0,-3.163132 0.39687,-4.744707 1.18449,-4.744707 1.31684,0 2.30284,5.274102 2.96458,15.815564 0.6551,10.548153 1.38306,15.815613 2.17713,15.815613 1.31683,0 1.97857,-3.957199 1.97857,-11.858414 0,-8.165803 0.25798,-12.255414 0.79407,-12.255414 1.83967,0 2.76608,4.221938 2.76608,12.652481 0,1.058806 -0.0664,2.766066 -0.19845,5.135082 -0.13883,2.369066 -0.19843,4.089544 -0.19843,5.141707 0,2.369066 0.6551,3.030805 1.97857,1.978625 0.52277,-0.264789 0.78749,-0.655163 0.78749,-1.184491 0.26479,-0.529595 0.79407,-2.633738 1.58158,-6.326282 0.78742,-3.685835 1.64109,-6.848968 2.5675,-9.489282 0.91983,-2.627163 1.91247,-3.950624 2.96463,-3.950624 0.78744,0 1.18451,0.926461 1.18451,2.766066 0,1.323461 -0.66174,4.149141 -1.97864,8.50334 -1.32346,4.347641 -1.97858,7.312207 -1.97858,8.893782 0,0.529594 0.39689,0.794067 1.18451,0.794067 0.79407,0 3.03074,-5.532066 6.72328,-16.609631 3.68591,-11.070839 6.06153,-16.602988 7.11371,-16.602988 0.79407,0 1.18449,1.971933 1.18449,5.929149 -0.26479,2.110969 -1.12496,5.274035 -2.57414,9.489348 -1.44923,4.221872 -2.76607,7.980571 -3.95062,11.269406 -1.18451,3.302053 -1.78008,5.075552 -1.78008,5.340224 0,0.787492 0.39688,1.184492 1.18451,1.184492 0.79413,0 3.36163,-5.340208 7.70927,-16.014047 4.35427,-10.673857 7.17988,-16.007489 8.50334,-16.007489 0.5296,0 0.79407,0.529578 0.79407,1.581559 0,2.905052 -1.78006,8.304856 -5.34021,16.21263 -3.56013,7.907773 -5.34021,12.394384 -5.34021,13.439922 0.26479,0.264789 0.5296,0.396867 0.79407,0.396867 0.78744,0 3.61975,-4.413796 8.50336,-13.241406 4.87039,-8.827609 7.57688,-13.241422 8.10627,-13.241422 0.79407,0 1.18451,0.535787 1.18451,1.581575 0,1.323461 -1.18451,4.479969 -3.56015,9.489348 -1.58156,2.905036 -3.2293,5.730632 -4.94321,8.503341 -1.7139,2.766066 -2.96456,4.810813 -3.752,6.127715 -0.79414,1.323461 -1.18456,2.110903 -1.18456,2.368999 0,0.529578 0.39688,0.794067 1.18456,0.794067 1.05218,0 3.56015,-3.361633 7.51072,-10.084848 3.95056,-6.723282 6.18723,-10.07834 6.72326,-10.07834 0.79409,0 1.18451,0.529578 1.18451,1.581558 0,2.11097 -1.84624,5.929216 -5.53215,11.46799 l -5.92919,8.298198 c 0,0.794083 0.25798,1.191084 0.78749,1.191084 0.52959,0 2.69991,-2.633672 6.52478,-7.907774 3.81823,-5.26741 6.26004,-7.90779 7.31221,-7.90779 0.52959,0 0.78744,0.529594 0.78744,1.581575 0,1.581574 -2.44182,5.082177 -7.31221,10.475339 -4.87705,5.40638 -7.31222,8.371012 -7.31222,8.893781 l 0.79408,0.794067 c 1.83965,0 7.11371,-4.347624 15.81555,-13.049481 7.90777,-8.695281 12.26205,-13.049481 13.04949,-13.049481 0.52958,0 0.79412,0.535787 0.79412,1.581558 0,2.898411 -4.28809,8.172446 -12.85098,15.815564 -8.56951,7.649677 -12.84434,11.600251 -12.84434,11.858347 0,0.529595 0.25797,0.787442 0.78743,0.787442 2.10434,0 7.84161,-4.215247 17.19862,-12.652431 9.35038,-8.430543 14.55826,-12.652415 15.61706,-12.652415 0.52958,0 0.79407,0.396884 0.79407,1.184508 0,1.852873 -5.00938,6.921766 -15.02812,15.226623 -10.01868,8.298198 -15.02143,12.718586 -15.02143,13.241339 0,0.787508 0.0621,1.184508 0.19845,1.184508 0.13201,0 0.45641,0 0.98599,0 0.78744,0 5.39318,-3.096911 13.83692,-9.290782 8.43061,-6.187245 13.30759,-9.290848 14.62448,-9.290848 0.52959,0 0.79408,0.264805 0.79408,0.794133 0,1.052164 -0.79408,2.236672 -2.36901,3.56015 -7.90778,5.796804 -15.02148,10.673839 -21.34775,14.624413 -2.37564,1.581575 -3.56015,2.766066 -3.56015,3.560133 0,0.794134 0.25798,1.184508 0.78751,1.184508 0.26479,0 3.75863,-2.104277 10.47534,-6.326215 6.72321,-4.21523 11.13045,-6.326199 13.24135,-6.326199 1.31691,0 1.58156,0.661739 0.7875,1.971999 -0.26479,0.794067 -1.972,2.051373 -5.13514,3.758633 -3.16306,1.713902 -6.59088,3.560199 -10.27679,5.532149 -3.6991,1.978624 -6.06816,3.361632 -7.12026,4.149124 -1.32355,1.323478 -0.92648,1.978574 1.18449,1.978574 0.52277,0 3.42118,-1.449163 8.69521,-4.34764 5.26748,-2.898394 8.82761,-4.3542 10.67386,-4.3542 1.31689,0 1.972,0.535787 1.972,1.581558 0,0.529594 -3.2293,2.243314 -9.68785,5.141708 -6.45861,2.89841 -9.68129,4.876985 -9.68129,5.929148 0,0.794134 0.52277,1.184558 1.58158,1.184558 0.26479,0 3.22266,-0.721319 8.9004,-2.177125 5.65786,-1.442604 8.89379,-2.177141 9.68123,-2.177141 2.10432,0 3.16313,0.535787 3.16313,1.581575 0,1.058789 -4.08954,2.507969 -12.25541,4.34764 -8.17245,1.846231 -12.25542,3.163066 -12.25542,3.950558 0,1.058739 0.39689,1.581574 1.18449,1.581574 1.31691,0 4.87041,-0.721335 10.67386,-2.170499 5.79023,-1.44923 9.35038,-2.177141 10.67384,-2.177141 1.3169,0 1.97864,0.396883 1.97864,1.184508 0,0.787491 -0.59532,1.382991 -1.78007,1.780058 -1.19114,0.396883 -3.62638,0.926478 -7.31221,1.581574 -3.6991,0.661739 -7.25268,1.515403 -10.67384,2.567564 -0.79413,0.26479 -1.38308,0.66174 -1.78008,1.18451 -0.39688,0.53578 -0.39688,0.98599 0,1.38301 0.39689,0.39686 0.98595,0.5891 1.78008,0.5891 1.31683,0 4.21523,-0.52277 8.69521,-1.58151 4.47997,-1.05216 7.11371,-1.58155 7.90778,-1.58155 1.3169,0 1.97862,0.39688 1.97862,1.18449 0,1.58157 -5.9292,3.30212 -17.78754,5.141708 -0.53579,0 -0.98601,0.2648 -1.38308,0.79408 -0.39687,0.52958 -0.39687,1.05216 0,1.58156 0.39688,0.52959 1.1184,0.79408 2.17714,0.79408 0.78749,0 2.96457,-0.39688 6.51814,-1.18451 3.56015,-0.79406 5.99537,-1.18451 7.31221,-1.18451 0.79407,0 1.18451,0.13884 1.18451,0.39689 0,1.32348 -2.90504,2.5675 -8.69522,3.75865 -5.79687,1.18449 -8.69528,2.1705 -8.69528,2.96463 0,0.79407 0.91984,1.18449 2.76607,1.18449 1.3169,0 3.42118,-0.39687 6.32621,-1.18449 l 4.34764,-0.79413 c 1.31691,0 1.97864,0.39688 1.97864,1.19113 0,1.32348 -3.75207,2.50797 -11.26942,3.56013 -7.51077,1.05881 -11.26942,2.50804 -11.26942,4.34764 0.25798,0.26481 0.65511,0.39689 1.18451,0.39689 0.52277,0 1.90577,-0.25797 4.14907,-0.79407 2.23667,-0.52277 3.8844,-0.78751 4.94321,-0.78751 1.58156,0 2.369,0.5296 2.369,1.58158 0,0.79406 -1.84623,1.44918 -5.53213,1.97857 -3.69248,0.52958 -6.06812,0.79414 -7.11366,0.79414 -1.32346,0 -1.97863,0.39688 -1.97863,1.18449 0,0.52959 0.39689,0.78744 1.1845,0.78744 1.05218,0 2.50141,-0.13201 4.34764,-0.39689 1.83967,-0.26478 2.89841,-0.39686 3.16313,-0.39686 1.05218,0 1.58157,0.39686 1.58157,1.18449 0,1.84625 -3.69917,2.76607 -11.0709,2.76607 -0.78751,0.2648 -1.18451,1.19115 -1.18451,2.76608 0.52959,0 1.44916,-0.0664 2.76607,-0.19845 1.31683,-0.13201 2.30284,-0.26479 2.96458,-0.39689 0.65509,-0.13201 1.11169,-0.0621 1.38306,0.19845 0,0.79407 -0.59532,1.38301 -1.78013,1.78008 -1.18451,0.39687 -2.76608,0.86022 -4.74466,1.38299 -1.97855,0.53579 -3.6263,1.32348 -4.94319,2.37564 -2.63374,2.36907 -5.47255,3.75208 -8.50335,4.14914 -3.03074,0.39689 -5.07554,0.7279 -6.1277,0.98599 -0.26481,0 -2.56752,1.91905 -6.92178,5.73065 -4.34765,3.82487 -8.63569,5.73063 -12.84436,5.73063 -1.05881,0 -2.89839,-0.45639 -5.53213,-1.38299 -2.63374,-0.91983 -4.61232,-1.38307 -5.92915,-1.38307 -0.78749,0 -2.36907,0.39688 -4.74471,1.18451 -2.369,0.79413 -4.34764,1.18449 -5.92913,1.18449 -2.90505,0 -5.53215,-1.11832 -7.90779,-3.36157 -2.37569,-2.23674 -3.69253,-3.4874 -3.9572,-3.75207 -0.26479,0 -1.5154,-0.33115 -3.75207,-0.98599 -2.2433,-0.65512 -4.08955,-1.31691 -5.53214,-1.97864 -1.4558,-0.6551 -2.177138,-1.38301 -2.177138,-2.17708 0,-0.52958 0.257964,-0.78749 0.794068,-0.78749 0.78751,0 1.972,0.33114 3.5602,0.98599 1.58151,0.66174 2.62711,0.98601 3.16308,0.98601 0.52277,0 0.78749,-0.25798 0.78749,-0.79409 0,-0.78749 -2.24329,-1.70732 -6.72326,-2.76606 -4.486614,-1.05216 -6.723285,-2.10433 -6.723285,-3.16313 0,-0.52277 0.396884,-0.79407 1.184508,-0.79407 1.052163,0 2.766066,0.271 5.141707,0.79407 l 3.56013,1.1845 c 1.31691,0 1.97864,-0.13217 1.97864,-0.39688 0,-1.58157 -0.92647,-2.36907 -2.76608,-2.36907 -10.812808,-1.8396 -16.212612,-3.81824 -16.212612,-5.92914 0,-0.7875 0.396884,-1.18456 1.184492,-1.18456 0.787507,0 3.222679,0.79413 7.312273,2.36906 4.082918,1.58156 6.657057,2.369 7.715847,2.369 0.78744,0 1.18451,-0.25796 1.18451,-0.78744 0,-0.79413 -0.98599,-1.58156 -2.96457,-2.36906 -1.978637,-0.79407 -4.486607,-1.71391 -7.510769,-2.76607 -3.030739,-1.05216 -5.472552,-2.10433 -7.312224,-3.16307 -5.009363,-3.16313 -10.018676,-7.24605 -15.028056,-12.25541 -5.009363,-5.00274 -7.510773,-8.165888 -7.510773,-9.489348 0,-1.05216 0.396884,-1.58157 1.184575,-1.58157 0.522752,0 3.29541,2.30947 8.298198,6.915198 5.002737,4.61894 8.30479,6.92179 9.886348,6.92179 0.529594,0 0.794083,-0.39689 0.794083,-1.19114 0,-0.52277 -0.860239,-1.4426 -2.567516,-2.76608 -1.720528,-1.31684 -3.891027,-3.16313 -6.524765,-5.53213 -2.640314,-2.368998 -4.877035,-4.877038 -6.723282,-7.510704 -0.787442,-1.05218 -1.250664,-1.978642 -1.383008,-2.766083 -0.132012,-0.794117 -0.132012,-1.44923 0,-1.978625 0.132011,-0.529594 0.33116,-0.794066 0.595333,-0.794066 0.529578,0 3.222663,2.706469 8.106274,8.10627 4.87041,5.406448 8.106273,8.106338 9.681206,8.106338 0.529594,0 0.794133,-0.25796 0.794133,-0.79413 0,-0.52277 -2.905036,-4.082898 -8.695264,-10.673838 -5.796821,-6.584312 -8.695215,-10.799558 -8.695215,-12.652431 0,-0.794066 0.257963,-1.184491 0.794067,-1.184491 0.522769,0 3.487335,3.103536 8.893781,9.290782 5.399738,6.200513 9.026109,9.29084 10.87234,9.29084 l 0.396883,-0.79413 c 0,-0.25798 -3.163132,-3.957145 -9.489348,-11.070852 -6.326199,-7.120349 -9.489348,-12.123086 -9.489348,-15.028122 0,-0.522769 0.132178,-0.787442 0.396883,-0.787442 0.794067,0 4.082902,3.752074 9.886349,11.269423 5.796821,7.510707 9.35702,11.269407 10.673856,11.269407 0.787491,0 1.184491,-0.264789 1.184491,-0.794117 0,-0.787441 -1.515336,-3.090285 -4.546124,-6.915157 -3.030755,-3.818229 -6.326215,-7.907773 -9.886365,-12.255414 -3.560199,-4.347641 -5.869668,-7.312207 -6.921765,-8.893781 -1.581575,-2.633722 -1.449247,-3.9572 0.396867,-3.9572 0.522769,0 3.685901,3.692544 9.489348,11.070923 5.796821,7.385004 9.489348,11.070906 11.070923,11.070906 0.542612,0.01165 0.807268,-0.119027 0.807268,-0.383865 z m 8.701904,20.560246 c -2.11097,0 -4.347638,0.85368 -6.723279,2.56759 -2.369066,1.72046 -3.560133,4.68511 -3.560133,8.89371 0,1.05879 0.198434,2.11097 0.589124,3.16313 0.396867,1.05881 1.449164,2.17715 3.163066,3.36164 1.713903,1.1845 3.884402,1.78007 6.524782,1.78007 7.37836,0 11.07091,-3.03074 11.07091,-9.09892 0,-2.8984 -1.12496,-5.39981 -3.36164,-7.51071 -2.23673,-2.0977 -4.80423,-3.15651 -7.70264,-3.15651 z m 0.39689,5.92915 c 2.63373,0 3.9572,1.58158 3.9572,4.74471 0,2.11097 -1.44917,3.16313 -4.34765,3.16313 -2.633666,0 -3.950552,-1.05216 -3.950552,-3.16313 -0.0067,-3.16313 1.435963,-4.74471 4.341002,-4.74471 z m 19.36912,-20.957247 c 0,-2.898411 -1.05881,-5.46591 -3.16314,-7.709224 -2.11091,-2.236671 -4.48654,-3.361632 -7.1137,-3.361632 -3.42781,0 -6.32622,0.985991 -8.69522,2.964566 -2.36901,1.978575 -3.560146,4.68511 -3.560146,8.10629 0,6.85561 3.818246,10.276839 11.461276,10.276839 2.89842,0 5.46598,-1.05217 7.70929,-3.163132 2.23666,-2.097702 3.36164,-4.473343 3.36164,-7.113707 z m -15.41855,0 c 0,-1.05218 0.52958,-2.104344 1.58156,-3.163083 1.05216,-1.052163 2.10434,-1.581574 3.16313,-1.581574 1.05218,0 2.03817,0.529594 2.96458,1.581574 0.91984,1.058739 1.38306,2.110903 1.38306,3.163083 0,2.369066 -1.58156,3.560199 -4.74471,3.560199 -2.89839,0 -4.34762,-1.184574 -4.34762,-3.560199 z m 25.3049,49.028227 c 0,-6.85561 -3.30204,-10.28341 -9.88635,-10.28341 -6.32622,0 -9.48935,2.76606 -9.48935,8.30484 0,2.63373 0.99263,5.00938 2.96457,7.1137 1.97864,2.1109 4.67853,3.16307 8.10635,3.16307 5.53871,0.007 8.30478,-2.75943 8.30478,-8.2982 z m -4.34758,-35.581678 c -2.90503,0 -5.2741,1.124958 -7.11371,3.361628 -1.84624,2.24331 -2.76606,4.81745 -2.76606,7.70927 0,6.59089 4.21523,9.88635 12.65241,9.88635 3.16314,0 5.59831,-1.18449 7.31221,-3.56013 1.70733,-2.369 2.56757,-4.60574 2.56757,-6.72328 0,-7.11371 -4.22188,-10.673838 -12.65242,-10.673838 z m -9.09235,34.794238 c 0,-2.63374 1.31691,-3.9572 3.95722,-3.9572 2.6271,0 3.95057,1.45581 3.95057,4.34764 0,2.1109 -1.1845,3.16307 -3.56015,3.16307 -2.90503,0 -4.34764,-1.18451 -4.34764,-3.55351 z m 22.92927,-69.985499 c 0,-1.839655 -0.86024,-3.685902 -2.56756,-5.532132 -1.72048,-1.839672 -3.89098,-2.766066 -6.52472,-2.766066 -7.64967,0 -11.46792,3.69246 -11.46792,11.070839 0,2.110969 0.98601,3.752074 2.96458,4.943208 1.97856,1.19115 3.8844,1.780074 5.73063,1.780074 2.89841,0 5.59831,-1.052163 8.10634,-3.163066 2.50799,-2.110969 3.75865,-4.215313 3.75865,-6.332857 z m -8.69521,46.262159 c 0,2.11092 -1.18456,3.16308 -3.5602,3.16308 -2.90504,0 -4.34757,-1.05216 -4.34757,-3.16308 0,-2.89839 1.31683,-4.34762 3.95057,-4.34762 2.63367,0 3.9572,1.44923 3.9572,4.34762 z m -1.58158,-41.907943 c -2.90503,0 -4.35426,-1.316836 -4.35426,-3.9572 0,-2.627112 1.7139,-3.950574 5.14171,-3.950574 2.37564,0 3.5602,1.184492 3.5602,3.560133 -0.007,2.898477 -1.45588,4.347641 -4.34765,4.347641 z m 9.48273,28.858465 c 0.79406,0 1.9124,-0.19843 3.36163,-0.58912 1.44916,-0.39687 3.09691,-1.58151 4.94321,-3.560133 1.8396,-1.978575 2.76606,-4.552783 2.76606,-7.709274 0,-3.421179 -0.98599,-5.862976 -2.96463,-7.312206 -1.97857,-1.449181 -3.89104,-2.177075 -5.73727,-2.177075 -2.369,0 -5.13509,0.794066 -8.29822,2.368999 -3.16306,1.581558 -4.74464,4.221872 -4.74464,7.907773 0,2.905036 1.05216,5.472602 3.16308,7.709274 2.10433,2.243312 4.60572,3.361642 7.51078,3.361642 z m 0.79406,-14.22741 c 2.89841,0 4.34764,1.323478 4.34764,3.950574 0,2.633739 -1.44923,3.9572 -4.34764,3.9572 -2.90503,0 -4.34764,-1.316836 -4.34764,-3.9572 0,-2.633738 1.44261,-3.950574 4.34764,-3.950574 z m 15.81555,50.603158 c 0,-2.89839 -1.25066,-5.00274 -3.75206,-6.3262 -2.50797,-1.31685 -4.94314,-1.97857 -7.3122,-1.97857 -5.79682,0 -8.69522,3.69248 -8.69522,11.07084 0,5.79687 2.8984,8.69528 8.69522,8.69528 1.31688,0 2.63372,-0.19843 3.9572,-0.59532 1.3169,-0.39688 2.82566,-1.5154 4.54614,-3.36163 1.7007,-1.83303 2.56092,-4.34102 2.56092,-7.50415 z m -9.48933,-1.58156 c 2.36907,0 3.5602,1.05879 3.5602,3.16314 0,3.16313 -1.32348,4.74464 -3.95722,4.74464 -2.36906,0 -3.56013,-1.44254 -3.56013,-4.34758 0,-2.37564 1.31684,-3.5602 3.95715,-3.5602 z m -3.56015,-24.90784 c 0,2.90504 1.05216,5.14171 3.16313,6.72328 2.10435,1.58156 4.47999,2.369 7.11371,2.369 6.59089,0 9.88636,-3.03074 9.88636,-9.09891 0,-2.36901 -0.85368,-4.54614 -2.56758,-6.52471 -1.7139,-1.978638 -3.89098,-2.964578 -6.51807,-2.964578 -3.43443,0 -6.1277,0.92641 -8.10634,2.766078 -1.9852,1.8528 -2.97121,4.0961 -2.97121,6.72984 z m 13.04948,-33.609681 c 1.83967,0 4.01675,-0.794134 6.52478,-2.375692 2.50135,-1.581508 3.75208,-4.082918 3.75208,-7.510723 0,-5.532132 -2.89848,-8.30484 -8.69528,-8.30484 -7.12029,0 -10.67384,3.030805 -10.67384,9.092348 0,2.905036 0.85366,5.141707 2.56756,6.723215 1.7139,1.588201 3.8844,2.375692 6.5247,2.375692 z m -2.37562,29.652481 c 2.62709,0 3.9572,1.58156 3.9572,4.74471 0,2.369 -1.45581,3.56013 -4.35422,3.56013 -2.36907,0 -3.5602,-1.31684 -3.5602,-3.95057 0.007,-2.89841 1.32348,-4.35427 3.95722,-4.35427 z m 2.76606,-34.787613 c -2.369,0 -3.56015,-1.184508 -3.56015,-3.560133 0,-2.89841 1.31684,-4.347641 3.95722,-4.347641 2.62709,0 3.9572,1.184492 3.9572,3.560133 0,2.898477 -1.45586,4.347641 -4.35427,4.347641 z m 2.77271,56.929443 c 0,1.84623 1.18449,3.56013 3.56013,5.14171 2.369,1.5815 4.34764,2.369 5.92922,2.369 2.369,0 4.54612,-0.85367 6.5247,-2.56757 1.972,-1.7139 2.96463,-3.49398 2.96463,-5.34021 0,-2.37564 -0.98599,-4.54614 -2.96463,-6.52478 -1.97858,-1.97857 -4.28805,-2.96457 -6.92177,-2.96457 -2.36901,0 -4.48661,1.05881 -6.32621,3.16314 -1.84625,2.11754 -2.76607,4.35421 -2.76607,6.72328 z m 1.972,-43.489521 c 0,6.068169 3.16307,9.098907 9.48928,9.098907 2.6271,0 5.06896,-0.853663 7.31227,-2.574142 2.23668,-1.707326 3.36157,-3.884401 3.36157,-6.524765 0,-6.326215 -3.03074,-9.489348 -9.09228,-9.489348 -3.16307,0 -5.79681,0.985991 -7.90777,2.964632 -2.11091,1.978575 -3.16307,4.149074 -3.16307,6.524716 z m 11.07084,42.304941 c 0,0.79414 -0.39687,1.58158 -1.18449,2.36907 -0.78751,0.78744 -1.44923,1.18451 -1.97858,1.18451 -2.63374,0 -3.9572,-0.91984 -3.9572,-2.76607 0,-2.89841 1.18449,-4.34764 3.56014,-4.34764 2.37564,0 3.56013,1.18449 3.56013,3.56013 z m -3.95056,-41.907874 c 0,-2.898411 1.31684,-4.347641 3.9572,-4.347641 2.369,0 3.56013,1.323461 3.56013,3.950574 0,2.640364 -1.44916,3.957199 -4.34762,3.957199 -2.12419,-0.0067 -3.16971,-1.191133 -3.16971,-3.560132 z m 9.48933,30.837034 c 7.12029,0 10.67386,-2.89841 10.67386,-8.69528 0,-2.369 -0.79407,-4.60567 -2.37564,-6.723278 -1.58156,-2.10433 -3.82487,-3.16307 -6.72328,-3.16307 -2.11097,0 -4.34763,0.78743 -6.72327,2.369 -2.369,1.58158 -3.56015,3.957198 -3.56015,7.120348 0,2.369 0.79408,4.48655 2.36902,6.3262 1.59477,1.84625 3.6991,2.76608 6.33946,2.76608 z m 1.58158,-4.7447 c -3.16313,0 -4.74471,-1.18451 -4.74471,-3.56015 0,-1.31684 0.52277,-2.43517 1.58158,-3.36164 1.05216,-0.91983 2.10432,-1.383 3.16313,-1.383 2.10432,0 3.16308,1.44918 3.16308,4.34757 0,2.64038 -1.05876,3.95722 -3.16308,3.95722 z"
       style="display:inline;fill:#f8f9fa;fill-opacity:1;stroke-width:6.61736" />
    <path
       style="display:inline;fill:#20c997;fill-opacity:1;stroke-width:6.61736"
       inkscape:connector-curvature="0"
       id="path78"
       d="m 149.10833,212.16201 c -2.11097,0 -5.2741,-0.39688 -9.48933,-1.18455 -4.22194,-0.78744 -7.25269,-1.18451 -9.09228,-1.18451 -1.32354,0 -3.95722,0.78749 -7.90784,2.36906 -3.95715,1.58151 -7.12028,2.37565 -9.4893,2.37565 -1.32346,0 -4.08952,-0.32434 -8.30484,-0.98601 -4.21529,-0.65517 -7.252674,-0.98599 -9.092279,-0.98599 -15.557517,0 -29.255469,2.24329 -41.113883,6.72326 -0.535787,-1.05216 -0.794067,-2.62709 -0.794067,-4.74469 0,-11.07085 3.685902,-20.6198 11.070906,-28.66648 7.378379,-8.04018 14.756758,-12.05691 22.141779,-12.05691 2.104327,0 4.479969,0.39687 7.120332,1.18449 2.627113,0.79407 4.082919,1.18451 4.347574,1.18451 1.052181,0 1.581578,-0.39688 1.581578,-1.18451 0,-0.25796 -0.330531,-0.8536 -0.986011,-1.78007 -0.661722,-0.91982 -0.985924,-1.51539 -0.985924,-1.78006 0,-1.31684 0.264788,-1.97858 0.794066,-1.97858 0.529595,0 1.184509,0.52958 1.978579,1.58151 0.79406,1.05881 1.5154,2.83887 2.17714,5.34028 0.65509,2.50796 0.98599,5.20786 0.98599,8.10627 0,1.32348 -0.0664,3.69912 -0.19844,7.12035 -0.13883,3.4278 -0.19845,5.53213 -0.19845,6.3262 0,8.95995 2.76607,13.43992 8.29822,13.43992 1.83965,0 5.00274,-0.85366 9.48935,-2.57421 4.47332,-1.70726 8.16587,-2.5675 11.0709,-2.5675 0.78745,0 1.70728,0.0664 2.76607,0.19844 1.05218,0.13883 1.83961,0.19845 2.36902,0.19845 4.21529,0 6.3262,-2.89842 6.3262,-8.69522 0,-1.83967 -1.12497,-3.61973 -3.36164,-5.34027 -2.24329,-1.71391 -4.41379,-2.57415 -6.52471,-2.57415 -2.63374,0 -5.7307,2.2433 -9.29085,6.72329 -3.56013,4.48661 -6.5247,6.72326 -8.90034,6.72326 -4.21531,0 -6.32628,-3.16313 -6.32628,-9.48935 0,-2.62709 0.72133,-6.32619 2.17714,-11.0709 1.4426,-4.74464 2.17714,-8.30479 2.17714,-10.67384 0,-3.16308 -0.72791,-5.46598 -2.17714,-6.91516 -1.45581,-1.44259 -2.96457,-2.30283 -4.54614,-2.56756 -1.58156,-0.26479 -2.37565,-0.52958 -2.37565,-0.79407 0,-0.5296 0.79409,-0.79407 2.37565,-0.79407 2.62709,0 5.00273,1.38301 7.1137,4.14908 2.10435,2.76606 3.42118,4.14912 3.95722,4.14912 0.52275,0 1.58151,-1.18456 3.16307,-3.5602 1.58157,-2.37564 3.95057,-4.67847 7.1137,-6.92178 3.16314,-2.23666 6.98138,-3.36163 11.46135,-3.36163 5.26741,0 9.62168,2.44181 13.04948,7.3122 3.42781,4.87705 5.26741,7.31221 5.53215,7.31221 l 5.92915,-1.58149 c 3.9572,-1.3169 8.82761,-1.97864 14.63104,-1.97864 7.90779,0 16.21263,4.08954 24.90784,12.26205 8.69528,8.17245 13.04955,18.32354 13.04955,30.43998 l -1.19113,6.72327 c -0.5296,0 -5.40645,-0.79407 -14.62448,-2.36907 -9.23126,-1.58151 -16.74196,-2.369 -22.53221,-2.369 -9.23125,0 -16.08022,0.13884 -20.5602,0.39688 -4.47997,0.26479 -7.51077,0.39068 -9.09227,0.39068 z m -74.326548,-3.1565 c 0,-1.05217 -1.581508,-1.58156 -4.744657,-1.58156 -2.369,0 -4.413797,0.27161 -6.127699,0.79407 -1.713903,0.53578 -2.898411,1.1845 -3.56015,1.97862 -0.661722,0.78744 -0.985991,1.44918 -0.985991,1.97195 0,1.05881 0.529594,1.58156 1.581575,1.58156 1.316836,0 3.957199,-0.58911 7.907773,-1.78006 3.950574,-1.19115 5.929149,-2.17714 5.929149,-2.96458 z m -13.049498,-6.72327 c 0,1.05879 1.316903,1.58156 3.957217,1.58156 1.839654,0 4.010153,-0.39688 6.524765,-1.18456 2.501344,-0.79406 3.752074,-1.44254 3.752074,-1.97857 0,-1.31684 -1.581575,-1.972 -4.744707,-1.972 -6.326216,-0.007 -9.489349,1.18451 -9.489349,3.55357 z m 11.46799,-11.86499 c -4.744707,0 -7.120349,0.78744 -7.120349,2.369 0,1.32348 2.368999,1.97864 7.120349,1.97864 4.21523,0 6.326199,-0.65516 6.326199,-1.97864 0,-1.57493 -2.110969,-2.369 -6.326199,-2.369 z m -1.19115,-5.13508 c 0,1.58151 2.89841,2.36902 8.701857,2.36902 1.839604,0 2.766066,-0.39689 2.766066,-1.18451 0,-2.10433 -2.243297,-3.16313 -6.723266,-3.16313 -3.156507,0 -4.744657,0.66173 -4.744657,1.97862 z m 5.935791,-5.9292 c 0,1.32348 2.501393,1.972 7.510706,1.972 1.581575,0 2.369066,-0.39688 2.369066,-1.18451 0,-1.58156 -1.978641,-2.36906 -5.929198,-2.36906 -2.633739,-0.007 -3.950574,0.52959 -3.950574,1.58157 z M 99.29261,206.2328 c -13.439922,0 -20.163204,0.66174 -20.163204,1.97857 0,1.05881 1.707277,1.58158 5.141708,1.58158 1.05218,0 3.030804,-0.0664 5.929215,-0.19843 2.898394,-0.13218 5.141707,-0.19845 6.723282,-0.19845 3.421159,0 5.141709,-0.52958 5.141709,-1.58156 -0.007,-1.04554 -0.93306,-1.58158 -2.77271,-1.58158 z m 1.19113,-4.34762 c 0,-2.10435 -5.141704,-3.16309 -15.425119,-3.16309 -3.163132,0 -4.744707,0.66174 -4.744707,1.97194 0,0.5358 0.132677,0.8603 0.396884,0.986 0.257963,0.13884 0.847021,0.26479 1.780074,0.39689 0.919819,0.13883 1.839655,0.19843 2.766066,0.19843 0.926462,0 2.435222,0 4.552767,0 2.104343,0 4.082918,0.13884 5.929148,0.39688 3.156508,0.271 4.744707,0 4.744707,-0.78749 z m -0.39688,-6.32622 c 0,-2.10433 -3.560133,-3.16313 -10.673839,-3.16313 -3.427805,0 -5.135082,0.66174 -5.135082,1.972 0,1.32346 4.082902,1.97862 12.255414,1.97862 2.362374,0 3.553507,-0.25796 3.553507,-0.78749 z m -12.652414,-7.11371 c 0,0.26479 1.70726,0.7279 5.135065,1.38306 3.42118,0.66174 5.399804,0.98601 5.929216,0.98601 1.052163,0 1.581553,-0.13268 1.581553,-0.39688 0,-0.52958 -0.396879,-1.05217 -1.184553,-1.58158 -0.794067,-0.52958 -1.978575,-1.05216 -3.56015,-1.58156 -1.581558,-0.52277 -3.163066,-0.79406 -4.744641,-0.79406 -2.104327,0.007 -3.15649,0.66836 -3.15649,1.9852 z m 2.766066,-5.92915 c 0,0.78745 1.383008,1.58151 4.149074,2.369 2.766066,0.78751 4.804237,1.18451 6.127714,1.18451 0.52275,0 0.78749,-0.25796 0.78749,-0.79407 0,-0.52276 -0.98601,-1.3169 -2.96463,-2.36899 -1.978575,-1.05218 -3.890977,-1.58158 -5.730649,-1.58158 -1.574932,0 -2.368999,0.39688 -2.368999,1.19113 z m 10.673858,-2.37564 c 0,-1.83965 -1.846249,-2.76606 -5.532151,-2.76606 -1.581574,0 -2.375641,0.26479 -2.375641,0.79406 0,0.79409 0.919836,1.44918 2.766066,1.972 1.839605,0.53579 3.163083,0.79409 3.957216,0.79409 0.79407,0 1.18451,-0.26481 1.18451,-0.79409 z m 8.30477,-7.51077 c 0,0.78751 -0.39688,1.18451 -1.18451,1.18451 -0.78742,0 -1.7139,-0.79407 -2.76606,-2.369 -1.05874,-1.58158 -1.58156,-2.89841 -1.58156,-3.95722 0,-0.52277 0.25796,-0.79406 0.78749,-0.79406 1.05216,0 2.10433,0.72791 3.16313,2.17714 1.04554,1.4558 1.58151,2.70647 1.58151,3.75863 z m 9.09235,17.3905 c 0,-1.58158 -0.92648,-2.369 -2.76608,-2.369 -2.11097,0 -3.16314,1.97857 -3.16314,5.9292 0,1.5815 0.5296,2.36899 1.58158,2.36899 0.52277,0 1.38301,-0.72131 2.56757,-2.17712 1.1845,-1.43596 1.78007,-2.69327 1.78007,-3.75207 z m 4.74464,3.9572 c 0,-1.31684 -0.39688,-1.97858 -1.18451,-1.97858 -1.0588,0 -2.30947,0.86024 -3.75207,2.56752 -1.45581,1.72052 -2.17713,3.1036 -2.17713,4.15576 0,1.05874 0.52958,1.58151 1.58156,1.58151 0.79409,0 1.9124,-0.79407 3.36165,-2.369 1.44259,-1.58815 2.1705,-2.89841 2.1705,-3.95721 z m -1.97857,-7.11371 c 0.52957,0 1.11833,-0.52958 1.78007,-1.58151 0.6551,-1.05216 0.98599,-1.83965 0.98599,-2.36907 0,-2.10432 -0.92646,-3.16306 -2.76606,-3.16306 -3.16314,0 -4.74471,1.32348 -4.74471,3.95715 0,2.10432 1.58157,3.15649 4.74471,3.15649 z m 8.30477,-20.95726 c 0,-1.05218 -0.79407,-1.58157 -2.37563,-1.58157 -2.63373,0 -3.95057,1.18456 -3.95057,3.5602 0,1.31683 0.78749,1.97195 2.369,1.97195 2.63374,0 3.9572,-1.31021 3.9572,-3.95058 z m -3.16307,13.44655 c 1.83961,0 2.76607,-1.05216 2.76607,-3.16313 0,-1.83961 -0.92646,-2.76607 -2.76607,-2.76607 -2.11097,0 -3.16313,1.05879 -3.16313,3.16314 0,1.83965 1.05216,2.76606 3.16313,2.76606 z m 0.78744,5.13507 c -0.52959,0 -1.11833,0.39688 -1.78007,1.19115 -0.66174,0.78749 -0.98601,1.44923 -0.98601,1.972 0,1.84623 0.91984,2.76606 2.76608,2.76606 1.83966,0 2.76607,-1.18451 2.76607,-3.56015 0,-1.57493 -0.92641,-2.36906 -2.76607,-2.36906 z m 5.14171,-25.3049 c -2.11092,0 -3.16308,0.79414 -3.16308,2.37564 0,1.58156 1.05216,2.36907 3.16308,2.36907 0.52275,0.26479 1.05217,0.19843 1.58156,-0.19845 0.52959,-0.39687 0.79407,-0.98599 0.79407,-1.78013 0,-1.8396 -0.79407,-2.76606 -2.37563,-2.76606 z m 0,14.63106 c 1.83966,0 2.76607,-0.91977 2.76607,-2.76607 0,-1.8396 -0.92641,-2.76606 -2.76607,-2.76606 -1.84624,0 -2.76608,0.92646 -2.76608,2.76606 0,1.8463 0.91984,2.76607 2.76608,2.76607 z m 3.55356,7.90777 c 0,-2.10433 -0.92646,-3.16307 -2.76607,-3.16307 -2.369,0 -3.56013,0.9264 -3.56013,2.76607 0,2.1109 1.05216,3.16307 3.16307,3.16307 2.11097,0 3.16313,-0.91977 3.16313,-2.76607 z m 1.97857,-9.09228 c -2.1109,0 -3.16306,1.05881 -3.16306,3.16315 -0.271,0.78742 0.0621,1.51533 0.98599,2.1705 0.91977,0.66172 1.64768,0.99257 2.17707,0.99257 2.10435,0 3.16314,-0.92642 3.16314,-2.76607 0,-2.37564 -1.05217,-3.56015 -3.16314,-3.56015 z m -0.39067,-3.9572 c 2.36907,0 3.5602,-1.05216 3.5602,-3.16308 0,-1.58156 -0.92646,-2.36907 -2.76607,-2.36907 -2.11097,0 -3.16313,1.05881 -3.16313,3.16315 -0.007,1.58156 0.78085,2.369 2.369,2.369 z m 0.78749,-11.46792 c -1.84623,0 -2.76606,0.66174 -2.76606,1.97857 0,1.32353 0.91983,1.97864 2.76606,1.97864 1.58158,0 2.369,-0.65511 2.369,-1.97864 0.007,-1.31683 -0.78742,-1.97857 -2.369,-1.97857 z m 11.46792,52.19138 c 1.58158,0 6.3858,-0.59534 14.43256,-1.78014 8.0401,-1.18449 15.47808,-1.78008 22.34026,-1.78008 3.6859,0 5.53215,-0.52958 5.53215,-1.58149 0,-2.10434 -2.50799,-3.16315 -7.51072,-3.16315 -2.90504,0 -7.38501,0.53579 -13.44655,1.58158 -6.06812,1.05874 -9.75402,1.58157 -11.07086,1.58157 -1.0588,0 -1.58155,-0.13268 -1.58155,-0.39688 0,-1.31684 3.42116,-2.69991 10.27677,-4.14914 6.85561,-1.44254 11.72602,-2.17708 14.63105,-2.17708 2.89841,0 4.34764,-0.65516 4.34764,-1.972 0,-1.31683 -1.32347,-1.97857 -3.95057,-1.97857 -2.64036,0 -6.65711,0.66174 -12.05691,1.97857 -5.40638,1.31684 -8.76802,1.972 -10.07828,1.972 -0.79408,0 -1.1845,-0.25796 -1.1845,-0.78749 0,-1.8396 6.06154,-3.69248 18.18456,-5.53877 2.89846,-0.25798 4.34764,-1.05212 4.34764,-2.36902 0,-0.79407 -0.79408,-1.19113 -2.36902,-1.19113 -1.84623,0 -5.20786,0.72791 -10.07827,2.17714 -4.88368,1.4558 -7.70927,2.17714 -8.50334,2.17714 -1.58157,0 -1.44925,-0.65516 0.39687,-1.97864 0.52277,-0.52277 1.05218,-0.91977 1.58157,-1.18451 1.58158,-0.52958 3.29548,-1.11832 5.14171,-1.78006 1.83967,-0.65509 3.22266,-1.11833 4.14914,-1.38301 0.91977,-0.26478 1.8396,-0.52959 2.76607,-0.79413 0.91977,-0.25796 1.51533,-0.59532 1.78007,-0.98599 0.26479,-0.39688 0.39688,-0.72127 0.39688,-0.98594 0,-0.79413 -0.66173,-1.18458 -1.97857,-1.18458 -1.58158,0 -4.28804,0.72798 -8.10629,2.17715 -3.82487,1.44923 -6.002,2.17714 -6.52477,2.17714 -0.79408,0 -1.1845,-0.13218 -1.1845,-0.39689 0,-0.79406 2.43517,-2.30282 7.3122,-4.55278 4.87704,-2.23665 7.31221,-3.61966 7.31221,-4.14906 0,-0.79408 -0.52958,-1.1845 -1.58156,-1.1845 -0.79407,0 -3.03074,0.98599 -6.72328,2.96456 -3.69248,1.97858 -6.06812,2.96458 -7.11364,2.96458 -0.53579,0 -0.79413,-0.25798 -0.79413,-0.79408 0,-1.05216 2.17714,-2.69989 6.52476,-4.94321 4.34764,-2.23665 6.52472,-3.75863 6.52472,-4.54614 0,-0.52958 -0.52958,-0.79406 -1.58151,-0.79406 -1.8463,0 -4.14913,0.72791 -6.92177,2.17714 -2.76608,1.44916 -5.07555,2.83224 -6.9152,4.14907 l -3.16315,1.97864 c -1.05874,0 -1.58149,-0.52959 -1.58149,-1.58157 0,-0.25798 0.45641,-1.11834 1.38299,-2.56757 0.91983,-1.44918 1.38307,-2.43517 1.38307,-2.96458 0,-1.05216 -0.78751,-1.58156 -2.36906,-1.58156 -1.58158,0 -4.48655,2.37564 -8.69522,7.12035 -4.22194,4.74464 -6.32626,7.51071 -6.32626,8.30477 0,0.26479 1.78012,1.51541 5.34025,3.75208 3.56015,2.24329 5.34023,5.4726 5.34023,9.68785 0,3.95057 -1.18451,7.1137 -3.56015,9.48934 2.0977,0.52958 3.94393,0.78749 5.5255,0.78749 z M 147.12964,169.857 c 0,-1.58151 -1.18451,-2.36902 -3.56013,-2.36902 -0.52959,0 -1.18451,0.39689 -1.972,1.18451 -0.79408,0.79413 -1.18451,1.58157 -1.18451,2.36907 0,1.5815 1.05217,2.369 3.16314,2.369 0.79406,0 1.5815,-0.39689 2.37564,-1.1845 0.7808,-0.78086 1.17786,-1.57495 1.17786,-2.36906 z m -2.369,-11.4613 c -1.84624,0 -2.76606,1.05881 -2.76606,3.16308 0,1.32353 0.79406,1.972 2.369,1.972 2.369,0 3.56013,-0.91983 3.56013,-2.76606 0,-1.58158 -1.05874,-2.36902 -3.16307,-2.36902 z m 7.11371,7.11371 c 0,-1.31689 -0.66174,-1.97863 -1.97864,-1.97863 -1.58156,0 -2.369,0.66174 -2.369,1.97863 0,1.58151 0.6551,2.37564 1.97857,2.37564 1.58158,0 2.36907,-0.79413 2.36907,-2.37564 z m 12.65241,-7.51078 c 7.37838,-8.1658 15.02813,-14.75674 22.92927,-19.77276 7.90778,-5.00274 13.96932,-7.51071 18.19119,-7.51071 1.58158,0 2.369,0.5296 2.369,1.58158 0,0.53579 -0.26479,0.92639 -0.78742,1.18449 -1.32348,1.05881 -4.08955,2.56757 -8.30484,4.54614 -4.22189,1.97858 -6.98796,3.36165 -8.30486,4.14907 -5.27403,3.42781 -10.07827,6.72329 -14.43249,9.88642 -4.35426,3.16313 -7.37838,5.34021 -9.09228,6.52472 -1.72053,1.18455 -2.83224,1.78012 -3.36163,1.78012 -1.05217,0 -0.78749,-0.78749 0.79406,-2.36907 z m 13.44657,16.60306 c 0,1.0588 0.52275,1.58157 1.58156,1.58157 6.85561,0 10.28341,-0.91983 10.28341,-2.76606 0,-1.05217 -1.0588,-1.58158 -3.16313,-1.58158 -1.32348,0 -3.10354,0.33053 -5.34021,0.98601 -2.24331,0.66172 -3.36163,1.25731 -3.36163,1.78006 z m 0.39067,-17.00006 c 0,-0.25796 1.51534,-1.5154 4.54614,-3.7587 3.03074,-2.23667 6.72327,-4.47334 11.07086,-6.72328 4.34762,-2.23667 7.70927,-3.36163 10.08491,-3.36163 2.36905,0 3.56014,0.39688 3.56014,1.19113 0,0.78749 -8.83419,4.87704 -26.48941,12.25542 -2.11754,1.0588 -3.03738,1.19113 -2.77264,0.39688 z m 15.02806,20.56021 c -6.06812,0 -9.09228,1.05216 -9.09228,3.16313 0,0.79407 0.78744,1.19113 2.369,1.19113 0.7875,0 2.23667,-0.0664 4.34764,-0.19843 2.10434,-0.13218 3.42118,-0.19845 3.95057,-0.19845 1.58158,0 2.37564,-0.52275 2.37564,-1.58156 0,-1.58157 -1.32348,-2.37564 -3.95057,-2.37564 z m -7.91442,-16.60306 c 0,-0.26479 0.85367,-0.85359 2.57421,-1.78007 1.7139,-0.91977 3.8844,-1.78008 6.52472,-2.57414 2.63372,-0.78749 4.87039,-1.18449 6.72326,-1.18449 2.36907,0 3.95722,0.78742 4.74471,2.369 0.26479,0.52957 0.13218,0.86028 -0.39688,0.98599 -0.52958,0.13217 -1.71391,0.19845 -3.56014,0.19845 -2.90503,0.26479 -5.60494,0.5891 -8.10634,0.98599 -2.50798,0.39688 -4.28804,0.72791 -5.3402,0.99263 -1.05881,0.26481 -1.71391,0.39688 -1.972,0.39688 -0.79409,0.007 -1.19115,-0.12585 -1.19115,-0.39067 z m 3.95722,26.88647 c 0,1.05881 3.42123,1.58158 10.28341,1.58158 2.36907,0 3.5602,-0.39689 3.5602,-1.18451 0,-1.58157 -2.11097,-2.37564 -6.32628,-2.37564 -5.01594,0 -7.51733,0.66174 -7.51733,1.97857 z m 19.76619,9.09228 c 0,-2.36899 -3.42788,-3.56014 -10.27686,-3.56014 -2.11097,0 -3.56013,0.13883 -4.34762,0.39688 -0.79409,0.27161 -1.05874,0.79407 -0.79409,1.58157 0,0.79407 1.91242,1.51534 5.73729,2.17708 3.81823,0.66174 6.2534,0.98599 7.31221,0.98599 1.58156,0 2.36907,-0.52958 2.36907,-1.58156 z m -2.36907,6.32627 c -2.11092,-0.52277 -4.34764,-0.79413 -6.72328,-0.79413 -2.37564,0 -3.56013,0.39688 -3.56013,1.18457 0,2.37563 4.0829,3.95713 12.25541,4.74464 1.31684,0.26479 1.97857,-0.13218 1.97857,-1.18451 0.007,-2.10432 -1.32347,-3.42123 -3.95057,-3.95057 z" />
  </g>
</svg>
